<?xml version="1.0" encoding="utf-8"?>
<!-- Generator: Adobe Illustrator 24.1.1, SVG Export Plug-In . SVG Version: 6.00 Build 0)  -->
<svg version="1.1" id="Слой_1" xmlns="http://www.w3.org/2000/svg" xmlns:xlink="http://www.w3.org/1999/xlink" x="0px" y="0px"
	 width="40px" height="40px" viewBox="0 0 40 40" style="enable-background:new 0 0 40 40;" xml:space="preserve">
<style type="text/css">
	.st0{fill:#5A585A;}
</style>
<g>
	<path class="st0" d="M18.25,26c-0.414,0-0.75-0.326-0.75-0.727v-6.545c0-0.402,0.336-0.727,0.75-0.727
		c0.415,0,0.75,0.326,0.75,0.727v6.545C19,25.674,18.665,26,18.25,26z"/>
	<path class="st0" d="M21.75,26C21.336,26,21,25.674,21,25.273v-6.545C21,18.326,21.336,18,21.75,18c0.415,0,0.75,0.326,0.75,0.727
		v6.545C22.5,25.674,22.165,26,21.75,26z"/>
	<path class="st0" d="M25.778,29H14.222c-0.399,0-0.722-0.29-0.722-0.649V16.649C13.5,16.29,13.823,16,14.222,16
		c0.399,0,0.722,0.29,0.722,0.649v11.054h10.111V16.649c0-0.358,0.323-0.649,0.722-0.649c0.399,0,0.722,0.29,0.722,0.649v11.703
		C26.5,28.71,26.176,29,25.778,29z"/>
	<path class="st0" d="M18.507,15H17v-3.247C17,11.337,17.337,11,17.753,11l0,0c0.416,0,0.753,0.337,0.753,0.753V15z"/>
	<path class="st0" d="M23,15h-1.507v-3.247c0-0.416,0.337-0.753,0.753-0.753l0,0C22.663,11,23,11.337,23,11.753V15z"/>
	<path class="st0" d="M22.25,12.5h-4.5c-0.414,0-0.75-0.336-0.75-0.75v0c0-0.414,0.336-0.75,0.75-0.75h4.5
		c0.414,0,0.75,0.336,0.75,0.75v0C23,12.164,22.664,12.5,22.25,12.5z"/>
	<path class="st0" d="M27.25,15h-14.5C12.336,15,12,14.664,12,14.25v0c0-0.414,0.336-0.75,0.75-0.75h14.5
		c0.414,0,0.75,0.336,0.75,0.75v0C28,14.664,27.664,15,27.25,15z"/>
</g>
</svg>
