<?xml version="1.0" encoding="utf-8"?>
<!-- Generator: Adobe Illustrator 24.1.1, SVG Export Plug-In . SVG Version: 6.00 Build 0)  -->
<svg version="1.1" id="Слой_1" xmlns="http://www.w3.org/2000/svg" xmlns:xlink="http://www.w3.org/1999/xlink" x="0px" y="0px"
	 width="40px" height="40px" viewBox="0 0 40 40" style="enable-background:new 0 0 40 40;" xml:space="preserve">
<style type="text/css">
	.st0{fill:#59585A;}
</style>
<path id="SVGID_1_" class="st0" d="M14.261,27.229V12.753l11.356,7.239L14.261,27.229z M26.49,19.062l-11.968-7.877
	C13.814,10.795,13,10.968,13,12.237v15.509c0,1.26,0.873,1.484,1.522,1.053l11.968-7.877C27.18,20.429,27.16,19.514,26.49,19.062z"
	/>
<g>
	<rect x="24" y="24" class="st0" width="2" height="2"/>
	<rect x="27" y="24" class="st0" width="2" height="2"/>
	<rect x="30" y="24" class="st0" width="2" height="2"/>
	<rect x="24" y="27" class="st0" width="2" height="2"/>
	<rect x="27" y="27" class="st0" width="2" height="2"/>
	<rect x="30" y="27" class="st0" width="2" height="2"/>
	<rect x="24" y="30" class="st0" width="2" height="2"/>
	<rect x="27" y="30" class="st0" width="2" height="2"/>
	<rect x="30" y="30" class="st0" width="2" height="2"/>
</g>
</svg>
