<?xml version="1.0" encoding="utf-8"?>
<!-- Generator: Adobe Illustrator 24.1.1, SVG Export Plug-In . SVG Version: 6.00 Build 0)  -->
<svg version="1.1" id="Слой_1" xmlns="http://www.w3.org/2000/svg" xmlns:xlink="http://www.w3.org/1999/xlink" x="0px" y="0px"
	 width="40px" height="40px" viewBox="0 0 40 40" style="enable-background:new 0 0 40 40;" xml:space="preserve">
<style type="text/css">
	.st0{fill:#59585A;}
</style>
<g>
	<g>
		<path id="SVGID_1_" class="st0" d="M14.261,27.229V12.753l11.356,7.239L14.261,27.229z M26.49,19.062l-11.968-7.877
			C13.814,10.795,13,10.968,13,12.237v15.509c0,1.26,0.873,1.484,1.522,1.053l11.968-7.877C27.18,20.429,27.16,19.514,26.49,19.062z
			"/>
	</g>
</g>
<g>
	<path class="st0" d="M31.582,25.871l-3.619,4.111l-0.013-0.013l-0.004,0.004l-1.986-1.834c-0.255-0.236-0.279-0.643-0.055-0.91
		l0.035-0.042c0.225-0.267,0.613-0.293,0.868-0.058l1.059,0.979l2.773-3.149c0.24-0.273,0.645-0.29,0.906-0.038
		C31.806,25.173,31.822,25.599,31.582,25.871z"/>
	<path class="st0" d="M31,28.139v2.802c0,0.033-0.027,0.06-0.06,0.06L25,30.94L25.06,25l4.254,0.043L30.233,24H25.06
		C24.476,24,24,24.476,24,25.061v5.88c0,0.584,0.476,1.06,1.06,1.06h5.88c0.584,0,1.06-0.476,1.06-1.06v-3.938L31,28.139z"/>
</g>
</svg>
