<?xml version="1.0" encoding="utf-8"?>
<!-- Generator: Adobe Illustrator 24.1.1, SVG Export Plug-In . SVG Version: 6.00 Build 0)  -->
<svg version="1.1" id="Слой_1" xmlns="http://www.w3.org/2000/svg" xmlns:xlink="http://www.w3.org/1999/xlink" x="0px" y="0px"
	 width="40px" height="40px" viewBox="0 0 40 40" style="enable-background:new 0 0 40 40;" xml:space="preserve">
<style type="text/css">
	.st0{fill:#585759;}
</style>
<g>
	<g>
		<path class="st0" d="M28.5,16.131l-0.053-4.236c-0.006-0.502-0.345-0.902-0.756-0.894l0,0c-0.411,0.008-0.74,0.42-0.734,0.922
			l0.053,4.236c0.006,0.502,0.345,0.902,0.756,0.894l0,0C28.178,17.044,28.507,16.632,28.5,16.131z"/>
		<path class="st0" d="M23.449,17.143l4.171-0.053c0.494-0.006,0.888-0.35,0.88-0.768l0,0c-0.007-0.418-0.414-0.752-0.907-0.745
			l-4.171,0.053c-0.494,0.006-0.888,0.35-0.88,0.768l0,0C22.549,16.816,22.955,17.149,23.449,17.143z"/>
		<g>
			<path class="st0" d="M12.294,18.95c-0.047,0-0.094-0.004-0.142-0.012c-0.431-0.077-0.717-0.482-0.64-0.906
				c0.781-4.25,4.692-7.271,9.071-7.016c3.127,0.178,5.935,2.006,7.328,4.771c0.194,0.386,0.034,0.854-0.358,1.045
				c-0.395,0.192-0.868,0.033-1.062-0.352c-1.141-2.264-3.44-3.761-5.999-3.907c-3.577-0.191-6.78,2.262-7.418,5.736
				C13.004,18.685,12.67,18.95,12.294,18.95z"/>
		</g>
	</g>
	<g>
		<path class="st0" d="M11.5,23.869l0.053,4.236c0.006,0.502,0.345,0.902,0.756,0.894l0,0c0.411-0.008,0.74-0.42,0.734-0.922
			l-0.053-4.236c-0.006-0.502-0.345-0.902-0.756-0.894l0,0C11.822,22.956,11.493,23.368,11.5,23.869z"/>
		<path class="st0" d="M16.551,22.857L12.38,22.91c-0.494,0.006-0.888,0.35-0.88,0.768l0,0c0.007,0.418,0.414,0.752,0.907,0.745
			l4.171-0.053c0.494-0.006,0.888-0.35,0.88-0.768l0,0C17.451,23.184,17.045,22.851,16.551,22.857z"/>
		<g>
			<path class="st0" d="M27.706,21.05c0.047,0,0.094,0.004,0.142,0.012c0.431,0.077,0.717,0.482,0.64,0.906
				c-0.781,4.25-4.692,7.271-9.071,7.016c-3.127-0.178-5.935-2.006-7.328-4.771c-0.194-0.386-0.034-0.854,0.358-1.045
				c0.395-0.192,0.868-0.033,1.062,0.352c1.141,2.264,3.44,3.761,5.999,3.907c3.577,0.191,6.78-2.262,7.418-5.736
				C26.996,21.315,27.33,21.05,27.706,21.05z"/>
		</g>
	</g>
</g>
</svg>
