<?xml version="1.0" encoding="utf-8"?>
<!-- Generator: Adobe Illustrator 24.1.1, SVG Export Plug-In . SVG Version: 6.00 Build 0)  -->
<svg version="1.1" id="Слой_1" xmlns="http://www.w3.org/2000/svg" xmlns:xlink="http://www.w3.org/1999/xlink" x="0px" y="0px"
	 width="40px" height="40px" viewBox="0 0 40 40" style="enable-background:new 0 0 40 40;" xml:space="preserve">
<style type="text/css">
	.st0{fill:#FFFFFF;fill-opacity:0;}
	.st1{fill:#59585A;}
</style>
<rect class="st0" width="40" height="40"/>
<path class="st1" d="M21.829,23c-2.463,1.815-5.931,1.29-7.746-1.174c-1.815-2.463-1.29-5.931,1.174-7.746
	c0.951-0.701,2.101-1.079,3.283-1.08c3.06-0.005,5.544,2.471,5.549,5.531c0.002,1.162-0.362,2.295-1.039,3.239l3.67,3.64
	c0.362,0.349,0.372,0.925,0.023,1.287c-0.008,0.008-0.015,0.016-0.023,0.023c-0.354,0.365-0.936,0.373-1.301,0.019
	c-0.006-0.006-0.013-0.013-0.019-0.019L21.829,23 M18.639,22.72c2.375-0.011,4.291-1.945,4.28-4.32s-1.945-4.291-4.32-4.28
	c-2.367,0.011-4.28,1.933-4.28,4.3c0,2.375,1.925,4.3,4.3,4.3C18.626,22.721,18.633,22.72,18.639,22.72"/>
</svg>
