<svg width="16" height="16" viewBox="0 0 16 16" fill="none" xmlns="http://www.w3.org/2000/svg">
  <g mask="url(#mask0_351_658)">
    <path d="M7.99998 9.23472L4.88405 12.3507C4.71786 12.5168 4.51206 12.5999 4.26665 12.5999C4.02124 12.5999 3.81544 12.5168 3.64925 12.3507C3.48306 12.1845 3.39996 11.9787 3.39996 11.7333C3.39996 11.4878 3.48306 11.282 3.64925 11.1159L6.76518 7.99992L3.64925 4.88399C3.48306 4.7178 3.39996 4.512 3.39996 4.26659C3.39996 4.02117 3.48306 3.81537 3.64925 3.64919C3.81544 3.483 4.02124 3.3999 4.26665 3.3999C4.51206 3.3999 4.71786 3.483 4.88405 3.64919L7.99998 6.76512L11.1159 3.64919C11.2821 3.483 11.4879 3.3999 11.7333 3.3999C11.9787 3.3999 12.1845 3.483 12.3507 3.64919C12.5169 3.81537 12.6 4.02117 12.6 4.26659C12.6 4.512 12.5169 4.7178 12.3507 4.88399L9.23478 7.99992L12.3507 11.1159C12.5169 11.282 12.6 11.4878 12.6 11.7333C12.6 11.9787 12.5169 12.1845 12.3507 12.3507C12.1845 12.5168 11.9787 12.5999 11.7333 12.5999C11.4879 12.5999 11.2821 12.5168 11.1159 12.3507L7.99998 9.23472Z" fill="#B6BBC2"/>
  </g>
</svg>