<svg width="16" height="16" viewBox="0 0 16 16" fill="none" xmlns="http://www.w3.org/2000/svg">
  <g mask="url(#mask0_351_624)">
    <path d="M6.4452 11.7888C6.01786 11.7888 5.6537 11.643 5.3527 11.3513C5.05171 11.0597 4.90122 10.7068 4.90122 10.2928V2.49602C4.90122 2.08196 5.05171 1.72911 5.3527 1.43746C5.6537 1.14582 6.01786 1 6.4452 1H12.4559C12.8832 1 13.2474 1.14582 13.5484 1.43746C13.8494 1.72911 13.9999 2.08196 13.9999 2.49602V10.2928C13.9999 10.7068 13.8494 11.0597 13.5484 11.3513C13.2474 11.643 12.8832 11.7888 12.4559 11.7888H6.4452ZM6.4452 10.2928H12.4559V2.49602H6.4452V10.2928ZM3.54386 14.6C3.11653 14.6 2.75236 14.4542 2.45137 14.1625C2.15037 13.8709 1.99988 13.518 1.99988 13.104V4.55922C1.99988 4.34934 2.07436 4.17217 2.22333 4.02772C2.37241 3.88338 2.55526 3.81121 2.77187 3.81121C2.98848 3.81121 3.17133 3.88338 3.32041 4.02772C3.46938 4.17217 3.54386 4.34934 3.54386 4.55922V13.104H10.3265C10.5432 13.104 10.726 13.1761 10.8751 13.3205C11.0241 13.4649 11.0985 13.6421 11.0985 13.852C11.0985 14.0619 11.0241 14.239 10.8751 14.3835C10.726 14.5278 10.5432 14.6 10.3265 14.6H3.54386Z" fill="#FFFFFF"/>
  </g>
</svg>