<svg width="110" height="128" viewBox="0 0 110 128" fill="none" xmlns="http://www.w3.org/2000/svg">
<path d="M16.7847 75.6468H83.2153C86.9903 75.6468 88.8778 75.6468 90.3197 74.9351C91.588 74.309 92.6191 73.3101 93.2653 72.0814C94 70.6846 94 68.8561 94 65.199V21.1589C94 17.5019 94 15.6734 93.2653 14.2766C92.6191 13.0479 91.588 12.049 90.3197 11.4229C88.8778 10.7112 86.9903 10.7112 83.2153 10.7112H46.7702C44.7574 10.7112 42.183 10.5298 39.6553 8.67064C37.1277 6.81146 39.2809 8.39857 36.6128 6.40334C33.9447 4.40811 32.5841 4 30.2468 4H16.7847C13.0097 4 11.1222 4 9.68034 4.71171C8.41204 5.33775 7.38089 6.33668 6.73466 7.56535C6 8.96216 6 10.7907 6 14.4477V65.199C6 68.8561 6 70.6846 6.73466 72.0814C7.38089 73.3101 8.41204 74.309 9.68034 74.9351C11.1222 75.6468 13.0097 75.6468 16.7847 75.6468Z" fill="url(#paint0_linear_2967_1714)"/>
<path d="M93.719 65.199C93.719 67.0324 93.7188 68.3899 93.6282 69.4642C93.5378 70.535 93.3592 71.2992 93.0166 71.9506C92.3986 73.1257 91.4115 74.0828 90.1953 74.6831C89.5198 75.0165 88.7275 75.19 87.6202 75.2777C86.5099 75.3656 85.1073 75.3658 83.2153 75.3658H16.7847C14.8927 75.3658 13.4901 75.3656 12.3798 75.2777C11.2725 75.19 10.4802 75.0165 9.80472 74.6831C8.58854 74.0828 7.60143 73.1257 6.98337 71.9506C6.64076 71.2992 6.46216 70.535 6.37185 69.4642C6.28125 68.3899 6.28101 67.0323 6.28101 65.199V15.0644V14.4477C6.28101 12.6144 6.28125 11.2569 6.37185 10.1826C6.46216 9.1118 6.64076 8.34757 6.98337 7.69616C7.60143 6.52105 8.58854 5.56401 9.80472 4.9637C10.4802 4.63026 11.2725 4.45674 12.3798 4.3691C13.4901 4.28122 14.8927 4.28101 16.7847 4.28101H16.7848H16.7851H16.7856H16.7863H16.7872H16.7884H16.7897H16.7912H16.7929H16.7948H16.797H16.7993H16.8018H16.8045H16.8074H16.8105H16.8139H16.8174H16.821H16.8249H16.829H16.8333H16.8378H16.8424H16.8473H16.8523H16.8575H16.8629H16.8686H16.8743H16.8803H16.8865H16.8929H16.8994H16.9061H16.913H16.9201H16.9274H16.9348H16.9425H16.9503H16.9583H16.9665H16.9749H16.9834H16.9921H17.001H17.0101H17.0193H17.0288H17.0384H17.0481H17.0581H17.0682H17.0785H17.089H17.0996H17.1104H17.1214H17.1325H17.1439H17.1553H17.167H17.1788H17.1908H17.203H17.2153H17.2278H17.2404H17.2532H17.2662H17.2794H17.2927H17.3061H17.3198H17.3335H17.3475H17.3616H17.3759H17.3903H17.4048H17.4196H17.4345H17.4495H17.4647H17.4801H17.4956H17.5112H17.5271H17.543H17.5591H17.5754H17.5918H17.6084H17.6251H17.642H17.659H17.6761H17.6934H17.7109H17.7285H17.7462H17.7641H17.7821H17.8003H17.8186H17.8371H17.8557H17.8744H17.8933H17.9123H17.9314H17.9507H17.9702H17.9897H18.0094H18.0293H18.0492H18.0693H18.0896H18.1099H18.1304H18.1511H18.1719H18.1927H18.2138H18.2349H18.2562H18.2776H18.2992H18.3209H18.3427H18.3646H18.3866H18.4088H18.4311H18.4535H18.4761H18.4987H18.5215H18.5444H18.5675H18.5906H18.6139H18.6373H18.6608H18.6844H18.7081H18.732H18.756H18.78H18.8042H18.8286H18.853H18.8775H18.9022H18.927H18.9518H18.9768H19.0019H19.0271H19.0524H19.0779H19.1034H19.129H19.1548H19.1806H19.2066H19.2326H19.2588H19.285H19.3114H19.3379H19.3645H19.3911H19.4179H19.4448H19.4717H19.4988H19.526H19.5532H19.5806H19.608H19.6356H19.6632H19.691H19.7188H19.7467H19.7747H19.8029H19.8311H19.8593H19.8877H19.9162H19.9447H19.9734H20.0021H20.031H20.0599H20.0889H20.1179H20.1471H20.1763H20.2057H20.2351H20.2646H20.2941H20.3238H20.3535H20.3834H20.4133H20.4432H20.4733H20.5034H20.5336H20.5639H20.5943H20.6247H20.6552H20.6858H20.7164H20.7471H20.7779H20.8088H20.8398H20.8708H20.9018H20.933H20.9642H20.9955H21.0268H21.0583H21.0897H21.1213H21.1529H21.1846H21.2163H21.2481H21.28H21.3119H21.3439H21.3759H21.4081H21.4402H21.4725H21.5047H21.5371H21.5695H21.6019H21.6344H21.667H21.6996H21.7323H21.765H21.7978H21.8306H21.8635H21.8965H21.9294H21.9625H21.9956H22.0287H22.0619H22.0951H22.1284H22.1617H22.195H22.2285H22.2619H22.2954H22.3289H22.3625H22.3962H22.4298H22.4635H22.4973H22.5311H22.5649H22.5987H22.6326H22.6666H22.7006H22.7346H22.7686H22.8027H22.8368H22.8709H22.9051H22.9393H22.9736H23.0079H23.0422H23.0765H23.1109H23.1452H23.1797H23.2141H23.2486H23.2831H23.3176H23.3522H23.3867H23.4213H23.456H23.4906H23.5253H23.56H23.5947H23.6294H23.6641H23.6989H23.7337H23.7685H23.8033H23.8382H23.873H23.9079H23.9428H23.9777H24.0126H24.0475H24.0824H24.1174H24.1523H24.1873H24.2223H24.2573H24.2923H24.3273H24.3623H24.3973H24.4323H24.4674H24.5024H24.5375H24.5725H24.6076H24.6426H24.6777H24.7127H24.7478H24.7828H24.8179H24.853H24.888H24.9231H24.9581H24.9932H25.0282H25.0632H25.0983H25.1333H25.1683H25.2033H25.2383H25.2733H25.3083H25.3433H25.3783H25.4132H25.4482H25.4831H25.5181H25.553H25.5879H25.6228H25.6576H25.6925H25.7273H25.7621H25.797H25.8317H25.8665H25.9013H25.936H25.9707H26.0054H26.0401H26.0747H26.1093H26.1439H26.1785H26.2131H26.2476H26.2821H26.3166H26.351H26.3855H26.4199H26.4542H26.4886H26.5229H26.5572H26.5914H26.6256H26.6598H26.6939H26.7281H26.7622H26.7962H26.8302H26.8642H26.8981H26.932H26.9659H26.9997H27.0335H27.0673H27.101H27.1347H27.1683H27.2019H27.2354H27.2689H27.3024H27.3358H27.3692H27.4025H27.4358H27.469H27.5022H27.5353H27.5684H27.6015H27.6345H27.6674H27.7003H27.7331H27.7659H27.7986H27.8313H27.864H27.8965H27.929H27.9615H27.9939H28.0263H28.0586H28.0908H28.123H28.1551H28.1871H28.2191H28.2511H28.283H28.3148H28.3465H28.3782H28.4098H28.4414H28.4729H28.5043H28.5357H28.5669H28.5982H28.6293H28.6604H28.6914H28.7224H28.7533H28.7841H28.8148H28.8455H28.8761H28.9066H28.937H28.9674H28.9977H29.0279H29.058H29.0881H29.1181H29.148H29.1778H29.2076H29.2372H29.2668H29.2963H29.3258H29.3551H29.3844H29.4135H29.4426H29.4716H29.5005H29.5294H29.5581H29.5868H29.6154H29.6438H29.6722H29.7005H29.7287H29.7569H29.7849H29.8128H29.8407H29.8684H29.8961H29.9237H29.9511H29.9785H30.0058H30.0329H30.06H30.087H30.1139H30.1407H30.1674H30.1939H30.2204H30.2468C31.3977 4.28101 32.2861 4.38151 33.2096 4.71753C34.1377 5.05524 35.1193 5.6374 36.4445 6.62839C37.7931 7.63694 37.9062 7.72743 38.0213 7.81527C38.1328 7.90041 38.2463 7.98308 39.4888 8.89702C42.0897 10.8101 44.7387 10.9922 46.7702 10.9922H46.7824H46.7953H46.8089H46.8233H46.8384H46.8542H46.8708H46.8881H46.906H46.9248H46.9442H46.9643H46.9851H47.0067H47.0289H47.0518H47.0755H47.0998H47.1248H47.1505H47.1769H47.2039H47.2317H47.2601H47.2892H47.3189H47.3493H47.3804H47.4121H47.4445H47.4775H47.5112H47.5455H47.5805H47.6161H47.6524H47.6893H47.7268H47.7649H47.8037H47.8431H47.8831H47.9237H47.965H48.0068H48.0493H48.0924H48.136H48.1803H48.2252H48.2706H48.3167H48.3633H48.4105H48.4583H48.5067H48.5556H48.6051H48.6552H48.7059H48.7571H48.8089H48.8612H48.9141H48.9675H49.0215H49.076H49.1311H49.1867H49.2429H49.2996H49.3568H49.4145H49.4728H49.5315H49.5908H49.6507H49.711H49.7718H49.8332H49.895H49.9573H50.0202H50.0835H50.1473H50.2117H50.2765H50.3417H50.4075H50.4737H50.5404H50.6076H50.6753H50.7434H50.8119H50.881H50.9505H51.0204H51.0908H51.1616H51.2329H51.3046H51.3768H51.4493H51.5224H51.5958H51.6697H51.744H51.8187H51.8938H51.9693H52.0453H52.1217H52.1984H52.2756H52.3531H52.4311H52.5095H52.5882H52.6673H52.7468H52.8267H52.907H52.9876H53.0687H53.15H53.2318H53.3139H53.3964H53.4792H53.5624H53.6459H53.7298H53.814H53.8986H53.9835H54.0687H54.1543H54.2402H54.3264H54.413H54.4998H54.587H54.6745H54.7623H54.8505H54.9389H55.0276H55.1167H55.206H55.2956H55.3855H55.4757H55.5662H55.657H55.748H55.8394H55.9309H56.0228H56.1149H56.2073H56.3H56.3929H56.4861H56.5795H56.6732H56.7671H56.8613H56.9557H57.0503H57.1452H57.2403H57.3356H57.4311H57.5269H57.6229H57.7191H57.8155H57.9122H58.009H58.1061H58.2033H58.3008H58.3984H58.4962H58.5943H58.6925H58.7909H58.8894H58.9882H59.0871H59.1862H59.2854H59.3849H59.4845H59.5842H59.6841H59.7842H59.8844H59.9847H60.0852H60.1859H60.2867H60.3876H60.4886H60.5898H60.6911H60.7925H60.8941H60.9957H61.0975H61.1994H61.3014H61.4035H61.5057H61.608H61.7104H61.8129H61.9155H62.0182H62.1209H62.2238H62.3267H62.4297H62.5328H62.6359H62.7391H62.8424H62.9457H63.0491H63.1525H63.256H63.3596H63.4631H63.5668H63.6704H63.7741H63.8779H63.9817H64.0855H64.1893H64.2931H64.397H64.5009H64.6048H64.7087H64.8126H64.9165H65.0204H65.1243H65.2282H65.3321H65.436H65.5399H65.6437H65.7476H65.8514H65.9552H66.0589H66.1626H66.2663H66.37H66.4736H66.5772H66.6807H66.7841H66.8876H66.9909H67.0942H67.1975H67.3006H67.4038H67.5068H67.6098H67.7126H67.8154H67.9182H68.0208H68.1234H68.2258H68.3282H68.4304H68.5326H68.6347H68.7366H68.8385H68.9402H69.0418H69.1433H69.2447H69.3459H69.4471H69.5481H69.6489H69.7496H69.8502H69.9507H70.051H70.1511H70.2511H70.3509H70.4506H70.5501H70.6495H70.7487H70.8477H70.9466H71.0452H71.1437H71.2421H71.3402H71.4381H71.5359H71.6334H71.7308H71.828H71.9249H72.0217H72.1182H72.2146H72.3107H72.4066H72.5023H72.5977H72.693H72.788H72.8828H72.9773H73.0716H73.1656H73.2595H73.353H73.4464H73.5394H73.6322H73.7248H73.8171H73.9091H74.0008H74.0923H74.1835H74.2745H74.3651H74.4555H74.5456H74.6354H74.7249H74.8141H74.903H74.9916H75.0799H75.1679H75.2556H75.3429H75.43H75.5167H75.6031H75.6892H75.775H75.8604H75.9455H76.0303H76.1147H76.1988H76.2825H76.3659H76.449H76.5316H76.614H76.6959H76.7775H76.8587H76.9396H77.0201H77.1002H77.1799H77.2593H77.3383H77.4168H77.495H77.5728H77.6502H77.7272H77.8038H77.88H77.9558H78.0312H78.1061H78.1807H78.2548H78.3285H78.4017H78.4746H78.547H78.6189H78.6905H78.7616H78.8322H78.9024H78.9722H79.0415H79.1103H79.1787H79.2466H79.314H79.381H79.4475H79.5136H79.5791H79.6442H79.7088H79.7729H79.8366H79.8997H79.9623H80.0245H80.0861H80.1472H80.2078H80.268H80.3276H80.3866H80.4452H80.5033H80.5608H80.6178H80.6742H80.7301H80.7855H80.8404H80.8947H80.9484H81.0016H81.0543H81.1064H81.158H81.2089H81.2594H81.3092H81.3585H81.4072H81.4553H81.5029H81.5499H81.5962H81.642H81.6873H81.7319H81.7759H81.8193H81.8621H81.9043H81.9459H81.9869H82.0273H82.0671H82.1062H82.1447H82.1826H82.2198H82.2565H82.2925H82.3278H82.3625H82.3966H82.43H82.4628H82.4949H82.5263H82.5571H82.5872H82.6167H82.6455H82.6736H82.7011H82.7279H82.754H82.7794H82.8041H82.8281H82.8515H82.8741H82.8961H82.9173H82.9379H82.9577H82.9768H82.9952H83.0129H83.0299H83.0462H83.0617H83.0765H83.0906H83.1039H83.1165H83.1283H83.1395H83.1498H83.1594H83.1683H83.1764H83.1838H83.1904H83.1962H83.2012H83.2055H83.209H83.2118H83.2137H83.2149H83.2153C85.1073 10.9922 86.5099 10.9924 87.6202 11.0803C88.7275 11.168 89.5198 11.3415 90.1953 11.6749C91.4115 12.2752 92.3986 13.2323 93.0166 14.4074C93.3592 15.0588 93.5378 15.823 93.6282 16.8938C93.7188 17.9681 93.719 19.3256 93.719 21.1589V65.199Z" stroke="url(#paint1_linear_2967_1714)" stroke-opacity="0.07" stroke-width="0.562025"/>
<g filter="url(#filter0_ddii_2967_1714)">
<rect x="6" y="17" width="88" height="59" rx="6.7443" fill="url(#paint2_linear_2967_1714)"/>
</g>
<rect x="6.00003" y="65.8203" width="88.0506" height="1.68608" fill="white" fill-opacity="0.1"/>
<rect x="6.00003" y="65.8203" width="88.0506" height="1.68608" fill="url(#paint3_linear_2967_1714)"/>
<rect x="6.00008" y="67.5078" width="88.0506" height="1.12405" fill="url(#paint4_linear_2967_1714)"/>
<rect x="6" y="69" width="88.0506" height="1.68608" fill="white" fill-opacity="0.1"/>
<rect x="6" y="69" width="88.0506" height="1.68608" fill="url(#paint5_linear_2967_1714)"/>
<rect x="6.00005" y="70.6875" width="88.0506" height="1.12405" fill="url(#paint6_linear_2967_1714)"/>
<defs>
<filter id="filter0_ddii_2967_1714" x="0.00506353" y="9.50633" width="99.9899" height="70.9899" filterUnits="userSpaceOnUse" color-interpolation-filters="sRGB">
<feFlood flood-opacity="0" result="BackgroundImageFix"/>
<feColorMatrix in="SourceAlpha" type="matrix" values="0 0 0 0 0 0 0 0 0 0 0 0 0 0 0 0 0 0 127 0" result="hardAlpha"/>
<feOffset dy="-1.49873"/>
<feGaussianBlur stdDeviation="2.99747"/>
<feComposite in2="hardAlpha" operator="out"/>
<feColorMatrix type="matrix" values="0 0 0 0 0 0 0 0 0 0.509804 0 0 0 0 0.792157 0 0 0 1 0"/>
<feBlend mode="multiply" in2="BackgroundImageFix" result="effect1_dropShadow_2967_1714"/>
<feColorMatrix in="SourceAlpha" type="matrix" values="0 0 0 0 0 0 0 0 0 0 0 0 0 0 0 0 0 0 127 0" result="hardAlpha"/>
<feOffset dy="-1.49873"/>
<feGaussianBlur stdDeviation="2.99747"/>
<feComposite in2="hardAlpha" operator="out"/>
<feColorMatrix type="matrix" values="0 0 0 0 0.479055 0 0 0 0 0.495433 0 0 0 0 0.52 0 0 0 0.25 0"/>
<feBlend mode="multiply" in2="effect1_dropShadow_2967_1714" result="effect2_dropShadow_2967_1714"/>
<feBlend mode="normal" in="SourceGraphic" in2="effect2_dropShadow_2967_1714" result="shape"/>
<feColorMatrix in="SourceAlpha" type="matrix" values="0 0 0 0 0 0 0 0 0 0 0 0 0 0 0 0 0 0 127 0" result="hardAlpha"/>
<feOffset dy="-2.99747"/>
<feGaussianBlur stdDeviation="5.99494"/>
<feComposite in2="hardAlpha" operator="arithmetic" k2="-1" k3="1"/>
<feColorMatrix type="matrix" values="0 0 0 0 0.0156863 0 0 0 0 0.529412 0 0 0 0 0.807843 0 0 0 0.43 0"/>
<feBlend mode="multiply" in2="shape" result="effect3_innerShadow_2967_1714"/>
<feColorMatrix in="SourceAlpha" type="matrix" values="0 0 0 0 0 0 0 0 0 0 0 0 0 0 0 0 0 0 127 0" result="hardAlpha"/>
<feOffset dy="0.749367"/>
<feGaussianBlur stdDeviation="0.374684"/>
<feComposite in2="hardAlpha" operator="arithmetic" k2="-1" k3="1"/>
<feColorMatrix type="matrix" values="0 0 0 0 1 0 0 0 0 1 0 0 0 0 1 0 0 0 0.3 0"/>
<feBlend mode="normal" in2="effect3_innerShadow_2967_1714" result="effect4_innerShadow_2967_1714"/>
</filter>
<linearGradient id="paint0_linear_2967_1714" x1="50" y1="4" x2="50" y2="80" gradientUnits="userSpaceOnUse">
<stop stop-color="#3FA1D4"/>
<stop offset="0.24463" stop-color="#2B99D1"/>
</linearGradient>
<linearGradient id="paint1_linear_2967_1714" x1="50" y1="12.6158" x2="50" y2="20.9141" gradientUnits="userSpaceOnUse">
<stop stop-color="#2E2E2E"/>
<stop offset="1" stop-color="#303030" stop-opacity="0"/>
</linearGradient>
<linearGradient id="paint2_linear_2967_1714" x1="50" y1="17" x2="50" y2="76" gradientUnits="userSpaceOnUse">
<stop stop-color="#71CDF8"/>
<stop offset="1" stop-color="#73CFF9"/>
</linearGradient>
<linearGradient id="paint3_linear_2967_1714" x1="50.0253" y1="65.8203" x2="50.0253" y2="67.5064" gradientUnits="userSpaceOnUse">
<stop stop-color="white" stop-opacity="0.1"/>
<stop offset="1" stop-color="#086290" stop-opacity="0.2"/>
</linearGradient>
<linearGradient id="paint4_linear_2967_1714" x1="50.0254" y1="67.5078" x2="50.0254" y2="68.6319" gradientUnits="userSpaceOnUse">
<stop stop-opacity="0.06"/>
<stop offset="1" stop-opacity="0"/>
</linearGradient>
<linearGradient id="paint5_linear_2967_1714" x1="50.0253" y1="69" x2="50.0253" y2="70.6861" gradientUnits="userSpaceOnUse">
<stop stop-color="white" stop-opacity="0.1"/>
<stop offset="1" stop-color="#086290" stop-opacity="0.2"/>
</linearGradient>
<linearGradient id="paint6_linear_2967_1714" x1="50.0254" y1="70.6875" x2="50.0254" y2="71.8116" gradientUnits="userSpaceOnUse">
<stop stop-opacity="0.06"/>
<stop offset="1" stop-opacity="0"/>
</linearGradient>
</defs>
</svg>
