<svg width="88" height="108" viewBox="0 0 88 108" fill="none" xmlns="http://www.w3.org/2000/svg">
<g clip-path="url(#clip0_1265_122)">
<g mask="url(#mask0_1265_122)">
<path d="M73.8644 54.243V1.52339C73.8644 0.685547 73.1769 0 72.3367 0H8.59466C8.2097 0 7.89789 0.310922 7.89789 0.694828V89.7472C7.89789 90.5892 8.58874 91.2786 9.43362 91.2786H14.4158C14.4522 91.2786 14.4869 91.2895 14.5182 91.3081C14.6307 91.3739 14.7619 91.411 14.9015 91.411H79.1377C79.6707 91.411 80.1031 90.9799 80.1031 90.4483V62.1873C80.1031 61.9646 80.0079 61.7401 79.8552 61.5777C77.2186 58.776 76.2121 57.6564 74.6454 56.1157C74.1437 55.623 73.8644 54.9454 73.8644 54.243Z" fill="url(#paint0_linear_1265_122)"/>
<path d="M29.7706 107.862L8.15777 91.4422C7.99362 91.3173 7.89716 91.1241 7.89716 90.9191V0.660165C7.89716 0.109618 8.53769 -0.19835 8.97345 0.142525L32.4648 18.5287C32.6243 18.6536 32.7178 18.8443 32.7178 19.0464V76.0362C32.7178 76.1488 32.6886 76.2598 32.6332 76.3581L30.9244 79.3846C30.869 79.4829 30.8398 79.5938 30.8398 79.7065V107.338C30.8398 107.886 30.2081 108.195 29.7706 107.862Z" fill="url(#paint1_linear_1265_122)"/>
</g>
</g>
<defs>
<linearGradient id="paint0_linear_1265_122" x1="7.89776" y1="45.7057" x2="80.1029" y2="45.7057" gradientUnits="userSpaceOnUse">
<stop stop-color="#D9B85F"/>
<stop offset="0.3474" stop-color="#E2C165"/>
<stop offset="0.9173" stop-color="#F9DE85"/>
</linearGradient>
<linearGradient id="paint1_linear_1265_122" x1="20.3077" y1="108" x2="20.3077" y2="-6.38961e-05" gradientUnits="userSpaceOnUse">
<stop stop-color="#FAE091"/>
<stop offset="1" stop-color="#FAE6A4"/>
</linearGradient>
<clipPath id="clip0_1265_122">
<rect width="88" height="108" fill="white"/>
</clipPath>
</defs>
</svg>
