<svg width="90" height="108" viewBox="0 0 90 108" fill="none" xmlns="http://www.w3.org/2000/svg">
<path d="M11.7655 74H78.2344C82.0115 74 83.9001 74 85.3428 73.2649C86.6118 72.6183 87.6436 71.5866 88.2902 70.3175C89.0252 68.8749 89.0252 66.9863 89.0252 63.2091V17.7225C89.0252 13.9454 89.0252 12.0568 88.2902 10.6141C87.6436 9.34508 86.6118 8.31333 85.3428 7.66673C83.9001 6.93165 82.0115 6.93165 78.2344 6.93165H41.7683C39.7544 6.93165 37.1784 6.7443 34.6493 4.82405C32.1202 2.9038 34.2746 4.54304 31.605 2.48228C28.9354 0.421519 27.574 0 25.2354 0H11.7655C7.98833 0 6.09975 2.98023e-07 4.65706 0.735085C3.38804 1.38168 2.35629 2.41343 1.70969 3.68245C0.974609 5.12514 0.974609 7.01372 0.974609 10.7909V63.2091C0.974609 66.9863 0.974609 68.8749 1.70969 70.3175C2.35629 71.5866 3.38804 72.6183 4.65706 73.2649C6.09975 74 7.98833 74 11.7655 74Z" fill="url(#paint0_linear_2615_347)"/>
<path d="M88.7442 63.2091C88.7442 65.1023 88.744 66.5053 88.6533 67.6159C88.5628 68.7231 88.3838 69.5148 88.0398 70.19C87.4201 71.4061 86.4314 72.3949 85.2152 73.0145C84.5401 73.3585 83.7484 73.5376 82.6411 73.628C81.5306 73.7188 80.1276 73.719 78.2344 73.719H11.7655C9.87228 73.719 8.46926 73.7188 7.35873 73.628C6.25149 73.5376 5.45977 73.3585 4.78464 73.0145C3.56849 72.3949 2.57974 71.4061 1.96008 70.19C1.61609 69.5148 1.43704 68.7231 1.34657 67.6159C1.25584 66.5053 1.25562 65.1023 1.25562 63.2091V11.4278V10.7909C1.25562 8.89767 1.25584 7.49465 1.34657 6.38412C1.43704 5.27688 1.61609 4.48516 1.96008 3.81003C2.57974 2.59388 3.56849 1.60513 4.78464 0.98547C5.45977 0.641476 6.25148 0.462431 7.35873 0.371965C8.46926 0.281231 9.87228 0.281013 11.7655 0.281013H11.7656H11.7659H11.7664H11.7671H11.7681H11.7692H11.7705H11.772H11.7737H11.7757H11.7778H11.7801H11.7826H11.7853H11.7883H11.7914H11.7947H11.7982H11.8019H11.8058H11.8099H11.8141H11.8186H11.8233H11.8281H11.8332H11.8384H11.8438H11.8494H11.8552H11.8612H11.8674H11.8737H11.8803H11.887H11.8939H11.901H11.9083H11.9158H11.9234H11.9312H11.9392H11.9474H11.9558H11.9643H11.973H11.9819H11.991H12.0003H12.0097H12.0193H12.0291H12.039H12.0492H12.0595H12.0699H12.0806H12.0914H12.1024H12.1136H12.1249H12.1364H12.148H12.1599H12.1719H12.184H12.1964H12.2088H12.2215H12.2343H12.2473H12.2605H12.2738H12.2872H12.3009H12.3147H12.3286H12.3427H12.357H12.3714H12.386H12.4008H12.4157H12.4307H12.4459H12.4613H12.4768H12.4925H12.5083H12.5243H12.5404H12.5567H12.5731H12.5897H12.6064H12.6233H12.6403H12.6575H12.6748H12.6922H12.7098H12.7276H12.7455H12.7635H12.7817H12.8H12.8185H12.8371H12.8558H12.8747H12.8937H12.9129H12.9322H12.9516H12.9712H12.9909H13.0108H13.0308H13.0509H13.0711H13.0915H13.112H13.1327H13.1535H13.1744H13.1954H13.2166H13.2379H13.2593H13.2809H13.3026H13.3244H13.3463H13.3684H13.3905H13.4129H13.4353H13.4578H13.4805H13.5033H13.5262H13.5493H13.5725H13.5957H13.6191H13.6427H13.6663H13.69H13.7139H13.7379H13.762H13.7862H13.8106H13.835H13.8596H13.8842H13.909H13.9339H13.9589H13.984H14.0092H14.0346H14.06H14.0855H14.1112H14.1369H14.1628H14.1888H14.2148H14.241H14.2673H14.2937H14.3202H14.3467H14.3734H14.4002H14.4271H14.4541H14.4812H14.5084H14.5356H14.563H14.5905H14.618H14.6457H14.6735H14.7013H14.7292H14.7573H14.7854H14.8136H14.8419H14.8703H14.8988H14.9274H14.956H14.9848H15.0136H15.0426H15.0716H15.1007H15.1298H15.1591H15.1884H15.2179H15.2474H15.277H15.3067H15.3364H15.3662H15.3962H15.4261H15.4562H15.4864H15.5166H15.5469H15.5773H15.6077H15.6382H15.6688H15.6995H15.7302H15.7611H15.7919H15.8229H15.8539H15.885H15.9162H15.9474H15.9787H16.0101H16.0415H16.073H16.1046H16.1362H16.1679H16.1997H16.2315H16.2634H16.2953H16.3273H16.3594H16.3915H16.4237H16.456H16.4883H16.5206H16.553H16.5855H16.618H16.6506H16.6833H16.716H16.7487H16.7815H16.8144H16.8473H16.8802H16.9132H16.9463H16.9794H17.0125H17.0457H17.079H17.1123H17.1456H17.179H17.2124H17.2459H17.2794H17.313H17.3466H17.3802H17.4139H17.4476H17.4814H17.5152H17.549H17.5829H17.6168H17.6508H17.6848H17.7188H17.7529H17.787H17.8211H17.8553H17.8895H17.9237H17.958H17.9922H18.0266H18.0609H18.0953H18.1297H18.1642H18.1986H18.2331H18.2676H18.3022H18.3368H18.3713H18.406H18.4406H18.4753H18.51H18.5447H18.5794H18.6141H18.6489H18.6837H18.7185H18.7533H18.7882H18.823H18.8579H18.8928H18.9277H18.9626H18.9975H19.0325H19.0674H19.1024H19.1374H19.1724H19.2074H19.2424H19.2774H19.3124H19.3475H19.3825H19.4176H19.4526H19.4877H19.5227H19.5578H19.5929H19.6279H19.663H19.6981H19.7332H19.7683H19.8033H19.8384H19.8735H19.9086H19.9436H19.9787H20.0138H20.0488H20.0839H20.1189H20.154H20.189H20.224H20.259H20.2941H20.3291H20.364H20.399H20.434H20.469H20.5039H20.5388H20.5738H20.6087H20.6435H20.6784H20.7133H20.7481H20.783H20.8178H20.8526H20.8873H20.9221H20.9568H20.9915H21.0262H21.0609H21.0955H21.1301H21.1647H21.1993H21.2339H21.2684H21.3029H21.3374H21.3718H21.4062H21.4406H21.475H21.5093H21.5436H21.5779H21.6121H21.6463H21.6805H21.7146H21.7487H21.7828H21.8168H21.8508H21.8848H21.9187H21.9526H21.9864H22.0202H22.054H22.0877H22.1214H22.1551H22.1887H22.2223H22.2558H22.2893H22.3227H22.3561H22.3894H22.4227H22.456H22.4892H22.5223H22.5554H22.5885H22.6215H22.6545H22.6874H22.7202H22.753H22.7858H22.8185H22.8511H22.8837H22.9163H22.9488H22.9812H23.0135H23.0459H23.0781H23.1103H23.1424H23.1745H23.2065H23.2385H23.2704H23.3022H23.334H23.3657H23.3973H23.4289H23.4604H23.4919H23.5232H23.5545H23.5858H23.617H23.6481H23.6791H23.7101H23.741H23.7718H23.8025H23.8332H23.8638H23.8944H23.9248H23.9552H23.9855H24.0158H24.0459H24.076H24.106H24.1359H24.1658H24.1955H24.2252H24.2548H24.2843H24.3138H24.3431H24.3724H24.4016H24.4307H24.4597H24.4887H24.5175H24.5463H24.575H24.6035H24.632H24.6605H24.6888H24.717H24.7451H24.7732H24.8011H24.829H24.8568H24.8844H24.912H24.9395H24.9669H24.9942H25.0214H25.0485H25.0755H25.1024H25.1292H25.1559H25.1825H25.209H25.2354C26.3863 0.281013 27.2742 0.384729 28.1972 0.731423C29.1252 1.07998 30.1072 1.68106 31.4333 2.70473C32.7828 3.7465 32.8959 3.83989 33.011 3.93061C33.1226 4.01854 33.2362 4.10397 34.4794 5.04786C37.0824 7.02423 39.7344 7.21266 41.7683 7.21266H41.7805H41.7934H41.807H41.8214H41.8365H41.8523H41.8689H41.8862H41.9042H41.9229H41.9423H41.9625H41.9833H42.0049H42.0271H42.0501H42.0737H42.0981H42.1231H42.1488H42.1752H42.2023H42.23H42.2584H42.2875H42.3173H42.3477H42.3788H42.4105H42.4429H42.476H42.5097H42.544H42.579H42.6147H42.6509H42.6879H42.7254H42.7636H42.8024H42.8418H42.8818H42.9225H42.9637H43.0056H43.0481H43.0912H43.1349H43.1792H43.2241H43.2695H43.3156H43.3623H43.4095H43.4573H43.5057H43.5547H43.6043H43.6544H43.7051H43.7563H43.8081H43.8605H43.9134H43.9669H44.0209H44.0754H44.1305H44.1862H44.2424H44.2991H44.3563H44.4141H44.4724H44.5312H44.5905H44.6504H44.7107H44.7716H44.833H44.8949H44.9572H45.0201H45.0835H45.1474H45.2117H45.2765H45.3419H45.4077H45.4739H45.5407H45.6079H45.6756H45.7437H45.8123H45.8814H45.9509H46.0209H46.0913H46.1622H46.2335H46.3053H46.3775H46.4501H46.5232H46.5966H46.6706H46.7449H46.8196H46.8948H46.9704H47.0464H47.1228H47.1996H47.2768H47.3544H47.4324H47.5108H47.5896H47.6688H47.7483H47.8283H47.9086H47.9893H48.0703H48.1518H48.2336H48.3157H48.3982H48.4811H48.5643H48.6479H48.7319H48.8161H48.9007H48.9857H49.071H49.1566H49.2425H49.3288H49.4154H49.5023H49.5896H49.6771H49.765H49.8532H49.9417H50.0304H50.1195H50.2089H50.2986H50.3885H50.4788H50.5693H50.6602H50.7513H50.8426H50.9343H51.0262H51.1184H51.2108H51.3035H51.3965H51.4897H51.5832H51.6769H51.7709H51.8651H51.9596H52.0543H52.1492H52.2443H52.3397H52.4353H52.5312H52.6272H52.7235H52.82H52.9167H53.0136H53.1107H53.208H53.3055H53.4032H53.501H53.5991H53.6974H53.7958H53.8945H53.9933H54.0922H54.1914H54.2907H54.3902H54.4898H54.5897H54.6896H54.7897H54.89H54.9904H55.091H55.1917H55.2925H55.3935H55.4946H55.5958H55.6972H55.7987H55.9003H56.002H56.1038H56.2058H56.3078H56.41H56.5123H56.6146H56.7171H56.8196H56.9223H57.025H57.1278H57.2307H57.3337H57.4368H57.5399H57.6431H57.7464H57.8497H57.9531H58.0565H58.16H58.2636H58.3672H58.4708H58.5745H58.6782H58.782H58.8858H58.9896H59.0935H59.1974H59.3013H59.4052H59.5091H59.6131H59.717H59.821H59.925H60.029H60.1329H60.2369H60.3408H60.4448H60.5487H60.6526H60.7565H60.8604H60.9643H61.0681H61.1719H61.2756H61.3793H61.483H61.5866H61.6902H61.7937H61.8972H62.0006H62.104H62.2073H62.3105H62.4137H62.5168H62.6198H62.7228H62.8256H62.9284H63.0311H63.1337H63.2362H63.3386H63.441H63.5432H63.6453H63.7473H63.8492H63.951H64.0527H64.1543H64.2557H64.357H64.4582H64.5592H64.6601H64.7609H64.8616H64.9621H65.0624H65.1626H65.2627H65.3626H65.4623H65.5619H65.6613H65.7606H65.8596H65.9585H66.0573H66.1558H66.2542H66.3524H66.4504H66.5482H66.6458H66.7432H66.8405H66.9375H67.0343H67.1309H67.2273H67.3234H67.4194H67.5152H67.6107H67.706H67.801H67.8958H67.9904H68.0848H68.1789H68.2728H68.3664H68.4598H68.5529H68.6457H68.7383H68.8307H68.9228H69.0146H69.1061H69.1974H69.2883H69.3791H69.4695H69.5596H69.6495H69.739H69.8283H69.9172H70.0059H70.0942H70.1823H70.27H70.3574H70.4445H70.5313H70.6178H70.7039H70.7898H70.8752H70.9604H71.0452H71.1297H71.2138H71.2976H71.381H71.4641H71.5468H71.6292H71.7112H71.7928H71.8741H71.955H72.0356H72.1157H72.1955H72.2749H72.3539H72.4325H72.5108H72.5886H72.6661H72.7431H72.8197H72.896H72.9718H73.0472H73.1222H73.1968H73.271H73.3447H73.418H73.4909H73.5633H73.6353H73.7069H73.778H73.8487H73.919H73.9888H74.0581H74.127H74.1954H74.2634H74.3308H74.3979H74.4644H74.5305H74.5961H74.6612H74.7258H74.79H74.8536H74.9168H74.9795H75.0417H75.1033H75.1645H75.2252H75.2853H75.3449H75.4041H75.4626H75.5207H75.5783H75.6353H75.6918H75.7477H75.8032H75.858H75.9124H75.9662H76.0194H76.0721H76.1242H76.1758H76.2268H76.2773H76.3271H76.3765H76.4252H76.4734H76.5209H76.5679H76.6143H76.6602H76.7054H76.7501H76.7941H76.8375H76.8804H76.9226H76.9642H77.0053H77.0457H77.0854H77.1246H77.1631H77.201H77.2383H77.275H77.311H77.3463H77.3811H77.4151H77.4486H77.4814H77.5135H77.545H77.5758H77.6059H77.6354H77.6642H77.6924H77.7198H77.7466H77.7727H77.7982H77.8229H77.8469H77.8703H77.893H77.9149H77.9362H77.9567H77.9766H77.9957H78.0141H78.0318H78.0488H78.0651H78.0806H78.0954H78.1095H78.1229H78.1355H78.1473H78.1584H78.1688H78.1784H78.1873H78.1954H78.2028H78.2094H78.2152H78.2203H78.2246H78.2281H78.2308H78.2328H78.234H78.2344C80.1276 7.21266 81.5306 7.21288 82.6411 7.30361C83.7484 7.39408 84.5401 7.57312 85.2152 7.91711C86.4314 8.53677 87.4201 9.52553 88.0398 10.7417C88.3838 11.4168 88.5628 12.2085 88.6533 13.3158C88.744 14.4263 88.7442 15.8293 88.7442 17.7225V63.2091Z" stroke="url(#paint1_linear_2615_347)" stroke-opacity="0.07" stroke-width="0.562025"/>
<rect x="0.974609" y="16" width="88" height="58" rx="6.7443" fill="url(#paint2_linear_2615_347)"/>
<rect x="0.974609" y="17" width="88" height="57" rx="6.7443" fill="url(#paint3_linear_2615_347)"/>
<defs>
<linearGradient id="paint0_linear_2615_347" x1="44.9999" y1="0" x2="44.9999" y2="78.4962" gradientUnits="userSpaceOnUse">
<stop offset="0.055" stop-color="#FEE79E"/>
<stop offset="0.140134" stop-color="#F3D377"/>
<stop offset="0.210201" stop-color="#CC9F30"/>
<stop offset="0.285" stop-color="#D0A231"/>
</linearGradient>
<linearGradient id="paint1_linear_2615_347" x1="44.9999" y1="8.89873" x2="44.9999" y2="17.4696" gradientUnits="userSpaceOnUse">
<stop stop-color="#2E2E2E"/>
<stop offset="1" stop-color="#303030" stop-opacity="0"/>
</linearGradient>
<linearGradient id="paint2_linear_2615_347" x1="44.9746" y1="16" x2="44.9746" y2="19.0526" gradientUnits="userSpaceOnUse">
<stop stop-color="#FFEFBA"/>
<stop offset="1" stop-color="#F4D25E"/>
</linearGradient>
<linearGradient id="paint3_linear_2615_347" x1="44.9746" y1="17" x2="44.9746" y2="74" gradientUnits="userSpaceOnUse">
<stop stop-color="#FCDB65"/>
<stop offset="1" stop-color="#FFD53E"/>
</linearGradient>
</defs>
</svg>
