<svg width="18" height="18" viewBox="0 0 18 18" fill="none" xmlns="http://www.w3.org/2000/svg">
<g id="edit list">
<path id="Vector" d="M9.375 16.5H13.5C13.8978 16.5 14.2794 16.342 14.5607 16.0607C14.842 15.7794 15 15.3978 15 15V5.25L11.25 1.5H4.5C4.10218 1.5 3.72064 1.65804 3.43934 1.93934C3.15804 2.22064 3 2.60218 3 3V10.125M10.5 1.5V4.5C10.5 4.89782 10.658 5.27936 10.9393 5.56066C11.2206 5.84196 11.6022 6 12 6H15M10.0335 11.7195C10.1814 11.5716 10.2988 11.3959 10.3788 11.2027C10.4589 11.0094 10.5001 10.8022 10.5001 10.593C10.5001 10.3838 10.4589 10.1766 10.3788 9.98334C10.2988 9.79006 10.1814 9.61443 10.0335 9.4665C9.88557 9.31857 9.70994 9.20122 9.51666 9.12116C9.32337 9.0411 9.11621 8.99989 8.907 8.99989C8.69779 8.99989 8.49063 9.0411 8.29734 9.12116C8.10406 9.20122 7.92843 9.31857 7.7805 9.4665L4.023 13.2255C3.84469 13.4037 3.71417 13.624 3.6435 13.866L3.01575 16.0185C2.99693 16.083 2.9958 16.1514 3.01248 16.2166C3.02917 16.2817 3.06305 16.3411 3.11058 16.3887C3.15812 16.4362 3.21756 16.4701 3.28268 16.4868C3.3478 16.5035 3.41621 16.5023 3.48075 16.4835L5.63325 15.8558C5.87525 15.7851 6.09553 15.6546 6.27375 15.4763L10.0335 11.7195Z" stroke="#FFFFFF" stroke-width="1.5" stroke-linecap="round" stroke-linejoin="round"/>
</g>
</svg>