<?xml version="1.0" encoding="utf-8"?>
<!-- Generator: Adobe Illustrator 23.0.6, SVG Export Plug-In . SVG Version: 6.00 Build 0)  -->
<svg version="1.1" id="Слой_1" xmlns="http://www.w3.org/2000/svg" xmlns:xlink="http://www.w3.org/1999/xlink" x="0px" y="0px"
	 viewBox="0 0 9 10" style="enable-background:new 0 0 9 10;" xml:space="preserve">
<style type="text/css">
	.st0{fill:#FFFFFF;fill-opacity:0;}
	.st1{display:none;}
	.st2{display:inline;}
	.st3{display:inline;fill:none;stroke:#000000;stroke-width:0.9991;stroke-miterlimit:10;}
	.st4{display:inline;fill:none;stroke:#000000;stroke-width:0.8853;stroke-miterlimit:10;}
	.st5{display:inline;stroke:#000000;stroke-width:0.7415;stroke-miterlimit:10;}
	.st6{display:inline;fill:#FFFFFF;}
	.st7{fill:#FFFFFF;}
</style>
<rect x="0" class="st0" width="9" height="10"/>
<path class="st1" d="M13-1H5L3-3h-6c-1.1,0-2,0.9-2,2v12c0,1.1,0.9,2,2,2h16c1.1,0,2-0.9,2-2V1C15-0.1,14.1-1,13-1z"/>
<g id="SUPPORT" class="st1">
	<path class="st2" d="M-1,2.6c-2,0-3.6,1.6-3.6,3.6S-3,9.8-1,9.8V2.6z"/>
	<path class="st2" d="M11,2.6c2,0,3.6,1.6,3.6,3.6S13,9.8,11,9.8V2.6z"/>
	<path class="st3" d="M12.2,3.3C12-0.5,8.9-3.5,5-3.5s-6.9,3-7.1,6.8"/>
	<path class="st4" d="M6.1,13.2c4-0.2,6.5,0.1,6-6.7"/>
	<ellipse class="st5" cx="6.2" cy="13.1" rx="1.4" ry="0.8"/>
</g>
<g id="ABOUT" class="st1">
	<rect x="-2.9" y="-2.9" transform="matrix(0.7073 -0.707 0.707 0.7073 -2.0713 5.0059)" class="st2" width="15.8" height="15.8"/>
	<rect x="4" y="-0.1" class="st6" width="2" height="6.1"/>
	<rect x="4" y="8" class="st6" width="2" height="2"/>
</g>
<g class="st1">
	<ellipse class="st2" cx="5" cy="5" rx="9.9" ry="9.9"/>
	<g class="st2">
		<path class="st7" d="M3.7,8V7.5C3.6,6.4,3.9,5.2,5,3.9C5.9,2.8,6.4,2,6.4,1.1c0-1.1-0.7-1.8-2-1.8c-0.7,0-1.6,0.2-2.1,0.6L1.8-1.4
			c0.7-0.5,1.9-0.8,3-0.8c2.4,0,3.5,1.5,3.5,3c0,1.4-0.8,2.4-1.8,3.6c-0.9,1.1-1.2,2-1.2,3v0.5L3.7,8L3.7,8z M3.2,10.9
			c0-0.8,0.5-1.3,1.2-1.3s1.2,0.5,1.2,1.3c0,0.7-0.5,1.3-1.2,1.3C3.7,12.2,3.2,11.6,3.2,10.9z"/>
	</g>
</g>
<path id="settings" class="st1" d="M12.7,6c0-0.3,0.1-0.7,0.1-1s0-0.7-0.1-1l2.2-1.7c0.2-0.2,0.2-0.4,0.1-0.7L13-2
	c-0.1-0.2-0.4-0.3-0.6-0.2l-2.6,1C9.3-1.6,8.7-2,8-2.2L7.6-5c0-0.3-0.3-0.4-0.5-0.4H2.9C2.7-5.4,2.4-5.2,2.4-5L2-2.2
	c-0.6,0.3-1.2,0.6-1.8,1l-2.6-1C-2.6-2.3-2.8-2.2-3-2l-2,3.6c-0.2,0.2-0.1,0.5,0.1,0.7L-2.7,4c-0.1,0.7-0.1,1.4,0,2l-2.2,1.7
	C-5.1,7.9-5.1,8.1-5,8.4l2,3.6c0.1,0.2,0.4,0.3,0.6,0.2l2.6-1c0.5,0.4,1.1,0.8,1.8,1L2.4,15c0,0.3,0.3,0.4,0.5,0.4h4.2
	c0.3,0,0.5-0.2,0.5-0.4L8,12.2c0.6-0.3,1.2-0.6,1.8-1l2.6,1c0.2,0.1,0.5,0,0.6-0.2l2.1-3.6c0.1-0.2,0.1-0.5-0.1-0.7L12.7,6L12.7,6z
	 M5,8.9C2.8,8.9,1.1,7.2,1.1,5S2.8,1.1,5,1.1S8.9,2.8,8.9,5l0,0C8.9,7.2,7.1,8.9,5,8.9z"/>
<path id="share" class="st1" d="M7.8,12.4l-6.9-4c-1.8,1.8-4.6,1.9-6.4,0.1S-7.4,4-5.6,2.2S-1,0.3,0.8,2C0.9,2.2,1,2.3,1.2,2.4
	L7.9-1C7.1-3.4,8.5-6,11-6.6c2.4-0.8,5,0.6,5.6,3.1c0.6,2.4-0.6,5-3.1,5.6c-1.4,0.4-2.9,0.1-4.1-0.8L2.2,5c0,0.1,0,0.3,0,0.4
	c0,0.3,0,0.4,0,0.6l6.5,3.7c1.4-2,4.3-2.6,6.4-1c2,1.4,2.6,4.3,1,6.4c-1.5,2-4.3,2.6-6.4,1C8.6,15.2,7.8,13.8,7.8,12.4L7.8,12.4z"/>
<path id="error" class="st1" d="M-7,15.4h24L5.1-5.4L-7,15.4z M6.5,13.5H3.6v-2.2h2.9V13.5z M6.5,10.2H3.6V3.3h2.9V10.2z"/>
<path id="galka" class="st1" d="M0.6,9.9l-5.7-5.7L-7,6.1l7.7,7.7L17-2.6l-1.9-1.9L0.6,9.9z"/>
<path id="arrow_down" d="M4.5,10l2-2H5V0H4v8H2.5L4.5,10z"/>
<path id="arrow_up" class="st1" d="M5-7l-5.1,5.1h3.8V17h2.5V-1.9H10L5-7z"/>
<g id="menu" class="st1">
	<circle class="st2" cx="5" cy="5" r="2.8"/>
	<circle class="st2" cx="5" cy="-4.2" r="2.8"/>
	<circle class="st2" cx="5" cy="14.2" r="2.8"/>
</g>
<g id="burger_1_" class="st1">
	<rect x="-7" y="-4" class="st2" width="24" height="3.4"/>
	<rect x="-7" y="3.3" class="st2" width="24" height="3.4"/>
	<rect x="-7" y="10.6" class="st2" width="24" height="3.4"/>
</g>
<polygon id="arrow_back" class="st1" points="14.8,3.1 1.7,3.1 9.6,-4.6 7.2,-7 -2.4,2.6 -2.4,2.6 -4.8,5 -4.8,5 -4.8,5 -2.4,7.4 
	-2.4,7.4 7.2,17 9.6,14.6 1.6,6.7 14.8,6.7 "/>
<path id="search" class="st1" d="M10.1,8H9L8.6,7.6c3.1-3.7,2.8-9.4-1-12.5C4-8-1.6-7.7-4.8-3.9c-3.1,3.7-2.8,9.4,1,12.5
	c3.3,2.9,8.2,2.9,11.6,0L8.2,9v1.1L15,17l2-2L10.1,8z M2,8L2,8c-3.4,0-6.2-2.8-6.2-6.2S-1.4-4.4,2-4.4s6.2,2.8,6.2,6.2S5.4,8,2,8z"
	/>
<polygon id="back" class="st1" points="17,-4.9 14.9,-7 5,2.9 -4.9,-7 -7,-4.9 2.9,5 -7,14.9 -4.9,17 5,7.1 14.9,17 17,14.9 7.1,5 
	"/>
<polygon id="plus" class="st1" points="17,6.4 17,3.5 6.5,3.5 6.5,-7 3.5,-7 3.5,3.5 -7,3.5 -7,6.4 3.5,6.4 3.5,17 6.5,17 6.5,6.4 
	"/>
<path id="repeat" class="st1" d="M12.6,0.2L8.3,5h3.3c0,3.9-2.9,7.1-6.5,7.1C4,12.1,3,11.8,2,11.2L0.4,13c4.1,2.8,9.4,1.5,12-2.9
	c0.9-1.5,1.4-3.3,1.4-5.1H17L12.6,0.2z M-1.5,5c0-3.9,2.9-7.1,6.5-7.1c1.1,0,2.1,0.3,3.1,0.9L9.7-3C5.6-5.9,0.2-4.6-2.4-0.1
	C-3.3,1.4-3.8,3.1-3.8,5H-7l4.4,4.8L1.7,5H-1.5z"/>
<path id="play" class="st1" d="M14.4,5L-3.1,17V-7L14.4,5z"/>
<g id="pause" class="st1">
	<rect id="Rectangle_1121" x="-5.3" y="-6.9" class="st2" width="6.8" height="23.9"/>
	<rect id="Rectangle_1122" x="8.4" y="-6.9" class="st2" width="6.8" height="23.9"/>
</g>
<g id="open_folder" class="st1">
	<path class="st2" d="M17,4.3c-0.2-1.1-1.2-2-2.4-2h-0.3H1.4l0,0l-4.3,11.2h15c0.4,0,0.7-0.1,1.1-0.3c0.6-0.3,1.1-0.8,1.3-1.5
		L16.9,5C17,4.8,17,4.5,17,4.3z"/>
	<path class="st2" d="M-0.7,0.4L-0.7,0.4L-0.7,0.4L-0.7,0.4h15c-0.1-1-1-1.8-2.1-1.8H3.7L1.5-3.5h-6.4C-6-3.5-7-2.6-7-1.4v12.8
		c0,1,0.7,1.9,1.7,2.1L-0.7,0.4L-0.7,0.4z"/>
</g>
</svg>
