<?xml version="1.0" encoding="utf-8"?>
<!-- Generator: Adobe Illustrator 23.0.6, SVG Export Plug-In . SVG Version: 6.00 Build 0)  -->
<svg version="1.1" id="Слой_1" xmlns="http://www.w3.org/2000/svg" xmlns:xlink="http://www.w3.org/1999/xlink" x="0px" y="0px"
	 viewBox="0 0 16 16" style="enable-background:new 0 0 16 16;" xml:space="preserve">
<style type="text/css">
	.st0{opacity:0;}
	.st1{display:none;}
	.st2{display:inline;}
	.st3{display:inline;fill:none;stroke:#000000;stroke-width:0.9991;stroke-miterlimit:10;}
	.st4{display:inline;fill:none;stroke:#000000;stroke-width:0.8853;stroke-miterlimit:10;}
	.st5{display:inline;stroke:#000000;stroke-width:0.7415;stroke-miterlimit:10;}
	.st6{display:inline;fill:#FFFFFF;}
	.st7{fill:#FFFFFF;}
</style>
<rect class="st0" width="16" height="16"/>
<path class="st1" d="M16,2H8L6,0H0c-1.1,0-2,0.9-2,2v12c0,1.1,0.9,2,2,2h16c1.1,0,2-0.9,2-2V4C18,2.9,17.1,2,16,2z"/>
<g id="SUPPORT" class="st1">
	<path class="st2" d="M2,5.6c-2,0-3.6,1.6-3.6,3.6S0,12.8,2,12.8V5.6z"/>
	<path class="st2" d="M14,5.6c2,0,3.6,1.6,3.6,3.6S16,12.8,14,12.8V5.6z"/>
	<path class="st3" d="M15.2,6.3C15,2.5,11.9-0.5,8-0.5s-6.9,3-7.1,6.8"/>
	<path class="st4" d="M9.1,16.2c4-0.2,6.5,0.1,6-6.7"/>
	<ellipse class="st5" cx="9.2" cy="16.1" rx="1.4" ry="0.8"/>
</g>
<g id="ABOUT" class="st1">
	<rect x="0.1" y="0.1" transform="matrix(0.7073 -0.707 0.707 0.7073 -3.3189 8.0001)" class="st2" width="15.8" height="15.8"/>
	<rect x="7" y="3" class="st6" width="2" height="6"/>
	<rect x="7" y="11" class="st6" width="2" height="2"/>
</g>
<g class="st1">
	<ellipse class="st2" cx="8" cy="8" rx="9.9" ry="9.9"/>
	<g class="st2">
		<path class="st7" d="M7,11v-0.5C6.6,9.4,6.9,8.2,8,6.9C8.9,5.8,9.4,5,9.4,4.1c0-1.1-0.7-1.8-2-1.8c-0.7,0-1.6,0.2-2.1,0.6L4.8,1.6
			c0.7-0.5,1.9-0.8,3-0.8c2.4,0,3.5,1.5,3.5,3c0,1.4-0.8,2.4-1.8,3.6c-0.9,1.1-1.2,2-0.5,3V11H7L7,11z M6.2,13.9
			c0-0.8,0.5-1.3,1.2-1.3s1.2,0.5,1.2,1.3c0,0.7-0.5,1.3-1.2,1.3S6.2,14.6,6.2,13.9z"/>
	</g>
</g>
<path id="settings" class="st1" d="M15.8,8.5c0-0.3,0.1-0.7,0.1-1s0-0.7-0.1-1L18,4.8c0.2-0.2,0.2-0.4,0.1-0.7l-2-3.6
	c-0.1-0.2-0.4-0.3-0.6-0.2l-2.6,1c-0.5-0.4-1.1-0.8-1.8-1l-0.4-2.8c0-0.3-0.3-0.4-0.5-0.4H5.9C5.7-3,5.4-2.8,5.4-2.6L5,0.2
	c-0.6,0.3-1.2,0.6-1.8,1l-2.6-1C0.4,0.1,0.2,0.2,0,0.4L-2,4c-0.3,0.3-0.2,0.6,0,0.8l2.2,1.7c-0.1,0.7-0.1,1.4,0,2L-2,10.2
	c-0.2,0.2-0.2,0.4-0.1,0.7l2,3.6c0.1,0.2,0.4,0.3,0.6,0.2l2.6-1c0.5,0.4,1.1,0.8,1.8,1l0.4,2.8c0,0.3,0.3,0.4,0.5,0.4H10
	c0.3,0,0.5-0.2,0.5-0.4l0.4-2.8c0.6-0.3,1.2-0.6,1.8-1l2.6,1c0.2,0.1,0.5,0,0.6-0.2l2.1-3.6c0.1-0.2,0.1-0.5-0.1-0.7L15.8,8.5
	L15.8,8.5z M8,11.9c-2.2,0-3.9-1.7-3.9-3.9S5.8,4.1,8,4.1s3.9,1.7,3.9,3.9l0,0C11.9,10.2,10.1,11.9,8,11.9z"/>
<path id="share" class="st1" d="M10.8,15.4l-6.9-4c-1.8,1.8-4.6,1.9-6.4,0.1S-4.4,7-2.6,5.2S2,3.3,3.8,5C3.9,5.2,4,5.3,4.2,5.4
	L10.9,2c-0.8-2.4,0.6-5,3.1-5.6c2.4-0.8,5,0.6,5.6,3.1c0.6,2.4-0.6,5-3.1,5.6c-1.4,0.4-2.9,0.1-4.1-0.8L5.2,8c0,0.1,0,0.3,0,0.4
	c0,0.3,0,0.4,0,0.6l6.5,3.7c1.4-2,4.3-2.6,6.4-1c2,1.4,2.6,4.3,1,6.4c-1.5,2-4.3,2.6-6.4,1C11.6,18.2,10.8,16.8,10.8,15.4L10.8,15.4
	z"/>
<path id="error" class="st1" d="M-4,18h24L8.1-2.8L-4,18z M10,16H7v-2h3V16z M10,13H7V6h3V13z"/>
<path id="galka" class="st1" d="M3.6,12.9l-5.7-5.7L-4,9.1l7.7,7.7L20,0.4l-1.9-1.9L3.6,12.9z"/>
<path id="arrow_down" class="st1" d="M8,20l5-5.1H9.3V-4H6.8v18.9H3L8,20z"/>
<path id="arrow_up" class="st1" d="M8-4L2.9,1.1h3.8V20h2.5V1.1H13L8-4z"/>
<g id="menu" class="st1">
	<circle class="st2" cx="8" cy="8" r="2.8"/>
	<circle class="st2" cx="8" cy="-1.2" r="2.8"/>
	<circle class="st2" cx="8" cy="17.2" r="2.8"/>
</g>
<g id="burger_1_" class="st1">
	<rect x="-4" y="-1" class="st2" width="24" height="3"/>
	<rect x="-4" y="6" class="st2" width="24" height="3"/>
	<rect x="-4" y="14" class="st2" width="24" height="3"/>
</g>
<polygon id="arrow_back" points="15,7 4.7,7 10.9,1 9.3,0 2.7,6.4 2.7,6.4 1,8 1,8 1,8 2.7,9.6 2.7,9.6 9.3,16 10.9,15 4.7,9 15,9 
	"/>
<path id="search" class="st1" d="M12.9,11h-1.1l-0.4-0.4c3.1-3.7,2.8-9.4-1-12.5C6.8-5,1.2-4.7-2-0.9c-3.1,3.7-2.8,9.4,1,12.5
	c3.3,2.9,8.2,2.9,11.6,0L11,12v1.1l6.8,6.9l2-2L12.9,11z M5,11L5,11c-3.4,0-6.2-2.8-6.2-6.2S1.6-1.4,5-1.4s6.2,2.8,6.2,6.2
	S8.4,11,5,11z"/>
<polygon id="back" class="st1" points="20,-1.9 17.9,-4 8,5.9 -1.9,-4 -4,-1.9 5.9,8 -4,17.9 -1.9,20 8,10.1 17.9,20 20,17.9 
	10.1,8 "/>
<polygon id="plus" class="st1" points="20,9.4 20,6.5 9.5,6.5 9.5,-4 6.5,-4 6.5,6.5 -4,6.5 -4,9.4 6.5,9.4 6.5,20 9.5,20 9.5,9.4 
	"/>
<path id="repeat" class="st1" d="M15.6,3.2L11.3,8h3.3c0,3.9-2.9,7.1-6.5,7.1C7,15.1,6,14.8,5,14.2L3.4,16c4.1,2.8,9.4,1.5,12-2.9
	c0.9-1.5,1.4-3.3,1.4-5.1H20L15.6,3.2z M1.5,8c0-3.9,2.9-7.1,6.5-7.1c1.1,0,2.1,0.3,3.1,0.9L12.7,0C8.6-2.9,3.2-1.6,0.6,2.9
	C-0.3,4.4-0.8,6.1-0.8,8H-4l4.4,4.8L4.7,8H1.5z"/>
<path id="play" class="st1" d="M17.4,8L-0.1,20V-4L17.4,8z"/>
<g id="pause" class="st1">
	<rect id="Rectangle_1121" x="-2" y="-4" class="st2" width="7" height="24"/>
	<rect id="Rectangle_1122" x="11" y="-4" class="st2" width="7" height="24"/>
</g>
<g id="open_folder" class="st1">
	<path class="st2" d="M19.8,7c-0.2-1.1-1.2-2-2.4-2h-0.3H4.5l0,0L0.3,16H15c0.4,0,0.7-0.1,1.1-0.3c0.6-0.3,1.1-0.8,1.3-1.5l2.4-6.6
		C19.8,7.5,19.8,7.2,19.8,7z"/>
	<path class="st2" d="M2.3,3L2.3,3L2.3,3L2.3,3h15c-0.1-0.6-2.1-1-2.1-1h-9L4.1,0H-2c-1,0-2,0.9-2,2v12.4c0,0,0.7,1.9,1.7,2.1
		L2.3,3.4V3z"/>
</g>
</svg>
