<?xml version="1.0" encoding="utf-8"?>
<!-- Generator: Adobe Illustrator 23.0.6, SVG Export Plug-In . SVG Version: 6.00 Build 0)  -->
<svg version="1.1" id="Слой_1" xmlns="http://www.w3.org/2000/svg" xmlns:xlink="http://www.w3.org/1999/xlink" x="0px" y="0px"
	 viewBox="0 0 16 16" style="enable-background:new 0 0 16 16;" xml:space="preserve">
<style type="text/css">
	.st0{fill:#FFFFFF;fill-opacity:0;}
	.st1{display:none;}
	.st2{display:inline;}
	.st3{display:inline;fill:none;stroke:#000000;stroke-width:0.6661;stroke-miterlimit:10;}
	.st4{display:inline;fill:none;stroke:#000000;stroke-width:0.5902;stroke-miterlimit:10;}
	.st5{display:inline;stroke:#000000;stroke-width:0.4943;stroke-miterlimit:10;}
	.st6{display:inline;fill:#FFFFFF;}
	.st7{fill:#FFFFFF;}
</style>
<g>
	<rect x="0" class="st0" width="16" height="16"/>
</g>
<path class="st1" d="M13.2,4.3H7.8L6.5,2.9h-4c-0.7,0-1.3,0.6-1.3,1.3v8c0,0.7,0.6,1.3,1.3,1.3h10.7c0.7,0,1.3-0.6,1.3-1.3V5.6
	C14.5,4.9,13.9,4.3,13.2,4.3z"/>
<g id="SUPPORT" class="st1">
	<path class="st2" d="M3.8,6.7C2.5,6.7,1.4,7.7,1.4,9s1.1,2.4,2.4,2.4V6.7z"/>
	<path class="st2" d="M11.8,6.7c1.3,0,2.4,1.1,2.4,2.4s-1.1,2.4-2.4,2.4V6.7z"/>
	<path class="st3" d="M12.6,7.1c-0.1-2.5-2.2-4.5-4.8-4.5s-4.6,2-4.7,4.5"/>
	<path class="st4" d="M8.6,13.7c2.7-0.1,4.3,0.1,4-4.5"/>
	<ellipse class="st5" cx="8.6" cy="13.6" rx="0.9" ry="0.5"/>
</g>
<g id="ABOUT" class="st1">
	<rect x="2.6" y="3" transform="matrix(0.7073 -0.707 0.707 0.7073 -3.5421 7.9426)" class="st2" width="10.5" height="10.5"/>
	<rect x="6.8" y="5.2" class="st6" width="1" height="4"/>
	<rect x="6.8" y="10.2" class="st6" width="1" height="1"/>
</g>
<g class="st1">
	<ellipse class="st2" cx="7.8" cy="8.2" rx="6.6" ry="6.6"/>
	<g class="st2">
		<path class="st7" d="M6.8,10.3V10C6.8,9.3,7,8.5,7.6,7.6c0.6-0.7,0.9-1.3,0.9-1.9c0-0.7-0.4-1.2-1.2-1.2c-0.4,0-1,0.1-1.3,0.4
			L5.6,4.1c0.4-0.3,1.2-0.5,1.9-0.5c1.5,0,2.2,1,2.2,2c0,0.9-0.5,1.6-1.1,2.4C8,8.7,7.8,9.3,7.8,9.9v0.3L6.8,10.3L6.8,10.3z
			 M6.6,12.2c0-0.5,0.3-0.9,0.8-0.9c0.5,0,0.8,0.3,0.8,0.9c0,0.5-0.3,0.9-0.8,0.9C7,13,6.6,12.6,6.6,12.2z"/>
	</g>
</g>
<path id="settings" class="st1" d="M13,8.9c0-0.2,0.1-0.5,0.1-0.7c0-0.2,0-0.5-0.1-0.7l1.5-1.1c0.1-0.1,0.1-0.3,0.1-0.5l-1.3-2.4
	c-0.1-0.1-0.3-0.2-0.4-0.1l-1.8,0.7c-0.3-0.3-0.7-0.5-1.2-0.7L9.6,1.5c0-0.2-0.2-0.3-0.3-0.3H6.4c-0.1,0-0.3,0.1-0.3,0.3L5.8,3.4
	C5.4,3.6,5,3.8,4.6,4.1L2.8,3.4c-0.1-0.1-0.3,0-0.4,0.1L1.1,6C1,6.1,1,6.3,1.2,6.4l1.5,1.1C2.6,8,2.6,8.5,2.6,8.9l-1.5,1.1
	C1,10.2,1,10.3,1.1,10.5L2.4,13c0.1,0.1,0.3,0.2,0.4,0.1l1.8-0.7c0.3,0.3,0.7,0.5,1.2,0.7L6.1,15c0,0.2,0.2,0.3,0.3,0.3h2.8
	c0.2,0,0.3-0.1,0.3-0.3l0.3-1.9c0.4-0.2,0.8-0.4,1.2-0.7l1.8,0.7c0.1,0.1,0.3,0,0.4-0.1l1.4-2.4c0.1-0.1,0.1-0.3-0.1-0.5L13,8.9
	L13,8.9z M7.8,10.8c-1.5,0-2.6-1.1-2.6-2.6s1.1-2.6,2.6-2.6s2.6,1.1,2.6,2.6l0,0C10.4,9.7,9.2,10.8,7.8,10.8z"/>
<path id="share" class="st1" d="M9.7,13.2l-4.6-2.7c-1.2,1.2-3.1,1.3-4.3,0.1s-1.3-3-0.1-4.2S3.8,5.1,5,6.3c0.1,0.1,0.1,0.2,0.3,0.3
	l4.5-2.3c-0.5-1.6,0.4-3.3,2.1-3.7c1.6-0.5,3.3,0.4,3.7,2.1c0.4,1.6-0.4,3.3-2.1,3.7c-0.9,0.3-1.9,0.1-2.7-0.5L6,8.2
	c0,0.1,0,0.2,0,0.3c0,0.2,0,0.3,0,0.4l4.3,2.5c0.9-1.3,2.9-1.7,4.3-0.7c1.3,0.9,1.7,2.9,0.7,4.3c-1,1.3-2.9,1.7-4.3,0.7
	C10.2,15,9.7,14.1,9.7,13.2L9.7,13.2z"/>
<path id="error" class="st1" d="M-0.2,15.2h16L7.9,1.4L-0.2,15.2z M8.8,13.2h-2v-1h2V13.2z M8.8,12.2h-2v-5h2V12.2z"/>
<path id="galka" d="M5.1,11.5L1.3,7.7L0,9l5,5L16,3.2l-1.3-1.3L5.1,11.5z"/>
<path id="arrow_down" class="st1" d="M7.8,16.2l3.3-3.4H8.7V0.3H7v12.6H4.5L7.8,16.2z"/>
<path id="arrow_up" class="st1" d="M7.8,0.3L4.4,3.7H7v12.6h1.7V3.7h2.5L7.8,0.3z"/>
<g id="menu" class="st1">
	<circle class="st2" cx="7.8" cy="8.2" r="1.9"/>
	<circle class="st2" cx="7.8" cy="2.1" r="1.9"/>
	<circle class="st2" cx="7.8" cy="14.4" r="1.9"/>
</g>
<g id="burger_1_" class="st1">
	<rect x="-0.2" y="2.2" class="st2" width="16" height="2"/>
	<rect x="-0.2" y="7.2" class="st2" width="16" height="2"/>
	<rect x="-0.2" y="12.2" class="st2" width="16" height="2"/>
</g>
<polygon id="arrow_back" class="st1" points="14.4,7 5.6,7 10.9,1.9 9.3,0.3 2.9,6.7 2.9,6.7 1.3,8.2 1.3,8.2 1.3,8.2 2.9,9.8 
	2.9,9.8 9.3,16.2 10.9,14.6 5.6,9.4 14.4,9.4 "/>
<path id="search" class="st1" d="M11.1,10.2h-0.7L10.1,10c2.1-2.5,1.9-6.3-0.7-8.3C7-0.4,3.3-0.2,1.2,2.3c-2.1,2.5-1.9,6.3,0.7,8.3
	c2.2,1.9,5.5,1.9,7.7,0l0.3,0.3v0.7l4.5,4.6l1.3-1.3L11.1,10.2z M5.8,10.2L5.8,10.2c-2.3,0-4.1-1.9-4.1-4.1S3.6,2,5.8,2
	S10,3.9,10,6.1S8.1,10.2,5.8,10.2z"/>
<polygon id="back" class="st1" points="15.8,1.7 14.4,0.3 7.8,6.8 1.2,0.3 -0.2,1.7 6.4,8.2 -0.2,14.8 1.2,16.2 7.8,9.6 14.4,16.2 
	15.8,14.8 9.2,8.2 "/>
<polygon id="plus" class="st1" points="15.8,9.2 15.8,7.2 8.8,7.2 8.8,0.3 6.8,0.3 6.8,7.2 -0.2,7.2 -0.2,9.2 6.8,9.2 6.8,16.2 
	8.8,16.2 8.8,9.2 "/>
<path id="repeat" class="st1" d="M12.9,5.1L10,8.2h2.2c0,2.6-1.9,4.7-4.3,4.7c-0.7,0-1.4-0.2-2.1-0.6l-1.1,1.2c2.7,1.9,6.3,1,8-1.9
	c0.6-1,0.9-2.2,0.9-3.4h2.1L12.9,5.1z M3.5,8.2c0-2.6,1.9-4.7,4.3-4.7c0.7,0,1.4,0.2,2.1,0.6L11,2.9C8.2,1,4.6,1.9,2.9,4.9
	C2.3,5.9,2,7,2,8.2h-2.1l2.9,3.2l2.9-3.2H3.5z"/>
<path id="play" class="st1" d="M14.1,8.2l-11.7,8v-16L14.1,8.2z"/>
<g id="pause" class="st1">
	<rect id="Rectangle_1121" x="0.8" y="0.2" class="st2" width="5" height="16"/>
	<rect id="Rectangle_1122" x="9.8" y="0.2" class="st2" width="5" height="16"/>
</g>
<g id="open_folder" class="st1">
	<path class="st2" d="M15.4,7.5c-0.1-0.7-0.8-1.2-1.5-1.2h-0.2H5.7l0,0l-2.7,7h9.4c0.3,0,0.4-0.1,0.7-0.2c0.4-0.2,0.7-0.5,0.8-0.9
		l1.5-4.2C15.4,7.8,15.4,7.6,15.4,7.5z"/>
	<path class="st2" d="M3.8,5.2L3.8,5.2L3.8,5.2L3.8,5.2h9.5c-0.1-0.7-1.3-1-1.3-1H7l-1.5-1H1.2C0.5,2.6-0.2,3.2-0.2,4v8.5
		c0,0.7,0.4,1.3,1.1,1.4L3.8,5.2L3.8,5.2z"/>
</g>
</svg>
