<?xml version="1.0" encoding="utf-8"?>
<!-- Generator: Adobe Illustrator 23.0.6, SVG Export Plug-In . SVG Version: 6.00 Build 0)  -->
<svg version="1.1" id="Слой_1" xmlns="http://www.w3.org/2000/svg" xmlns:xlink="http://www.w3.org/1999/xlink" x="0px" y="0px"
	 viewBox="0 0 16 16" style="enable-background:new 0 0 16 16;" xml:space="preserve">
<style type="text/css">
	.st0{display:none;}
	.st1{display:inline;}
	.st2{display:inline;fill:none;stroke:#000000;stroke-width:0.6659;stroke-miterlimit:10;}
	.st3{display:inline;fill:none;stroke:#000000;stroke-width:0.5901;stroke-miterlimit:10;}
	.st4{display:inline;stroke:#000000;stroke-width:0.4942;stroke-miterlimit:10;}
	.st5{display:inline;fill:#FFFFFF;}
	.st6{fill:#FFFFFF;}
	.st7{opacity:0;}
</style>
<path class="st0" d="M13.3,4H8L6.7,2.7h-4C1.9,2.7,1.3,3.3,1.3,4v8c0,0.7,0.6,1.3,1.3,1.3h10.7c0.7,0,1.3-0.6,1.3-1.3V5.3
	C14.7,4.6,14.1,4,13.3,4z"/>
<g id="SUPPORT" class="st0">
	<path class="st1" d="M4,6.4c-1.3,0-2.4,1.1-2.4,2.4s1.1,2.4,2.4,2.4V6.4z"/>
	<path class="st1" d="M12,6.4c1.3,0,2.4,1.1,2.4,2.4s-1.1,2.4-2.4,2.4V6.4z"/>
	<path class="st2" d="M12.8,6.9C12.7,4.3,10.6,2.3,8,2.3s-4.6,2-4.7,4.5"/>
	<path class="st3" d="M8.7,13.5c2.7-0.1,4.3,0.1,4-4.5"/>
	<ellipse class="st4" cx="8.8" cy="13.4" rx="0.9" ry="0.5"/>
</g>
<g id="ABOUT" class="st0">
	<rect x="2.7" y="2.7" transform="matrix(0.7075 -0.7068 0.7068 0.7075 -3.3156 7.9882)" class="st1" width="10.5" height="10.5"/>
	<rect x="7.3" y="4.6" class="st5" width="1.3" height="4.1"/>
	<rect x="7.3" y="10" class="st5" width="1.3" height="1.3"/>
</g>
<g class="st0">
	<ellipse class="st1" cx="8" cy="8" rx="6.6" ry="6.6"/>
	<g class="st1">
		<path class="st6" d="M7.1,10V9.7C7.1,8.9,7.3,8.1,8,7.3C8.6,6.5,8.9,6,8.9,5.4c0-0.7-0.5-1.2-1.3-1.2c-0.5,0-1.1,0.1-1.4,0.4
			L5.9,3.7c0.5-0.3,1.3-0.5,2-0.5c1.6,0,2.3,1,2.3,2c0,0.9-0.5,1.6-1.2,2.4c-0.6,0.7-0.8,1.3-0.8,2v0.3L7.1,10L7.1,10z M6.8,11.9
			c0-0.5,0.3-0.9,0.8-0.9c0.5,0,0.8,0.3,0.8,0.9c0,0.5-0.3,0.9-0.8,0.9C7.1,12.8,6.8,12.4,6.8,11.9z"/>
	</g>
</g>
<path id="settings" class="st0" d="M13.1,8.7c0-0.2,0.1-0.5,0.1-0.7c0-0.2,0-0.5-0.1-0.7l1.5-1.1c0.1-0.1,0.1-0.3,0.1-0.5l-1.3-2.4
	c-0.1-0.1-0.3-0.2-0.4-0.1l-1.7,0.7c-0.3-0.3-0.7-0.5-1.2-0.7L9.7,1.3c0-0.2-0.2-0.3-0.3-0.3H6.6c-0.1,0-0.3,0.1-0.3,0.3L6,3.2
	C5.6,3.4,5.2,3.6,4.8,3.9L3.1,3.2c-0.1-0.1-0.3,0-0.4,0.1L1.3,5.7C1.2,5.9,1.3,6.1,1.4,6.2l1.5,1.1c-0.1,0.5-0.1,0.9,0,1.3L1.4,9.8
	c-0.1,0.1-0.1,0.3-0.1,0.5l1.3,2.4c0.1,0.1,0.3,0.2,0.4,0.1l1.7-0.7c0.3,0.3,0.7,0.5,1.2,0.7l0.3,1.9c0,0.2,0.2,0.3,0.3,0.3h2.8
	c0.2,0,0.3-0.1,0.3-0.3l0.3-1.9c0.4-0.2,0.8-0.4,1.2-0.7l1.7,0.7c0.1,0.1,0.3,0,0.4-0.1l1.4-2.4c0.1-0.1,0.1-0.3-0.1-0.5L13.1,8.7
	L13.1,8.7z M8,10.6c-1.5,0-2.6-1.1-2.6-2.6S6.5,5.4,8,5.4s2.6,1.1,2.6,2.6l0,0C10.6,9.5,9.4,10.6,8,10.6z"/>
<path id="share" class="st0" d="M9.9,12.9l-4.6-2.7c-1.2,1.2-3.1,1.3-4.3,0.1s-1.3-3-0.1-4.2S4,4.9,5.2,6c0.1,0.1,0.1,0.2,0.3,0.3
	L9.9,4C9.4,2.4,10.3,0.7,12,0.3c1.6-0.5,3.3,0.4,3.7,2.1c0.4,1.6-0.4,3.3-2.1,3.7c-0.9,0.3-1.9,0.1-2.7-0.5L6.1,8c0,0.1,0,0.2,0,0.3
	c0,0.2,0,0.3,0,0.4l4.3,2.5c0.9-1.3,2.9-1.7,4.3-0.7c1.3,0.9,1.7,2.9,0.7,4.3c-1,1.3-2.9,1.7-4.3,0.7C10.4,14.8,9.9,13.9,9.9,12.9
	L9.9,12.9z"/>
<path id="error" d="M0,15h16L8.1,1L0,15z M9,14H7v-1h2V14z M9,12H7V7h2V12z"/>
<path id="galka" class="st0" d="M5.1,11.3L1.3,7.5L0,8.7l5.1,5.1L16,2.9l-1.3-1.3L5.1,11.3z"/>
<path id="arrow_down" class="st0" d="M8,16l3.3-3.4H8.9V0H7.2v12.6H4.7L8,16z"/>
<path id="arrow_up" class="st0" d="M8,0L4.6,3.4h2.5V16h1.7V3.4h2.5L8,0z"/>
<g id="menu" class="st0">
	<circle class="st1" cx="8" cy="8" r="1.9"/>
	<circle class="st1" cx="8" cy="1.9" r="1.9"/>
	<circle class="st1" cx="8" cy="14.1" r="1.9"/>
</g>
<g id="burger_1_" class="st0">
	<rect y="2" class="st1" width="16" height="2.3"/>
	<rect y="6.9" class="st1" width="16" height="2.3"/>
	<rect y="11.7" class="st1" width="16" height="2.3"/>
</g>
<polygon id="arrow_back" class="st0" points="14.5,6.7 5.8,6.7 11.1,1.6 9.5,0 3.1,6.4 3.1,6.4 1.5,8 1.5,8 1.5,8 3.1,9.6 3.1,9.6 
	9.5,16 11.1,14.4 5.7,9.1 14.5,9.1 "/>
<path id="search" class="st0" d="M11.4,10h-0.7l-0.3-0.3c2.1-2.5,1.9-6.3-0.7-8.3C7.3-0.7,3.6-0.5,1.5,2.1c-2.1,2.5-1.9,6.3,0.7,8.3
	c2.2,1.9,5.5,1.9,7.7,0l0.3,0.3v0.7l4.5,4.6l1.3-1.3L11.4,10z M6,10L6,10c-2.3,0-4.1-1.9-4.1-4.1S3.7,1.7,6,1.7s4.1,1.9,4.1,4.1
	S8.3,10,6,10z"/>
<polygon id="back" class="st0" points="16,1.4 14.6,0 8,6.6 1.4,0 0,1.4 6.6,8 0,14.6 1.4,16 8,9.4 14.6,16 16,14.6 9.4,8 "/>
<polygon id="plus" class="st0" points="16,8.9 16,7 9,7 9,0 7,0 7,7 0,7 0,8.9 7,8.9 7,16 9,16 9,8.9 "/>
<path id="repeat" class="st0" d="M13.1,4.8L10.2,8h2.2c0,2.6-1.9,4.7-4.3,4.7c-0.7,0-1.4-0.2-2.1-0.6l-1.1,1.2c2.7,1.9,6.3,1,8-1.9
	c0.6-1,0.9-2.2,0.9-3.4H16L13.1,4.8z M3.7,8c0-2.6,1.9-4.7,4.3-4.7c0.7,0,1.4,0.2,2.1,0.6l1.1-1.2C8.4,0.7,4.8,1.6,3.1,4.6
	C2.5,5.6,2.1,6.7,2.1,8H0l2.9,3.2L5.8,8H3.7z"/>
<path id="play" class="st0" d="M14.3,8L2.6,16V0L14.3,8z"/>
<g id="pause" class="st0">
	<rect id="Rectangle_1121" x="1.1" y="0.1" class="st1" width="4.5" height="15.9"/>
	<rect id="Rectangle_1122" x="10.3" y="0.1" class="st1" width="4.5" height="15.9"/>
</g>
<g id="open_folder" class="st0">
	<path class="st1" d="M16,7.5c-0.1-0.7-0.8-1.3-1.6-1.3h-0.2H5.6l0,0l-2.9,7.5h10c0.3,0,0.5-0.1,0.7-0.2c0.4-0.2,0.7-0.5,0.9-1
		L15.9,8C16,7.9,16,7.7,16,7.5z"/>
	<path class="st1" d="M4.2,4.9L4.2,4.9L4.2,4.9L4.2,4.9h10c-0.1-0.7-0.7-1.2-1.4-1.2H7.1L5.7,2.3H1.4C0.7,2.3,0,2.9,0,3.7v8.5
		c0,0.7,0.5,1.3,1.1,1.4L4.2,4.9L4.2,4.9z"/>
</g>
<rect class="st7" width="16" height="16"/>
</svg>
