<svg xmlns="http://www.w3.org/2000/svg" viewBox="0 0 64 64"><title>logo_fdm</title><rect width="64" height="64" style="fill:#fff;opacity:0"/><path d="M14.43,51.25C9.61,46.13,2,41,2,33.7V.22H33.29C40.6.22,44.4,6.94,51.13,14Z" style="fill:#1c3949"/><path d="M62,31.61V63.78H32a11.89,11.89,0,0,1-9.06-4c-.15-.14-.3-.29-.3-.43a12.52,12.52,0,0,1-3.21-8.49V18.74H49.57a13.05,13.05,0,0,1,9.65,4.39A15.84,15.84,0,0,1,62,31.61Z" style="fill:#00c9e4"/><path d="M19.55,18.77V33.54H35.63v-7.9L56.84,39.09,35.63,51.81V44.5H19.55v6.43a12.52,12.52,0,0,0,3.21,8.49C18.67,55.18,9.6,48.89,9.6,41.87V8.23H40.9c7,.15,15.35,11.56,18.28,14.92a12.32,12.32,0,0,0-9.65-4.38Z" style="fill:#fff"/></svg>