<?xml version="1.0" encoding="utf-8"?>
<!-- Generator: Adobe Illustrator 23.0.6, SVG Export Plug-In . SVG Version: 6.00 Build 0)  -->
<svg version="1.1" id="Слой_1" xmlns="http://www.w3.org/2000/svg" xmlns:xlink="http://www.w3.org/1999/xlink" x="0px" y="0px"
	 viewBox="0 0 24 24" style="enable-background:new 0 0 24 24;" xml:space="preserve">
<style type="text/css">
	.st0{display:none;}
	.st1{display:inline;}
	.st2{display:inline;fill:none;stroke:#000000;stroke-width:0.9974;stroke-miterlimit:10;}
	.st3{display:inline;fill:none;stroke:#000000;stroke-width:0.8838;stroke-miterlimit:10;}
	.st4{display:inline;stroke:#000000;stroke-width:0.7402;stroke-miterlimit:10;}
	.st5{display:inline;fill:#FFFFFF;}
	.st6{fill:#FFFFFF;}
</style>
<path class="st0" d="M20,6h-8l-2-2h-6c-1.1,0-2,0.9-2,2v12c0,1.1,0.9,2,2,2H20c1.1,0,2-0.9,2-2V8C22,6.9,21.1,6,20,6z"/>
<g id="SUPPORT" class="st0">
	<path class="st1" d="M6.1,9.6c-2,0-3.6,1.6-3.6,3.6s1.6,3.6,3.6,3.6V9.6z"/>
	<path class="st1" d="M18,9.6c2,0,3.6,1.6,3.6,3.6S20,16.8,18,16.8V9.6z"/>
	<path class="st2" d="M19.2,10.3C19,6.5,15.9,3.5,12,3.5s-6.9,3-7.1,6.8"/>
	<path class="st3" d="M13.1,20.2c4-0.2,6.5,0.1,6-6.7"/>
	<ellipse class="st4" cx="13.2" cy="20.1" rx="1.4" ry="0.8"/>
</g>
<g id="ABOUT" class="st0">
	<polygon class="st1" points="0.9,12 12,0.8 23.2,12 12,23.2 	"/>
	<rect x="11.1" y="7" class="st5" width="2" height="6"/>
	<rect x="11.1" y="15" class="st5" width="2" height="2"/>
</g>
<g>
	<ellipse cx="12" cy="12" rx="12" ry="12"/>
	<g>
		<path class="st6" d="M10,15L10,15c0.3-1.3,0.6-2.8,2-4.4c1.1-1.3,1.7-2.3,1.7-3.4c0-1.3-0.8-2.2-2.4-2.2c-0.8,0-1.9,0.2-2.5,0.7
			L8.1,4.2c0.8-0.6,2.3-1,3.6-1c2.9,0,4.2,1.8,4.2,3.6c0,1.7-1,2.9-2.2,4.4c-1.1,1.3-1.5,2.4-1.7,3.6V15h-1.6H10z M9.8,19.2
			c0-1,0.6-1.6,1.5-1.6c0.8,0,1.5,0.6,1.5,1.6c0,0.8-0.6,1.6-1.5,1.6C10.4,20.7,9.8,20,9.8,19.2z"/>
	</g>
</g>
<path id="settings" class="st0" d="M20.9,13.2c0-0.3,0.1-0.8,0.1-1.2s0-0.8-0.1-1.2l2.5-2c0.2-0.2,0.2-0.5,0.1-0.8l-2.3-4.2
	c-0.1-0.2-0.5-0.3-0.7-0.2l-3,1.2c-0.6-0.5-1.3-0.9-2.1-1.2L15,0.5C15,0.1,14.6,0,14.4,0H9.7C9.4,0,9.1,0.2,9.1,0.5L8.6,3.7
	C7.9,4,7.2,4.4,6.6,4.8l-3-1.2c-0.3,0-0.5,0.1-0.7,0.3L0.6,8.1C0.3,8.3,0.4,8.7,0.7,8.9l2.5,2c-0.1,0.8-0.1,1.6,0,2.3l-2.5,2
	c-0.2,0.2-0.2,0.5-0.1,0.8l2.3,4.2c0.1,0.2,0.5,0.3,0.7,0.2l3-1.2c0.6,0.5,1.3,0.9,2.1,1.2l0.4,3.1c0,0.4,0.3,0.5,0.6,0.5h4.8
	c0.3,0,0.6-0.2,0.6-0.5l0.5-3.2c0.7-0.3,1.4-0.7,2.1-1.2l3,1.2c0.2,0.1,0.6,0,0.7-0.2l2.4-4.2c0.1-0.2,0.1-0.6-0.1-0.8L20.9,13.2
	L20.9,13.2z M12,16.5c-2.5,0-4.5-2-4.5-4.5s2-4.5,4.5-4.5s4.5,2,4.5,4.5l0,0C16.5,14.5,14.4,16.5,12,16.5z"/>
<path id="share" class="st0" d="M14.8,19.4l-6.9-4c-1.8,1.8-4.6,1.9-6.4,0.1S-0.3,11,1.5,9.2S6.1,7.3,7.9,9C8,9.2,8.1,9.3,8.3,9.4
	L14.9,6c-0.8-2.4,0.6-5,3.1-5.6c2.4-0.8,5,0.6,5.6,3.1c0.6,2.4-0.6,5-3.1,5.6c-1.4,0.4-2.9,0.1-4.1-0.8L9.3,12c0,0.1,0,0.3,0,0.4
	c0,0.3,0,0.4,0,0.6l6.5,3.7c1.4-2,4.3-2.6,6.4-1c2,1.4,2.6,4.3,1,6.4c-1.5,2-4.3,2.6-6.4,1C15.6,22.2,14.8,20.8,14.8,19.4L14.8,19.4
	z"/>
<path id="error" class="st0" d="M0.1,22H24L12.1,1.2L0.1,22z M14,20h-3v-2h3V20z M14,17h-3v-7h3V17z"/>
<path id="galka" class="st0" d="M7.7,16.9L2,11.2l-1.9,1.9l7.7,7.7L24,4.4l-1.9-1.9L7.7,16.9z"/>
<path id="arrow_down" class="st0" d="M12,24l5-5.1h-3.7V0h-2.5v18.9H7.1L12,24z"/>
<path id="arrow_up" class="st0" d="M12,0L7,5.1h3.8V24h2.5V5.1H17L12,0z"/>
<g id="menu" class="st0">
	<ellipse class="st1" cx="12" cy="12" rx="2.8" ry="2.8"/>
	<ellipse class="st1" cx="12" cy="2.8" rx="2.8" ry="2.8"/>
	<ellipse class="st1" cx="12" cy="21.2" rx="2.8" ry="2.8"/>
</g>
<g id="burger_1_" class="st0">
	<rect x="0.1" y="3" class="st1" width="23.9" height="3"/>
	<rect x="0.1" y="11" class="st1" width="23.9" height="3"/>
	<rect x="0.1" y="18" class="st1" width="23.9" height="3"/>
</g>
<polygon id="arrow_back" class="st0" points="21.8,10.1 8.8,10.1 16.6,2.4 14.2,0 4.7,9.6 4.7,9.6 2.3,12 2.3,12 2.3,12 4.7,14.4 
	4.7,14.4 14.2,24 16.6,21.6 8.7,13.7 21.8,13.7 "/>
<path id="search" class="st0" d="M16.9,15h-1.1l-0.4-0.4c3.1-3.7,2.8-9.4-1-12.5C10.9-1,5.3-0.7,2.1,3.1c-3.1,3.7-2.8,9.4,1,12.5
	c3.3,2.9,8.2,2.9,11.5,0L15,16v1.1l6.8,6.9l2-2L16.9,15z M9.1,15L9.1,15c-3.4,0-6.2-2.8-6.2-6.2s2.8-6.2,6.2-6.2s6.2,2.8,6.2,6.2
	S12.4,15,9.1,15z"/>
<polygon id="back" class="st0" points="24,2.1 21.9,0 12,9.9 2.2,0 0.1,2.1 10,12 0.1,21.9 2.2,24 12,14.1 21.9,24 24,21.9 14.1,12 
	"/>
<polygon id="plus" class="st0" points="24,13.4 24,10.5 13.5,10.5 13.5,0 10.6,0 10.6,10.5 0.1,10.5 0.1,13.4 10.6,13.4 10.6,24 
	13.5,24 13.5,13.4 "/>
<path id="repeat" class="st0" d="M19.6,7.2L15.3,12h3.3c0,3.9-2.9,7.1-6.5,7.1c-1.1,0-2.1-0.3-3.1-0.9L7.5,20
	c4.1,2.8,9.4,1.5,11.9-2.9c0.9-1.5,1.4-3.3,1.4-5.1H24L19.6,7.2z M5.6,12c0-3.9,2.9-7.1,6.5-7.1c1.1,0,2.1,0.3,3.1,0.9L16.7,4
	c-4.1-2.9-9.5-1.6-12,2.9C3.8,8.4,3.3,10.1,3.3,12H0.1l4.4,4.8L8.8,12H5.6z"/>
<path id="play" class="st0" d="M21.4,12L4,24V0L21.4,12z"/>
<g id="pause" class="st0">
	<rect id="Rectangle_1121" x="2.1" y="0" class="st1" width="7" height="24"/>
	<rect id="Rectangle_1122" x="15" y="0" class="st1" width="7" height="24"/>
</g>
<g id="open_folder" class="st0">
	<path class="st1" d="M23.8,11c-0.2-1.1-1.2-2-2.3-2h-0.3H8.6l0,0L4.4,20H19c0.4,0,0.7-0.1,1.1-0.3c0.6-0.3,1.1-0.8,1.3-1.5l2.3-6.6
		C23.8,11.5,23.8,11.2,23.8,11z"/>
	<path class="st1" d="M6.4,8L6.4,8L6.4,8L6.4,8h14.9c-0.1-1.6-2.1-2-2.1-2h-9L8.2,4H2.1c-1,0-2,0.9-2,2v12.4c0,1,0.7,1.9,1.7,2.1
		L6.4,7.4V8z"/>
</g>
</svg>
