<?xml version="1.0" encoding="utf-8"?>
<!-- Generator: Adobe Illustrator 23.1.1, SVG Export Plug-In . SVG Version: 6.00 Build 0)  -->
<svg version="1.1" id="Слой_1" xmlns="http://www.w3.org/2000/svg" xmlns:xlink="http://www.w3.org/1999/xlink" x="0px" y="0px"
	 viewBox="0 0 16 16" style="enable-background:new 0 0 16 16;" xml:space="preserve">
<style type="text/css">
	.st0{fill-opacity:0;}
	.st1{display:none;}
	.st2{display:inline;}
	.st3{display:inline;fill:none;stroke:#000000;stroke-miterlimit:10;}
	.st4{display:inline;fill:none;stroke:#000000;stroke-width:0.8861;stroke-miterlimit:10;}
	.st5{display:inline;stroke:#000000;stroke-width:0.7421;stroke-miterlimit:10;}
	.st6{display:inline;fill:#FFFFFF;}
	.st7{fill:#FFFFFF;}
</style>
<rect class="st0" width="16" height="16"/>
<path class="st1" d="M16,2H8L6,0H0c-1.1,0-2,0.9-2,2v12c0,1.1,0.9,2,2,2h16c1.1,0,2-0.9,2-2V4C18,2.9,17.1,2,16,2z"/>
<g id="SUPPORT" class="st1">
	<path class="st2" d="M2,5.6c-2,0-3.6,1.6-3.6,3.6S0,12.8,2,12.8V5.6z"/>
	<path class="st2" d="M14,5.6c2,0,3.6,1.6,3.6,3.6S16,12.8,14,12.8V5.6z"/>
	<path class="st3" d="M15.2,6.3C15,2.5,11.9-0.5,8-0.5s-6.9,3-7.1,6.8"/>
	<path class="st4" d="M9.1,16.2c4-0.2,6.5,0.1,6-6.7"/>
	<ellipse class="st5" cx="9.2" cy="16.1" rx="1.4" ry="0.8"/>
</g>
<g id="ABOUT" class="st1">
	<rect x="0.1" y="0.1" transform="matrix(0.7071 -0.7071 0.7071 0.7071 -3.3116 7.9978)" class="st2" width="15.8" height="15.8"/>
	<rect x="7" y="2.9" class="st6" width="2" height="6.1"/>
	<rect x="7" y="11" class="st6" width="2" height="2"/>
</g>
<g class="st1">
	<circle class="st2" cx="8" cy="8" r="9.9"/>
	<g class="st2">
		<path class="st7" d="M6.7,11v-0.5C6.6,9.4,6.9,8.2,8,6.9C8.9,5.8,9.4,5,9.4,4.1c0-1.1-0.7-1.8-2-1.8c-0.7,0-1.6,0.2-2.1,0.6
			L4.8,1.6c0.7-0.5,1.9-0.8,3-0.8c2.4,0,3.5,1.5,3.5,3c0,1.4-0.8,2.4-1.8,3.6c-0.9,1.1-1.2,2-1.2,3v0.5H6.7V11z M6.2,13.9
			c0-0.8,0.5-1.3,1.2-1.3s1.2,0.5,1.2,1.3c0,0.7-0.5,1.3-1.2,1.3S6.2,14.6,6.2,13.9z"/>
	</g>
</g>
<path id="settings" class="st1" d="M15.7,9c0-0.3,0.1-0.7,0.1-1s0-0.7-0.1-1l2.2-1.7c0.2-0.2,0.2-0.4,0.1-0.7L16,1
	c-0.1-0.2-0.4-0.3-0.6-0.2l-2.6,1c-0.5-0.4-1.1-0.8-1.8-1L10.6-2c0-0.3-0.3-0.4-0.5-0.4H5.9C5.7-2.4,5.4-2.2,5.4-2L5,0.8
	c-0.6,0.3-1.2,0.6-1.8,1l-2.6-1C0.4,0.7,0.2,0.8,0,1l-2,3.6c-0.2,0.2-0.1,0.5,0.1,0.7L0.3,7c-0.1,0.7-0.1,1.4,0,2l-2.2,1.7
	c-0.2,0.2-0.2,0.4-0.1,0.7L0,15c0.1,0.2,0.4,0.3,0.6,0.2l2.6-1c0.5,0.4,1.1,0.8,1.8,1L5.4,18c0,0.3,0.3,0.4,0.5,0.4h4.2
	c0.3,0,0.5-0.2,0.5-0.4l0.4-2.8c0.6-0.3,1.2-0.6,1.8-1l2.6,1c0.2,0.1,0.5,0,0.6-0.2l2.1-3.6c0.1-0.2,0.1-0.5-0.1-0.7L15.7,9L15.7,9z
	 M8,11.9c-2.2,0-3.9-1.7-3.9-3.9S5.8,4.1,8,4.1s3.9,1.7,3.9,3.9l0,0C11.9,10.2,10.1,11.9,8,11.9z"/>
<path id="share" class="st1" d="M10.2,13.8l-5.4-3.1c-1.4,1.4-3.6,1.5-5,0.1s-1.5-3.6-0.1-5s3.6-1.5,5-0.1C4.8,5.8,4.9,5.9,5,6
	l5.3-2.7c-0.6-1.9,0.5-3.9,2.4-4.4c1.9-0.6,3.9,0.5,4.4,2.4s-0.5,3.9-2.4,4.4c-1.1,0.3-2.3,0.1-3.2-0.6L5.8,8c0,0.1,0,0.2,0,0.3
	c0,0.2,0,0.3,0,0.5l5.1,2.9c1.1-1.6,3.4-2,5-0.8c1.6,1.1,2,3.4,0.8,5s-3.4,2-5,0.8C10.8,16,10.2,14.9,10.2,13.8L10.2,13.8z"/>
<path id="error" class="st1" d="M-2.7,16.8h21.3L8-1.6L-2.7,16.8z M9.3,15.1H6.7v-1.9h2.6C9.3,13.2,9.3,15.1,9.3,15.1z M9.3,12.2
	H6.7V6.1h2.6C9.3,6.1,9.3,12.2,9.3,12.2z"/>
<path id="galka" class="st1" d="M4.7,11.6L0.4,7.3L-1,8.7l5.8,5.8L17,2.2l-1.4-1.4L4.7,11.6z"/>
<path id="arrow_down" class="st1" d="M8,19.6l4.8-4.8H9.2V-3H6.8v17.8H3.2L8,19.6z"/>
<path id="arrow_up" class="st1" d="M8-3.3L3.2,1.5h3.6v17.8h2.4V1.5h3.6L8-3.3z"/>
<g id="menu" class="st1">
	<circle class="st2" cx="8" cy="8" r="2.1"/>
	<circle class="st2" cx="8" cy="1" r="2.1"/>
	<circle class="st2" cx="8" cy="15" r="2.1"/>
</g>
<g id="burger" class="st1">
	<rect x="-2" y="1" class="st2" width="19.9" height="2"/>
	<rect x="-2" y="7" class="st2" width="19.9" height="2"/>
	<rect x="-2" y="13" class="st2" width="19.9" height="2"/>
</g>
<polygon id="arrow_back" class="st1" points="14.1,7.4 6.5,7.4 11.1,2.9 9.7,1.5 4.1,7.1 4,7.1 2.6,8.5 2.6,8.5 2.6,8.5 4,9.9 
	4.1,9.9 9.7,15.5 11.1,14.1 6.4,9.5 14.1,9.5 "/>
<path id="search" class="st1" d="M11.4,9.7h-0.9l-0.3-0.3c2.5-2.9,2.2-7.4-0.8-9.9C6.6-3,2.1-2.7-0.4,0.3c-2.5,2.9-2.2,7.4,0.8,9.9
	c2.6,2.3,6.5,2.3,9.2,0l0.3,0.3v0.9l5.4,5.4l1.6-1.6L11.4,9.7z M5,9.7L5,9.7c-2.7,0-4.9-2.2-4.9-4.9S2.3-0.1,5-0.1s4.9,2.2,4.9,4.9
	S7.7,9.7,5,9.7z"/>
<polygon id="back" class="st1" points="17.1,0.5 15.5,-1.1 8,6.4 0.5,-1.1 -1.1,0.5 6.4,8 -1.1,15.5 0.5,17.1 8,9.6 15.5,17.1 
	17.1,15.5 9.6,8 "/>
<polygon id="plus" class="st1" points="17.1,9.1 17.1,6.9 9.1,6.9 9.1,-1.1 6.9,-1.1 6.9,6.9 -1.1,6.9 -1.1,9.1 6.9,9.1 6.9,17.2 
	9.1,17.2 9.1,9.1 "/>
<path id="repeat" class="st1" d="M15.6,3.6L11.3,8h3.3c0,3.6-2.9,6.5-6.5,6.5C7,14.5,6,14.2,5,13.7l-1.6,1.6c4.1,2.6,9.4,1.4,12-2.7
	c0.9-1.4,1.4-3,1.4-4.7H20L15.6,3.6z M1.5,8c0-3.6,2.9-6.5,6.5-6.5c1.1,0,2.1,0.3,3.1,0.8l1.6-1.6C8.6-2,3.2-0.8,0.6,3.3
	c-0.9,1.4-1.4,3-1.4,4.7H-4l4.4,4.4L4.7,8H1.5z"/>
<path id="play" class="st1" d="M14.4,8L2.9,15.9V0.1L14.4,8z"/>
<g id="pause" class="st1">
	<rect id="Rectangle_1121" x="2" y="1" class="st2" width="4" height="13.9"/>
	<rect id="Rectangle_1122" x="10" y="1" class="st2" width="4" height="13.9"/>
</g>
<g id="open_folder">
	<path d="M16,7.5c-0.1-0.8-0.8-1.4-1.6-1.4h-0.2H5.6l0,0L2.8,14h10c0.3,0,0.5-0.1,0.7-0.2c0.4-0.2,0.7-0.6,0.8-1.1L15.9,8
		C16,7.9,16,7.7,16,7.5z"/>
	<path d="M4.2,4.8L4.2,4.8L4.2,4.8L4.2,4.8h10c-0.1-0.8-0.7-1.3-1.4-1.3H7.1L5.7,2H1.4C0.6,2,0,2.7,0,3.5v9c0,0.8,0.5,1.3,1.1,1.5
		L4.2,4.8L4.2,4.8z"/>
</g>
</svg>
