<?xml version="1.0" encoding="utf-8"?>
<!-- Generator: Adobe Illustrator 23.1.1, SVG Export Plug-In . SVG Version: 6.00 Build 0)  -->
<svg version="1.1" id="Слой_1" xmlns="http://www.w3.org/2000/svg" xmlns:xlink="http://www.w3.org/1999/xlink" x="0px" y="0px"
	 viewBox="0 0 16 16" style="enable-background:new 0 0 16 16;" xml:space="preserve">
<style type="text/css">
	.st0{opacity:0;}
	.st1{display:none;}
	.st2{display:inline;stroke:#000000;stroke-width:0.809;stroke-miterlimit:10;}
	.st3{display:inline;fill:none;stroke:#000000;stroke-width:1.6179;stroke-miterlimit:10;}
	.st4{display:inline;stroke:#000000;stroke-width:1.6179;stroke-miterlimit:10;}
	.st5{display:inline;}
	.st6{fill:#FFFFFF;}
	.st7{display:none;stroke:#000000;stroke-width:2;stroke-miterlimit:10;}
	.st8{display:inline;stroke:#000000;stroke-miterlimit:10;}
	.st9{display:inline;stroke:#000000;stroke-width:1.837;stroke-miterlimit:10;}
</style>
<rect class="st0" width="16" height="16"/>
<path class="st1" d="M16,2H8L6,0H0c-1.1,0-2,0.9-2,2v12c0,1.1,0.9,2,2,2h16c1.1,0,2-0.9,2-2V4C18,2.9,17.1,2,16,2z"/>
<g id="SUPPORT" class="st1">
	<path class="st2" d="M0.8,5.1c-2.4,0-4.3,1.9-4.3,4.3s1.9,4.3,4.3,4.3C0.8,13.7,0.8,5.1,0.8,5.1z"/>
	<path class="st2" d="M15.2,5.1c2.4,0,4.3,1.9,4.3,4.3s-1.9,4.3-4.3,4.3V5.1z"/>
	<path class="st3" d="M16.7,5.9c-0.2-4.6-4-8.2-8.7-8.2s-8.3,3.6-8.6,8.2"/>
	<path class="st3" d="M9.3,17.8c4.8-0.2,7.8,0.1,7.2-8.1"/>
	<ellipse class="st4" cx="9.4" cy="17.7" rx="1.7" ry="1"/>
</g>
<path class="st1" d="M8-3.2L-3.2,8L8,19.2L19.2,8L8-3.2z M6.8,2.1h2.3v2.3H6.8V2.1z M9.2,6.8V14H6.9V6.8H9.2z"/>
<g class="st1">
	<circle class="st5" cx="8" cy="8" r="9.9"/>
	<g class="st5">
		<path class="st6" d="M6.7,11v-0.5C6.6,9.4,6.9,8.2,8,6.9C8.9,5.8,9.4,5,9.4,4.1c0-1.1-0.7-1.8-2-1.8c-0.7,0-1.6,0.2-2.1,0.6
			L4.8,1.6c0.7-0.5,1.9-0.8,3-0.8c2.4,0,3.5,1.5,3.5,3c0,1.4-0.8,2.4-1.8,3.6c-0.9,1.1-1.2,2-1.2,3v0.5H6.7V11z M6.2,13.9
			c0-0.8,0.5-1.3,1.2-1.3s1.2,0.5,1.2,1.3c0,0.7-0.5,1.3-1.2,1.3S6.2,14.6,6.2,13.9z"/>
	</g>
</g>
<path id="settings" class="st1" d="M15.7,9c0-0.3,0.1-0.7,0.1-1s0-0.7-0.1-1l2.2-1.7c0.2-0.2,0.2-0.4,0.1-0.7L16,1
	c-0.1-0.2-0.4-0.3-0.6-0.2l-2.6,1c-0.5-0.4-1.1-0.8-1.8-1L10.6-2c0-0.3-0.3-0.4-0.5-0.4H5.9C5.7-2.4,5.4-2.2,5.4-2L5,0.8
	c-0.6,0.3-1.2,0.6-1.8,1l-2.6-1C0.4,0.7,0.2,0.8,0,1l-2,3.6c-0.2,0.2-0.1,0.5,0.1,0.7L0.3,7c-0.1,0.7-0.1,1.4,0,2l-2.2,1.7
	c-0.2,0.2-0.2,0.4-0.1,0.7L0,15c0.1,0.2,0.4,0.3,0.6,0.2l2.6-1c0.5,0.4,1.1,0.8,1.8,1L5.4,18c0,0.3,0.3,0.4,0.5,0.4h4.2
	c0.3,0,0.5-0.2,0.5-0.4l0.4-2.8c0.6-0.3,1.2-0.6,1.8-1l2.6,1c0.2,0.1,0.5,0,0.6-0.2l2.1-3.6c0.1-0.2,0.1-0.5-0.1-0.7L15.7,9L15.7,9z
	 M8,11.9c-2.2,0-3.9-1.7-3.9-3.9S5.8,4.1,8,4.1s3.9,1.7,3.9,3.9l0,0C11.9,10.2,10.1,11.9,8,11.9z"/>
<path id="share" class="st1" d="M10.8,15.4l-6.9-4c-1.8,1.8-4.6,1.9-6.4,0.1S-4.4,7-2.6,5.2S2,3.3,3.8,5C3.9,5.2,4,5.3,4.2,5.4
	L10.9,2c-0.8-2.4,0.6-5,3.1-5.6c2.4-0.8,5,0.6,5.6,3.1c0.6,2.4-0.6,5-3.1,5.6c-1.4,0.4-2.9,0.1-4.1-0.8L5.2,8c0,0.1,0,0.3,0,0.4
	c0,0.3,0,0.4,0,0.6l6.5,3.7c1.4-2,4.3-2.6,6.4-1c2,1.4,2.6,4.3,1,6.4c-1.5,2-4.3,2.6-6.4,1C11.6,18.2,10.8,16.8,10.8,15.4L10.8,15.4
	z"/>
<path id="error" class="st1" d="M-4,18.4h24L8.1-2.4L-4,18.4z M9.5,16.5H6.6v-2.2h2.9V16.5z M9.5,13.2H6.6V6.3h2.9V13.2z"/>
<path id="galka" class="st7" d="M4.2,12.2l-5-5l-1.6,1.6l6.7,6.7L18.5,1.3l-1.6-1.6L4.2,12.2z"/>
<path id="arrow_down" class="st1" d="M8,20l5-5.1H9.3V-4H6.8v18.9H3L8,20z"/>
<path id="arrow_up" class="st1" d="M8-4L2.9,1.1h3.8V20h2.5V1.1H13L8-4z"/>
<g id="menu" class="st1">
	<circle class="st5" cx="249" cy="147.8" r="2.8"/>
	<circle class="st5" cx="249" cy="138.6" r="2.8"/>
	<circle class="st5" cx="249" cy="157" r="2.8"/>
</g>
<g id="burger_1_" class="st1">
	<rect x="-4" y="-1" class="st5" width="24" height="3.4"/>
	<rect x="-4" y="6.3" class="st5" width="24" height="3.4"/>
	<rect x="-4" y="13.6" class="st5" width="24" height="3.4"/>
</g>
<polygon id="arrow_back" class="st1" points="17.8,6.1 4.7,6.1 12.6,-1.6 10.2,-4 0.6,5.6 0.6,5.6 -1.8,8 -1.8,8 -1.8,8 0.6,10.4 
	0.6,10.4 10.2,20 12.6,17.6 4.6,9.7 17.8,9.7 "/>
<path id="search" class="st1" d="M13.1,11H12l-0.4-0.4c3.1-3.7,2.8-9.4-1-12.5C7-5,1.4-4.7-1.8-0.9c-3.1,3.7-2.8,9.4,1,12.5
	c3.3,2.9,8.2,2.9,11.6,0l0.4,0.4v1.1L18,20l2-2L13.1,11z M5,11L5,11c-3.4,0-6.2-2.8-6.2-6.2S1.6-1.4,5-1.4s6.2,2.8,6.2,6.2
	S8.4,11,5,11z"/>
<path id="back" class="st1" d="M47.3,136.8L47.3,136.8c-0.6-0.6-1.5-0.6-2.1,0l-7.8,7.8c-0.6,0.6-1.5,0.6-2.1,0l-7.8-7.8
	c-0.6-0.6-1.5-0.6-2.1,0l0,0c-0.6,0.6-0.6,1.5,0,2.1l7.8,7.8c0.6,0.6,0.6,1.5,0,2.1l-7.8,7.8c-0.6,0.6-0.6,1.5,0,2.1l0,0
	c0.6,0.6,1.5,0.6,2.1,0l7.8-7.8c0.6-0.6,1.5-0.6,2.1,0l7.8,7.8c0.6,0.6,1.5,0.6,2.1,0l0,0c0.6-0.6,0.6-1.5,0-2.1l-7.8-7.8
	c-0.6-0.6-0.6-1.5,0-2.1l7.8-7.8C47.9,138.4,47.9,137.4,47.3,136.8z"/>
<polygon id="plus" class="st1" points="20,9.4 20,6.5 9.5,6.5 9.5,-4 6.5,-4 6.5,6.5 -4,6.5 -4,9.4 6.5,9.4 6.5,20 9.5,20 9.5,9.4 
	"/>
<path id="repeat" class="st1" d="M15.6,3.2L11.3,8h3.3c0,3.9-2.9,7.1-6.5,7.1C7,15.1,6,14.8,5,14.2L3.4,16c4.1,2.8,9.4,1.5,12-2.9
	c0.9-1.5,1.4-3.3,1.4-5.1H20L15.6,3.2z M1.5,8c0-3.9,2.9-7.1,6.5-7.1c1.1,0,2.1,0.3,3.1,0.9L12.7,0C8.6-2.9,3.2-1.6,0.6,2.9
	C-0.3,4.4-0.8,6.1-0.8,8H-4l4.4,4.8L4.7,8H1.5z"/>
<g id="pause" class="st1">
	<rect id="Rectangle_1121" x="0.8" y="-0.4" class="st5" width="4.8" height="16.8"/>
	<rect id="Rectangle_1122" x="10.4" y="-0.4" class="st5" width="4.8" height="16.8"/>
</g>
<g id="open_folder" class="st1">
	<path class="st5" d="M20,7.3c-0.2-1.1-1.2-2-2.4-2h-0.3H4.4l0,0L0.1,16.5h15c0.4,0,0.7-0.1,1.1-0.3c0.6-0.3,1.1-0.8,1.3-1.5L19.9,8
		C20,7.8,20,7.5,20,7.3z"/>
	<path class="st5" d="M2.3,3.4L2.3,3.4L2.3,3.4L2.3,3.4h15c-0.1-1-1-1.8-2.1-1.8H6.7L4.5-0.5h-6.4C-3-0.5-4,0.4-4,1.6v12.8
		c0,1,0.7,1.9,1.7,2.1L2.3,3.4L2.3,3.4z"/>
</g>
<g id="Group_51" transform="translate(-238.116 -7.817)" class="st1">
	<path id="Path_908_1_" class="st8" d="M237.3,9.2l-1.7-1.7L235,8l1.7,1.7l0,0l0.6,0.6l1.7-1.7l0.6-0.6l1.8-1.8l-0.6-0.6L239,7.4
		L237.3,9.2z"/>
	<path id="Path_908_2_" class="st8" d="M237.3,16.4l-1.7-1.7l-0.6,0.6l1.7,1.7l0,0l0.6,0.6l1.7-1.7l0.6-0.6l1.8-1.8l-0.6-0.6
		l-1.8,1.8L237.3,16.4z"/>
	<path id="Path_908_3_" class="st8" d="M237.3,24.2l-1.7-1.7l-0.6,0.6l1.7,1.7l0,0l0.6,0.6l1.7-1.7l0.6-0.6l1.8-1.8l-0.6-0.6
		l-1.8,1.8L237.3,24.2z"/>
	<rect id="Rectangle_1161" x="243.2" y="7.5" class="st9" width="13.3" height="1"/>
	<rect id="Rectangle_1162" x="243.2" y="15.3" class="st9" width="13.3" height="1"/>
	<rect id="Rectangle_1163" x="243.2" y="23" class="st9" width="13.3" height="1"/>
</g>
<g class="st1">
	<path id="Path_931" class="st5" d="M10,2.7c0.1-0.2,0.3-0.3,0.4-0.5c1.3-1.3,2.7-2.5,4-3.8c0.2-0.3,0.7-0.4,1-0.2
		c0.1,0,0.1,0.1,0.2,0.2l4.1,3.9c0.3,0.2,0.4,0.6,0.2,0.9c0,0.1-0.1,0.1-0.1,0.1c-0.1,0.1-0.2,0.2-0.4,0.3c-0.2,0.3-0.7,0.3-1,0.1
		c0,0-0.1,0-0.1-0.1c-0.7-0.7-1.4-1.3-2.1-2c-0.1,0-0.1-0.1-0.2-0.2v0.3c0,4.6,0,9.2,0,13.8c0,0.1,0,0.2,0,0.3
		c0,0.3-0.3,0.5-0.6,0.5s-0.5,0-0.8,0S14,16.1,14,15.8c0-0.1,0-0.2,0-0.3c0-4.6,0-9.2,0-13.8V1.6c-0.1,0.1-0.1,0.1-0.2,0.2l-2.1,1.9
		C11.5,4,11,4,10.7,3.8c-0.1,0-0.1-0.1-0.1-0.1C10.3,3.5,10.1,3.2,10,3V2.7z"/>
	<path id="Path_932" class="st5" d="M2.7,14.9h5.7c0.7,0,1,0.3,1,1c0,0.2,0,0.4,0,0.7c0,0.4-0.3,0.8-0.8,0.8c-0.1,0-0.1,0-0.2,0H-3
		c-0.5,0-0.9-0.2-0.9-0.6c-0.1-0.4-0.1-0.9,0-1.3c0.1-0.4,0.4-0.7,0.8-0.6c1.2,0,2.3,0,3.5,0C0.4,14.9,2.7,14.9,2.7,14.9z"/>
	<path id="Path_933" class="st5" d="M1.5,12.1h-4.6c-0.6,0-0.9-0.3-0.9-1c0-0.2,0-0.5,0-0.7c0-0.4,0.3-0.8,0.7-0.8
		c0.1,0,0.1,0,0.2,0H6c0.7,0,0.9,0.3,0.9,1c0,0.2,0,0.4,0,0.5C7,11.6,6.7,12,6.2,12c-0.1,0-0.1,0-0.2,0c-1.5,0-3,0-4.4,0L1.5,12.1z"
		/>
	<path id="Path_934" class="st5" d="M0.5,6.9h-3.6C-3.5,7-3.9,6.6-3.9,6.2C-4,6-4,6-4,5.9c0-0.2,0-0.5,0-0.7c0-0.4,0.3-0.8,0.7-0.8
		c0.1,0,0.1,0,0.2,0c2.4,0,4.8,0,7.2,0c0.3,0,0.6,0.1,0.7,0.4C4.9,4.8,4.9,5,5,5.2C5,5.4,5,5.7,5,6c0,0.5-0.3,0.9-0.7,0.9H4.2
		C2.9,6.9,1.7,6.9,0.5,6.9z"/>
	<path id="Path_935" class="st5" d="M-0.7,1c-0.9,0-1.7,0-2.6,0C-3.6,1-3.9,0.7-4,0.3C-4,0.2-4,0.1-4,0c0-0.2,0-0.5,0-0.7
		c0-0.5,0.3-0.8,0.6-0.9l0,0h0.1h5.1c0.4-0.1,0.7,0.3,0.7,0.7c0,0.1,0,0.2,0,0.2c0,0.2,0,0.4,0,0.6C2.6,0.5,2.4,0.9,2,1
		C1.9,1,1.9,1,1.8,1H-0.7z"/>
	<path id="Path_931_1_" class="st5" d="M20,13.1c-0.1,0.2-0.3,0.3-0.4,0.5c-1.3,1.3-2.7,2.6-4,3.9c-0.2,0.3-0.7,0.4-1,0.2
		c-0.1,0-0.1-0.1-0.2-0.2l-4.1-4c-0.3-0.2-0.4-0.6-0.2-0.9c0-0.1,0.1-0.1,0.1-0.1c0.1-0.1,0.2-0.2,0.4-0.4c0.2-0.3,0.7-0.3,1-0.1
		c0,0,0.1,0,0.1,0.1c0.7,0.7,1.4,1.4,2.1,2c0.1,0,0.1,0.1,0.2,0.2V14c0-4.8,0-9.6,0-14.4c0-0.1,0-0.2,0-0.3c0-0.3,0.3-0.6,0.6-0.6
		s0.5,0,0.8,0C15.7-1.2,16-1,16-0.7c0,0.1,0,0.2,0,0.3c0,4.8,0,9.6,0,14.3v0.3c0.1-0.1,0.1-0.1,0.2-0.2l2.1-2c0.2-0.3,0.7-0.4,1-0.1
		c0.1,0,0.1,0.1,0.1,0.1c0.3,0.2,0.5,0.4,0.6,0.7L20,13.1z"/>
</g>
<path id="play_1_" d="M13,8l-9,6V2L13,8z"/>
</svg>
