<?xml version="1.0" encoding="UTF-8"?>
<svg id="_Слой_1" data-name="Слой_1" xmlns="http://www.w3.org/2000/svg" version="1.1" viewBox="0 0 16 16">
  <!-- Generator: Adobe Illustrator 29.6.1, SVG Export Plug-In . SVG Version: 2.1.1 Build 9)  -->
  <defs>
    <style>
      .st0 {
        stroke-width: 1.84px;
      }

      .st0, .st1, .st2, .st3, .st4, .st5 {
        stroke: #000;
        stroke-miterlimit: 10;
      }

      .st1 {
        fill: none;
      }

      .st1, .st3 {
        stroke-width: 1.62px;
      }

      .st2 {
        stroke-width: .81px;
      }

      .st6 {
        fill: #fff;
      }

      .st4 {
        stroke-width: 2px;
      }

      .st4, .st7 {
        display: none;
      }
    </style>
  </defs>
  <path class="st7" d="M16,2h-8L6,0H0c-1.1,0-2,.9-2,2v12c0,1.1.9,2,2,2h16c1.1,0,2-.9,2-2V4c0-1.1-.9-2-2-2Z"/>
  <g id="SUPPORT" class="st7">
    <path class="st2" d="M.8,5.1c-2.4,0-4.3,1.9-4.3,4.3S-1.6,13.7.8,13.7c0,0,0-8.6,0-8.6Z"/>
    <path class="st2" d="M15.2,5.1c2.4,0,4.3,1.9,4.3,4.3s-1.9,4.3-4.3,4.3V5.1Z"/>
    <path class="st1" d="M16.7,5.9c-.2-4.6-4-8.2-8.7-8.2S-.3,1.3-.6,5.9"/>
    <path class="st1" d="M9.3,17.8c4.8-.2,7.8.1,7.2-8.1"/>
    <ellipse class="st3" cx="9.4" cy="17.7" rx="1.7" ry="1"/>
  </g>
  <path class="st7" d="M8-3.2L-3.2,8l11.2,11.2,11.2-11.2L8-3.2ZM6.8,2.1h2.3v2.3h-2.3v-2.3ZM9.2,6.8v7.2h-2.3v-7.2h2.3Z"/>
  <g class="st7">
    <circle cx="8" cy="8" r="9.9"/>
    <path class="st6" d="M6.7,11v-.5c-.1-1.1.2-2.3,1.3-3.6.9-1.1,1.4-1.9,1.4-2.8,0-1.1-.7-1.8-2-1.8-.7,0-1.6.2-2.1.6l-.5-1.3c.7-.5,1.9-.8,3-.8,2.4,0,3.5,1.5,3.5,3,0,1.4-.8,2.4-1.8,3.6-.9,1.1-1.2,2-1.2,3v.5h-1.6v.1ZM6.2,13.9c0-.8.5-1.3,1.2-1.3s1.2.5,1.2,1.3c0,.7-.5,1.3-1.2,1.3s-1.2-.6-1.2-1.3Z"/>
  </g>
  <path id="settings" class="st7" d="M15.7,9c0-.3.1-.7.1-1s0-.7-.1-1l2.2-1.7c.2-.2.2-.4.1-.7l-2-3.6c-.1-.2-.4-.3-.6-.2l-2.6,1c-.5-.4-1.1-.8-1.8-1l-.4-2.8c0-.3-.3-.4-.5-.4h-4.2c-.2,0-.5.2-.5.4l-.4,2.8c-.6.3-1.2.6-1.8,1L.6.8c-.2-.1-.4,0-.6.2l-2,3.6c-.2.2-.1.5.1.7L.3,7c-.1.7-.1,1.4,0,2l-2.2,1.7c-.2.2-.2.4-.1.7l2,3.6c.1.2.4.3.6.2l2.6-1c.5.4,1.1.8,1.8,1l.4,2.8c0,.3.3.4.5.4h4.2c.3,0,.5-.2.5-.4l.4-2.8c.6-.3,1.2-.6,1.8-1l2.6,1c.2.1.5,0,.6-.2l2.1-3.6c.1-.2.1-.5-.1-.7l-2.3-1.7h0ZM8,11.9c-2.2,0-3.9-1.7-3.9-3.9s1.7-3.9,3.9-3.9,3.9,1.7,3.9,3.9h0c0,2.2-1.8,3.9-3.9,3.9Z"/>
  <path id="share" class="st7" d="M10.8,15.4l-6.9-4c-1.8,1.8-4.6,1.9-6.4.1s-1.9-4.5-.1-6.3,4.6-1.9,6.4-.2c.1.2.2.3.4.4l6.7-3.4c-.8-2.4.6-5,3.1-5.6,2.4-.8,5,.6,5.6,3.1.6,2.4-.6,5-3.1,5.6-1.4.4-2.9.1-4.1-.8l-7.2,3.7v1l6.5,3.7c1.4-2,4.3-2.6,6.4-1,2,1.4,2.6,4.3,1,6.4-1.5,2-4.3,2.6-6.4,1-1.1-.9-1.9-2.3-1.9-3.7h0Z"/>
  <path id="error" class="st7" d="M-4,18.4h24L8.1-2.4-4,18.4ZM9.5,16.5h-2.9v-2.2h2.9v2.2ZM9.5,13.2h-2.9v-6.9h2.9v6.9Z"/>
  <path id="galka" class="st4" d="M4.2,12.2L-.8,7.2l-1.6,1.6,6.7,6.7L18.5,1.3l-1.6-1.6L4.2,12.2Z"/>
  <path id="arrow_down" class="st7" d="M8,20l5-5.1h-3.7V-4h-2.5V14.9h-3.8l5,5.1Z"/>
  <path id="arrow_up" class="st7" d="M8-4L2.9,1.1h3.8v18.9h2.5V1.1h3.8l-5-5.1Z"/>
  <g id="menu" class="st7">
    <circle cx="249" cy="147.8" r="2.8"/>
    <circle cx="249" cy="138.6" r="2.8"/>
    <circle cx="249" cy="157" r="2.8"/>
  </g>
  <g id="burger" class="st7">
    <rect x="-4" y="-1" width="24" height="3.4"/>
    <rect x="-4" y="6.3" width="24" height="3.4"/>
    <rect x="-4" y="13.6" width="24" height="3.4"/>
  </g>
  <polygon id="arrow_back" class="st7" points="17.8 6.1 4.7 6.1 12.6 -1.6 10.2 -4 .6 5.6 .6 5.6 -1.8 8 -1.8 8 -1.8 8 .6 10.4 .6 10.4 10.2 20 12.6 17.6 4.6 9.7 17.8 9.7 17.8 6.1"/>
  <path id="search" class="st7" d="M13.1,11h-1.1l-.4-.4c3.1-3.7,2.8-9.4-1-12.5C7-5,1.4-4.7-1.8-.9c-3.1,3.7-2.8,9.4,1,12.5,3.3,2.9,8.2,2.9,11.6,0l.4.4v1.1l6.8,6.9,2-2-6.9-7ZM5,11h0c-3.4,0-6.2-2.8-6.2-6.2S1.6-1.4,5-1.4s6.2,2.8,6.2,6.2-2.8,6.2-6.2,6.2Z"/>
  <path id="back" class="st7" d="M47.3,136.8h0c-.6-.6-1.5-.6-2.1,0l-7.8,7.8c-.6.6-1.5.6-2.1,0l-7.8-7.8c-.6-.6-1.5-.6-2.1,0h0c-.6.6-.6,1.5,0,2.1l7.8,7.8c.6.6.6,1.5,0,2.1l-7.8,7.8c-.6.6-.6,1.5,0,2.1h0c.6.6,1.5.6,2.1,0l7.8-7.8c.6-.6,1.5-.6,2.1,0l7.8,7.8c.6.6,1.5.6,2.1,0h0c.6-.6.6-1.5,0-2.1l-7.8-7.8c-.6-.6-.6-1.5,0-2.1l7.8-7.8c.6-.5.6-1.5,0-2.1Z"/>
  <polygon id="plus" class="st7" points="20 9.4 20 6.5 9.5 6.5 9.5 -4 6.5 -4 6.5 6.5 -4 6.5 -4 9.4 6.5 9.4 6.5 20 9.5 20 9.5 9.4 20 9.4"/>
  <path id="repeat" class="st7" d="M15.6,3.2l-4.3,4.8h3.3c0,3.9-2.9,7.1-6.5,7.1-1.1,0-2.1-.3-3.1-.9l-1.6,1.8c4.1,2.8,9.4,1.5,12-2.9.9-1.5,1.4-3.3,1.4-5.1h3.2l-4.4-4.8ZM1.5,8C1.5,4.1,4.4.9,8,.9c1.1,0,2.1.3,3.1.9l1.6-1.8C8.6-2.9,3.2-1.6.6,2.9c-.9,1.5-1.4,3.2-1.4,5.1h-3.2L.4,12.8l4.3-4.8H1.5Z"/>
  <g id="pause" class="st7">
    <rect id="Rectangle_1121" x=".8" y="-.4" width="4.8" height="16.8"/>
    <rect id="Rectangle_1122" x="10.4" y="-.4" width="4.8" height="16.8"/>
  </g>
  <g id="open_folder" class="st7">
    <path d="M20,7.3c-.2-1.1-1.2-2-2.4-2H4.4L.1,16.5h15c.4,0,.7-.1,1.1-.3.6-.3,1.1-.8,1.3-1.5l2.4-6.7c.1-.2.1-.5.1-.7Z"/>
    <path d="M2.3,3.4h15c-.1-1-1-1.8-2.1-1.8H6.7L4.5-.5H-1.9c-1.1,0-2.1.9-2.1,2.1v12.8c0,1,.7,1.9,1.7,2.1L2.3,3.4h0Z"/>
  </g>
  <g id="Group_51" class="st7">
    <path id="Path_908" class="st5" d="M-.82,1.38L-2.52-.32l-.6.5,1.7,1.7h0l.6.6L.88.78,1.48.18l1.8-1.8-.6-.6L.88-.42-.82,1.38Z"/>
    <path id="Path_9081" data-name="Path_908" class="st5" d="M-.82,8.58l-1.7-1.7-.6.6,1.7,1.7h0l.6.6,1.7-1.7.6-.6,1.8-1.8-.6-.6-1.8,1.8-1.7,1.7Z"/>
    <path id="Path_9082" data-name="Path_908" class="st5" d="M-.82,16.38l-1.7-1.7-.6.6,1.7,1.7h0l.6.6,1.7-1.7.6-.6,1.8-1.8-.6-.6-1.8,1.8-1.7,1.7Z"/>
    <rect id="Rectangle_1161" class="st0" x="5.08" y="-.32" width="13.3" height="1"/>
    <rect id="Rectangle_1162" class="st0" x="5.08" y="7.48" width="13.3" height="1"/>
    <rect id="Rectangle_1163" class="st0" x="5.08" y="15.18" width="13.3" height="1"/>
  </g>
  <g class="st7">
    <path id="Path_931" d="M10,2.7c.1-.2.3-.3.4-.5,1.3-1.3,2.7-2.5,4-3.8.2-.3.7-.4,1-.2.1,0,.1.1.2.2l4.1,3.9c.3.2.4.6.2.9,0,.1-.1.1-.1.1-.1.1-.2.2-.4.3-.2.3-.7.3-1,.1,0,0-.1,0-.1-.1-.7-.7-1.4-1.3-2.1-2-.1,0-.1-.1-.2-.2v14.4c0,.3-.3.5-.6.5h-.8c-.3,0-.6-.2-.6-.5V1.6q-.1.1-.2.2l-2.1,1.9c-.2.3-.7.3-1,.1-.1,0-.1-.1-.1-.1-.3-.2-.5-.5-.6-.7v-.3Z"/>
    <path id="Path_932" d="M2.7,14.9h5.7c.7,0,1,.3,1,1v.7c0,.4-.3.8-.8.8H-3c-.5,0-.9-.2-.9-.6-.1-.4-.1-.9,0-1.3.1-.4.4-.7.8-.6H.4s2.3,0,2.3,0Z"/>
    <path id="Path_933" d="M1.5,12.1H-3.1c-.6,0-.9-.3-.9-1v-.7c0-.4.3-.8.7-.8H6c.7,0,.9.3.9,1v.5c.1.5-.2.9-.7.9H1.6l-.1.1Z"/>
    <path id="Path_934" d="M.5,6.9h-3.6c-.4.1-.8-.3-.8-.7q-.1-.2-.1-.3v-.7c0-.4.3-.8.7-.8h7.4c.3,0,.6.1.7.4.1,0,.1.2.2.4v.8c0,.5-.3.9-.7.9H.5Z"/>
    <path id="Path_935" d="M-.7,1h-2.6c-.3,0-.6-.3-.7-.7V-.7c0-.5.3-.8.6-.9H1.8c.4-.1.7.3.7.7V-.1c.1.6-.1,1-.5,1.1H-.7Z"/>
    <path id="Path_9311" data-name="Path_931" d="M20,13.1c-.1.2-.3.3-.4.5-1.3,1.3-2.7,2.6-4,3.9-.2.3-.7.4-1,.2-.1,0-.1-.1-.2-.2l-4.1-4c-.3-.2-.4-.6-.2-.9,0-.1.1-.1.1-.1l.4-.4c.2-.3.7-.3,1-.1,0,0,.1,0,.1.1.7.7,1.4,1.4,2.1,2,.1,0,.1.1.2.2V-.7c0-.3.3-.6.6-.6h.8c.3.1.6.3.6.6v14.9q.1-.1.2-.2l2.1-2c.2-.3.7-.4,1-.1.1,0,.1.1.1.1.3.2.5.4.6.7v.4Z"/>
  </g>
  <path id="play" class="st6" d="M13,8l-9,6V2l9,6Z"/>
</svg>