<?xml version="1.0" encoding="UTF-8"?>
<svg id="_Слой_1" data-name="Слой_1" xmlns="http://www.w3.org/2000/svg" version="1.1" viewBox="0 0 1000 1000">
  <!-- Generator: Adobe Illustrator 29.6.1, SVG Export Plug-In . SVG Version: 2.1.1 Build 9)  -->
  <defs>
    <style>
      .st0 {
        fill: #fff;
      }
    </style>
  </defs>
  <path class="st0" d="M500,576.1c22.1,0,41.3-8.1,57.4-24.2s24.3-35.3,24.3-57.4V86.1c0-22.1-8.1-41.3-24.3-57.4-16.1-16.2-35.3-24.3-57.4-24.3s-41.3,8.1-57.4,24.3c-16.2,16.2-24.2,35.3-24.2,57.4v408.3c0,22.1,8.1,41.3,24.2,57.4,16.1,16.2,35.3,24.3,57.4,24.3Z"/>
  <path class="st0" d="M938.7,286.8c-34.2-68.5-82.4-125.9-144.5-172.3-17.9-13.6-38.1-18.9-60.6-16-22.5,3-40.4,13.6-53.6,31.9-13.6,17.9-18.8,38-15.6,60.3s13.7,40.3,31.6,53.9c41.7,31.5,73.9,70,96.7,115.5s34.1,94,34.1,145.5c0,44.2-8.6,86.5-25.8,126.7s-40.5,75-69.9,104.3-64.1,52.6-104.3,69.9c-40.2,17.2-82.4,25.8-126.7,25.8s-86.4-8.6-126.6-25.8-75-40.5-104.3-69.9c-29.3-29.4-52.6-64.1-69.9-104.3-17.2-40.2-25.8-82.4-25.8-126.7,0-51.5,11.4-99.9,34.1-145.5,22.8-45.5,55-84,96.7-115.5,17.9-13.6,28.4-31.6,31.6-53.9,3.2-22.3-2-42.4-15.6-60.3-13.2-18.3-30.9-28.9-53.3-31.9-22.3-3-42.6,2.3-60.9,16-62.3,46.4-110.5,103.8-144.7,172.3C27.1,355.2,10,428.2,10,505.6c0,66.4,13,129.7,38.9,190.1,26,60.4,60.8,112.5,104.6,156.3s95.9,78.7,156.3,104.6c60.4,26,123.8,38.9,190.1,38.9s129.7-13,190.1-38.9,112.5-60.8,156.3-104.6,78.7-95.9,104.6-156.3c26.1-60.4,39.1-123.8,39.1-190.1,0-77.4-17.1-150.4-51.3-218.8Z"/>
</svg>