<?xml version="1.0" encoding="utf-8"?>
<!-- Svg Vector Icons : http://www.onlinewebfonts.com/icon -->
<!DOCTYPE svg PUBLIC "-//W3C//DTD SVG 1.1//EN" "http://www.w3.org/Graphics/SVG/1.1/DTD/svg11.dtd">
<svg version="1.1" xmlns="http://www.w3.org/2000/svg" xmlns:xlink="http://www.w3.org/1999/xlink" x="0px" y="0px" viewBox="0 0 1000 1000" enable-background="new 0 0 1000 1000" xml:space="preserve">
<metadata> Svg Vector Icons : http://www.onlinewebfonts.com/icon </metadata>
<g><g transform="translate(0.000000,512.000000) scale(0.100000,-0.100000)"><path d="M3209.5,5004.4c-118.9-28.8-293.3-130.4-377.7-222.4c-42.2-46-105.4-141.8-138-212.8l-61.3-128.4V116v-4322.8l70.9-145.7c86.3-174.4,197.4-281.8,375.7-366.1l128.4-61.3H5000h1792.4l128.4,61.3c178.3,84.3,289.5,191.7,375.7,366.1l70.9,145.7V117.9v4324.8l-70.9,145.7c-86.3,174.4-197.5,281.8-375.7,366.1l-128.4,61.3l-1754.1,3.8C4018.5,5021.6,3253.6,5014,3209.5,5004.4z M6752.1,4695.7c105.4-30.7,264.6-189.8,295.2-295.2c34.5-115,34.5-8450.1,0-8565.2c-30.7-105.4-189.8-264.5-295.2-295.2c-113.1-32.6-3391.2-32.6-3504.3,0c-105.4,30.7-264.6,189.8-295.2,295.2c-34.5,115-34.5,8450.1,0,8565.2c28.8,97.8,189.8,262.6,283.7,293.3C3336,4724.5,6644.8,4726.4,6752.1,4695.7z"/><path d="M3437.6,4210.7c-46-44.1-47.9-59.4-47.9-258.8c0-199.4,1.9-214.7,47.9-258.8c44.1-46,53.7-47.9,335.5-47.9c281.8,0,291.4,1.9,335.5,47.9c46,44.1,47.9,59.4,47.9,258.8c0,199.4-1.9,214.7-47.9,258.8c-44.1,46-53.7,47.9-335.5,47.9C3491.3,4258.7,3481.7,4256.7,3437.6,4210.7z"/><path d="M5891.4,4210.7c-46-44.1-47.9-59.4-47.9-258.8c0-199.4,1.9-214.7,47.9-258.8c44.1-46,53.7-47.9,335.5-47.9c281.8,0,291.4,1.9,335.5,47.9c46,44.1,47.9,59.4,47.9,258.8c0,199.4-1.9,214.7-47.9,258.8c-44.1,46-53.7,47.9-335.5,47.9C5945.1,4258.7,5935.5,4256.7,5891.4,4210.7z"/><path d="M4722,3154.5c-132.3-28.8-398.7-145.7-485-212.8l-42.2-34.5l245.4-245.4l243.5-243.5l115,40.3c136.1,47.9,322.1,42.2,437.1-13.4l72.8-34.5l247.3,247.3l249.2,249.2l-42.2,34.5c-24.9,17.3-113.1,67.1-197.4,109.3C5302.9,3177.5,5009.6,3213.9,4722,3154.5z"/><path d="M3911.1,2596.6c-251.1-391.1-281.8-868.4-80.5-1280.5c42.2-84.3,92-172.5,109.3-197.5l34.5-42.2l249.2,249.2l247.3,247.3l-34.5,72.8c-55.6,115-61.3,301-13.4,437.1l40.3,115l-245.4,245.4l-247.3,247.3L3911.1,2596.6z"/><path d="M5778.3,2439.4l-249.2-249.2l38.3-82.4c49.9-111.2,49.9-341.2,0-452.4l-38.3-82.4l251.1-251.1l249.2-249.2l63.3,99.7c184,287.5,249.2,636.4,180.2,973.8c-28.8,141.9-141.9,408.3-212.8,498.4l-34.5,42.2L5778.3,2439.4z"/><path d="M4438.3,1099.4L4191,852.1l99.7-63.3c429.4-276,989.2-276,1418.6,0l99.7,63.3l-251.1,251.1l-249.2,249.2l-72.8-34.5c-105.4-51.8-301-61.3-408.3-21.1c-47.9,17.3-99.7,34.5-115,40.3C4695.2,1342.9,4593.6,1254.7,4438.3,1099.4z"/><path d="M3437.6-83.3c-46-44.1-47.9-59.4-47.9-258.8c0-199.4,1.9-214.7,47.9-258.8c44.1-46,53.7-47.9,335.5-47.9c281.8,0,291.4,1.9,335.5,47.9c46,44.1,47.9,59.4,47.9,258.8c0,199.4-1.9,214.7-47.9,258.8c-44.1,46-53.7,47.9-335.5,47.9C3491.3-35.4,3481.7-37.3,3437.6-83.3z"/><path d="M4664.5-83.3c-46-44.1-47.9-59.4-47.9-258.8c0-199.4,1.9-214.7,47.9-258.8c44.1-46,53.7-47.9,335.5-47.9c281.8,0,291.4,1.9,335.5,47.9c46,44.1,47.9,59.4,47.9,258.8c0,199.4-1.9,214.7-47.9,258.8c-44.1,46-53.7,47.9-335.5,47.9C4718.2-35.4,4708.6-37.3,4664.5-83.3z"/><path d="M5891.4-83.3c-46-44.1-47.9-59.4-47.9-258.8c0-199.4,1.9-214.7,47.9-258.8c44.1-46,53.7-47.9,335.5-47.9c281.8,0,291.4,1.9,335.5,47.9c46,44.1,47.9,59.4,47.9,258.8c0,199.4-1.9,214.7-47.9,258.8c-44.1,46-53.7,47.9-335.5,47.9C5945.1-35.4,5935.5-37.3,5891.4-83.3z"/><path d="M3437.6-1156.9c-46-44.1-47.9-59.4-47.9-258.8c0-199.4,1.9-214.7,47.9-258.8c44.1-46,53.7-47.9,335.5-47.9c281.8,0,291.4,1.9,335.5,47.9c46,44.1,47.9,59.4,47.9,258.8c0,199.4-1.9,214.7-47.9,258.8c-44.1,46-53.7,47.9-335.5,47.9C3491.3-1108.9,3481.7-1110.8,3437.6-1156.9z"/><path d="M4664.5-1156.9c-46-44.1-47.9-59.4-47.9-258.8c0-199.4,1.9-214.7,47.9-258.8c44.1-46,53.7-47.9,335.5-47.9c281.8,0,291.4,1.9,335.5,47.9c46,44.1,47.9,59.4,47.9,258.8c0,199.4-1.9,214.7-47.9,258.8c-44.1,46-53.7,47.9-335.5,47.9C4718.2-1108.9,4708.6-1110.8,4664.5-1156.9z"/><path d="M5891.4-1156.9c-46-44.1-47.9-59.4-47.9-258.8c0-199.4,1.9-214.7,47.9-258.8c44.1-46,53.7-47.9,335.5-47.9c281.8,0,291.4,1.9,335.5,47.9c46,44.1,47.9,59.4,47.9,258.8c0,199.4-1.9,214.7-47.9,258.8c-44.1,46-53.7,47.9-335.5,47.9C5945.1-1108.9,5935.5-1110.8,5891.4-1156.9z"/><path d="M3437.6-2230.4c-46-44.1-47.9-59.4-47.9-258.8s1.9-214.7,47.9-258.8c44.1-46,53.7-47.9,335.5-47.9c281.8,0,291.4,1.9,335.5,47.9c46,44.1,47.9,59.4,47.9,258.8s-1.9,214.7-47.9,258.8c-44.1,46-53.7,47.9-335.5,47.9C3491.3-2182.5,3481.7-2184.4,3437.6-2230.4z"/><path d="M4664.5-2230.4c-46-44.1-47.9-59.4-47.9-258.8s1.9-214.7,47.9-258.8c44.1-46,53.7-47.9,335.5-47.9c281.8,0,291.4,1.9,335.5,47.9c46,44.1,47.9,59.4,47.9,258.8s-1.9,214.7-47.9,258.8c-44.1,46-53.7,47.9-335.5,47.9C4718.2-2182.5,4708.6-2184.4,4664.5-2230.4z"/><path d="M5891.4-2230.4c-46-44.1-47.9-59.4-47.9-258.8s1.9-214.7,47.9-258.8c44.1-46,53.7-47.9,335.5-47.9c281.8,0,291.4,1.9,335.5,47.9c46,44.1,47.9,59.4,47.9,258.8s-1.9,214.7-47.9,258.8c-44.1,46-53.7,47.9-335.5,47.9C5945.1-2182.5,5935.5-2184.4,5891.4-2230.4z"/><path d="M4664.5-3303.9c-46-44.1-47.9-59.4-47.9-258.8c0-199.4,1.9-214.7,47.9-258.8c44.1-46,53.7-47.9,335.5-47.9c281.8,0,291.4,1.9,335.5,47.9c46,44.1,47.9,59.4,47.9,258.8c0,199.4-1.9,214.7-47.9,258.8c-44.1,46-53.7,47.9-335.5,47.9C4718.2-3256,4708.6-3257.9,4664.5-3303.9z"/></g></g>
</svg>