<?xml version="1.0" encoding="UTF-8"?>
<svg id="_Слой_1" data-name="Слой_1" xmlns="http://www.w3.org/2000/svg" version="1.1" viewBox="0 0 1000 1000">
  <!-- Generator: Adobe Illustrator 29.6.1, SVG Export Plug-In . SVG Version: 2.1.1 Build 9)  -->
  <defs>
    <style>
      .st0 {
        fill: #fff;
      }
    </style>
  </defs>
  <path class="st0" d="M320.95,11.56c-11.89,2.88-29.33,13.04-37.77,22.24-4.22,4.6-10.54,14.18-13.8,21.28l-6.13,12.84v864.76l7.09,14.57c8.63,17.44,19.74,28.18,37.57,36.61l12.84,6.13h358.49l12.84-6.13c17.83-8.43,28.95-19.17,37.57-36.61l7.09-14.57V67.73l-7.09-14.57c-8.63-17.44-19.75-28.18-37.57-36.61l-12.84-6.13-175.41-.38c-101.98-.2-178.47.56-182.88,1.52ZM675.21,42.43c10.54,3.07,26.46,18.98,29.52,29.52,3.45,11.5,3.45,845.01,0,856.52-3.07,10.54-18.98,26.45-29.52,29.52-11.31,3.26-339.12,3.26-350.43,0-10.54-3.07-26.46-18.98-29.52-29.52-3.45-11.5-3.45-845.01,0-856.52,2.88-9.78,18.98-26.26,28.37-29.33,9.97-3.07,340.85-3.26,351.58-.19Z"/>
  <path class="st0" d="M343.76,90.93c-4.6,4.41-4.79,5.94-4.79,25.88s.19,21.47,4.79,25.88c4.41,4.6,5.37,4.79,33.55,4.79s29.14-.19,33.55-4.79c4.6-4.41,4.79-5.94,4.79-25.88s-.19-21.47-4.79-25.88c-4.41-4.6-5.37-4.79-33.55-4.79-28.18-.01-29.14.19-33.55,4.79Z"/>
  <path class="st0" d="M589.14,90.93c-4.6,4.41-4.79,5.94-4.79,25.88s.19,21.47,4.79,25.88c4.41,4.6,5.37,4.79,33.55,4.79s29.14-.19,33.55-4.79c4.6-4.41,4.79-5.94,4.79-25.88s-.19-21.47-4.79-25.88c-4.41-4.6-5.37-4.79-33.55-4.79-28.18-.01-29.14.19-33.55,4.79Z"/>
  <path class="st0" d="M472.2,196.55c-13.23,2.88-39.87,14.57-48.5,21.28l-4.22,3.45,24.54,24.54,24.35,24.35,11.5-4.03c13.61-4.79,32.21-4.22,43.71,1.34l7.28,3.45,24.73-24.73,24.92-24.92-4.22-3.45c-2.49-1.73-11.31-6.71-19.74-10.93-26.26-12.65-55.59-16.29-84.35-10.35Z"/>
  <path class="st0" d="M391.11,252.34c-25.11,39.11-28.18,86.84-8.05,128.05,4.22,8.43,9.2,17.25,10.93,19.75l3.45,4.22,24.92-24.92,24.73-24.73-3.45-7.28c-5.56-11.5-6.13-30.1-1.34-43.71l4.03-11.5-24.54-24.54-24.73-24.73-5.95,9.39Z"/>
  <path class="st0" d="M577.83,268.06l-24.92,24.92,3.83,8.24c4.99,11.12,4.99,34.12,0,45.24l-3.83,8.24,25.11,25.11,24.92,24.92,6.33-9.97c18.4-28.75,24.92-63.64,18.02-97.38-2.88-14.19-14.19-40.83-21.28-49.84l-3.45-4.22-24.73,24.74Z"/>
  <path class="st0" d="M443.83,402.06l-24.73,24.73,9.97,6.33c42.94,27.6,98.92,27.6,141.86,0l9.97-6.33-25.11-25.11-24.92-24.92-7.28,3.45c-10.54,5.18-30.1,6.13-40.83,2.11-4.79-1.73-9.97-3.45-11.5-4.03-1.74-.58-11.9,8.24-27.43,23.77Z"/>
  <path class="st0" d="M343.76,520.33c-4.6,4.41-4.79,5.94-4.79,25.88s.19,21.47,4.79,25.88c4.41,4.6,5.37,4.79,33.55,4.79s29.14-.19,33.55-4.79c4.6-4.41,4.79-5.94,4.79-25.88s-.19-21.47-4.79-25.88c-4.41-4.6-5.37-4.79-33.55-4.79-28.18,0-29.14.19-33.55,4.79Z"/>
  <path class="st0" d="M466.45,520.33c-4.6,4.41-4.79,5.94-4.79,25.88s.19,21.47,4.79,25.88c4.41,4.6,5.37,4.79,33.55,4.79s29.14-.19,33.55-4.79c4.6-4.41,4.79-5.94,4.79-25.88s-.19-21.47-4.79-25.88c-4.41-4.6-5.37-4.79-33.55-4.79-28.18,0-29.14.19-33.55,4.79Z"/>
  <path class="st0" d="M589.14,520.33c-4.6,4.41-4.79,5.94-4.79,25.88s.19,21.47,4.79,25.88c4.41,4.6,5.37,4.79,33.55,4.79s29.14-.19,33.55-4.79c4.6-4.41,4.79-5.94,4.79-25.88s-.19-21.47-4.79-25.88c-4.41-4.6-5.37-4.79-33.55-4.79-28.18,0-29.14.19-33.55,4.79Z"/>
  <path class="st0" d="M343.76,627.69c-4.6,4.41-4.79,5.94-4.79,25.88s.19,21.47,4.79,25.88c4.41,4.6,5.37,4.79,33.55,4.79s29.14-.19,33.55-4.79c4.6-4.41,4.79-5.94,4.79-25.88s-.19-21.47-4.79-25.88c-4.41-4.6-5.37-4.79-33.55-4.79-28.18,0-29.14.18-33.55,4.79Z"/>
  <path class="st0" d="M466.45,627.69c-4.6,4.41-4.79,5.94-4.79,25.88s.19,21.47,4.79,25.88c4.41,4.6,5.37,4.79,33.55,4.79s29.14-.19,33.55-4.79c4.6-4.41,4.79-5.94,4.79-25.88s-.19-21.47-4.79-25.88c-4.41-4.6-5.37-4.79-33.55-4.79-28.18,0-29.14.18-33.55,4.79Z"/>
  <path class="st0" d="M589.14,627.69c-4.6,4.41-4.79,5.94-4.79,25.88s.19,21.47,4.79,25.88c4.41,4.6,5.37,4.79,33.55,4.79s29.14-.19,33.55-4.79c4.6-4.41,4.79-5.94,4.79-25.88s-.19-21.47-4.79-25.88c-4.41-4.6-5.37-4.79-33.55-4.79-28.18,0-29.14.18-33.55,4.79Z"/>
  <path class="st0" d="M343.76,735.04c-4.6,4.41-4.79,5.94-4.79,25.88s.19,21.47,4.79,25.88c4.41,4.6,5.37,4.79,33.55,4.79s29.14-.19,33.55-4.79c4.6-4.41,4.79-5.94,4.79-25.88s-.19-21.47-4.79-25.88c-4.41-4.6-5.37-4.79-33.55-4.79s-29.14.19-33.55,4.79Z"/>
  <path class="st0" d="M466.45,735.04c-4.6,4.41-4.79,5.94-4.79,25.88s.19,21.47,4.79,25.88c4.41,4.6,5.37,4.79,33.55,4.79s29.14-.19,33.55-4.79c4.6-4.41,4.79-5.94,4.79-25.88s-.19-21.47-4.79-25.88c-4.41-4.6-5.37-4.79-33.55-4.79s-29.14.19-33.55,4.79Z"/>
  <path class="st0" d="M589.14,735.04c-4.6,4.41-4.79,5.94-4.79,25.88s.19,21.47,4.79,25.88c4.41,4.6,5.37,4.79,33.55,4.79s29.14-.19,33.55-4.79c4.6-4.41,4.79-5.94,4.79-25.88s-.19-21.47-4.79-25.88c-4.41-4.6-5.37-4.79-33.55-4.79s-29.14.19-33.55,4.79Z"/>
  <path class="st0" d="M466.45,842.39c-4.6,4.41-4.79,5.94-4.79,25.88s.19,21.47,4.79,25.88c4.41,4.6,5.37,4.79,33.55,4.79s29.14-.19,33.55-4.79c4.6-4.41,4.79-5.94,4.79-25.88s-.19-21.47-4.79-25.88c-4.41-4.6-5.37-4.79-33.55-4.79s-29.14.19-33.55,4.79Z"/>
</svg>