<?xml version="1.0" encoding="utf-8"?>
<!-- Generator: Adobe Illustrator 23.0.6, SVG Export Plug-In . SVG Version: 6.00 Build 0)  -->
<svg version="1.1" id="Слой_1" xmlns="http://www.w3.org/2000/svg" xmlns:xlink="http://www.w3.org/1999/xlink" x="0px" y="0px"
	 viewBox="0 0 16 16" style="enable-background:new 0 0 16 16;" xml:space="preserve">
<style type="text/css">
	.st0{display:none;}
	.st1{display:inline;}
	.st2{display:inline;fill:none;stroke:#000000;stroke-width:0.6636;stroke-miterlimit:10;}
	.st3{display:inline;fill:none;stroke:#000000;stroke-width:0.588;stroke-miterlimit:10;}
	.st4{display:inline;stroke:#000000;stroke-width:0.4925;stroke-miterlimit:10;}
	.st5{display:inline;fill:#FFFFFF;}
	.st6{fill:#FFFFFF;}
	.st7{opacity:0;}
</style>
<path class="st0" d="M13.3,4H8L6.7,2.7h-4C2,2.7,1.4,3.3,1.4,4v8c0,0.7,0.6,1.3,1.3,1.3h10.6c0.7,0,1.3-0.6,1.3-1.3V5.3
	C14.7,4.6,14.1,4,13.3,4z"/>
<g id="SUPPORT" class="st0">
	<path class="st1" d="M4,6.4c-1.3,0-2.4,1.1-2.4,2.4s1.1,2.4,2.4,2.4V6.4z"/>
	<path class="st1" d="M12,6.4c1.3,0,2.4,1.1,2.4,2.4s-1.1,2.4-2.4,2.4V6.4z"/>
	<path class="st2" d="M12.8,6.9C12.7,4.3,10.6,2.3,8,2.3s-4.6,2-4.7,4.5"/>
	<path class="st3" d="M8.8,13.5c2.6-0.1,4.3,0.1,4-4.5"/>
	<ellipse class="st4" cx="8.8" cy="13.4" rx="0.9" ry="0.5"/>
</g>
<g id="ABOUT" class="st0">
	<polygon class="st1" points="0.7,8 8,0.6 15.4,8 8,15.4 	"/>
	<rect x="8" y="5" class="st5" width="1" height="4"/>
	<rect x="8" y="10" class="st5" width="1" height="1"/>
</g>
<g class="st0">
	<ellipse class="st1" cx="8" cy="8" rx="6.5" ry="6.6"/>
	<g class="st1">
		<path class="st6" d="M7,10.1V9.7C6.9,9,7.1,8.2,7.8,7.3C8.4,6.6,8.7,6,8.7,5.4c0-0.7-0.4-1.2-1.2-1.2c-0.4,0-1,0.1-1.3,0.4
			L5.8,3.8C6.3,3.5,7,3.3,7.7,3.3c1.5,0,2.2,1,2.2,2c0,0.9-0.5,1.6-1.1,2.4C8.2,8.4,8,9,8,9.7V10L7,10.1L7,10.1z M6.9,11.9
			c0-0.5,0.3-0.9,0.8-0.9s0.8,0.3,0.8,0.9c0,0.5-0.3,0.9-0.8,0.9C7.2,12.8,6.9,12.4,6.9,11.9z"/>
	</g>
</g>
<path id="settings" class="st0" d="M13.2,8.7c0-0.2,0.1-0.5,0.1-0.7s0-0.5-0.1-0.7l1.5-1.1c0.1-0.1,0.1-0.3,0.1-0.5l-1.3-2.4
	c-0.1-0.1-0.3-0.2-0.4-0.1l-1.7,0.7c-0.3-0.3-0.7-0.5-1.2-0.7L9.8,1.3C9.8,1.1,9.6,1,9.4,1H6.6C6.5,1,6.3,1.1,6.3,1.3L6,3.2
	C5.6,3.4,5.2,3.6,4.8,3.8L3.1,3.2C3,3.1,2.8,3.2,2.7,3.3L1.4,5.7C1.2,5.8,1.3,6,1.4,6.2l1.5,1.1c-0.1,0.5-0.1,0.9,0,1.3L1.4,9.8
	c-0.1,0.1-0.1,0.3-0.1,0.5l1.3,2.4c0.1,0.1,0.3,0.2,0.4,0.1l1.7-0.7c0.3,0.3,0.7,0.5,1.2,0.7l0.3,1.9c0,0.2,0.2,0.3,0.3,0.3h2.8
	c0.2,0,0.3-0.1,0.3-0.3l0.3-1.9c0.4-0.2,0.8-0.4,1.2-0.7l1.7,0.7c0.1,0.1,0.3,0,0.4-0.1l1.4-2.4c0.1-0.1,0.1-0.3-0.1-0.5L13.2,8.7
	L13.2,8.7z M8,10.6c-1.5,0-2.6-1.1-2.6-2.6S6.6,5.4,8,5.4s2.6,1.1,2.6,2.6l0,0C10.6,9.5,9.4,10.6,8,10.6z"/>
<path id="share" class="st0" d="M9.9,12.9l-4.6-2.7c-1.2,1.2-3,1.3-4.2,0.1s-1.3-3-0.1-4.2S4,4.8,5.2,6c0.1,0.1,0.1,0.2,0.3,0.3
	L10,4c-0.6-1.6,0.4-3.3,2-3.7c1.6-0.5,3.3,0.4,3.7,2.1c0.4,1.6-0.4,3.3-2.1,3.7c-0.9,0.3-1.9,0.1-2.7-0.5L6.2,8c0,0.1,0,0.2,0,0.3
	c0,0.2,0,0.3,0,0.4l4.3,2.5c0.9-1.3,2.8-1.7,4.2-0.7c1.3,0.9,1.7,2.9,0.7,4.3c-1,1.3-2.8,1.7-4.2,0.7C10.4,14.8,9.9,13.9,9.9,12.9
	L9.9,12.9z"/>
<path id="error" class="st0" d="M0.1,15H16L8.1,1.1L0.1,15z M9,13H7v-1h2V13z M9,12H7V7h2V12z"/>
<path id="galka" class="st0" d="M5.1,11.3L1.4,7.5L0.1,8.7l5.1,5.1L16,2.9l-1.3-1.3L5.1,11.3z"/>
<path id="arrow_down" class="st0" d="M8,16l3.3-3.4H8.9V0H7.3v12.6H4.7L8,16z"/>
<path id="arrow_up" class="st0" d="M8,0L4.7,3.4h2.5V16h1.7V3.4h2.5L8,0z"/>
<g id="menu" class="st0">
	<ellipse class="st1" cx="8" cy="8" rx="1.9" ry="1.9"/>
	<ellipse class="st1" cx="8" cy="1.9" rx="1.9" ry="1.9"/>
	<ellipse class="st1" cx="8" cy="14.1" rx="1.9" ry="1.9"/>
</g>
<g id="burger_1_" class="st0">
	<rect y="2" class="st1" width="16" height="2"/>
	<rect y="7" class="st1" width="16" height="2"/>
	<rect y="12" class="st1" width="16" height="2"/>
</g>
<polygon id="arrow_back" class="st0" points="14.5,6.7 5.9,6.7 11.1,1.6 9.5,0 3.2,6.4 3.2,6.4 1.6,8 1.6,8 1.6,8 3.2,9.6 3.2,9.6 
	9.5,16 11.1,14.4 5.8,9.1 14.5,9.1 "/>
<path id="search" d="M12.2,10.8h-0.7l-0.3-0.3c2.1-2.5,1.9-6.2-0.7-8.1c-2.4-2.1-6-1.9-8.1,0.7c-2.1,2.5-1.9,6.2,0.7,8.1
	c2.2,1.9,5.3,1.9,7.6,0l0.3,0.3v0.7l2.7,2.8l1.3-1.3L12.2,10.8z M6.9,10.8L6.9,10.8C4,10.8,2,7.9,3.2,5.2C3.4,4.6,3.9,4,4.4,3.6
	c3-2.2,6.5,0.2,6.5,3.2C10.9,9,9.1,10.8,6.9,10.8z"/>
<polygon id="back" class="st0" points="16,1.4 14.6,0 8,6.6 1.5,0 0.1,1.4 6.7,8 0.1,14.6 1.5,16 8,9.4 14.6,16 16,14.6 9.4,8 "/>
<polygon id="plus" class="st0" points="16,8.9 16,7 9,7 9,0 7.1,0 7.1,7 0.1,7 0.1,8.9 7.1,8.9 7.1,16 9,16 9,8.9 "/>
<path id="repeat" class="st0" d="M13.1,4.8L10.2,8h2.2c0,2.6-1.9,4.7-4.3,4.7c-0.7,0-1.4-0.2-2.1-0.6l-1,1.2c2.7,1.9,6.2,1,7.9-1.9
	c0.6-1,0.9-2.2,0.9-3.4H16L13.1,4.8z M3.7,8c0-2.6,1.9-4.7,4.3-4.7c0.7,0,1.4,0.2,2.1,0.6l1.1-1.2c-2.7-1.9-6.3-1.1-8,1.9
	c-0.6,1-1,2.1-1,3.4H0.1L3,11.2L5.9,8H3.7z"/>
<path id="play" class="st0" d="M14.3,8L2.7,16V0L14.3,8z"/>
<g id="pause" class="st0">
	<rect id="Rectangle_1121" x="1" class="st1" width="5" height="16"/>
	<rect id="Rectangle_1122" x="10" class="st1" width="5" height="16"/>
</g>
<g id="open_folder" class="st0">
	<path class="st1" d="M15.6,7.2C15.5,6.6,14.8,6,14.1,6h-0.2h-8l0,0l-2.7,7h9.3c0.2,0,0.4-0.1,0.7-0.2c0.4-0.2,0.7-0.5,0.8-0.9
		l1.5-4.2C15.6,7.6,15.6,7.4,15.6,7.2z"/>
	<path class="st1" d="M4,5L4,5L4,5L4,5h9.4c-0.1-0.7-1.3-1-1.3-1h-5L5.7,3H1.4C0.7,2.3,0,3.7,0,3.7v8.5c0,0,0.5,1.3,1.1,1.4L4,5L4,5
		z"/>
</g>
<rect class="st7" width="16" height="16"/>
</svg>
