<?xml version="1.0" encoding="utf-8"?>
<!-- Generator: Adobe Illustrator 23.0.6, SVG Export Plug-In . SVG Version: 6.00 Build 0)  -->
<svg version="1.1" id="Слой_1" xmlns="http://www.w3.org/2000/svg" xmlns:xlink="http://www.w3.org/1999/xlink" x="0px" y="0px"
	 viewBox="0 0 20 20" style="enable-background:new 0 0 20 20;" xml:space="preserve">
<style type="text/css">
	.st0{fill:none;}
</style>
<title>selected_delete</title>
<rect class="st0" width="20" height="20"/>
<path d="M17,3c0-0.5-0.5-1-1-1h-3c-0.1-1.1-0.9-1.9-2-2H9C7.9,0.1,7.1,0.9,7,2H4C3.5,2,3,2.5,3,3H2v1h16V3H17z M10,2H9
	c0-0.5,0.5-1,1-1c0.5,0,1,0.5,1,1H10z"/>
<path d="M10,5H3l2,15h10l2-15H10z M7.7,17.9l-1,0.1L5.2,8.1l1-0.1L7.7,17.9z M10.5,18h-1V7h1V18z M13.5,18l-1-0.1l1.1-10l1,0.1
	L13.5,18z"/>
</svg>
