<?xml version="1.0" encoding="UTF-8"?>
<svg id="_Слой_1" data-name="Слой_1" xmlns="http://www.w3.org/2000/svg" version="1.1" viewBox="0 0 24 24">
  <!-- Generator: Adobe Illustrator 29.6.1, SVG Export Plug-In . SVG Version: 2.1.1 Build 9)  -->
  <defs>
    <style>
      .st0 {
        stroke-width: 1.84px;
      }

      .st0, .st1, .st2 {
        stroke: #000;
        stroke-miterlimit: 10;
      }

      .st3 {
        fill: #fff;
      }

      .st1 {
        stroke-width: 2px;
      }

      .st1, .st4 {
        display: none;
      }
    </style>
  </defs>
  <g>
    <path class="st4" d="M20,6h-8l-2-2h-6c-1.1,0-2,.9-2,2v12c0,1.1.9,2,2,2h16c1.1,0,2-.9,2-2v-10c0-1.1-.9-2-2-2Z"/>
    <path class="st4" d="M12,.8L.8,12l11.2,11.2,11.2-11.2L12,.8ZM10.8,6.1h2.3v2.3h-2.3v-2.3ZM13.2,10.8v7.2h-2.3v-7.2h2.3Z"/>
    <g class="st4">
      <circle cx="12" cy="12" r="9.9"/>
      <path class="st3" d="M10.7,15v-.5c-.1-1.1.2-2.3,1.3-3.6.9-1.1,1.4-1.9,1.4-2.8,0-1.1-.7-1.8-2-1.8-.7,0-1.6.2-2.1.6l-.5-1.3c.7-.5,1.9-.8,3-.8,2.4,0,3.5,1.5,3.5,3,0,1.4-.8,2.4-1.8,3.6-.9,1.1-1.2,2-1.2,3v.5h-1.6v.1ZM10.2,17.9c0-.8.5-1.3,1.2-1.3s1.2.5,1.2,1.3c0,.7-.5,1.3-1.2,1.3-.7,0-1.2-.6-1.2-1.3Z"/>
    </g>
    <path id="settings" class="st4" d="M19.7,13c0-.3.1-.7.1-1s0-.7-.1-1l2.2-1.7c.2-.2.2-.4.1-.7l-2-3.6c-.1-.2-.4-.3-.6-.2l-2.6,1c-.5-.4-1.1-.8-1.8-1l-.4-2.8c0-.3-.3-.4-.5-.4h-4.2c-.2,0-.5.2-.5.4l-.4,2.8c-.6.3-1.2.6-1.8,1l-2.6-1c-.2-.1-.4,0-.6.2l-2,3.6c-.2.2-.1.5.1.7l2.2,1.7c-.1.7-.1,1.4,0,2l-2.2,1.7c-.2.2-.2.4-.1.7l2,3.6c.1.2.4.3.6.2l2.6-1c.5.4,1.1.8,1.8,1l.4,2.8c0,.3.3.4.5.4h4.2c.3,0,.5-.2.5-.4l.4-2.8c.6-.3,1.2-.6,1.8-1l2.6,1c.2.1.5,0,.6-.2l2.1-3.6c.1-.2.1-.5-.1-.7l-2.3-1.7h0ZM12,15.9c-2.2,0-3.9-1.7-3.9-3.9s1.7-3.9,3.9-3.9,3.9,1.7,3.9,3.9h0c0,2.2-1.8,3.9-3.9,3.9Z"/>
    <path id="share" class="st4" d="M14.8,19.4l-6.9-4c-1.8,1.8-4.6,1.9-6.4.1s-1.9-4.5-.1-6.3c1.8-1.8,4.6-1.9,6.4-.2.1.2.2.3.4.4l6.7-3.4c-.8-2.4.6-5,3.1-5.6,2.4-.8,5,.6,5.6,3.1.6,2.4-.6,5-3.1,5.6-1.4.4-2.9.1-4.1-.8l-7.2,3.7v1l6.5,3.7c1.4-2,4.3-2.6,6.4-1,2,1.4,2.6,4.3,1,6.4-1.5,2-4.3,2.6-6.4,1-1.1-.9-1.9-2.3-1.9-3.7h0Z"/>
    <path id="error" class="st4" d="M0,22.4h24L12.1,1.6,0,22.4ZM13.5,20.5h-2.9v-2.2h2.9v2.2ZM13.5,17.2h-2.9v-6.9h2.9v6.9Z"/>
    <path id="galka" class="st1" d="M8.2,16.2l-5-5-1.6,1.6,6.7,6.7,14.2-14.2-1.6-1.6-12.7,12.5Z"/>
    <path id="arrow_down" class="st4" d="M12,24l5-5.1h-3.7V0h-2.5v18.9h-3.8l5,5.1Z"/>
    <path id="arrow_up" class="st4" d="M12,0l-5.1,5.1h3.8v18.9h2.5V5.1h3.8L12,0Z"/>
    <g id="menu" class="st4">
      <circle cx="253" cy="151.8" r="2.8"/>
      <circle cx="253" cy="142.6" r="2.8"/>
      <circle cx="253" cy="161" r="2.8"/>
    </g>
    <g id="burger" class="st4">
      <rect y="3" width="24" height="3.4"/>
      <rect y="10.3" width="24" height="3.4"/>
      <rect y="17.6" width="24" height="3.4"/>
    </g>
    <polygon id="arrow_back" class="st4" points="21.8 10.1 8.7 10.1 16.6 2.4 14.2 0 4.6 9.6 4.6 9.6 2.2 12 2.2 12 2.2 12 4.6 14.4 4.6 14.4 14.2 24 16.6 21.6 8.6 13.7 21.8 13.7 21.8 10.1"/>
    <path id="search" class="st4" d="M17.1,15h-1.1l-.4-.4c3.1-3.7,2.8-9.4-1-12.5C11-1,5.4-.7,2.2,3.1-.9,6.8-.6,12.5,3.2,15.6c3.3,2.9,8.2,2.9,11.6,0l.4.4v1.1l6.8,6.9,2-2-6.9-7ZM9,15h0c-3.4,0-6.2-2.8-6.2-6.2s2.8-6.2,6.2-6.2,6.2,2.8,6.2,6.2-2.8,6.2-6.2,6.2Z"/>
    <path id="back" class="st4" d="M51.3,140.8h0c-.6-.6-1.5-.6-2.1,0l-7.8,7.8c-.6.6-1.5.6-2.1,0l-7.8-7.8c-.6-.6-1.5-.6-2.1,0h0c-.6.6-.6,1.5,0,2.1l7.8,7.8c.6.6.6,1.5,0,2.1l-7.8,7.8c-.6.6-.6,1.5,0,2.1h0c.6.6,1.5.6,2.1,0l7.8-7.8c.6-.6,1.5-.6,2.1,0l7.8,7.8c.6.6,1.5.6,2.1,0h0c.6-.6.6-1.5,0-2.1l-7.8-7.8c-.6-.6-.6-1.5,0-2.1l7.8-7.8c.6-.5.6-1.5,0-2.1Z"/>
    <polygon id="plus" class="st4" points="24 13.4 24 10.5 13.5 10.5 13.5 0 10.5 0 10.5 10.5 0 10.5 0 13.4 10.5 13.4 10.5 24 13.5 24 13.5 13.4 24 13.4"/>
    <path id="repeat" class="st4" d="M19.6,7.2l-4.3,4.8h3.3c0,3.9-2.9,7.1-6.5,7.1-1.1,0-2.1-.3-3.1-.9l-1.6,1.8c4.1,2.8,9.4,1.5,12-2.9.9-1.5,1.4-3.3,1.4-5.1h3.2l-4.4-4.8ZM5.5,12c0-3.9,2.9-7.1,6.5-7.1,1.1,0,2.1.3,3.1.9l1.6-1.8c-4.1-2.9-9.5-1.6-12.1,2.9-.9,1.5-1.4,3.2-1.4,5.1H0l4.4,4.8,4.3-4.8h-3.2Z"/>
    <path id="play" class="st4" d="M21.4,12L3.9,24V0l17.5,12Z"/>
    <g id="pause" class="st4">
      <rect id="Rectangle_1121" x="1.7" y=".1" width="6.8" height="23.9"/>
      <rect id="Rectangle_1122" x="15.4" y=".1" width="6.8" height="23.9"/>
    </g>
    <g id="open_folder" class="st4">
      <path d="M24,11.3c-.2-1.1-1.2-2-2.4-2h-13.2l-4.3,11.2h15c.4,0,.7-.1,1.1-.3.6-.3,1.1-.8,1.3-1.5l2.4-6.7c.1-.2.1-.5.1-.7Z"/>
      <path d="M6.3,7.4h15c-.1-1-1-1.8-2.1-1.8h-8.5l-2.2-2.1H2.1c-1.1,0-2.1.9-2.1,2.1v12.8c0,1,.7,1.9,1.7,2.1L6.3,7.4h0Z"/>
    </g>
    <g id="Group_51" class="st4">
      <path id="Path_908" class="st2" d="M3.18,5.38l-1.7-1.7-.6.5,1.7,1.7h0l.6.6,1.7-1.7.6-.6,1.8-1.8-.6-.6-1.8,1.8-1.7,1.8Z"/>
      <path id="Path_9081" data-name="Path_908" class="st2" d="M3.18,12.58l-1.7-1.7-.6.6,1.7,1.7h0l.6.6,1.7-1.7.6-.6,1.8-1.8-.6-.6-1.8,1.8-1.7,1.7Z"/>
      <path id="Path_9082" data-name="Path_908" class="st2" d="M3.18,20.38l-1.7-1.7-.6.6,1.7,1.7h0l.6.6,1.7-1.7.6-.6,1.8-1.8-.6-.6-1.8,1.8-1.7,1.7Z"/>
      <rect id="Rectangle_1161" class="st0" x="9.08" y="3.68" width="13.3" height="1"/>
      <rect id="Rectangle_1162" class="st0" x="9.08" y="11.48" width="13.3" height="1"/>
      <rect id="Rectangle_1163" class="st0" x="9.08" y="19.18" width="13.3" height="1"/>
    </g>
    <g class="st4">
      <path id="Path_931" d="M14,6.7c.1-.2.3-.3.4-.5,1.3-1.3,2.7-2.5,4-3.8.2-.3.7-.4,1-.2.1,0,.1.1.2.2l4.1,3.9c.3.2.4.6.2.9,0,.1-.1.1-.1.1-.1.1-.2.2-.4.3-.2.3-.7.3-1,.1,0,0-.1,0-.1-.1-.7-.7-1.4-1.3-2.1-2-.1,0-.1-.1-.2-.2v14.4c0,.3-.3.5-.6.5h-.8c-.3,0-.6-.2-.6-.5V5.6l-.2.2-2.1,1.9c-.2.3-.7.3-1,.1-.1,0-.1-.1-.1-.1-.3-.2-.5-.5-.6-.7v-.3Z"/>
      <path id="Path_932" d="M6.7,18.9h5.7c.7,0,1,.3,1,1v.7c0,.4-.3.8-.8.8H1c-.5,0-.9-.2-.9-.6C0,20.4,0,19.9.1,19.5c.1-.4.4-.7.8-.6h5.8Z"/>
      <path id="Path_933" d="M5.5,16.1H.9c-.6,0-.9-.3-.9-1v-.7c0-.4.3-.8.7-.8h9.3c.7,0,.9.3.9,1v.5c.1.5-.2.9-.7.9h-4.6l-.1.1Z"/>
      <path id="Path_934" d="M4.5,10.9H.9c-.4.1-.8-.3-.8-.7q-.1-.2-.1-.3v-.7c0-.4.3-.8.7-.8h7.4c.3,0,.6.1.7.4.1,0,.1.2.2.4v.8c0,.5-.3.9-.7.9h-3.8Z"/>
      <path id="Path_935" d="M3.3,5H.7c-.3,0-.6-.3-.7-.7v-1c0-.5.3-.8.6-.9h5.2c.4-.1.7.3.7.7v.8c.1.6-.1,1-.5,1.1h-2.7Z"/>
      <path id="Path_9311" data-name="Path_931" d="M24,17.1c-.1.2-.3.3-.4.5-1.3,1.3-2.7,2.6-4,3.9-.2.3-.7.4-1,.2-.1,0-.1-.1-.2-.2l-4.1-4c-.3-.2-.4-.6-.2-.9,0-.1.1-.1.1-.1.1-.1.2-.2.4-.4.2-.3.7-.3,1-.1,0,0,.1,0,.1.1.7.7,1.4,1.4,2.1,2,.1,0,.1.1.2.2V3.3c0-.3.3-.6.6-.6h.8c.3.1.6.3.6.6v14.9l.2-.2,2.1-2c.2-.3.7-.4,1-.1.1,0,.1.1.1.1.3.2.5.4.6.7v.4Z"/>
    </g>
  </g>
  <g>
    <path class="st3" d="M.3,13.2c0,2.4,2.1,4.3,4.7,4.3v-8.6c-2.6,0-4.7,1.9-4.7,4.3Z"/>
    <path class="st3" d="M19,8.9v8.5c2.6,0,4.7-1.9,4.7-4.3s-2.1-4.2-4.7-4.2Z"/>
  </g>
  <path class="st3" d="M3.81,10.77l-2.21-.13C1.94,4.85,6.45.49,12.1.49s10.38,4.46,10.61,10.16l-2.21.09c-.18-4.51-3.86-8.04-8.39-8.04S4.08,6.17,3.81,10.77Z"/>
  <path class="st3" d="M13.52,22.02l-.04-1.04.75-.03c2.57-.09,4.6-.16,5.68-1.37.92-1.04,1.23-2.96.96-6.03l1.04-.09c.3,3.43-.08,5.53-1.22,6.82-1.38,1.55-3.61,1.63-6.43,1.72l-.75.03Z"/>
  <path class="st3" d="M13.6,19.35c-1.71,0-2.95.86-2.95,2.05s1.24,2.05,2.95,2.05,2.95-.86,2.95-2.05-1.24-2.05-2.95-2.05Z"/>
</svg>