<?xml version="1.0" encoding="utf-8"?>
<!-- Generator: Adobe Illustrator 23.0.6, SVG Export Plug-In . SVG Version: 6.00 Build 0)  -->
<svg version="1.1" id="Слой_1" xmlns="http://www.w3.org/2000/svg" xmlns:xlink="http://www.w3.org/1999/xlink" x="0px" y="0px"
	 viewBox="0 0 24 24" style="enable-background:new 0 0 24 24;" xml:space="preserve">
<style type="text/css">
	.st0{fill:#FFFFFF;fill-opacity:0;}
	.st1{display:none;}
	.st2{display:inline;}
	.st3{fill:#FFFFFF;}
	.st4{display:none;stroke:#000000;stroke-width:2;stroke-miterlimit:10;}
	.st5{display:inline;stroke:#000000;stroke-miterlimit:10;}
	.st6{display:inline;stroke:#000000;stroke-width:1.837;stroke-miterlimit:10;}
	.st7{fill:none;stroke:#000000;stroke-width:2.2141;stroke-miterlimit:10;}
	.st8{fill:none;stroke:#000000;stroke-width:1.0459;stroke-miterlimit:10;}
	.st9{stroke:#000000;stroke-width:2.0919;stroke-miterlimit:10;}
</style>
<g>
	<rect class="st0" width="24" height="24"/>
</g>
<g>
	<path class="st1" d="M20,6h-8l-2-2H4C2.9,4,2,4.9,2,6v12c0,1.1,0.9,2,2,2h16c1.1,0,2-0.9,2-2V8C22,6.9,21.1,6,20,6z"/>
	<path class="st1" d="M12,0.8L0.8,12L12,23.2L23.2,12L12,0.8z M10.8,6.1h2.3v2.3h-2.3V6.1z M13.2,10.8V18h-2.3v-7.2H13.2z"/>
	<g class="st1">
		<circle class="st2" cx="12" cy="12" r="9.9"/>
		<g class="st2">
			<path class="st3" d="M10.7,15v-0.5c-0.1-1.1,0.2-2.3,1.3-3.6c0.9-1.1,1.4-1.9,1.4-2.8c0-1.1-0.7-1.8-2-1.8
				c-0.7,0-1.6,0.2-2.1,0.6L8.8,5.6c0.7-0.5,1.9-0.8,3-0.8c2.4,0,3.5,1.5,3.5,3c0,1.4-0.8,2.4-1.8,3.6c-0.9,1.1-1.2,2-1.2,3v0.5
				h-1.6V15z M10.2,17.9c0-0.8,0.5-1.3,1.2-1.3s1.2,0.5,1.2,1.3c0,0.7-0.5,1.3-1.2,1.3C10.7,19.2,10.2,18.6,10.2,17.9z"/>
		</g>
	</g>
	<path id="settings" class="st1" d="M19.7,13c0-0.3,0.1-0.7,0.1-1s0-0.7-0.1-1l2.2-1.7c0.2-0.2,0.2-0.4,0.1-0.7L20,5
		c-0.1-0.2-0.4-0.3-0.6-0.2l-2.6,1c-0.5-0.4-1.1-0.8-1.8-1L14.6,2c0-0.3-0.3-0.4-0.5-0.4H9.9C9.7,1.6,9.4,1.8,9.4,2L9,4.8
		c-0.6,0.3-1.2,0.6-1.8,1l-2.6-1C4.4,4.7,4.2,4.8,4,5L2,8.6C1.8,8.8,1.9,9.1,2.1,9.3L4.3,11c-0.1,0.7-0.1,1.4,0,2l-2.2,1.7
		c-0.2,0.2-0.2,0.4-0.1,0.7L4,19c0.1,0.2,0.4,0.3,0.6,0.2l2.6-1c0.5,0.4,1.1,0.8,1.8,1L9.4,22c0,0.3,0.3,0.4,0.5,0.4h4.2
		c0.3,0,0.5-0.2,0.5-0.4l0.4-2.8c0.6-0.3,1.2-0.6,1.8-1l2.6,1c0.2,0.1,0.5,0,0.6-0.2l2.1-3.6c0.1-0.2,0.1-0.5-0.1-0.7L19.7,13
		L19.7,13z M12,15.9c-2.2,0-3.9-1.7-3.9-3.9S9.8,8.1,12,8.1s3.9,1.7,3.9,3.9l0,0C15.9,14.2,14.1,15.9,12,15.9z"/>
	<path id="share" class="st1" d="M14.8,19.4l-6.9-4c-1.8,1.8-4.6,1.9-6.4,0.1S-0.4,11,1.4,9.2S6,7.3,7.8,9C7.9,9.2,8,9.3,8.2,9.4
		L14.9,6c-0.8-2.4,0.6-5,3.1-5.6c2.4-0.8,5,0.6,5.6,3.1c0.6,2.4-0.6,5-3.1,5.6c-1.4,0.4-2.9,0.1-4.1-0.8L9.2,12c0,0.1,0,0.3,0,0.4
		c0,0.3,0,0.4,0,0.6l6.5,3.7c1.4-2,4.3-2.6,6.4-1c2,1.4,2.6,4.3,1,6.4c-1.5,2-4.3,2.6-6.4,1C15.6,22.2,14.8,20.8,14.8,19.4
		L14.8,19.4z"/>
	<path id="error" class="st1" d="M0,22.4h24L12.1,1.6L0,22.4z M13.5,20.5h-2.9v-2.2h2.9V20.5z M13.5,17.2h-2.9v-6.9h2.9V17.2z"/>
	<path id="galka" class="st4" d="M8.2,16.2l-5-5l-1.6,1.6l6.7,6.7L22.5,5.3l-1.6-1.6L8.2,16.2z"/>
	<path id="arrow_down" class="st1" d="M12,24l5-5.1h-3.7V0h-2.5v18.9H7L12,24z"/>
	<path id="arrow_up" class="st1" d="M12,0L6.9,5.1h3.8V24h2.5V5.1H17L12,0z"/>
	<g id="menu" class="st1">
		<circle class="st2" cx="253" cy="151.8" r="2.8"/>
		<circle class="st2" cx="253" cy="142.6" r="2.8"/>
		<circle class="st2" cx="253" cy="161" r="2.8"/>
	</g>
	<g id="burger_1_" class="st1">
		<rect y="3" class="st2" width="24" height="3.4"/>
		<rect y="10.3" class="st2" width="24" height="3.4"/>
		<rect y="17.6" class="st2" width="24" height="3.4"/>
	</g>
	<polygon id="arrow_back" class="st1" points="21.8,10.1 8.7,10.1 16.6,2.4 14.2,0 4.6,9.6 4.6,9.6 2.2,12 2.2,12 2.2,12 4.6,14.4 
		4.6,14.4 14.2,24 16.6,21.6 8.6,13.7 21.8,13.7 	"/>
	<path id="search" class="st1" d="M17.1,15H16l-0.4-0.4c3.1-3.7,2.8-9.4-1-12.5C11-1,5.4-0.7,2.2,3.1c-3.1,3.7-2.8,9.4,1,12.5
		c3.3,2.9,8.2,2.9,11.6,0l0.4,0.4v1.1L22,24l2-2L17.1,15z M9,15L9,15c-3.4,0-6.2-2.8-6.2-6.2S5.6,2.6,9,2.6s6.2,2.8,6.2,6.2
		S12.4,15,9,15z"/>
	<path id="back" class="st1" d="M51.3,140.8L51.3,140.8c-0.6-0.6-1.5-0.6-2.1,0l-7.8,7.8c-0.6,0.6-1.5,0.6-2.1,0l-7.8-7.8
		c-0.6-0.6-1.5-0.6-2.1,0l0,0c-0.6,0.6-0.6,1.5,0,2.1l7.8,7.8c0.6,0.6,0.6,1.5,0,2.1l-7.8,7.8c-0.6,0.6-0.6,1.5,0,2.1l0,0
		c0.6,0.6,1.5,0.6,2.1,0l7.8-7.8c0.6-0.6,1.5-0.6,2.1,0l7.8,7.8c0.6,0.6,1.5,0.6,2.1,0l0,0c0.6-0.6,0.6-1.5,0-2.1l-7.8-7.8
		c-0.6-0.6-0.6-1.5,0-2.1l7.8-7.8C51.9,142.4,51.9,141.4,51.3,140.8z"/>
	<polygon id="plus" class="st1" points="24,13.4 24,10.5 13.5,10.5 13.5,0 10.5,0 10.5,10.5 0,10.5 0,13.4 10.5,13.4 10.5,24 
		13.5,24 13.5,13.4 	"/>
	<path id="repeat" class="st1" d="M19.6,7.2L15.3,12h3.3c0,3.9-2.9,7.1-6.5,7.1c-1.1,0-2.1-0.3-3.1-0.9L7.4,20
		c4.1,2.8,9.4,1.5,12-2.9c0.9-1.5,1.4-3.3,1.4-5.1H24L19.6,7.2z M5.5,12c0-3.9,2.9-7.1,6.5-7.1c1.1,0,2.1,0.3,3.1,0.9L16.7,4
		C12.6,1.1,7.2,2.4,4.6,6.9C3.7,8.4,3.2,10.1,3.2,12H0l4.4,4.8L8.7,12H5.5z"/>
	<path id="play" class="st1" d="M21.4,12L3.9,24V0L21.4,12z"/>
	<g id="pause" class="st1">
		<rect id="Rectangle_1121" x="1.7" y="0.1" class="st2" width="6.8" height="23.9"/>
		<rect id="Rectangle_1122" x="15.4" y="0.1" class="st2" width="6.8" height="23.9"/>
	</g>
	<g id="open_folder" class="st1">
		<path class="st2" d="M24,11.3c-0.2-1.1-1.2-2-2.4-2h-0.3H8.4l0,0L4.1,20.5h15c0.4,0,0.7-0.1,1.1-0.3c0.6-0.3,1.1-0.8,1.3-1.5
			l2.4-6.7C24,11.8,24,11.5,24,11.3z"/>
		<path class="st2" d="M6.3,7.4L6.3,7.4L6.3,7.4L6.3,7.4h15c-0.1-1-1-1.8-2.1-1.8h-8.5L8.5,3.5H2.1C1,3.5,0,4.4,0,5.6v12.8
			c0,1,0.7,1.9,1.7,2.1L6.3,7.4L6.3,7.4z"/>
	</g>
	<g id="Group_51" transform="translate(-238.116 -7.817)" class="st1">
		<path id="Path_908_1_" class="st5" d="M241.3,13.2l-1.7-1.7L239,12l1.7,1.7l0,0l0.6,0.6l1.7-1.7l0.6-0.6l1.8-1.8l-0.6-0.6
			l-1.8,1.8L241.3,13.2z"/>
		<path id="Path_908_2_" class="st5" d="M241.3,20.4l-1.7-1.7l-0.6,0.6l1.7,1.7l0,0l0.6,0.6l1.7-1.7l0.6-0.6l1.8-1.8l-0.6-0.6
			l-1.8,1.8L241.3,20.4z"/>
		<path id="Path_908_3_" class="st5" d="M241.3,28.2l-1.7-1.7l-0.6,0.6l1.7,1.7l0,0l0.6,0.6l1.7-1.7l0.6-0.6l1.8-1.8l-0.6-0.6
			l-1.8,1.8L241.3,28.2z"/>
		<rect id="Rectangle_1161" x="247.2" y="11.5" class="st6" width="13.3" height="1"/>
		<rect id="Rectangle_1162" x="247.2" y="19.3" class="st6" width="13.3" height="1"/>
		<rect id="Rectangle_1163" x="247.2" y="27" class="st6" width="13.3" height="1"/>
	</g>
	<g class="st1">
		<path id="Path_931" class="st2" d="M14,6.7c0.1-0.2,0.3-0.3,0.4-0.5c1.3-1.3,2.7-2.5,4-3.8c0.2-0.3,0.7-0.4,1-0.2
			c0.1,0,0.1,0.1,0.2,0.2l4.1,3.9c0.3,0.2,0.4,0.6,0.2,0.9c0,0.1-0.1,0.1-0.1,0.1c-0.1,0.1-0.2,0.2-0.4,0.3c-0.2,0.3-0.7,0.3-1,0.1
			c0,0-0.1,0-0.1-0.1c-0.7-0.7-1.4-1.3-2.1-2c-0.1,0-0.1-0.1-0.2-0.2v0.3c0,4.6,0,9.2,0,13.8c0,0.1,0,0.2,0,0.3
			c0,0.3-0.3,0.5-0.6,0.5c-0.3,0-0.5,0-0.8,0S18,20.1,18,19.8c0-0.1,0-0.2,0-0.3c0-4.6,0-9.2,0-13.8V5.6c-0.1,0.1-0.1,0.1-0.2,0.2
			l-2.1,1.9C15.5,8,15,8,14.7,7.8c-0.1,0-0.1-0.1-0.1-0.1C14.3,7.5,14.1,7.2,14,7V6.7z"/>
		<path id="Path_932" class="st2" d="M6.7,18.9h5.7c0.7,0,1,0.3,1,1c0,0.2,0,0.4,0,0.7c0,0.4-0.3,0.8-0.8,0.8c-0.1,0-0.1,0-0.2,0H1
			c-0.5,0-0.9-0.2-0.9-0.6c-0.1-0.4-0.1-0.9,0-1.3s0.4-0.7,0.8-0.6c1.2,0,2.3,0,3.5,0H6.7z"/>
		<path id="Path_933" class="st2" d="M5.5,16.1H0.9c-0.6,0-0.9-0.3-0.9-1c0-0.2,0-0.5,0-0.7c0-0.4,0.3-0.8,0.7-0.8
			c0.1,0,0.1,0,0.2,0H10c0.7,0,0.9,0.3,0.9,1c0,0.2,0,0.4,0,0.5c0.1,0.5-0.2,0.9-0.7,0.9c-0.1,0-0.1,0-0.2,0c-1.5,0-3,0-4.4,0
			L5.5,16.1z"/>
		<path id="Path_934" class="st2" d="M4.5,10.9H0.9c-0.4,0.1-0.8-0.3-0.8-0.7C0,10,0,10,0,9.9c0-0.2,0-0.5,0-0.7
			c0-0.4,0.3-0.8,0.7-0.8c0.1,0,0.1,0,0.2,0c2.4,0,4.8,0,7.2,0c0.3,0,0.6,0.1,0.7,0.4C8.9,8.8,8.9,9,9,9.2C9,9.4,9,9.7,9,10
			c0,0.5-0.3,0.9-0.7,0.9H8.2C6.9,10.9,5.7,10.9,4.5,10.9z"/>
		<path id="Path_935" class="st2" d="M3.3,5C2.4,5,1.6,5,0.7,5C0.4,5,0.1,4.7,0,4.3C0,4.2,0,4.1,0,4c0-0.2,0-0.5,0-0.7
			c0-0.5,0.3-0.8,0.6-0.9l0,0h0.1h5.1c0.4-0.1,0.7,0.3,0.7,0.7c0,0.1,0,0.2,0,0.2c0,0.2,0,0.4,0,0.6C6.6,4.5,6.4,4.9,6,5
			C5.9,5,5.9,5,5.8,5H3.3z"/>
		<path id="Path_931_1_" class="st2" d="M24,17.1c-0.1,0.2-0.3,0.3-0.4,0.5c-1.3,1.3-2.7,2.6-4,3.9c-0.2,0.3-0.7,0.4-1,0.2
			c-0.1,0-0.1-0.1-0.2-0.2l-4.1-4c-0.3-0.2-0.4-0.6-0.2-0.9c0-0.1,0.1-0.1,0.1-0.1c0.1-0.1,0.2-0.2,0.4-0.4c0.2-0.3,0.7-0.3,1-0.1
			c0,0,0.1,0,0.1,0.1c0.7,0.7,1.4,1.4,2.1,2c0.1,0,0.1,0.1,0.2,0.2V18c0-4.8,0-9.6,0-14.4c0-0.1,0-0.2,0-0.3c0-0.3,0.3-0.6,0.6-0.6
			c0.3,0,0.5,0,0.8,0C19.7,2.8,20,3,20,3.3c0,0.1,0,0.2,0,0.3c0,4.8,0,9.6,0,14.3v0.3c0.1-0.1,0.1-0.1,0.2-0.2l2.1-2
			c0.2-0.3,0.7-0.4,1-0.1c0.1,0,0.1,0.1,0.1,0.1c0.3,0.2,0.5,0.4,0.6,0.7L24,17.1z"/>
	</g>
</g>
<g>
	<path d="M0.3,13.2c0,2.4,2.1,4.3,4.7,4.3V8.9C2.4,8.9,0.3,10.8,0.3,13.2z"/>
	<path d="M19,8.9v8.5c2.6,0,4.7-1.9,4.7-4.3C23.7,10.8,21.6,8.9,19,8.9z"/>
</g>
<path class="st7" d="M21.6,10.7c-0.2-5.1-4.4-9.1-9.5-9.1s-9.1,4-9.4,9.1"/>
<path class="st8" d="M13.5,21.5c5.3-0.2,8.6,0.1,7.9-8"/>
<ellipse class="st9" cx="13.6" cy="21.4" rx="1.9" ry="1"/>
</svg>
