<svg xmlns="http://www.w3.org/2000/svg" viewBox="0 0 20 20"><title>unselect_all2</title><rect width="20" height="20" style="fill:none"/><rect x="7" y="3" width="12" height="2"/><rect x="7" y="9" width="12" height="2"/><rect x="7" y="15" width="12" height="2"/><rect y="2.01" width="1" height="1"/><polygon points="2 3.01 2 3 2 2.01 1 2.01 1 3 1 3.01 1 3.99 2 3.99 2 4 2 5 2 5 1 5 1 6 1 6.99 2 6.99 2 6 2.99 6 2.99 5 3 5 3 6 3.99 6 3.99 5 3.99 4 3.99 3.01 3 3.01 2 3.01"/><rect y="6" width="1" height="1"/><rect x="4" y="3" width="1" height="1"/><polygon points="4.99 2 4 2 4 2.99 4.99 2.99 5.99 2.99 5.99 2 4.99 2"/><polygon points="4.99 5 4 5 4 6 4 6.99 4.99 6.99 5.99 6.99 5.99 6 4.99 6 4.99 5"/><rect y="7.98" width="1" height="1"/><polygon points="2 8.97 2 8.96 2 7.98 1 7.98 1 8.96 1 8.97 1 9.96 2 9.96 2 9.97 2 10.97 2 10.97 1 10.97 1 11.96 1 12.96 2 12.96 2 11.96 2.99 11.96 2.99 10.97 3 10.97 3 11.96 3.99 11.96 3.99 10.97 3.99 9.97 3.99 8.97 3 8.97 2 8.97"/><rect y="11.96" width="1" height="1"/><rect x="4" y="8.96" width="1" height="1"/><polygon points="4.99 7.96 4 7.96 4 8.96 4.99 8.96 5.99 8.96 5.99 7.96 4.99 7.96"/><polygon points="4.99 10.97 4 10.97 4 11.96 4 12.96 4.99 12.96 5.99 12.96 5.99 11.96 4.99 11.96 4.99 10.97"/><rect x="0.03" y="13.94" width="1" height="1"/><polygon points="2.03 14.94 2.03 14.93 2.03 13.94 1.03 13.94 1.03 14.93 1.03 14.94 1.03 15.93 2.03 15.93 2.03 15.94 2.03 16.93 2.03 16.93 1.03 16.93 1.03 17.93 1.03 18.93 2.03 18.93 2.03 17.93 3.02 17.93 3.02 16.93 3.03 16.93 3.03 17.93 4.03 17.93 4.03 16.93 4.03 15.94 4.03 14.94 3.03 14.94 2.03 14.94"/><rect x="0.03" y="17.93" width="1" height="1"/><rect x="4.03" y="14.93" width="1" height="1"/><polygon points="5.03 13.93 4.03 13.93 4.03 14.93 5.03 14.93 6.02 14.93 6.02 13.93 5.03 13.93"/><polygon points="5.03 16.93 4.03 16.93 4.03 17.93 4.03 18.93 5.03 18.93 6.02 18.93 6.02 17.93 5.03 17.93 5.03 16.93"/></svg>