<svg width="11" height="3" viewBox="0 0 11 3" fill="none" xmlns="http://www.w3.org/2000/svg">
<path opacity="0.7" d="M1.3 2.6C2.01797 2.6 2.6 2.01797 2.6 1.3C2.6 0.58203 2.01797 0 1.3 0C0.582029 0 0 0.58203 0 1.3C0 2.01797 0.582029 2.6 1.3 2.6Z" fill="#5A585A"/>
<path opacity="0.7" d="M5 2.6C5.71797 2.6 6.3 2.01797 6.3 1.3C6.3 0.58203 5.71797 0 5 0C4.28203 0 3.7 0.58203 3.7 1.3C3.7 2.01797 4.28203 2.6 5 2.6Z" fill="#5A585A"/>
<path opacity="0.7" d="M8.8 2.6C9.51797 2.6 10.1 2.01797 10.1 1.3C10.1 0.58203 9.51797 0 8.8 0C8.08203 0 7.5 0.58203 7.5 1.3C7.5 2.01797 8.08203 2.6 8.8 2.6Z" fill="#5A585A"/>
</svg>
