<svg width="17" height="14" viewBox="0 0 17 14" fill="none" xmlns="http://www.w3.org/2000/svg">
<path opacity="0.7" d="M0.0999985 13.3C-1.52364e-06 12.9 0.0999992 12.4 0.299999 12L6.8 1.10001C6.8 1.10001 7.4 0 7.9 0C8.6 0 9.2 1.10001 9.2 1.10001L15.8 12.2C16 12.6 16.1 13 16 13.4C15.9 13.8 15.6 14 15.2 14H0.900002C0.900002 13.9 0.299998 14.1 0.0999985 13.3Z" fill="#CE4141"/>
<path d="M8 12.3C8.44183 12.3 8.8 11.9418 8.8 11.5C8.8 11.0582 8.44183 10.7 8 10.7C7.55817 10.7 7.2 11.0582 7.2 11.5C7.2 11.9418 7.55817 12.3 8 12.3Z" fill="white"/>
<path d="M8 9.20001C7.5 9.20001 7.2 8.89999 7.2 8.29999V4C7.2 3.5 7.5 3.10001 8 3.10001C8.5 3.10001 8.8 3.49999 8.8 3.89999V8.29999C8.7 8.79999 8.4 9.20001 8 9.20001Z" fill="white"/>
</svg>
