<svg width="22" height="16" viewBox="0 0 22 16" fill="none" xmlns="http://www.w3.org/2000/svg">
<path d="M12.7 10.9C12 12.6 10.6 13.9 8.8 14.3C4.3 15.4 2.2 13.8 2.2 13.8C1.9 13.8 1.7 14 1.7 14.3V14.4C1.7 14.9 2 15.3 2.4 15.3H2.6C5.5 15.5 8.4 15.5 11.3 15.3C12.7 15.3 14 15 15.2 14.3C16 13.8 16.7 13.1 17.2 12.3C18.5 10.1 19.6 10.1 19.5 9.7C19.4 9.3 19.3 6.79998 15.9 6.99998C14.3 7.19998 13.1 9.59998 12.7 10.9Z" fill="#2B3A4D"/>
<path d="M10.8 11.3C8.7 14.8 -1 14 0.0999981 6.39999C1.3 -2.40001 13.6 -0.300014 15 5.39999C15.1 5.59999 14.2 5.39998 13.6 6.79998C13.3 7.49998 12.9 5.4 11.4 4.1C9.1 2.1 2.7 1.49998 2.2 6.79998C1.7 11.7 7.9 12.6 9.3 10.4C12.1 6.19999 6.7 4.69999 5.6 6.39999C4.6 7.79999 5.9 9.19998 6.7 8.79998C7.1 8.59998 6.1 7.19999 7.5 6.99999C8.4 6.79999 8.8 8.39999 8.5 8.89999C7 11.9 2.6 9.3 3.8 6.1C5.4 2.1 15.2 4.09998 10.8 11.3Z" fill="#2B3A4D"/>
<path d="M17.1 3.39999L17.9 3.60001L16.8 7.5L16 7.29999L17.1 3.39999Z" fill="#2B3A4D"/>
<path d="M20.8 5.20001L21.4 5.70001L18.7 8.70001L18.1 8.20001L20.8 5.20001Z" fill="#2B3A4D"/>
<path d="M17.6 4.10001C18.0418 4.10001 18.4 3.74182 18.4 3.29999C18.4 2.85816 18.0418 2.5 17.6 2.5C17.1582 2.5 16.8 2.85816 16.8 3.29999C16.8 3.74182 17.1582 4.10001 17.6 4.10001Z" fill="#2B3A4D"/>
<path d="M21.835 5.46854C21.9246 5.0359 21.6465 4.61253 21.2138 4.52294C20.7812 4.43334 20.3578 4.71143 20.2682 5.14408C20.1786 5.57673 20.4567 6.0001 20.8894 6.08969C21.322 6.17929 21.7454 5.90119 21.835 5.46854Z" fill="#2B3A4D"/>
</svg>
