<svg width="16" height="16" viewBox="0 0 16 16" fill="none" xmlns="http://www.w3.org/2000/svg">
  <g mask="url(#mask0_351_1986)">
    <path d="M6.22892 9.94433L12.0301 4.09615C12.259 3.86538 12.5301 3.75 12.8434 3.75C13.1566 3.75 13.4277 3.86538 13.6566 4.09615C13.8855 4.32692 14 4.6002 14 4.91599C14 5.23178 13.8855 5.50506 13.6566 5.73583L7.04217 12.4038C6.81325 12.6346 6.54217 12.75 6.22892 12.75C5.91566 12.75 5.64458 12.6346 5.41566 12.4038L2.34337 9.30668C2.11446 9.07591 2 8.80263 2 8.48684C2 8.17105 2.11446 7.89777 2.34337 7.667C2.57229 7.43623 2.84337 7.32085 3.15663 7.32085C3.46988 7.32085 3.74096 7.43623 3.96988 7.667L6.22892 9.94433Z" fill="#1D1E20"/>
  </g>
</svg>