<svg width="16" height="16" viewBox="0 0 16 16" fill="none" xmlns="http://www.w3.org/2000/svg">
  <g mask="url(#mask0_1982_4689)">
    <path d="M8.00004 9.23521L4.88411 12.3511C4.71792 12.5173 4.51212 12.6004 4.26671 12.6004C4.0213 12.6004 3.8155 12.5173 3.64931 12.3511C3.48312 12.185 3.40002 11.9792 3.40002 11.7337C3.40002 11.4883 3.48312 11.2825 3.64931 11.1163L6.76524 8.00041L3.64931 4.88447C3.48312 4.71828 3.40002 4.51248 3.40002 4.26707C3.40002 4.02166 3.48312 3.81586 3.64931 3.64967C3.8155 3.48348 4.0213 3.40039 4.26671 3.40039C4.51212 3.40039 4.71792 3.48348 4.88411 3.64967L8.00004 6.76561L11.116 3.64967C11.2822 3.48348 11.488 3.40039 11.7334 3.40039C11.9788 3.40039 12.1846 3.48348 12.3508 3.64967C12.517 3.81586 12.6001 4.02166 12.6001 4.26707C12.6001 4.51248 12.517 4.71828 12.3508 4.88447L9.23484 8.00041L12.3508 11.1163C12.517 11.2825 12.6001 11.4883 12.6001 11.7337C12.6001 11.9792 12.517 12.185 12.3508 12.3511C12.1846 12.5173 11.9788 12.6004 11.7334 12.6004C11.488 12.6004 11.2822 12.5173 11.116 12.3511L8.00004 9.23521Z" fill="#EBEFF5"/>
  </g>
</svg>