<?xml version="1.0" encoding="utf-8"?>
<!-- Generator: Adobe Illustrator 27.0.0, SVG Export Plug-In . SVG Version: 6.00 Build 0)  -->
<svg version="1.1" xmlns="http://www.w3.org/2000/svg" xmlns:xlink="http://www.w3.org/1999/xlink" x="0px" y="0px"
	 width="12px" height="10px" viewBox="0 0 12 10" style="enable-background:new 0 0 12 10;" xml:space="preserve">
<g>
	<path class="st0" d="M2,10c-0.3,0-0.5-0.1-0.7-0.2C1,9.7,0.8,9.5,0.7,9.3C0.6,9,0.5,8.8,0.5,8.5c0-0.3,0.1-0.5,0.2-0.8l4-7
		C4.8,0.5,5,0.3,5.2,0.2c0.5-0.3,1.1-0.3,1.5,0C7,0.3,7.2,0.5,7.3,0.8l4,7c0.1,0.2,0.2,0.5,0.2,0.7S11.4,9,11.3,9.3
		c-0.1,0.2-0.3,0.4-0.5,0.5C10.5,9.9,10.3,10,10,10H2C2,10,2,10,2,10z M6,1C5.9,1,5.8,1,5.8,1.1c-0.1,0-0.1,0.1-0.2,0.2l-4,7
		c0,0.1-0.1,0.2-0.1,0.3c0,0.1,0,0.2,0.1,0.3c0,0.1,0.1,0.1,0.2,0.2C1.8,9,1.9,9,2,9h8c0.1,0,0.2,0,0.3-0.1c0.1,0,0.1-0.1,0.2-0.2
		c0-0.1,0.1-0.2,0.1-0.2s0-0.2-0.1-0.2c0,0,0,0,0,0l-4-7c0-0.1-0.1-0.1-0.2-0.2C6.2,1,6.1,1,6,1z M6,8C5.7,8,5.5,7.8,5.5,7.5
		S5.7,7,6,7h0c0.3,0,0.5,0.2,0.5,0.5S6.3,8,6,8z M6,6C5.7,6,5.5,5.8,5.5,5.5v-2C5.5,3.2,5.7,3,6,3s0.5,0.2,0.5,0.5v2
		C6.5,5.8,6.3,6,6,6z"/>
</g>
</svg>
