<svg width="16" height="16" viewBox="0 0 16 16" fill="none" xmlns="http://www.w3.org/2000/svg">
<g mask="url(#mask0_329_2147)">
<path d="M8.00011 6.00003C8.089 6.00003 8.17234 6.01392 8.25011 6.0417C8.32789 6.06948 8.40011 6.1167 8.46678 6.18337L11.5334 9.25003C11.6557 9.37225 11.7168 9.52781 11.7168 9.7167C11.7168 9.90559 11.6557 10.0611 11.5334 10.1834C11.4112 10.3056 11.2557 10.3667 11.0668 10.3667C10.8779 10.3667 10.7223 10.3056 10.6001 10.1834L8.00011 7.58337L5.40011 10.1834C5.27789 10.3056 5.12234 10.3667 4.93345 10.3667C4.74456 10.3667 4.589 10.3056 4.46678 10.1834C4.34456 10.0611 4.28345 9.90559 4.28345 9.7167C4.28345 9.52781 4.34456 9.37225 4.46678 9.25003L7.53345 6.18337C7.60011 6.1167 7.67234 6.06948 7.75011 6.0417C7.82789 6.01392 7.91123 6.00003 8.00011 6.00003Z" fill="#FFFFFF"/>
</g>
</svg>
