<svg width="16" height="16" viewBox="0 0 16 16" fill="none" xmlns="http://www.w3.org/2000/svg">
<g mask="url(#mask0_329_2156)">
<path d="M8.00001 10.3667C7.91112 10.3667 7.82779 10.3528 7.75001 10.325C7.67223 10.2972 7.60001 10.25 7.53334 10.1833L4.46667 7.11667C4.34445 6.99444 4.28334 6.83889 4.28334 6.65C4.28334 6.46111 4.34445 6.30556 4.46667 6.18333C4.5889 6.06111 4.74445 6 4.93334 6C5.12223 6 5.27778 6.06111 5.40001 6.18333L8.00001 8.78333L10.6 6.18333C10.7222 6.06111 10.8778 6 11.0667 6C11.2556 6 11.4111 6.06111 11.5333 6.18333C11.6556 6.30556 11.7167 6.46111 11.7167 6.65C11.7167 6.83889 11.6556 6.99444 11.5333 7.11667L8.46667 10.1833C8.40001 10.25 8.32779 10.2972 8.25001 10.325C8.17223 10.3528 8.0889 10.3667 8.00001 10.3667Z" fill="#FFFFFF"/>
</g>
</svg>
