<?xml version="1.0" encoding="utf-8"?>
<!-- Generator: Adobe Illustrator 24.1.1, SVG Export Plug-In . SVG Version: 6.00 Build 0)  -->
<svg version="1.1" id="Слой_1" xmlns="http://www.w3.org/2000/svg" xmlns:xlink="http://www.w3.org/1999/xlink" x="0px" y="0px"
	 width="40px" height="40px" viewBox="0 0 40 40" style="enable-background:new 0 0 40 40;" xml:space="preserve">
<style type="text/css">
	.st0{fill:#EAEAEA;}
</style>
<g>
	<path class="st0" d="M32.582,25.871l-3.619,4.111l-0.013-0.013l-0.004,0.004l-1.986-1.834c-0.255-0.236-0.279-0.643-0.055-0.91
		l0.035-0.042c0.225-0.267,0.613-0.293,0.868-0.058l1.059,0.979l2.773-3.149c0.24-0.273,0.645-0.29,0.906-0.038
		C32.806,25.173,32.822,25.599,32.582,25.871z"/>
	<path class="st0" d="M32,28.139v2.802c0,0.033-0.027,0.06-0.06,0.06L26,30.94L26.06,25l4.254,0.043L31.233,24H26.06
		C25.476,24,25,24.476,25,25.061v5.88c0,0.584,0.476,1.06,1.06,1.06h5.88c0.584,0,1.06-0.476,1.06-1.06v-3.938L32,28.139z"/>
</g>
<path class="st0" d="M23.869,21.939L22,23.815c-0.121,0.121-0.28,0.182-0.439,0.182c-0.158,0-0.317-0.06-0.439-0.182
	c-0.242-0.243-0.242-0.635,0-0.878l0.81-0.817H16.57c-0.343,0-0.62-0.277-0.62-0.62s0.277-0.62,0.62-0.62h5.363l-0.821-0.843
	c-0.243-0.243-0.243-0.635,0-0.878s0.635-0.243,0.878,0l1.88,1.902C24.112,21.304,24.112,21.697,23.869,21.939z"/>
<path class="st0" d="M23,26.667H12.964c-0.362,0-0.654-0.299-0.654-0.667V14c0-0.368,0.293-0.667,0.654-0.667h4.11l1.99,2.427
	c0.123,0.151,0.305,0.239,0.497,0.24h7.475c0.362,0,0.654,0.298,0.654,0.667V22H29v-5.333c0-1.105-0.879-2-1.964-2h-7.167
	l-1.983-2.427c-0.125-0.152-0.31-0.24-0.504-0.24h-4.418C11.879,12,11,12.895,11,14v12.001C11,27.105,11.879,28,12.964,28H23V26.667
	z"/>
</svg>
