<?xml version="1.0" encoding="utf-8"?>
<!-- Generator: Adobe Illustrator 24.1.1, SVG Export Plug-In . SVG Version: 6.00 Build 0)  -->
<svg version="1.1" id="Слой_1" xmlns="http://www.w3.org/2000/svg" xmlns:xlink="http://www.w3.org/1999/xlink" x="0px" y="0px"
	 width="40px" height="40px" viewBox="0 0 40 40" style="enable-background:new 0 0 40 40;" xml:space="preserve">
<style type="text/css">
	.st0{fill:#EAEAEA;}
</style>
<g>
	<path class="st0" d="M20,29L20,29c0.6,0,1-0.4,1-1V12c0-0.6-0.4-1-1-1l0,0c-0.6,0-1,0.4-1,1v16C19,28.6,19.5,29,20,29z"/>
	<g>
		<path class="st0" d="M14.2,17.9L14.2,17.9c0.4,0.4,1,0.4,1.4,0l5.1-5.2c0.4-0.4,0.4-1,0-1.4l0,0c-0.4-0.4-1-0.4-1.4,0l-5.1,5.2
			C13.8,16.9,13.8,17.5,14.2,17.9z"/>
		<path class="st0" d="M25.8,17.9L25.8,17.9c-0.4,0.4-1,0.4-1.4,0l-5.1-5.2c-0.4-0.4-0.4-1,0-1.4l0,0c0.4-0.4,1-0.4,1.4,0l5.1,5.2
			C26.2,16.9,26.2,17.5,25.8,17.9z"/>
	</g>
</g>
</svg>
