<?xml version="1.0" encoding="utf-8"?>
<!-- Generator: Adobe Illustrator 24.1.1, SVG Export Plug-In . SVG Version: 6.00 Build 0)  -->
<svg version="1.1" id="Слой_1" xmlns="http://www.w3.org/2000/svg" xmlns:xlink="http://www.w3.org/1999/xlink" x="0px" y="0px"
	 width="40px" height="40px" viewBox="0 0 40 40" style="enable-background:new 0 0 40 40;" xml:space="preserve">
<style type="text/css">
	.st0{fill:#9CABC3;}
</style>
<path class="st0" d="M17.488,11h-3.976c-0.559,0-1.012,0.453-1.012,1.012v15.976c0,0.559,0.453,1.012,1.012,1.012h3.976
	c0.559,0,1.012-0.453,1.012-1.012V12.012C18.5,11.453,18.047,11,17.488,11z M17,26.847c0,0.361-0.292,0.653-0.653,0.653h-1.694
	C14.292,27.5,14,27.208,14,26.847V13.153c0-0.361,0.292-0.653,0.653-0.653h1.694c0.361,0,0.653,0.292,0.653,0.653V26.847z"/>
<path class="st0" d="M23.046,27.5h-0.393C22.292,27.5,22,27.208,22,26.847V13.153c0-0.361,0.292-0.653,0.653-0.653h1.694
	c0.361,0,0.653,0.292,0.653,0.653v8.819h1.5v-9.96c0-0.559-0.453-1.012-1.012-1.012h-3.976c-0.559,0-1.012,0.453-1.012,1.012v15.976
	c0,0.559,0.453,1.012,1.012,1.012h1.534V27.5z"/>
<g>
	<path class="st0" d="M32.582,25.871l-3.619,4.111l-0.013-0.013l-0.004,0.004l-1.986-1.834c-0.255-0.236-0.279-0.643-0.055-0.91
		l0.035-0.042c0.225-0.267,0.613-0.293,0.868-0.058l1.059,0.979l2.773-3.149c0.24-0.273,0.645-0.29,0.906-0.038
		C32.806,25.173,32.822,25.599,32.582,25.871z"/>
	<path class="st0" d="M32,28.139v2.802c0,0.033-0.027,0.06-0.06,0.06L26,30.94L26.06,25l4.254,0.043L31.233,24H26.06
		C25.476,24,25,24.476,25,25.061v5.88c0,0.584,0.476,1.06,1.06,1.06h5.88c0.584,0,1.06-0.476,1.06-1.06v-3.938L32,28.139z"/>
</g>
</svg>
