<?xml version="1.0" encoding="utf-8"?>
<!-- Generator: Adobe Illustrator 24.1.1, SVG Export Plug-In . SVG Version: 6.00 Build 0)  -->
<svg version="1.1" id="Слой_1" xmlns="http://www.w3.org/2000/svg" xmlns:xlink="http://www.w3.org/1999/xlink" x="0px" y="0px"
	 width="40px" height="40px" viewBox="0 0 40 40" style="enable-background:new 0 0 40 40;" xml:space="preserve">
<style type="text/css">
	.st0{fill:#9BAAC4;}
</style>
<path class="st0" d="M22.277,23.834c-1.227,0.849-2.642,1.321-4.152,1.321c-3.869,0-7.077-3.208-7.077-7.077S14.256,11,18.125,11
	s7.077,3.208,7.077,7.077c0,1.51-0.472,2.925-1.321,4.152l4.718,4.718c0.472,0.472,0.472,1.227,0,1.699
	c-0.472,0.472-1.227,0.472-1.699,0L22.277,23.834 M18.125,23.456c3.02,0,5.473-2.453,5.473-5.473s-2.453-5.473-5.473-5.473
	s-5.473,2.453-5.473,5.473l0,0C12.651,21.003,15.105,23.456,18.125,23.456"/>
</svg>
