<?xml version="1.0" encoding="utf-8"?>
<!-- Generator: Adobe Illustrator 24.1.1, SVG Export Plug-In . SVG Version: 6.00 Build 0)  -->
<svg version="1.1" id="Слой_1" xmlns="http://www.w3.org/2000/svg" xmlns:xlink="http://www.w3.org/1999/xlink" x="0px" y="0px"
	 width="40px" height="40px" viewBox="0 0 40 40" style="enable-background:new 0 0 40 40;" xml:space="preserve">
<style type="text/css">
	.st0{fill:#333C4E;}
</style>
<path class="st0" d="M27.182,25.771l-3.847-3.847c0.696-0.98,1.11-2.175,1.11-3.468c0-3.314-2.686-6-6-6s-6,2.686-6,6s2.686,6,6,6
	c1.305,0,2.509-0.421,3.493-1.128l3.844,3.844c0.1,0.1,0.1,0.1,0.2,0.2c0.4,0.3,1.1,0.2,1.4-0.2
	C27.682,26.771,27.582,26.071,27.182,25.771z M18.444,22.955c-2.485,0-4.5-2.015-4.5-4.5s2.015-4.5,4.5-4.5s4.5,2.015,4.5,4.5
	S20.929,22.955,18.444,22.955z"/>
</svg>
