<svg width="18" height="10" viewBox="0 0 18 10" fill="none" xmlns="http://www.w3.org/2000/svg">
<path d="M18 6.10352e-05H0V10.0001H18V6.10352e-05Z" fill="white"/>
<path d="M18 6.70007H0V10.0001H18V6.70007Z" fill="#242521"/>
<path d="M18 6.10352e-05H0V3.30005H18V6.10352e-05Z" fill="#AF2D38"/>
<path d="M9.60002 5.80005C9.70002 5.80005 9.70001 5.90006 9.70001 6.00006C9.60001 5.90006 9.50002 5.90005 9.60002 5.80005Z" fill="#BA8B06"/>
<path d="M8.39999 5.70007C8.39999 5.80007 8.39999 5.80007 8.39999 5.70007C8.49999 5.80007 8.39999 5.80005 8.39999 5.90005C8.39999 5.80005 8.39999 5.80007 8.39999 5.70007Z" fill="#E9C75B"/>
<path d="M8.00001 5.40005C8.00001 5.50005 8.00001 5.60007 8.00001 5.70007C8.00001 5.80007 8.00001 5.80005 8.00001 5.90005C7.90001 5.90005 8.00001 5.80005 8.00001 5.80005V5.70007C8.00001 5.60007 8.00001 5.50005 8.00001 5.40005C8.00001 5.30005 8.00001 5.20007 8.00001 5.20007C8.00001 5.30007 8.10001 5.40005 8.00001 5.40005Z" fill="#FAF4E2"/>
<path d="M10 6.20007C10 6.20007 9.90001 6.20007 9.90001 6.10007C9.90001 6.00007 9.80001 6.00006 9.70001 6.00006C9.60001 6.00006 9.60001 6.00005 9.60001 5.90005C9.50001 5.90005 9.50001 5.90005 9.40001 5.90005V5.80005C9.40001 5.80005 9.40001 5.80007 9.40001 5.70007C9.40001 5.70007 9.40001 5.70007 9.40001 5.60007L9.30001 5.50006C9.30001 5.50006 9.30001 5.50005 9.30001 5.40005V5.30005H9.20001C9.20001 5.30005 9.20001 5.30005 9.10001 5.30005C9.10001 5.30005 9.10001 5.30005 9.10001 5.40005C9.10001 5.50005 9.10001 5.50007 9.10001 5.60007C9.10001 5.60007 9.10001 5.60007 9.10001 5.70007V5.80005V5.90005C9.10001 5.80005 9.00001 5.80005 8.90001 5.90005C8.90001 5.90005 8.90001 5.90005 8.80001 5.90005C8.80001 5.90005 8.80001 5.90005 8.90001 5.90005C8.90001 5.90005 8.90001 5.90005 9.00001 5.90005H8.90001C8.90001 5.90005 8.90001 5.90005 8.80001 5.90005H8.70001C8.70001 6.00005 8.60001 6.00007 8.60001 6.10007C8.60001 6.20007 8.80001 6.30005 8.80001 6.40005C9.30001 6.50005 9.80001 6.50005 10.3 6.40005C9.90001 6.50005 9.90001 6.40007 10 6.20007ZM9.70001 6.30005C9.60001 6.40005 9.50001 6.40005 9.50001 6.40005H9.40001C9.40001 6.40005 9.40001 6.40005 9.30001 6.40005V6.50006C9.30001 6.50006 9.30001 6.50006 9.20001 6.50006C9.10001 6.50006 9.00001 6.50006 8.90001 6.50006C8.90001 6.50006 8.90001 6.60006 8.80001 6.50006C8.80001 6.50006 8.80001 6.40006 8.70001 6.50006C8.60001 6.60006 8.60001 6.50006 8.60001 6.50006C8.40001 6.50006 8.40001 6.50005 8.50001 6.30005C8.60001 6.30005 8.70001 6.30005 8.70001 6.40005H8.80001C8.90001 6.40005 8.90001 6.40005 9.00001 6.40005C9.00001 6.40005 9.10001 6.50005 9.10001 6.40005H9.20001C9.30001 6.40005 9.50001 6.40006 9.50001 6.50006C9.50001 6.40006 9.60001 6.40005 9.70001 6.40005C9.80001 6.20005 9.80001 6.20005 9.70001 6.30005Z" fill="#BA8B06"/>
<path d="M8.39999 6.00006C8.39999 5.90006 8.39999 5.90006 8.39999 6.00006C8.39999 5.90006 8.39999 5.90005 8.49999 5.80005C8.49999 5.80005 8.49999 5.80005 8.59999 5.80005H8.69999C8.69999 5.80005 8.79999 5.90005 8.79999 5.80005C8.79999 5.80005 8.79999 5.80005 8.79999 5.90005V6.00006C8.69999 6.00006 8.79999 5.90005 8.69999 5.90005C8.69999 5.90005 8.69999 6.00006 8.59999 6.00006C8.49999 6.00006 8.49999 6.00006 8.39999 6.00006Z" fill="#FCFBF6"/>
<path d="M8.5 5.60005C8.5 5.50005 8.5 5.50005 8.5 5.60005C8.6 5.60005 8.6 5.50005 8.7 5.60005C8.7 5.60005 8.7 5.70004 8.8 5.80004C8.8 5.80004 8.8 5.80004 8.7 5.80004C8.7 5.70004 8.7 5.70005 8.5 5.60005C8.6 5.70005 8.6 5.60005 8.5 5.60005Z" fill="#BA8B06"/>
<path d="M9.49999 5.50006C9.49999 5.60006 9.49999 5.60006 9.49999 5.50006C9.39999 5.60006 9.39999 5.70007 9.29999 5.60007V5.70007C9.29999 5.60007 9.29999 5.60006 9.49999 5.50006C9.39999 5.50006 9.39999 5.50006 9.49999 5.50006Z" fill="#BA8B06"/>
<path d="M8.80001 5.70007C8.70001 5.70007 8.70001 5.60006 8.70001 5.50006C8.70001 5.50006 8.70001 5.50005 8.70001 5.40005C8.70001 5.40005 8.70001 5.30005 8.80001 5.30005C8.80001 5.30005 8.80001 5.30005 8.80001 5.40005C8.90001 5.60005 8.80001 5.60007 8.80001 5.70007Z" fill="#FCFBF6"/>
<path d="M8.90001 6.00007C8.90001 6.10007 9.00001 6.10007 9.00001 6.00007C9.00001 6.10007 9.10001 6.10008 9.10001 6.10008C9.00001 6.20008 8.90001 6.20008 8.70001 6.10008C8.80001 6.00008 8.90001 6.10007 8.90001 6.00007Z" fill="#FCF9F0"/>
<path d="M8.80001 5.50006C8.60001 5.50006 8.70001 5.50005 8.60001 5.40005V5.30005C8.70001 5.40005 8.70001 5.30005 8.70001 5.30005L8.80001 5.40005C8.90001 5.40005 8.90001 5.40006 8.80001 5.50006C8.90001 5.50006 8.90001 5.40006 8.80001 5.50006Z" fill="#BA8B06"/>
<path d="M8.90001 6.20007C8.80001 6.20007 8.70001 6.20007 8.60001 6.20007V6.10007C8.60001 6.10007 8.60001 6.10007 8.70001 6.10007H8.80001C8.80001 6.10007 8.80001 6.10007 8.90001 6.20007Z" fill="#BA8B06"/>
<path d="M9.30001 6.50006C9.10001 6.60006 8.90001 6.60006 8.70001 6.50006H8.80001C8.80001 6.50006 8.80001 6.50006 8.90001 6.50006C9.00001 6.50006 9.10001 6.50006 9.30001 6.50006Z" fill="#F8EDCC"/>
<path d="M9.30001 5.50006C9.20001 5.40006 9.20001 5.50006 9.20001 5.50006V5.40005C9.30001 5.50005 9.30001 5.50006 9.30001 5.50006Z" fill="#BA8B06"/>
<path d="M8.80001 5.80005C8.80001 5.90005 8.80001 5.90005 8.80001 5.90005C8.80001 5.90005 8.70001 5.90005 8.80001 5.80005C8.70001 6.00005 8.70001 5.90005 8.60001 5.80005C8.70001 5.80005 8.70001 5.80005 8.80001 5.80005Z" fill="#BA8B06"/>
<path d="M8.7 6.10007C8.6 6.20007 8.6 6.20007 8.7 6.10007C8.8 6.00007 8.8 6.10006 8.8 6.00006H8.7C8.7 6.10006 8.7 6.20007 8.7 6.10007Z" fill="#BA8B06"/>
<path d="M9.70001 6.10007C9.80001 6.10007 9.80001 6.20007 9.80001 6.20007H9.70001C9.70001 6.30007 9.80001 6.20007 9.70001 6.10007C9.70001 6.20007 9.70001 6.20007 9.70001 6.10007Z" fill="#BA8B06"/>
<path d="M9.60001 6.00006C9.70001 6.00006 9.70001 6.00006 9.70001 6.00006C9.70001 6.10006 9.60001 6.10006 9.60001 6.00006C9.60001 6.10006 9.60001 6.10006 9.60001 6.00006Z" fill="#F9F2DB"/>
<path d="M9.20001 5.40005C9.20001 5.40005 9.20001 5.50006 9.10001 5.50006C9.10001 5.50006 9.10001 5.40005 9.20001 5.40005C9.10001 5.40005 9.10001 5.40005 9.20001 5.40005Z" fill="#FBF6E8"/>
<path d="M8.39999 6.00007C8.49999 5.90007 8.49999 6.00007 8.49999 6.00007C8.49999 6.00007 8.49999 6.00007 8.39999 6.00007C8.49999 6.00007 8.49999 6.00007 8.39999 6.00007Z" fill="#BA8B06"/>
<path d="M8.39999 6.10008C8.49999 6.10008 8.49999 6.00008 8.39999 6.10008C8.49999 6.10008 8.49999 6.10008 8.39999 6.10008Z" fill="#F3E0A5"/>
<path d="M9.59999 6.10008C9.49999 6.20008 9.49999 6.10008 9.59999 6.10008C9.49999 6.10008 9.49999 6.00008 9.59999 6.10008Z" fill="#F2DFA3"/>
<path d="M9.30001 5.80005C9.20001 5.90005 9.20001 5.90005 9.30001 5.80005C9.20001 5.90005 9.20001 5.80005 9.30001 5.80005C9.20001 5.80005 9.20001 5.80005 9.30001 5.80005Z" fill="#BA8B06"/>
<path d="M9.5 6.00007C9.6 5.90007 9.6 6.00007 9.6 6.00007H9.5Z" fill="#BA8B06"/>
<path d="M8.89999 6.20007C8.99999 6.20007 8.99999 6.20007 8.89999 6.20007C8.99999 6.30007 8.89999 6.30007 8.89999 6.20007Z" fill="#BA8B06"/>
<path d="M8.20001 6.00006C8.30001 6.00006 8.30001 6.00006 8.30001 6.00006C8.40001 6.10006 8.40001 6.10006 8.20001 6.00006C8.30001 6.10006 8.30001 6.10006 8.20001 6.00006Z" fill="#F0D991"/>
<path d="M8.29999 6.10005C8.39999 6.00005 8.39999 6.00005 8.29999 6.10005C8.39999 6.10005 8.39999 6.10005 8.29999 6.10005Z" fill="#F9F3DD"/>
<path d="M9.30001 6.10007C9.30001 6.20007 9.30001 6.20007 9.30001 6.10007C9.20001 6.20007 9.20001 6.20007 9.30001 6.10007C9.20001 6.10007 9.20001 6.10007 9.30001 6.10007Z" fill="#FAF5E4"/>
<path d="M9.49999 6.10007C9.49999 6.20007 9.49999 6.20007 9.49999 6.10007C9.39999 6.20007 9.39999 6.20007 9.49999 6.10007C9.39999 6.10007 9.39999 6.10007 9.49999 6.10007Z" fill="#FAF3E0"/>
<path d="M8.59999 6.10007C8.49999 6.20007 8.49999 6.10007 8.59999 6.10007Z" fill="#F9F3DE"/>
<path d="M9.09999 6.20008C8.99999 6.20008 8.99999 6.20008 9.09999 6.20008C9.09999 6.10008 8.99999 6.20008 9.09999 6.20008Z" fill="#F6E8C0"/>
<path d="M8.30001 6.10008C8.20001 6.10008 8.20001 6.00008 8.30001 6.10008Z" fill="#F8F0D7"/>
<path d="M9.19999 5.70007C9.19999 5.80007 9.09999 5.70007 9.19999 5.70007Z" fill="#BA8B06"/>
<path d="M9.99999 5.60007C9.99999 5.50007 9.99999 5.50005 9.99999 5.40005C9.99999 5.50005 9.99999 5.60007 9.99999 5.60007C9.99999 5.70007 9.99999 5.70005 9.99999 5.80005C9.89999 5.80005 9.89999 5.70007 9.99999 5.60007Z" fill="#FAF5E4"/>
<path d="M8.80001 5.80005C8.70001 5.80005 8.70001 5.80005 8.80001 5.80005C8.70001 5.90005 8.70001 5.80005 8.70001 5.80005C8.70001 5.80005 8.70001 5.80005 8.60001 5.80005H8.50001C8.50001 5.70005 8.40001 5.60007 8.50001 5.60007C8.50001 5.60007 8.50001 5.60007 8.60001 5.60007C8.60001 5.70007 8.70001 5.70007 8.70001 5.60007C8.70001 5.70007 8.70001 5.70005 8.80001 5.80005Z" fill="#FCFBF8"/>
<path d="M8.59999 4.90005C8.59999 5.00005 8.59999 5.00007 8.69999 5.10007C8.69999 5.10007 8.69999 5.10007 8.69999 5.20007C8.69999 5.30007 8.59999 5.40005 8.69999 5.40005C8.69999 5.50005 8.59999 5.40005 8.59999 5.40005C8.49999 5.20005 8.49999 5.10005 8.59999 4.90005Z" fill="#BA8B06"/>
<path d="M8.5 5.40005C8.6 5.40005 8.6 5.40005 8.6 5.40005C8.6 5.40005 8.6 5.30005 8.7 5.30005V5.40005V5.50006C8.6 5.40006 8.6 5.50006 8.6 5.50006C8.6 5.50006 8.6 5.40006 8.5 5.50006C8.5 5.50006 8.5 5.50005 8.5 5.40005Z" fill="#BA8B06"/>
<path d="M8.5 5.80005C8.6 5.80005 8.6 5.80005 8.5 5.80005C8.6 5.80005 8.5 5.90005 8.5 5.80005Z" fill="#BA8B06"/>
<path d="M8.5 4.70007C8.5 4.70007 8.5 4.80005 8.6 4.80005C8.5 4.90005 8.6 4.80007 8.5 4.70007Z" fill="#FAF5E3"/>
<path d="M8 5.40005C8 5.30005 8 5.30007 8 5.20007C8.1 5.30007 8.1 5.40005 8 5.40005Z" fill="#F9F3DF"/>
<path d="M8 5.90005C8 5.80005 8 5.80007 8 5.70007C8 5.80007 8.1 5.90005 8 5.90005Z" fill="#FAF4E0"/>
<path d="M9.49999 5.00006C9.49999 5.10006 9.49999 5.20007 9.49999 5.20007V5.30005C9.39999 5.20005 9.49999 5.10006 9.39999 5.00006C9.39999 4.90006 9.39999 4.80007 9.39999 4.70007C9.49999 4.90007 9.49999 4.90006 9.49999 5.00006Z" fill="#FCFAF4"/>
<path d="M9.50001 5.00006C9.50001 4.90006 9.50001 4.90005 9.50001 4.80005C9.40001 4.80005 9.50001 4.70007 9.50001 4.70007C9.50001 4.80007 9.50001 4.90006 9.50001 5.00006Z" fill="#F3E0A7"/>
<path d="M9.49999 5.80005C9.49999 5.90005 9.49999 5.90005 9.49999 5.80005C9.39999 5.80005 9.39999 5.80005 9.49999 5.80005Z" fill="#BA8B06"/>
<path d="M9.49999 4.60007V4.70007C9.39999 4.70007 9.39999 4.60007 9.49999 4.60007Z" fill="#F3E0A7"/>
<path d="M8.80001 5.30005C8.80001 5.40005 8.80001 5.40005 8.70001 5.40005C8.70001 5.40005 8.70001 5.40005 8.80001 5.30005C8.70001 5.30005 8.70001 5.30005 8.80001 5.30005Z" fill="#FBF8EE"/>
<path d="M8.70001 5.20007C8.60001 5.20007 8.70001 5.30005 8.70001 5.30005C8.70001 5.30005 8.70001 5.30005 8.70001 5.40005C8.70001 5.30005 8.70001 5.30005 8.60001 5.40005C8.60001 5.30005 8.70001 5.20007 8.60001 5.10007C8.70001 5.10007 8.80001 5.20007 8.70001 5.20007Z" fill="#BA8B06"/>
<path d="M8.79999 4.40005H8.69999C8.59999 4.40005 8.59999 4.40005 8.49999 4.40005H8.39999V4.50006C8.39999 4.80006 8.39999 5.10005 8.39999 5.30005C8.39999 5.40005 8.29999 5.40005 8.29999 5.30005C8.29999 5.00005 8.29999 4.60005 8.29999 4.30005C8.29999 4.20005 8.29999 4.20007 8.19999 4.20007C8.19999 4.50007 8.19999 4.90007 8.19999 5.20007C8.19999 5.30007 8.09999 5.50006 8.09999 5.50006C8.09999 5.10006 8.09999 4.60007 8.19999 4.20007C8.19999 4.10007 8.19999 4.00006 8.09999 4.00006C8.09999 4.20006 8.09999 4.40006 8.09999 4.50006C8.09999 4.60006 8.09999 4.70007 8.09999 4.70007C8.09999 4.80007 8.09999 4.90005 8.09999 4.90005C8.09999 4.80005 8.09999 4.70007 8.09999 4.70007C8.09999 4.40007 8.09999 4.20005 8.09999 3.90005C8.09999 3.90005 7.99999 4.00005 7.99999 3.90005C7.99999 3.80005 8.09999 3.80005 8.19999 3.80005C8.29999 3.80005 8.39999 3.90005 8.49999 3.90005C8.39999 3.90005 8.39999 3.80005 8.29999 3.80005H8.19999C8.09999 3.80005 7.99999 3.80005 7.99999 3.90005C7.99999 4.00005 7.99999 4.00007 7.99999 4.10007C7.99999 4.60007 7.99999 5.00006 7.89999 5.50006C7.89999 5.60006 7.89999 5.80005 7.89999 5.90005C7.89999 6.10005 7.99999 6.00006 7.99999 6.00006C8.09999 5.90006 8.09999 5.90005 8.19999 5.80005C8.29999 5.80005 8.29999 5.70007 8.39999 5.60007V5.70007C8.39999 5.70007 8.39999 5.70005 8.39999 5.80005C8.39999 5.80005 8.39999 5.80005 8.49999 5.80005C8.49999 5.70005 8.49999 5.70007 8.49999 5.60007V5.50006C8.49999 5.40006 8.49999 5.40005 8.49999 5.30005C8.49999 5.20005 8.49999 5.10005 8.49999 4.90005C8.49999 5.00005 8.49999 5.00007 8.59999 5.10007C8.59999 5.10007 8.69999 5.20005 8.69999 5.30005C8.69999 5.30005 8.69999 5.40005 8.79999 5.40005V5.30005C8.79999 4.90005 8.79999 4.70005 8.79999 4.40005ZM8.49999 4.60007C8.49999 4.50007 8.49999 4.50007 8.49999 4.60007Z" fill="#BA8B06"/>
<path d="M10.1 6.00007C10.1 5.50007 10.1 5.10007 10 4.60007C10 4.40007 10 4.30007 10 4.10007C10 4.00007 9.9 4.00007 9.7 4.00007H9.6C9.6 4.00007 9.6 4.00007 9.5 4.00007C9.4 4.00007 9.4 4.10007 9.3 4.10007C9.2 4.10007 9.1 4.10007 9.1 4.00007V3.90006C9.1 3.80006 9.1 3.70007 9.1 3.60007C9.1 3.50007 9 3.40007 8.8 3.50007C8.8 3.50007 8.8 3.50007 8.7 3.50007H8.6C8.5 3.50007 8.5 3.50007 8.5 3.60007C8.5 3.70007 8.5 3.60008 8.6 3.70008C8.7 3.70008 8.7 3.80006 8.7 3.90006V4.00007V4.10007V4.20008C8.8 4.20008 8.7 4.10007 8.8 4.10007C8.8 4.10007 8.8 4.10007 8.8 4.00007C8.8 3.90007 8.9 3.90006 8.8 3.80006C8.8 3.70006 8.8 3.70007 8.7 3.60007C8.7 3.60007 8.7 3.60007 8.8 3.60007C8.8 3.60007 8.8 3.60008 8.8 3.70008C8.8 3.70008 8.9 3.80008 8.9 3.70008C9 3.60008 9 3.70008 9.1 3.70008C9.1 3.70008 9.1 3.80006 9.1 3.90006C9.1 4.00006 9.1 4.00007 9.1 4.10007C9.1 4.20007 9.1 4.20008 9.1 4.20008V4.30006C9.1 4.30006 9.1 4.30006 9 4.30006C9 4.20006 9 4.20007 8.9 4.10007C8.9 4.20007 8.9 4.20006 8.9 4.30006C8.9 4.30006 8.9 4.30006 8.9 4.40006C9 4.10006 9.1 4.00006 9 3.90006C9 4.00006 9 4.00007 9 4.10007V4.20008C8.9 4.20008 9 4.10007 9 4.00007V3.90006C9 4.00006 9 4.10008 8.9 4.20008H9C9 4.30008 9.1 4.20008 9.1 4.20008H9.2C9.2 4.20008 9.3 4.30008 9.3 4.20008C9.4 4.20008 9.4 4.10007 9.5 4.10007C9.6 4.10007 9.6 4.10007 9.7 4.00007C9.7 4.00007 9.7 4.00007 9.8 4.00007H9.9C10 4.00007 10.1 4.00007 10.2 4.10007C10.2 4.20007 10.1 4.10007 10.1 4.10007C10.1 4.20007 10.1 4.30006 10.1 4.30006C10.1 4.40006 10.1 4.50007 10.1 4.60007V4.50007C10.1 4.30007 10.1 4.20007 10.1 4.00007C10 4.00007 10 4.10008 10 4.20008C10 4.50008 10 4.70007 10 5.00007C10 5.20007 10 5.50007 10 5.50007C10 5.10007 10 4.80006 10 4.40006C10 4.30006 10 4.20008 10 4.20008C9.9 4.20008 9.9 4.30006 9.9 4.30006C9.9 4.60006 9.9 4.80007 9.9 5.10007C9.9 5.20007 9.9 5.30007 9.9 5.50007C9.9 5.40007 9.9 5.30008 9.9 5.20008C9.9 4.90008 9.9 4.60006 9.9 4.40006C9.9 4.40006 9.9 4.30006 9.8 4.30006C9.8 4.30006 9.8 4.30006 9.7 4.30006C9.7 4.30006 9.7 4.30006 9.6 4.30006H9.4C9.4 4.40006 9.4 4.40007 9.4 4.50007C9.4 4.70007 9.4 5.00008 9.4 5.20008C9.4 5.20008 9.4 5.10007 9.5 5.10007C9.5 5.10007 9.5 5.00007 9.6 5.00007C9.6 4.90007 9.7 4.80006 9.7 4.80006C9.7 4.80006 9.7 4.80008 9.7 4.70008C9.7 4.70008 9.7 4.70007 9.7 4.60007C9.7 4.70007 9.7 4.80006 9.7 4.80006C9.7 4.90006 9.7 4.90007 9.7 5.00007C9.7 5.10007 9.7 5.10008 9.7 5.20008C9.7 5.20008 9.7 5.20006 9.7 5.30006C9.7 5.30006 9.7 5.30006 9.7 5.40006C9.7 5.50006 9.7 5.50007 9.7 5.60007V5.50007H9.8C9.9 5.60007 9.9 5.60008 10 5.70008L10.1 5.80006C10 6.00006 10.1 6.10007 10.1 6.00007C10.1 6.10007 10.1 6.10007 10.1 6.00007Z" fill="#BA8B06"/>
<path d="M8.9 4.00007C8.8 4.00007 8.8 3.90007 8.9 4.00007C8.8 4.10007 8.8 4.20008 8.7 4.20008C8.7 4.20008 8.8 4.10008 8.7 4.10008C8.7 4.10008 8.7 4.20008 8.6 4.20008H8.5C8.5 4.20008 8.5 4.20008 8.6 4.20008C8.6 4.30008 8.7 4.30008 8.8 4.20008C8.9 4.10008 8.9 4.10007 8.9 4.00007Z" fill="#BA8B06"/>
<path d="M9.49999 5.40005C9.39999 5.40005 9.39999 5.40005 9.49999 5.40005C9.39999 5.30005 9.39999 5.20007 9.29999 5.10007C9.29999 5.00007 9.39999 4.90005 9.39999 4.90005C9.39999 4.90005 9.39999 4.90006 9.39999 5.00006C9.39999 5.10006 9.39999 5.10007 9.39999 5.20007C9.49999 5.20007 9.49999 5.30005 9.49999 5.40005Z" fill="#BA8B06"/>
<path d="M9.29999 5.10007C9.39999 5.10007 9.29999 5.20007 9.29999 5.20007C9.29999 5.30007 9.29999 5.30005 9.39999 5.30005C9.39999 5.30005 9.39999 5.30005 9.39999 5.40005C9.29999 5.50005 9.29999 5.40005 9.29999 5.40005V5.50006C9.29999 5.50006 9.29999 5.50005 9.29999 5.40005C9.29999 5.40005 9.29999 5.40005 9.29999 5.30005V5.20007C9.29999 5.20007 9.29999 5.20007 9.29999 5.10007Z" fill="#BA8B06"/>
<path d="M8.79999 6.50006V6.40005C8.89999 6.40005 8.99999 6.40005 9.09999 6.40005C9.09999 6.50005 8.99999 6.60006 8.89999 6.50006C8.89999 6.50006 8.89999 6.50006 8.79999 6.50006Z" fill="#BA8B06"/>
<path d="M9.70001 6.30005C9.80001 6.40005 9.70001 6.40005 9.60001 6.40005H9.50001C9.60001 6.40005 9.60001 6.40005 9.70001 6.30005C9.60001 6.30005 9.60001 6.30005 9.70001 6.30005Z" fill="#BA8B06"/>
<path d="M8.39999 6.40005C8.39999 6.40005 8.29999 6.50005 8.29999 6.40005C8.29999 6.40005 8.19999 6.40005 8.19999 6.30005C8.09999 6.20005 8.19999 6.10007 8.29999 6.10007C8.29999 6.20007 8.29999 6.20007 8.29999 6.20007C8.29999 6.40007 8.39999 6.20005 8.39999 6.40005C8.49999 6.40005 8.49999 6.40005 8.39999 6.40005Z" fill="#BA8B06"/>
<path d="M8.80001 6.40005C8.70001 6.40005 8.70001 6.40005 8.80001 6.40005C8.70001 6.50005 8.70001 6.50006 8.60001 6.50006C8.50001 6.50006 8.50001 6.50006 8.40001 6.50006H8.30001H8.20001C8.20001 6.40006 8.20001 6.40005 8.30001 6.30005C8.20001 6.30005 8.10001 6.30005 8.10001 6.40005C8.10001 6.40005 8.10001 6.40006 8.10001 6.50006C8.10001 6.60006 8.20001 6.60007 8.30001 6.70007C8.40001 6.70007 8.60001 6.70007 8.70001 6.70007H8.80001C8.80001 6.40007 8.80001 6.40005 8.80001 6.40005Z" fill="#FCF9F0"/>
<path d="M9.70001 6.10007C9.70001 6.10007 9.80001 6.20007 9.70001 6.20007C9.70001 6.20007 9.70001 6.20005 9.70001 6.30005C9.60001 6.40005 9.50001 6.40005 9.40001 6.40005H9.30001C9.30001 6.40005 9.20001 6.40006 9.20001 6.50006C9.20001 6.50006 9.20001 6.50007 9.20001 6.60007C9.40001 6.60007 9.50001 6.60006 9.70001 6.50006C9.80001 6.50006 9.80001 6.40005 9.80001 6.30005C9.90001 6.20005 9.80001 6.10007 9.70001 6.10007Z" fill="#FCF9F0"/>
<path d="M9.10001 6.40005C9.10001 6.50005 9.00001 6.50006 8.90001 6.50006C8.80001 6.50006 8.80001 6.50006 8.70001 6.50006C8.80001 6.50006 9.00001 6.50006 9.10001 6.50006C9.20001 6.50006 9.20001 6.50005 9.10001 6.40005C9.20001 6.40005 9.20001 6.40005 9.10001 6.40005Z" fill="#FCF9F0"/>
<path d="M8.39999 6.40005C8.39999 6.30005 8.39999 6.30005 8.39999 6.40005C8.49999 6.40005 8.49999 6.30005 8.39999 6.40005C8.49999 6.30005 8.49999 6.30005 8.59999 6.30005V6.40005C8.59999 6.40005 8.59999 6.40005 8.39999 6.40005C8.49999 6.40005 8.49999 6.40005 8.39999 6.40005Z" fill="#BA8B06"/>
<path d="M9.20001 6.40005C9.20001 6.30005 9.20001 6.30005 9.20001 6.30005C9.20001 6.30005 9.20001 6.30005 9.30001 6.30005C9.30001 6.40005 9.30001 6.40005 9.20001 6.40005C9.30001 6.50005 9.20001 6.50005 9.20001 6.40005Z" fill="#BA8B06"/>
<path d="M8.60001 6.40005C8.70001 6.40005 8.70001 6.40005 8.60001 6.40005C8.70001 6.30005 8.60001 6.20007 8.70001 6.20007V6.30005C8.70001 6.40005 8.70001 6.50005 8.60001 6.40005Z" fill="#BA8B06"/>
<path d="M9.29999 6.40007C9.39999 6.40007 9.39999 6.30007 9.29999 6.40007C9.39999 6.40007 9.39999 6.40007 9.29999 6.40007C9.39999 6.50007 9.39999 6.40007 9.29999 6.40007Z" fill="#BA8B06"/>
<path d="M9.30001 6.30005C9.20001 6.40005 9.20001 6.30005 9.30001 6.30005Z" fill="#BA8B06"/>
<path d="M8.80001 6.40004C8.80001 6.30004 8.70001 6.30004 8.80001 6.40004C8.70001 6.30004 8.70001 6.30004 8.80001 6.40004C8.80001 6.30004 8.80001 6.30004 8.80001 6.40004Z" fill="#EED481"/>
<path d="M8.3 6.30005C8.3 6.40005 8.3 6.40005 8.3 6.30005C8.3 6.40005 8.2 6.40005 8.3 6.30005Z" fill="#BA8B06"/>
<path d="M9.20001 6.40005C9.30001 6.50005 9.30001 6.50005 9.20001 6.40005C9.30001 6.50005 9.20001 6.50005 9.20001 6.40005C9.20001 6.50005 9.20001 6.50005 9.20001 6.40005Z" fill="#BA8B06"/>
<path d="M9.49999 5.80005C9.39999 6.00005 9.29999 5.90005 9.29999 5.80005C9.29999 5.80005 9.29999 5.90005 9.49999 5.80005Z" fill="#BA8B06"/>
<path d="M8.80001 6.10007C8.80001 6.20007 8.80001 6.20007 8.80001 6.10007C8.80001 6.20007 8.70001 6.20007 8.70001 6.10007C8.70001 6.20007 8.70001 6.10007 8.80001 6.10007Z" fill="#FBF8EE"/>
<path d="M8.60001 5.10007C8.70001 5.20007 8.70001 5.20005 8.60001 5.30005C8.60001 5.30005 8.60001 5.30005 8.60001 5.40005V5.30005C8.60001 5.20005 8.60001 5.20007 8.60001 5.10007Z" fill="#FBF8EF"/>
<path d="M9.20001 5.20007C9.30001 5.30007 9.30001 5.30007 9.20001 5.20007C9.30001 5.30007 9.20001 5.30007 9.20001 5.20007Z" fill="#BA8B06"/>
<path d="M8.20001 5.70007V4.30005H8.30001L8.20001 5.70007Z" fill="white"/>
<path d="M8.29999 5.60007V4.20007H8.39999L8.29999 5.60007C8.39999 5.60007 8.39999 5.60007 8.29999 5.60007Z" fill="white"/>
<path d="M8 5.30005V4.10007H8.1L8 5.30005Z" fill="white"/>
<path d="M9.80001 5.70007V4.30005H9.70001L9.80001 5.70007Z" fill="white"/>
<path d="M9.6 5.60007C9.7 5.60007 9.7 5.60007 9.6 5.60007V4.20007H9.5L9.6 5.60007Z" fill="white"/>
<path d="M9.99999 5.30005V4.10007H9.89999L9.99999 5.30005C9.89999 5.30005 9.89999 5.30005 9.99999 5.30005Z" fill="white"/>
</svg>
