<svg width="18" height="10" viewBox="0 0 18 10" fill="none" xmlns="http://www.w3.org/2000/svg">
<path d="M18 0.100067C18 6.71372e-05 18 6.10352e-05 17.9 6.10352e-05C12 6.10352e-05 6 6.10352e-05 0.1 6.10352e-05C0 6.10352e-05 0 6.71372e-05 0 0.100067C0 3.40007 0 6.60005 0 9.90005C0 10.0001 0 10.0001 0.1 10.0001C3.1 10.0001 6 10.0001 9 10.0001C12 10.0001 14.9 10.0001 17.9 10.0001C18 10.0001 18 10.0001 18 9.90005C18 6.60005 18 3.40007 18 0.100067Z" fill="#006A4E"/>
<path d="M4.79999 5.00006C4.79999 3.20006 6.29999 1.70007 8.09999 1.70007C9.89999 1.70007 11.4 3.20006 11.4 5.00006C11.4 6.80006 9.89999 8.30005 8.09999 8.30005C6.29999 8.30005 4.79999 6.80006 4.79999 5.00006Z" fill="#F32A41"/>
</svg>
