<svg width="18" height="10" viewBox="0 0 18 10" fill="none" xmlns="http://www.w3.org/2000/svg">
<path d="M18 8.90002H0V10H18V8.90002Z" fill="#16007E"/>
<path d="M18 7.80005H0V8.90004H18V7.80005Z" fill="white"/>
<path d="M18 6.70001H0V7.80002H18V6.70001Z" fill="#16007E"/>
<path d="M18 5.60004H0V6.70004H18V5.60004Z" fill="white"/>
<path d="M18 4.40002H0V5.50002H18V4.40002Z" fill="#16007E"/>
<path d="M18 3.30005H0V4.40005H18V3.30005Z" fill="white"/>
<path d="M18 2.20001H0V3.30002H18V2.20001Z" fill="#16007E"/>
<path d="M18 1.10004H0V2.20004H18V1.10004Z" fill="white"/>
<path d="M18 3.05176e-05H0V1.10003H18V3.05176e-05Z" fill="#16007E"/>
<path d="M5.8324 3.05176e-05H0V5.60003H5.8324V3.05176e-05Z" fill="#16007E"/>
<path d="M5.8324 2.20001H0V3.30002H5.8324V2.20001Z" fill="white"/>
<path d="M3.51957 3.05176e-05H2.31287V5.60003H3.51957V3.05176e-05Z" fill="white"/>
</svg>
