<svg width="18" height="10" viewBox="0 0 18 10" fill="none" xmlns="http://www.w3.org/2000/svg">
<path d="M18 6.10352e-05H0V10.0001H18V6.10352e-05Z" fill="white"/>
<path d="M18 4.70004H0V5.50005H18V4.70004Z" fill="#FE2700"/>
<path d="M18 3.10007H0V3.90005H18V3.10007Z" fill="#FE2700"/>
<path d="M18 1.50006H0V2.30006H18V1.50006Z" fill="#FE2700"/>
<path d="M18 6.10352e-05H0V0.800064H18V6.10352e-05Z" fill="#FE2700"/>
<path d="M7.8 6.10352e-05H0V5.40005H7.8V6.10352e-05Z" fill="#0433FC"/>
<path d="M0.800012 0.700058L0.500012 0.500061L0.300012 0.700058L0.400012 0.400055L0.200012 0.200058H0.500012V6.10352e-05L0.600012 0.200058H0.900012L0.700012 0.400055L0.800012 0.700058Z" fill="white"/>
<path d="M2.10001 0.700058L1.90001 0.500061L1.70001 0.700058L1.80001 0.400055L1.60001 0.200058H1.80001L1.90001 6.10352e-05L2.00001 0.200058H2.20001L2.00001 0.400055L2.10001 0.700058Z" fill="white"/>
<path d="M3.50002 0.700058L3.30002 0.500061L3.00002 0.700058L3.10002 0.400055L2.90002 0.200058H3.20002L3.30002 6.10352e-05V0.200058H3.60002L3.40002 0.400055L3.50002 0.700058Z" fill="white"/>
<path d="M4.80002 0.700058L4.60002 0.500061L4.40002 0.700058L4.50002 0.400055L4.30002 0.200058H4.50002L4.60002 6.10352e-05L4.70002 0.200058H5.00002L4.70002 0.400055L4.80002 0.700058Z" fill="white"/>
<path d="M6.20001 0.700058L6.00001 0.500061L5.80001 0.700058V0.400055L5.60001 0.200058H5.90001L6.00001 6.10352e-05V0.200058H6.30001L6.10001 0.400055L6.20001 0.700058Z" fill="white"/>
<path d="M7.5 0.700058L7.3 0.500061L7.1 0.700058L7.2 0.400055L7 0.200058H7.2L7.3 6.10352e-05L7.4 0.200058H7.7L7.5 0.400055V0.700058Z" fill="white"/>
<path d="M1.39999 1.20006L1.19999 1.10007L0.999994 1.20006L1.09999 1.00006L0.899994 0.800064H1.09999L1.19999 0.600067L1.29999 0.800064H1.59999L1.39999 1.00006V1.20006Z" fill="white"/>
<path d="M2.79998 1.20006L2.59998 1.10007L2.39998 1.20006V1.00006L2.19998 0.800064H2.49998L2.59998 0.600067L2.69998 0.800064H2.89998L2.69998 1.00006L2.79998 1.20006Z" fill="white"/>
<path d="M4.10001 1.20006L3.90001 1.10007L3.70001 1.20006L3.80001 1.00006L3.60001 0.800064H3.90001V0.600067L4.00001 0.800064H4.30001L4.10001 1.00006V1.20006Z" fill="white"/>
<path d="M5.49999 1.20006L5.29999 1.10007L5.09999 1.20006L5.19999 1.00006L4.89999 0.800064H5.19999L5.29999 0.600067L5.39999 0.800064H5.59999L5.39999 1.00006L5.49999 1.20006Z" fill="white"/>
<path d="M6.89999 1.20006L6.59999 1.10007L6.39999 1.20006L6.49999 1.00006L6.29999 0.800064H6.59999V0.600067L6.69999 0.800064H6.99999L6.79999 1.00006L6.89999 1.20006Z" fill="white"/>
<path d="M1.39999 2.40004L1.19999 2.20004L0.999994 2.40004L1.09999 2.10005L0.899994 2.00005H1.09999L1.19999 1.70004L1.29999 2.00005H1.59999L1.39999 2.10005V2.40004Z" fill="white"/>
<path d="M2.79998 2.40004L2.59998 2.20004L2.39998 2.40004V2.10005L2.19998 2.00005H2.49998L2.59998 1.70004L2.69998 2.00005H2.89998L2.69998 2.10005L2.79998 2.40004Z" fill="white"/>
<path d="M4.10001 2.40004L3.90001 2.20004L3.70001 2.40004L3.80001 2.10005L3.60001 2.00005H3.90001V1.70004L4.00001 2.00005H4.30001L4.10001 2.10005V2.40004Z" fill="white"/>
<path d="M5.49999 2.40004L5.29999 2.20004L5.09999 2.40004L5.19999 2.10005L4.89999 2.00005H5.19999L5.29999 1.70004L5.39999 2.00005H5.59999L5.39999 2.10005L5.49999 2.40004Z" fill="white"/>
<path d="M6.89999 2.40004L6.59999 2.20004L6.39999 2.40004L6.49999 2.10005L6.29999 2.00005H6.59999V1.70004L6.69999 2.00005H6.99999L6.79999 2.10005L6.89999 2.40004Z" fill="white"/>
<path d="M1.39999 3.50006L1.19999 3.40005L0.999994 3.50006L1.09999 3.30006L0.899994 3.10007H1.09999L1.19999 2.90005L1.29999 3.10007H1.49999L1.29999 3.30006L1.39999 3.50006Z" fill="white"/>
<path d="M2.79998 3.50006L2.59998 3.40005L2.29998 3.50006L2.39998 3.30006L2.19998 3.10007H2.49998L2.59998 2.90005V3.10007H2.89998L2.69998 3.30006L2.79998 3.50006Z" fill="white"/>
<path d="M4.10001 3.50006L3.90001 3.40005L3.70001 3.50006L3.80001 3.30006L3.60001 3.10007H3.80001L3.90001 2.90005L4.00001 3.10007H4.30001L4.00001 3.30006L4.10001 3.50006Z" fill="white"/>
<path d="M5.49999 3.50006L5.29999 3.40005L5.09999 3.50006V3.30006L4.89999 3.10007H5.19999L5.29999 2.90005V3.10007H5.59999L5.39999 3.30006L5.49999 3.50006Z" fill="white"/>
<path d="M6.79999 3.50006L6.59999 3.40005L6.39999 3.50006L6.49999 3.30006L6.29999 3.10007H6.49999L6.59999 2.90005L6.69999 3.10007H6.99999L6.69999 3.30006L6.79999 3.50006Z" fill="white"/>
<path d="M1.39999 4.70006L1.19999 4.60007L0.999994 4.70006L1.09999 4.50006L0.899994 4.30006H1.09999L1.19999 4.10007L1.29999 4.30006H1.59999L1.39999 4.50006V4.70006Z" fill="white"/>
<path d="M2.79998 4.70006L2.59998 4.60007L2.39998 4.70006V4.50006L2.19998 4.30006H2.49998L2.59998 4.10007L2.69998 4.30006H2.89998L2.69998 4.50006L2.79998 4.70006Z" fill="white"/>
<path d="M4.10001 4.70006L3.90001 4.60007L3.70001 4.70006L3.80001 4.50006L3.60001 4.30006H3.90001V4.10007L4.00001 4.30006H4.30001L4.10001 4.50006V4.70006Z" fill="white"/>
<path d="M5.49999 4.70006L5.29999 4.60007L5.09999 4.70006L5.19999 4.50006L4.89999 4.30006H5.19999L5.29999 4.10007L5.39999 4.30006H5.59999L5.39999 4.50006L5.49999 4.70006Z" fill="white"/>
<path d="M6.89999 4.70006L6.59999 4.60007L6.39999 4.70006L6.49999 4.50006L6.29999 4.30006H6.59999V4.10007L6.69999 4.30006H6.99999L6.79999 4.50006L6.89999 4.70006Z" fill="white"/>
<path d="M0.800012 1.80005L0.500012 1.70004L0.300012 1.80005L0.400012 1.60005L0.200012 1.40004H0.500012V1.20004L0.600012 1.40004H0.900012L0.700012 1.60005L0.800012 1.80005Z" fill="white"/>
<path d="M2.10001 1.80005L1.90001 1.70004L1.70001 1.80005L1.80001 1.60005L1.60001 1.40004H1.80001L1.90001 1.20004L2.00001 1.40004H2.20001L2.00001 1.60005L2.10001 1.80005Z" fill="white"/>
<path d="M3.50002 1.80005L3.30002 1.70004L3.00002 1.80005L3.10002 1.60005L2.90002 1.40004H3.20002L3.30002 1.20004V1.40004H3.60002L3.40002 1.60005L3.50002 1.80005Z" fill="white"/>
<path d="M4.80002 1.80005L4.60002 1.70004L4.40002 1.80005L4.50002 1.60005L4.30002 1.40004H4.50002L4.60002 1.20004L4.70002 1.40004H5.00002L4.70002 1.60005L4.80002 1.80005Z" fill="white"/>
<path d="M6.20001 1.80005L6.00001 1.70004L5.80001 1.80005V1.60005L5.60001 1.40004H5.90001L6.00001 1.20004V1.40004H6.30001L6.10001 1.60005L6.20001 1.80005Z" fill="white"/>
<path d="M7.5 1.80005L7.3 1.70004L7.1 1.80005L7.2 1.60005L7 1.40004H7.2L7.3 1.20004L7.4 1.40004H7.7L7.5 1.60005V1.80005Z" fill="white"/>
<path d="M0.800012 3.00008L0.600012 2.80008L0.300012 3.00008L0.400012 2.70007L0.200012 2.60008H0.500012L0.600012 2.30008V2.60008H0.900012L0.700012 2.70007L0.800012 3.00008Z" fill="white"/>
<path d="M2.10001 3.00008L1.90001 2.80008L1.70001 3.00008L1.80001 2.70007L1.60001 2.60008H1.80001L1.90001 2.30008L2.00001 2.60008H2.30001L2.00001 2.70007L2.10001 3.00008Z" fill="white"/>
<path d="M3.50002 3.00008L3.30002 2.80008L3.10002 3.00008V2.70007L2.90002 2.60008H3.20002L3.30002 2.30008V2.60008H3.60002L3.40002 2.70007L3.50002 3.00008Z" fill="white"/>
<path d="M4.80002 3.00008L4.60002 2.80008L4.40002 3.00008L4.50002 2.70007L4.30002 2.60008H4.50002L4.60002 2.30008L4.70002 2.60008H5.00002L4.80002 2.70007V3.00008Z" fill="white"/>
<path d="M6.20001 3.00008L6.00001 2.80008L5.80001 3.00008V2.70007L5.60001 2.60008H5.90001L6.00001 2.30008L6.10001 2.60008H6.30001L6.10001 2.70007L6.20001 3.00008Z" fill="white"/>
<path d="M7.5 3.00008L7.3 2.80008L7.1 3.00008L7.2 2.70007L7 2.60008H7.3V2.30008L7.4 2.60008H7.7L7.5 2.70007V3.00008Z" fill="white"/>
<path d="M0.800012 4.10007L0.500012 4.00006L0.300012 4.10007L0.400012 3.90005L0.200012 3.70006H0.500012V3.50006L0.600012 3.70006H0.900012L0.700012 3.90005L0.800012 4.10007Z" fill="white"/>
<path d="M2.10001 4.10007L1.90001 4.00006L1.70001 4.10007L1.80001 3.90005L1.60001 3.70006H1.80001L1.90001 3.50006L2.00001 3.70006H2.20001L2.00001 3.90005L2.10001 4.10007Z" fill="white"/>
<path d="M3.50002 4.10007L3.30002 4.00006L3.00002 4.10007L3.10002 3.90005L2.90002 3.70006H3.20002L3.30002 3.50006V3.70006H3.60002L3.40002 3.90005L3.50002 4.10007Z" fill="white"/>
<path d="M4.80002 4.10007L4.60002 4.00006L4.40002 4.10007L4.50002 3.90005L4.30002 3.70006H4.50002L4.60002 3.50006L4.70002 3.70006H5.00002L4.70002 3.90005L4.80002 4.10007Z" fill="white"/>
<path d="M6.20001 4.10007L6.00001 4.00006L5.80001 4.10007V3.90005L5.60001 3.70006H5.90001L6.00001 3.50006V3.70006H6.30001L6.10001 3.90005L6.20001 4.10007Z" fill="white"/>
<path d="M7.5 4.10007L7.3 4.00006L7.1 4.10007L7.2 3.90005L7 3.70006H7.2L7.3 3.50006L7.4 3.70006H7.7L7.5 3.90005V4.10007Z" fill="white"/>
<path d="M0.800012 5.30005L0.500012 5.20004L0.300012 5.30005L0.400012 5.10005L0.200012 4.90004H0.500012V4.70004L0.600012 4.90004H0.900012L0.700012 5.10005L0.800012 5.30005Z" fill="white"/>
<path d="M2.10001 5.30005L1.90001 5.20004L1.70001 5.30005L1.80001 5.10005L1.60001 4.90004H1.80001L1.90001 4.70004L2.00001 4.90004H2.20001L2.00001 5.10005L2.10001 5.30005Z" fill="white"/>
<path d="M3.50002 5.30005L3.30002 5.20004L3.00002 5.30005L3.10002 5.10005L2.90002 4.90004H3.20002L3.30002 4.70004V4.90004H3.60002L3.40002 5.10005L3.50002 5.30005Z" fill="white"/>
<path d="M4.80002 5.30005L4.60002 5.20004L4.40002 5.30005L4.50002 5.10005L4.30002 4.90004H4.50002L4.60002 4.70004L4.70002 4.90004H5.00002L4.70002 5.10005L4.80002 5.30005Z" fill="white"/>
<path d="M6.20001 5.30005L6.00001 5.20004L5.80001 5.30005V5.10005L5.60001 4.90004H5.90001L6.00001 4.70004V4.90004H6.30001L6.10001 5.10005L6.20001 5.30005Z" fill="white"/>
<path d="M7.5 5.30005L7.3 5.20004L7.1 5.30005L7.2 5.10005L7 4.90004H7.2L7.3 4.70004L7.4 4.90004H7.7L7.5 5.10005V5.30005Z" fill="white"/>
<path d="M18 6.20007H0V7.00006H18V6.20007Z" fill="#FE2700"/>
<path d="M18 7.70007H0V8.50006H18V7.70007Z" fill="#FE2700"/>
<path d="M18 9.20007H0V10.0001H18V9.20007Z" fill="#FE2700"/>
</svg>
