<svg width="18" height="10" viewBox="0 0 18 10" fill="none" xmlns="http://www.w3.org/2000/svg">
<path d="M17.9 0H0V10H17.9V0Z" fill="#F2F2F2"/>
<path d="M9.19998 5.99998C9.69998 5.69998 9.89998 5.19998 9.79998 4.69998C9.79998 4.49998 9.69998 4.39999 9.49998 4.29999C9.79998 4.79999 9.59998 5.49999 9.09998 5.79999C9.09998 5.69999 9.09998 5.69999 9.09998 5.59999V4.29999C9.09998 4.19999 9.09998 3.99998 8.99998 3.99998C9.29998 3.99998 9.29998 3.89999 9.29998 3.79999C9.19998 3.99999 9.09998 3.99998 8.99998 3.89998M8.89998 3.89998C8.79998 3.99998 8.69998 3.89999 8.59998 3.79999C8.59998 3.89999 8.59998 3.99998 8.69998 3.99998H8.99998C8.79998 4.09998 8.89998 4.19999 8.89998 4.29999V5.79999C8.69998 5.69999 8.59998 5.59998 8.49998 5.39998C8.29998 4.99998 8.29998 4.59999 8.39998 4.29999C8.19998 4.49999 8.09998 4.69998 8.09998 4.89998C8.09998 5.39998 8.29998 5.79998 8.69998 5.99998C8.59998 5.99998 8.39998 6.09999 8.29998 6.09999C8.39998 6.09999 8.59998 6.09999 8.69998 6.09999C8.79998 6.09999 8.79998 6.09998 8.79998 6.19998C8.79998 6.29998 8.89998 6.29998 8.89998 6.19998C8.89998 6.09998 8.99998 6.09999 8.99998 6.09999C9.09998 6.09999 9.29998 6.09999 9.39998 6.09999C9.29998 6.09999 9.19998 6.09998 9.09998 5.99998L8.89998 3.89998ZM9.79998 5.79999C10.2 5.59999 10.3 5.19999 10.2 4.79999C10.1 4.39999 9.89998 4.19999 9.49998 4.09999C10.1 4.49999 10.1 5.19999 9.79998 5.79999ZM8.09998 5.79999C7.69998 5.29999 7.79998 4.49999 8.29998 4.09999C7.99998 4.19999 7.69998 4.49999 7.69998 4.79999C7.69998 5.19999 7.79998 5.59999 8.09998 5.79999Z" fill="#FDFDFD"/>
<path d="M17.8 10H0.2C0 10 0 9.99999 0 9.89999V6.7H0.2L0.3 6.8H0.8C0.9 6.8 0.9 6.8 0.9 6.7C0.9 6.6 0.9 6.7 1 6.7C1.2 6.9 1.4 6.7 1.6 6.8C1.8 6.9 1.7 6.9 1.8 6.7C1.9 6.5 1.8 6.7 1.9 6.7C1.9 6.7 2 6.8 2.1 6.8H2.5C2.5 6.8 2.6 6.8 2.6 6.7C2.6 6.7 2.8 6.8 2.9 6.8H3.2C3.3 6.8 3.3 6.8 3.3 6.7C3.4 6.8 3.5 6.8 3.7 6.8C3.8 6.8 3.9 6.8 4 6.8C4.1 6.8 4.2 6.8 4.3 6.8C4.5 6.8 4.6 6.8 4.8 6.8C4.9 6.8 5 6.8 5.1 6.8C5.3 6.8 5.4 6.8 5.6 6.8C5.7 6.8 5.8 6.8 5.9 6.8H6.4C6.4 6.8 6.5 6.8 6.5 6.7C6.5 6.6 6.6 6.7 6.6 6.7L6.8 6.8H7.2C7.2 6.8 7.3 6.8 7.3 6.7C7.4 6.8 7.5 6.8 7.6 6.8C7.7 6.8 7.8 6.8 7.9 6.8C8 6.8 8.1 6.8 8.2 6.8C8.4 6.8 8.5 6.8 8.7 6.8C8.8 6.8 8.9 6.8 9 6.8C9.2 6.8 9.3 6.8 9.5 6.8C9.6 6.8 9.7 6.8 9.8 6.8H10.3C10.3 6.8 10.4 6.8 10.4 6.7C10.5 6.7 10.6 6.8 10.7 6.8H11C11 6.8 11.1 6.8 11.1 6.7M11.2 6.7C11.3 6.8 11.4 6.8 11.5 6.8H11.8C11.9 6.8 11.9 6.8 11.9 6.7H12C12.1 6.8 12.2 6.8 12.4 6.8C12.5 6.8 12.6 6.8 12.7 6.8C12.8 6.8 12.9 6.8 13 6.8C13.2 6.8 13.3 6.8 13.5 6.8C13.6 6.8 13.7 6.8 13.8 6.8C14 6.8 14.1 6.8 14.3 6.8C14.4 6.8 14.5 6.8 14.6 6.8H15C15 6.8 15.1 6.8 15.1 6.7M15.1 6.7C15.2 6.8 15.3 6.8 15.4 6.8H15.7H15.8L16.2 6.89999C16.3 6.89999 16.4 6.89999 16.5 6.89999C16.6 6.89999 16.7 6.89999 16.8 6.89999C17 6.89999 17.1 6.89999 17.3 6.89999C17.4 6.89999 17.5 6.8 17.6 6.8L15.1 6.7ZM17.6 7V6.89999V6.8C17.6 6.8 17.6 6.79999 17.6 6.89999V7V6.8ZM17.5 6.8C17.5 6.9 17.5 6.89999 17.4 6.89999H17.3C17.3 6.89999 17.2 6.9 17.2 7C17.2 7.1 17.2 7.1 17.2 7.2C17.3 7.2 17.3 7.2 17.4 7.2V7.10001H17.3C17.4 7.10001 17.5 7.1 17.5 7.2H17.8C17.6 7.1 17.5 7 17.5 7V6.8ZM15.8 7.10001C16 7.10001 16 7.09999 16 6.89999V6.7C16 6.7 16 6.7 15.9 6.7V6.8V6.60001C15.9 6.80001 15.8 6.7 15.7 6.7C15.6 6.7 15.6 6.7 15.6 6.8C15.6 6.9 15.6 7.10001 15.8 7.10001C15.7 7.10001 15.7 7.1 15.7 7C15.7 6.9 15.7 7 15.8 7H16C16 7 15.7 7.10001 15.8 7.10001ZM14.4 7V6.89999V6.8C14.4 6.8 14.3 6.89999 14.2 6.89999C14.1 6.89999 14 6.90001 14 7.10001C14 7.30001 14.1 7.2 14.1 7.2C14.1 7.2 14.3 7.1 14.3 7.3H14.6C14.5 7.2 14.4 7.1 14.4 7ZM12.9 7V6.89999C12.9 6.89999 12.9 6.8 12.8 6.8C12.7 6.8 12.8 6.79999 12.8 6.89999C12.8 6.99999 12.8 7 12.7 7H12.6C12.6 7 12.5 7.00001 12.5 7.10001C12.5 7.20001 12.5 7.2 12.5 7.3C12.6 7.3 12.6 7.3 12.7 7.3V7.2C12.8 7.2 12.9 7.2 12.9 7.3C13 7.3 13.1 7.3 13.2 7.3C12.9 7.2 12.9 7.1 12.9 7ZM11.3 7V6.89999C11.3 6.89999 11.2 7 11.1 7C11 7 10.9 7 10.9 7.2C10.9 7.4 11 7.3 11 7.3C11 7.3 11.2 7.19999 11.2 7.39999H11.5C11.4 7.19999 11.3 7.1 11.3 7ZM9.7 7V6.8ZM9.7 6.8C9.7 6.9 9.7 6.89999 9.6 6.89999H9.1C9 6.99999 9 7 9 7C9 7.1 9 7.1 9 7.2C9.1 7.2 9.1 7.2 9.2 7.2V7.10001H9.1C9.2 7.10001 9.3 7.1 9.3 7.2H9.6C9.7 7.2 9.6 7.1 9.6 7L9.7 6.8ZM8.1 7V6.89999C8.1 6.89999 8.1 6.8 8 6.8C7.9 6.8 8 6.79999 8 6.89999C8 6.99999 8 7 7.9 7H7.5C7.5 7 7.4 7.00001 7.4 7.10001V7.3C7.5 7.3 7.5 7.3 7.6 7.3M7.6 7.10001C7.6 7.10001 7.7 7.1 7.7 7.2C7.8 7.2 7.9 7.2 8 7.2C8.1 7.2 8 7.1 8.1 7L7.6 7.10001ZM6.5 7C6.5 6.9 6.4 7.10001 6.3 7.10001C6.2 7.10001 6.2 7.1 6.2 7.3C6.2 7.5 6.3 7.39999 6.3 7.39999C6.3 7.39999 6.5 7.3 6.5 7.5H6.8C6.5 7.2 6.5 7.1 6.5 7ZM4.7 7.2C4.9 7.2 4.9 7.20001 4.9 7.10001C4.9 7.00001 4.9 6.9 4.9 6.8V6.89999C4.9 6.79999 4.9 6.8 4.9 6.7H5C5 6.9 4.9 6.8 4.8 6.8C4.7 6.8 4.7 6.79999 4.7 6.89999C4.7 6.99999 4.8 7 4.9 7C4.8 7.2 4.8 7.2 4.7 7.2C4.8 7 4.8 7.10001 4.9 7.10001H5L4.7 7.2ZM3.4 7V6.8C3.4 6.8 3.3 6.89999 3.2 6.89999C3.1 6.89999 3 6.90001 3.1 7.10001C3.2 7.30001 3.1 7.2 3.2 7.2C3.2 7.2 3.4 7.1 3.4 7.3H3.8C3.4 7.2 3.3 7.1 3.4 7ZM1.8 7V6.89999V6.8C1.8 6.8 1.8 6.79999 1.8 6.89999C1.8 7.09999 1.7 7 1.6 7C1.5 7 1.5 7.10001 1.5 7.10001C1.5 7.10001 1.5 7.1 1.5 7.2C1.5 7.3 1.6 7.2 1.7 7.2C1.7 7.2 1.9 7.1 1.9 7.3H2C1.8 7.2 1.8 7.1 1.8 7ZM2.4 7.2C2.6 7.2 2.6 7.2 2.6 7C2.6 6.8 2.5 6.99999 2.4 6.89999C2.3 6.79999 2.3 6.89999 2.3 6.89999H2.4C2.4 6.89999 2.2 6.9 2.2 6.8C2.2 6.7 2.2 6.8 2.1 6.8H2C1.9 6.8 1.9 6.79999 1.9 6.89999C1.9 6.99999 1.9 7 1.9 7C1.9 7 1.9 6.9 2 7C2 7 2.1 7 2.2 7C2.2 7 2.3 7.2 2.4 7.2ZM4 7.2C4.2 7.2 4.2 7.2 4.2 7C4.2 6.8 4 7 4 7C4 7.1 4.1 7 4 7.2C3.9 7.2 3.9 7.10001 3.8 7.10001C3.7 7.10001 3.7 7.1 3.7 7C3.7 6.9 3.7 6.89999 3.6 6.89999C3.5 6.89999 3.4 6.90001 3.5 7.10001C3.6 7.30001 3.5 7.2 3.5 7.2C3.5 7.2 3.5 7.20001 3.5 7.10001C3.5 7.00001 3.5 7 3.6 7H3.8C3.7 7 3.9 7.2 4 7.2ZM5.5 7.2C5.7 7.2 5.7 7.20001 5.7 7.10001C5.7 7.00001 5.6 7 5.6 7H5.5C5.5 7 5.6 7 5.5 7.2C5.7 7.1 5.6 7.2 5.5 7.2C5.3 7.2 5.3 7.20001 5.3 7.10001C5.3 7.00001 5.3 7 5.2 7C5.1 7 5 7 5.1 7.2C5.2 7.4 5.1 7.3 5.1 7.3V7.2C5.1 7.1 5.1 7.10001 5.2 7.10001H5.4C5.2 7.00001 5.4 7.2 5.5 7.2ZM7.1 7.2C7.3 7.2 7.3 7.20001 7.3 7.10001C7.3 7.00001 7.2 7 7.2 7H7.1V7.2C7.3 7.1 7.2 7.2 7.1 7.2C6.9 7.2 7 7.20001 7 7.10001H6.7C6.6 7.10001 6.5 7.1 6.6 7.3C6.7 7.5 6.6 7.39999 6.6 7.39999V7.3C6.6 7.2 6.6 7.2 6.7 7.2H6.9C6.9 7.2 7 7.2 7.1 7.2ZM8.4 7C8.3 7 8.2 6.90001 8.2 7.10001C8.2 7.20001 8.2 7.1 8.4 7C8.3 7.1 8.4 7.1 8.4 7.2C8.4 7.3 8.4 7.3 8.5 7.3H8.7C8.7 7.3 8.8 7.3 8.8 7.2C8.8 7.1 8.8 7.1 8.7 7H8.4ZM10.3 7.3C10.5 7.3 10.5 7.30001 10.5 7.10001C10.5 6.90001 10.4 7 10.4 7C10.4 7 10.5 7.00001 10.4 7.10001C10.3 7.20001 10.3 7.10001 10.2 7.10001C10.1 7.10001 10.2 7.1 10.2 7C10.2 6.9 10.2 6.89999 10.1 6.89999H9.9C9.8 6.89999 9.8 6.9 9.8 7C9.8 7.1 9.8 7.10001 9.8 7.10001C9.8 7.10001 9.8 7 9.9 7C9.9 7 9.9 6.89999 10 6.89999H10.2C10.1 6.99999 10.2 7.2 10.3 7.3ZM11.5 7C11.3 7 11.3 7 11.3 7.2C11.3 7.4 11.3 7.3 11.3 7.3C11.3 7.2 11.3 7.2 11.4 7.2C11.5 7.2 11.5 7.2 11.5 7.3C11.5 7.4 11.5 7.39999 11.6 7.39999H11.8C11.9 7.39999 11.9 7.4 11.9 7.3C11.9 7.2 11.9 7.10001 11.9 7.10001L11.5 7ZM13.4 7.3C13.6 7.3 13.6 7.30001 13.6 7.10001C13.6 6.90001 13.5 7.10001 13.4 7.10001C13.3 7.10001 13.2 7.1 13.2 7C13.2 7 13.2 6.89999 13.1 6.89999H13C12.9 6.89999 12.9 6.9 12.9 7C12.9 7.1 12.9 7.10001 12.9 7.10001V7C12.9 6.9 12.9 6.89999 13 6.89999H13.2C13.1 6.89999 13.3 7.2 13.4 7.3ZM14.7 7C14.5 7 14.5 7 14.5 7.2C14.5 7.4 14.5 7.3 14.5 7.3V7.2C14.5 7.1 14.5 7.1 14.7 7C14.7 7.1 14.8 7.1 14.7 7.2C14.6 7.3 14.7 7.3 14.8 7.3H15C15.1 7.3 15.1 7.3 15.1 7.2C15.1 7.1 15.1 7.10001 15 7.10001L14.7 7ZM16.3 7C16.1 7 16.1 7 16.1 7.2C16.1 7.1 16.1 7.10001 16.2 7.10001C16.3 7.10001 16.3 7.1 16.3 7.2C16.3 7.3 16.3 7.3 16.4 7.3H16.7C16.7 7.3 16.7 7.10001 16.6 7.10001L16.3 7ZM0.5 7C0.3 7 0.3 7 0.3 7.2C0.3 7.4 0.3 7.3 0.3 7.3V7.2C0.3 7.1 0.3 7.1 0.5 7C0.5 7.1 0.5 7.1 0.5 7.2C0.5 7.3 0.5 7.3 0.6 7.3H0.8C0.9 7.3 1 7.20001 0.9 7.10001C0.8 7.00001 0.8 7.10001 0.7 7.10001H0.8C0.8 7.10001 0.9 7.1 0.8 7.2C0.7 7.3 0.6 7.2 0.6 7.2C0.7 6.9 0.5 6.9 0.5 7Z" fill="#BD1B0F"/>
<path d="M17.8 3.3C17.7 3.3 17.6 3.3 17.5 3.2C17.4 3.1 17.5 3.2 17.4 3.2H16.8L16.5 3.10001C16.4 3.10001 16.3 3.10001 16.2 3.10001H16.1C16.1 3.10001 16 3.20001 16 3.10001C16 3.00001 15.9 3.10001 15.9 3.10001C15.7 3.10001 15.6 3.10001 15.4 3.10001H15.3C15.1 2.90001 14.9 3.1 14.8 3C14.7 2.9 14.6 2.90001 14.6 3.10001C14.5 3.00001 14.3 3.1 14.2 3C14.1 3 14.1 3 14 3C13.9 3 13.8 3 13.7 3C13.5 3 13.4 3 13.2 3H13M12.9 3.10001C12.9 3.00001 12.8 3 12.7 3H12.3C12.2 3 12.1 3 12 3C11.8 3 11.7 3 11.5 3C11.4 3 11.3 3 11.2 3C11 3 10.9 3 10.7 3C10.6 3 10.5 3 10.4 3H9.9C9.9 3 9.8 3.00001 9.8 3.10001M9.8 3.10001C9.7 3.00001 9.6 3.1 9.5 3H9C8.9 2.8 8.7 2.99999 8.5 2.89999C8.3 2.79999 8.3 2.8 8.3 3C8.1 2.9 8 3 7.9 3C7.8 3 7.7 3 7.6 3H7.5C7.5 3 7.4 3.1 7.4 3C7.4 2.9 7.3 3 7.3 3C7.1 3 7 3 6.8 3C6.7 3 6.6 3 6.5 3H6.1H6C6 3 5.9 2.89999 5.8 2.89999H5.3C5.2 2.99999 5.1 3 5 3C4.8 3 4.7 3 4.5 3H4.4L4.1 2.89999C4 2.89999 3.9 2.89999 3.8 2.89999C3.7 2.89999 3.6 2.89999 3.5 2.89999H3C2.8 2.89999 2.9 3 2.8 3C2.7 3 2.7 2.89999 2.6 2.89999H2.2C2.1 2.89999 2 2.89999 1.9 2.89999C1.7 2.89999 1.6 2.89999 1.4 2.89999H1.2C1.2 2.89999 1.1 2.9 1 2.8H0.6C0.5 2.8 0.5 2.79999 0.4 2.89999C0.4 2.99999 0 2.89999 0 2.89999V2.8V0H17.7C17.8 0 17.8 6.10203e-06 17.8 0.100006L9.8 3.10001ZM3.4 3V2.8C3.4 2.8 3.3 2.89999 3.2 2.89999C3.1 2.89999 3.1 2.9 3.1 3C3.1 3.1 3.2 3.10001 3.2 3.10001C3.3 3.10001 3.4 3.1 3.4 3.2C3.5 3.2 3.6 3.2 3.7 3.2C3.4 3.1 3.3 3 3.4 3ZM5 3V2.8C5 2.9 5 2.9 5 3L4.3 2.89999C4.3 2.89999 4.2 2.9 4.2 3C4.2 3.1 4.2 3.1 4.2 3.2C4.3 3.2 4.3 3.2 4.4 3.2V3.10001H4.3C4.4 3.10001 4.5 3.1 4.5 3.2V3.3C4.6 3.3 4.7 3.3 4.9 3.3C4.9 3.1 5 3.1 5 3ZM6.4 3.2C6.4 3.2 6.6 3.30001 6.6 3.10001C6.6 3.00001 6.6 2.9 6.6 2.8C6.6 3 6.5 2.89999 6.4 2.89999C6.3 2.89999 6.3 2.9 6.3 3C6.3 3.1 6.3 3.2 6.4 3.2C6.3 3.1 6.3 3.1 6.4 3.2C6.4 3.1 6.5 3.10001 6.5 3.10001C6.5 3.10001 6.3 3.1 6.4 3.2ZM8.1 3V2.8C8.1 2.8 8 2.89999 7.9 2.89999C7.8 2.89999 7.8 3 7.8 3C7.8 3 7.8 3.00001 7.8 3.10001C7.8 3.20001 7.9 3.10001 8 3.10001C8.1 3.10001 8.2 3.1 8.2 3.2V3.3C8.3 3.3 8.4 3.3 8.5 3.3C8.1 3.1 8.1 3 8.1 3ZM9.7 3V2.8C9.7 3 9.6 2.89999 9.5 2.89999C9.4 2.89999 9.4 3 9.4 3V3.10001H9.6L9.7 3C9.6 3 9.5 3.1 9.5 3C9.5 2.9 9.6 3 9.7 3V3.2H10C9.7 3.1 9.7 3 9.7 3ZM11.1 3.2C11.2 3.2 11.3 3.30001 11.3 3.10001C11.3 3.00001 11.3 2.9 11.3 2.8C11.3 3 11.2 2.89999 11.1 2.89999C11 2.89999 11 2.9 11 3C11 3.1 11 3.2 11.1 3.2C11.2 3.2 11.2 3.2 11.2 3.2H11.1C11.1 3.1 11 3.1 11.1 3.2C11.1 3.1 11.3 3.10001 11.3 3.10001C11.3 3.10001 11 3.2 11.1 3.2ZM12.9 3L12.8 2.8C12.8 2.8 12.8 2.8 12.8 2.7C12.8 2.7 12.7 2.8 12.6 2.8C12.5 2.8 12.5 2.79999 12.5 2.89999C12.5 2.99999 12.6 3 12.6 3C12.7 3 12.8 3.00001 12.8 3.10001C12.9 3.10001 13 3.10001 13.1 3.10001C12.9 3.10001 12.9 3 12.9 3ZM14.2 3.2C14.2 3.2 14.4 3.20001 14.4 3.10001C14.4 3.00001 14.4 2.9 14.4 2.8C14.4 3 14.3 2.89999 14.2 2.89999C14.1 2.89999 14.1 2.9 14.1 3C14.1 3.2 14.2 3.2 14.2 3.2C14.3 3.2 14.3 3.2 14.3 3.2H14.2C14.3 3.2 14.2 3.1 14.2 3.2H14.4C14.4 3.2 14.1 3.2 14.2 3.2ZM16 3L15.9 2.8C15.9 2.8 15.8 2.89999 15.7 2.89999C15.6 2.89999 15.6 2.9 15.6 3C15.6 3.1 15.7 3.10001 15.7 3.10001C15.8 3.10001 15.9 3.1 15.9 3.2C16 3.2 16.1 3.2 16.2 3.2C16 3.1 16 3 16 3ZM17.6 3V2.8C17.6 2.8 17.6 2.9 17.6 3V2.8C17.6 3 17.5 2.89999 17.4 2.89999C17.3 2.89999 17.3 3 17.3 3V3.10001C17.3 3.10001 17.4 3.10001 17.5 3.10001H17.4C17.5 3.10001 17.6 3.1 17.6 3.2H18C17.7 3 17.6 2.89999 17.7 2.89999L17.6 3ZM1.8 3V2.89999V2.8C1.8 2.8 1.8 2.79999 1.8 2.89999V3L1.7 2.89999V2.8C1.7 3 1.6 2.89999 1.5 2.89999C1.4 2.89999 1.2 3 1.1 3C1.1 3 1.2 3.20001 1.3 3.10001C1.3 3.10001 1.4 3.1 1.4 3.2C1.5 3.2 1.6 3.2 1.7 3.2C1.9 3.2 1.8 3.1 1.8 3ZM10 3C9.8 3 9.8 3.10001 9.8 3.10001C9.8 3.10001 9.8 3.1 9.8 3.2C9.8 3.1 9.8 3.1 10 3C10 3.1 10 3.1 10 3.2C10 3.3 10 3.3 10.1 3.3H10.3C10.4 3.3 10.4 3.3 10.4 3.2C10.4 3.3 10.2 3.2 10.2 3.2L10 3ZM11.6 3C11.4 3 11.4 3 11.4 3.2C11.4 3.1 11.4 3.1 11.6 3C11.6 3.1 11.6 3.1 11.6 3.2C11.6 3.3 11.6 3.3 11.7 3.3H11.9C12 3.3 12 3.30001 12 3.10001C12 2.90001 12 3 12 3C12 3 12.1 3.00001 12 3.10001C11.9 3.20001 11.8 3.10001 11.8 3.10001L11.6 3ZM13.1 3C12.9 3 12.9 3.10001 12.9 3.10001V3.2C12.9 3.1 13 3.1 13.1 3C13.1 3.1 13.1 3.1 13.1 3.2C13.1 3.3 13.1 3.3 13.2 3.3H13.4C13.5 3.3 13.5 3.3 13.5 3.2C13.5 3.1 13.5 3.10001 13.4 3.10001C13.4 3.10001 13.5 3.1 13.5 3.2C13.5 3.3 13.3 3.2 13.3 3.2L13.1 3ZM14.7 3C14.5 3 14.5 3 14.5 3.2C14.5 3.4 14.5 3.3 14.5 3.3V3.2C14.5 3.1 14.5 3.1 14.7 3C14.7 3.1 14.8 3.1 14.7 3.2C14.6 3.3 14.7 3.3 14.8 3.3H15.1C15.1 3.2 15.1 3.20001 15.1 3.10001C15.1 3.00001 15 3.10001 14.9 3.10001L14.7 3ZM16.6 3.2C16.8 3.2 16.8 3.20001 16.8 3.10001C16.8 3.00001 16.8 2.99999 16.7 2.89999H16.6C16.6 2.89999 16.5 2.9 16.5 2.8C16.5 2.7 16.5 2.7 16.4 2.7H16.2C16.1 2.7 16 2.69999 16.1 2.89999C16.2 3.09999 16.1 3 16.1 3C16.1 2.9 16.1 2.89999 16.2 2.89999H16.4C16.3 2.89999 16.5 3.2 16.6 3.2ZM8.4 3C8.2 3 8.2 3 8.2 3.2C8.2 3.4 8.2 3.2 8.2 3.3V3.2C8.2 3.1 8.2 3.1 8.4 3C8.3 3.1 8.3 3.1 8.4 3C8.4 3.1 8.4 3.1 8.4 3.2C8.4 3.3 8.4 3.3 8.5 3.3H8.7C8.8 3.3 8.9 3.20001 8.8 3.10001C8.7 3.00001 8.7 3.10001 8.6 3.10001L8.4 3C8.5 3.1 8.5 3 8.4 3ZM6.8 3C6.6 3 6.6 3 6.6 3.2C6.6 3.4 6.6 3.3 6.6 3.3C6.6 3.3 6.6 3.3 6.6 3.2C6.6 3.1 6.6 3.1 6.8 3C6.8 3.1 6.9 3.1 6.8 3.2C6.7 3.3 6.8 3.3 6.9 3.3H7.1C7.2 3.3 7.2 3.3 7.2 3.2C7.2 3.1 7.2 3.10001 7.1 3.10001H7C7 3.10001 7 3.2 7.1 3.2C7.2 3.2 7.2 3.2 7.2 3.3C7.2 3.4 7 3.3 7 3.3C7 3.3 6.9 3 6.8 3ZM5.5 3.2C5.6 3.2 5.7 3.30001 5.7 3.10001C5.7 2.90001 5.7 2.89999 5.5 2.89999C5.3 2.89999 5.5 2.89999 5.4 2.89999C5.3 2.89999 5.4 3 5.4 3C5.4 3 5.3 2.99999 5.3 2.89999C5.3 2.79999 5.3 2.8 5.2 2.8H5.1C5 2.8 5 2.79999 5 2.89999C5 2.99999 5 3 5 3C5 2.9 5 2.89999 5 2.89999H5.2C5.2 2.89999 5.4 3.10001 5.5 3.10001V3.2ZM3.6 3C3.4 3 3.4 3 3.4 3.2C3.4 3.4 3.4 3.3 3.4 3.3M3.4 3.2C3.4 3.1 3.4 3.1 3.4 3.2C3.6 3.1 3.6 3.1 3.6 3.2C3.6 3.3 3.6 3.3 3.7 3.3H4C4.1 3.3 4.2 3.20001 4.1 3.10001C4.1 3.00001 4.1 3 4 3C4 3 4.1 3.00001 4 3.10001C3.9 3.20001 3.8 3.10001 3.8 3.10001C3.8 3.10001 3.7 3.1 3.7 3L3.4 3.2ZM2 3C1.9 3 1.9 3.10001 1.9 3.10001C1.9 3.10001 1.9 3.1 1.9 3.2L2 3C2 3 2.1 3.00001 2.1 3.10001C2.1 3.20001 2.1 3.10001 2.2 3.10001H2.4C2.5 3.10001 2.5 3.1 2.5 3C2.5 2.9 2.5 2.89999 2.4 2.89999H2.2C2.2 2.89999 2.1 3 2 3ZM0.5 3C0.4 3 0.3 3.00001 0.3 3.10001V3.3C0.3 3.4 0.4 3.3 0.4 3.3C0.4 3.3 0.4 3.2 0.5 3.2C0.6 3.2 0.6 3.2 0.6 3.3C0.6 3.4 0.6 3.39999 0.7 3.39999H0.9C1 3.39999 1.1 3.4 1 3.2C0.9 3 0.9 3 0.9 3C0.9 3 1 3.00001 0.9 3.10001C0.8 3.20001 0.7 3.10001 0.7 3.10001C0.6 3.00001 0.5 3 0.5 3Z" fill="#4C7C38"/>
<path d="M9.19998 5.99998C9.29998 6.09998 9.49998 6.09999 9.59998 6.09999C9.39998 6.09999 9.29998 6.09998 9.19998 5.99998C9.09998 6.09998 9.09998 6.09998 8.99998 6.19998C8.89998 6.29998 8.89998 6.29998 8.89998 6.19998C8.89998 6.09998 8.79998 6.09999 8.79998 6.09999C8.69998 6.09999 8.49998 6.09999 8.39998 6.09999C8.49998 6.09999 8.69998 5.99998 8.79998 5.99998C8.39998 5.79998 8.19998 5.29998 8.19998 4.89998C8.19998 4.69998 8.29998 4.39999 8.49998 4.29999C8.39998 4.69999 8.39998 5.09998 8.59998 5.39998C8.69998 5.59998 8.79998 5.69999 8.99998 5.79999V4.29999C8.99998 4.19999 8.99998 4.09998 9.09998 3.99998H8.69998C8.59998 3.99998 8.59998 3.89999 8.59998 3.79999C8.69998 3.89999 8.79998 3.99998 8.89998 3.89998M8.99998 3.89998C9.09998 3.99998 9.19998 3.89999 9.29998 3.79999C9.29998 3.99999 9.29998 3.99998 8.99998 3.89998C9.19998 4.09998 9.19998 4.19999 9.19998 4.29999V5.59999C9.19998 5.69999 9.19998 5.69999 9.19998 5.79999C9.69998 5.49999 9.89998 4.79999 9.59998 4.29999C9.69998 4.39999 9.79998 4.59998 9.89998 4.69998C9.99998 5.19998 9.79998 5.69998 9.29998 5.99998L8.99998 3.89998Z" fill="#BE2015"/>
<path d="M9.80001 5.8C10.2 5.3 10.1 4.50001 9.60001 4.10001C9.90001 4.20001 10.2 4.5 10.3 4.8C10.3 5.2 10.1 5.6 9.80001 5.8Z" fill="#BE2015"/>
<path d="M8.09999 5.8C7.79999 5.6 7.59999 5.2 7.69999 4.8C7.79999 4.5 7.99999 4.20001 8.29999 4.10001C7.79999 4.50001 7.69999 5.3 8.09999 5.8Z" fill="#BE2015"/>
<path d="M17.6 7.00002V7.20001H17.3C17.3 7.20001 17.2 7.10002 17.1 7.10002H17.2V7.20001C17.1 7.20001 17.1 7.20001 17 7.20001C16.9 7.20001 17 7.10002 17 7.00002C17 6.90002 17 6.90001 17.1 6.90001H17.2C17.3 6.90001 17.3 6.90002 17.3 6.80002C17.3 6.70002 17.3 6.70002 17.3 6.80002V7.00002C17.3 6.90002 17.3 6.90002 17.3 6.80002V6.70001C17.3 6.70001 17.3 6.70002 17.3 6.80002L17.6 7.00002Z" fill="#F5E3E3"/>
<path d="M15.9 7.19998C15.8 7.19998 15.7 7.19999 15.7 7.09999C15.7 6.99999 15.6 7.09999 15.6 7.09999H15.5L15.6 7.19998C15.5 7.19998 15.5 7.19999 15.5 7.09999M15.4 6.99998C15.4 6.89998 15.4 6.89998 15.5 6.89998C15.6 6.89998 15.7 6.99999 15.7 6.79999V7.09999C16 7.29999 16.1 7.29999 15.9 7.29999L15.4 6.99998Z" fill="#F5E3E3"/>
<path d="M14.4 7.00002V7.20001H14.1C14.1 7.00001 14 7.10002 13.9 7.10002C13.9 7.10002 13.8 7.10002 13.8 7.00002C13.8 6.90002 13.8 6.80002 13.9 6.80002C14 6.80002 14.1 6.80001 14.1 6.70001C14.1 6.70001 14.1 6.70002 14.1 6.80002V7.00002C14.1 6.90002 14.1 6.90002 14.1 6.80002L14.4 7.00002Z" fill="#F5E3E3"/>
<path d="M12.9 7.00002V7.20001H12.6C12.6 7.20001 12.5 7.10002 12.4 7.10002H12.5V7.20001C12.4 7.20001 12.4 7.20001 12.3 7.20001C12.2 7.20001 12.3 7.10002 12.3 7.00002C12.3 6.90002 12.3 6.90001 12.4 6.90001H12.5C12.6 6.90001 12.6 6.90002 12.6 6.80002C12.6 6.70002 12.6 6.70001 12.6 6.70001C12.6 6.70001 12.6 6.70001 12.7 6.70001L12.9 7.00002Z" fill="#F5E3E3"/>
<path d="M11.3 7.00002C11.3 7.10002 11.3 7.10001 11.3 7.20001H10.9C10.9 7.00001 10.8 7.10002 10.7 7.10002C10.7 7.10002 10.6 7.10002 10.6 7.00002C10.6 6.90002 10.6 6.80002 10.8 6.80002C11 6.80002 11 6.80001 11 6.70001L11.3 7.00002Z" fill="#F5E3E3"/>
<path d="M9.70002 6.99998V7.19998H9.40002C9.40002 7.19998 9.30002 7.09999 9.20002 7.09999H9.30002V7.19998C9.20002 7.19998 9.20002 7.19998 9.10002 7.19998C9.00002 7.19998 9.10002 7.09998 9.10002 6.99998C9.10002 6.89998 9.10002 6.89998 9.20002 6.89998H9.30002C9.40002 6.89998 9.40002 6.89999 9.40002 6.79999L9.70002 6.99998Z" fill="#F5E3E3"/>
<path d="M8.10001 7.00002V7.20001H7.8C7.8 7.20001 7.7 7.10002 7.6 7.10002V7.20001C7.5 7.20001 7.5 7.20001 7.4 7.20001C7.3 7.20001 7.4 7.10002 7.4 7.00002C7.4 6.90002 7.4 6.90001 7.5 6.90001H7.6C7.6 6.90001 7.7 6.90002 7.7 6.80002C7.7 6.70002 7.7 6.70001 7.7 6.70001V6.80002L8.10001 7.00002Z" fill="#F5E3E3"/>
<path d="M6.6 7.00002V7.20001C6.5 7.20001 6.4 7.20001 6.3 7.20001C6.3 7.00001 6.2 7.10002 6.1 7.10002C6.1 7.10002 6 7.10002 6 7.00002C6 6.90002 6 6.80002 6.1 6.80002C6.2 6.80002 6.3 6.80001 6.3 6.70001V6.90001V6.80002C6.4 6.70002 6.5 6.80002 6.6 7.00002Z" fill="#F5E3E3"/>
<path d="M4.79999 7.2C4.69999 7.2 4.59999 7.20001 4.59999 7.10001C4.59999 7.00001 4.49999 7.10001 4.49999 7.10001H4.39999L4.49999 7.2C4.39999 7.2 4.29999 7.20001 4.29999 7.10001C4.29999 7.00001 4.29999 7 4.39999 7C4.49999 7 4.59999 7.09999 4.59999 6.89999V7.2C4.59999 7.3 4.59999 7.3 4.49999 7.3C4.59999 7.1 4.69999 7.2 4.79999 7.2Z" fill="#F5E3E3"/>
<path d="M3.39999 7.00002V7.20001H3.09999C3.09999 7.00001 2.99999 7.10002 2.89999 7.10002C2.89999 7.10002 2.79999 7.10002 2.79999 7.00002C2.79999 6.90002 2.79999 6.80002 2.89999 6.80002C2.99999 6.80002 3.09999 6.80001 3.09999 6.70001V7.00002" fill="#F5E3E3"/>
<path d="M1.80001 6.99998V7.19998H1.50001C1.50001 6.99998 1.40001 7.09999 1.30001 7.09999H1.10001C1.10001 6.99999 1.10001 6.89998 1.20001 6.89998C1.30001 6.89998 1.40001 6.89999 1.40001 6.79999" fill="#F5E3E3"/>
<path d="M2.40001 7.2C2.30001 7.2 2.20001 7.20001 2.20001 7.10001C2.20001 7.00001 2.10001 7.10001 2.10001 7.10001C2.10001 7.10001 2.10001 7 2.20001 7H2.50001C2.50001 7.1 2.60001 7.10001 2.70001 7.10001C2.80001 7.10001 2.80001 7.10001 2.90001 7.10001C2.80001 7.10001 2.60001 7.2 2.40001 7.2Z" fill="#F5E3E3"/>
<path d="M4 7.19998C3.9 7.19998 3.8 7.19999 3.8 7.09999C3.8 6.99999 3.7 7.09999 3.6 7.09999C3.5 7.09999 3.5 7.09998 3.5 7.19998C3.5 7.09998 3.5 6.99998 3.7 6.99998H3.8C3.9 6.99998 3.9 6.99999 3.9 7.09999L4 7.19998L4.1 7.09999V6.99998C4.1 6.99998 4 6.99997 4 6.89997C4 6.79997 4.1 6.89997 4.1 6.89997C4.1 6.89997 4.2 6.89998 4.2 6.99998C4.3 7.09998 4.2 7.19998 4 7.19998Z" fill="#F5E3E3"/>
<path d="M5.60001 7.2C5.50001 7.2 5.40001 7.20001 5.40001 7.10001C5.40001 7.00001 5.30001 7.10001 5.20001 7.10001C5.10001 7.10001 5.10001 7.1 5.10001 7.2C5.10001 7.1 5.10001 7 5.20001 7H5.30001C5.40001 7 5.40001 7.00001 5.40001 7.10001C5.40001 7.20001 5.50001 7.1 5.60001 7.2L5.70001 7.10001V7C5.70001 7 5.80001 7.00001 5.80001 7.10001C5.80001 7.20001 5.80001 7.2 5.60001 7.2C5.70001 7.2 5.70001 7.2 5.60001 7.2Z" fill="#F5E3E3"/>
<path d="M7.19998 7.2C7.09998 7.2 6.99998 7.20001 6.99998 7.10001C6.99998 7.00001 6.89998 7.10001 6.79998 7.10001C6.69998 7.10001 6.69998 7.1 6.69998 7.2C6.69998 7.1 6.69998 7 6.79998 7H6.99998C7.09998 7 7.09998 7 7.19998 7.2C7.09998 7.2 7.09998 7.1 7.19998 7.2L7.29998 7.10001V7C7.29998 7 7.39998 7.00001 7.39998 7.10001C7.39998 7.20001 7.39998 7.2 7.19998 7.2Z" fill="#F5E3E3"/>
<path d="M8.4 7C8.5 7 8.6 7.00001 8.6 7.10001C8.6 7.20001 8.7 7.10001 8.7 7.10001C8.8 7.10001 8.9 7.1 8.9 7.3C8.9 7.5 8.9 7.4 8.8 7.4H8.6C8.5 7.4 8.5 7.4 8.5 7.3C8.5 7.2 8.4 7.2 8.4 7.2C8.4 7.2 8.3 7.2 8.3 7.3C8.3 7.4 8.3 7.4 8.3 7.4V7.3C8.2 6.9 8.3 7 8.4 7Z" fill="#F5E3E3"/>
<path d="M10.3 7.19998C10.2 7.19998 10.1 7.19999 10.1 7.09999C10.1 6.99999 10 7.09999 9.90002 7.09999C9.80002 7.09999 9.80002 7.09998 9.80002 7.19998C9.80002 7.19998 9.80002 7.09999 9.90002 7.09999H10.1C10.2 7.09999 10.2 7.09998 10.3 7.19998C10.3 7.09998 10.2 7.19998 10.3 7.19998H10.5V7.09999C10.5 6.99999 10.4 7.09999 10.4 7.09999H10.5C10.5 7.09999 10.6 7.09998 10.6 7.19998C10.6 7.19998 10.5 7.19998 10.3 7.19998Z" fill="#F5E3E3"/>
<path d="M11.6 7C11.7 7 11.8 6.90001 11.8 7.10001C11.8 7.30001 11.9 7.10001 11.9 7.10001C11.9 7.10001 12 7.1 12 7.2C12 7.3 12 7.30001 11.9 7.30001H11.7C11.7 7.30001 11.6 7.3 11.6 7.2C11.6 7.1 11.5 7.10001 11.5 7.10001C11.5 7.10001 11.4 7.1 11.4 7.2C11.4 7.3 11.4 7.3 11.4 7.2V7.10001C11.5 7.10001 11.4 7 11.6 7Z" fill="#F5E3E3"/>
<path d="M13.5 7.19998C13.4 7.19998 13.3 7.19999 13.3 7.09999C13.3 6.99999 13.2 7.09999 13.1 7.09999C13 7.09999 13 7.09998 13 7.19998V7.29998L12.9 7.19998C12.9 7.09998 12.9 6.99999 13 7.09999H13.2C13.3 7.09999 13.3 7.09998 13.3 7.19998C13.3 7.29998 13.4 7.29998 13.5 7.29998V7.19998C13.5 7.09998 13.5 7.09998 13.5 7.19998C13.6 7.09998 13.7 7.09999 13.8 7.09999C13.7 7.09999 13.7 7.19998 13.5 7.19998Z" fill="#F5E3E3"/>
<path d="M14.7 7C14.8 7 14.9 6.90001 14.9 7.10001C14.9 7.30001 14.9 7.10001 15 7.10001H15.1C15.1 7.10001 15.2 7.1 15.2 7.2C15.2 7.3 15.2 7.30001 15.1 7.30001H15C14.9 7.30001 14.9 7.3 14.9 7.2C14.9 7.1 14.8 7.10001 14.8 7.10001C14.8 7.10001 14.7 7.1 14.7 7.2C14.7 7.3 14.7 7.30001 14.7 7.30001V7.2C14.6 7.2 14.5 7 14.7 7Z" fill="#F5E3E3"/>
<path d="M16.3 7C16.4 7 16.5 6.90001 16.5 7.10001C16.5 7.30001 16.6 7.10001 16.6 7.10001C16.7 7.10001 16.8 7.2 16.8 7.2C16.8 7.4 16.8 7.2 16.7 7.2H16.5C16.5 7.2 16.4 7.20001 16.4 7.10001C16.4 7.00001 16.3 7 16.3 7C16.2 7 16.2 7.00001 16.2 7.10001C16.1 7.20001 16.1 7 16.3 7Z" fill="#F5E3E3"/>
<path d="M0.499992 7.00001C0.599992 7.00001 0.699992 6.90002 0.699992 7.10002C0.699992 7.10002 0.899992 7.20002 0.899992 7.10002C0.899992 7.00002 0.899992 7.00001 0.899992 7.00001C0.999992 7.00001 0.999992 6.90001 1.09999 7.00001C1.09999 7.10001 1.09999 7.20001 0.999992 7.20001H0.699992C0.699992 7.20001 0.599992 7.20001 0.499992 7.00001C0.699992 7.10001 0.599992 7.00001 0.499992 7.00001C0.399992 7.20001 0.399992 7.10002 0.399992 7.10002L0.499992 7.00001C0.399992 7.00001 0.299992 7.00001 0.499992 7.00001Z" fill="#F5E3E3"/>
<path d="M3.39999 2.99998V3.19998C3.29999 3.19998 3.19999 3.19998 3.09999 3.19998C3.09999 3.09998 2.99999 3.09999 2.89999 3.09999C2.89999 3.09999 2.79999 3.09998 2.79999 2.99998C2.79999 2.89998 2.79999 2.89998 2.89999 2.89998C2.99999 2.89998 3.09999 2.89999 3.09999 2.79999L3.39999 2.99998Z" fill="#EEF5ED"/>
<path d="M5 2.99998V3.19998C4.9 3.19998 4.8 3.19998 4.7 3.19998C4.7 3.09998 4.6 3.09999 4.5 3.09999H4.6V3.19998C4.5 3.19998 4.5 3.19998 4.4 3.19998C4.3 3.19998 4.4 3.09998 4.4 2.99998C4.4 2.89998 4.4 2.99998 4.5 2.89998H4.6C4.7 2.89998 4.7 2.89999 4.7 2.79999L5 2.99998Z" fill="#EEF5ED"/>
<path d="M6.40002 3.09999C6.30002 3.09999 6.20002 3.19998 6.20002 2.99998C6.20002 2.79998 6.00002 2.99998 6.00002 2.99998C6.00002 2.99998 6.00002 2.99999 6.10002 3.09999C6.20002 3.19999 6.20002 3.09999 6.20002 3.09999H6.00002C6.00002 3.09999 5.80002 3.09998 5.80002 2.99998C5.80002 2.89998 5.80002 2.99998 5.90002 2.99998C6.00002 2.99998 6.10002 3.09998 6.10002 2.89998V3.09999V2.79999C6.10002 2.89999 6.10002 2.99999 6.10002 3.09999C6.50002 3.19999 6.40002 3.09999 6.40002 3.09999Z" fill="#EEF5ED"/>
<path d="M8.1 2.99998V3.19998C8 3.19998 7.9 3.19998 7.8 3.19998C7.8 3.09998 7.7 3.09999 7.6 3.09999H7.5C7.5 3.09999 7.5 2.89998 7.6 2.89998C7.7 2.89998 7.8 2.89999 7.8 2.79999V2.99998H8.1Z" fill="#EEF5ED"/>
<path d="M9.7 2.99998V3.19998H9.4V3.09999C9.4 2.99999 9.4 2.99998 9.3 2.99998H9.2C9.2 2.99998 9.3 2.99999 9.3 3.09999C9.3 3.09999 9.4 3.09998 9.3 3.19998C9.2 3.29998 9.2 3.19998 9.2 3.19998H9C9 3.09998 9 3.09998 9 2.99998H9.1C9.2 2.99998 9.3 3.09998 9.3 2.89998C9.3 2.89998 9.3 2.79999 9.4 2.79999C9.5 2.79999 9.4 2.79998 9.4 2.89998V3.09999V2.99998H9.7Z" fill="#EEF5ED"/>
<path d="M11.1 3.09999C11 3.09999 10.9 3.19998 10.9 2.99998C10.9 2.79998 10.7 2.99998 10.7 2.99998C10.7 2.99998 10.7 2.99999 10.8 3.09999C10.9 3.19999 10.9 3.09999 10.9 3.09999H10.8C10.8 3.09999 10.6 3.09998 10.6 2.99998C10.6 2.89998 10.6 2.89998 10.7 2.89998C10.8 2.89998 10.9 2.89999 10.9 2.79999V3.09999V2.99998C10.9 3.09998 10.9 3.19999 10.9 3.29999C11.3 3.19999 11.2 3.09999 11.1 3.09999Z" fill="#EEF5ED"/>
<path d="M12.9 2.99998V3.19998C12.8 3.19998 12.7 3.19998 12.6 3.19998C12.6 3.09998 12.5 3.09999 12.4 3.09999C12.4 3.09999 12.3 3.09998 12.3 2.99998C12.3 2.89998 12.3 2.89998 12.4 2.89998C12.5 2.89998 12.6 2.89999 12.6 2.79999C12.6 2.79999 12.6 2.79998 12.6 2.89998V3.09999V2.79999V2.99998H12.7V2.79999L12.9 2.99998Z" fill="#EEF5ED"/>
<path d="M14.2 3.09999C14.1 3.09999 14 3.09998 14 2.99998C14 2.89998 13.9 2.99998 13.9 2.99998H13.8L13.9 3.09999C14 3.09999 14 3.09999 14 3.09999H13.9C13.9 3.09999 13.7 3.09998 13.7 2.99998C13.7 2.89998 13.7 2.89998 13.8 2.89998C13.9 2.89998 14 2.99999 14 2.79999C14 2.89999 14 2.99999 14 3.09999C14.4 3.19999 14.3 3.09999 14.2 3.09999Z" fill="#EEF5ED"/>
<path d="M16 3.00002V3.20001C15.9 3.20001 15.8 3.20001 15.7 3.20001C15.7 3.10001 15.6 3.10002 15.5 3.10002C15.5 3.10002 15.4 3.10002 15.4 3.00002C15.4 2.90002 15.4 2.90001 15.5 2.90001C15.6 2.90001 15.7 2.90002 15.7 2.80002H15.8V2.70001C15.8 2.70001 15.8 2.70002 15.8 2.80002C15.9 2.80002 16 2.90002 16 3.00002Z" fill="#EEF5ED"/>
<path d="M17.6 2.99998V3.19998H17.3C17.3 3.09998 17.2 3.09999 17.1 3.09999H16.9C16.9 2.99999 16.9 2.99998 17 2.89998C17.1 2.89998 17.2 2.89999 17.2 2.79999V2.99998H17.6Z" fill="#EEF5ED"/>
<path d="M1.8 3.00002V3.20001C1.7 3.20001 1.6 3.20001 1.5 3.20001C1.5 3.10001 1.5 3.10002 1.4 3.10002C1.4 3.10002 1 3.10002 1 3.00002C1 2.90002 1 2.90001 1.1 2.90001C1.2 2.90001 1.3 3.00002 1.3 2.80002V2.90001V3.00002V2.70001C1.3 2.70001 1.3 2.70002 1.3 2.80002L1.8 3.00002Z" fill="#EEF5ED"/>
<path d="M9.99998 3C10.1 3 10.2 3.00001 10.2 3.10001C10.2 3.20001 10.4 3.20001 10.4 3.10001C10.4 3.00001 10.4 3.10001 10.3 3.10001C10.4 3.10001 10.4 3.1 10.4 3.2C10.4 3.3 10.4 3.3 10.3 3.3H9.99998C9.99998 3.2 9.89998 3.2 9.89998 3.2C9.79998 3.2 9.79998 3.2 9.79998 3.3C9.69998 3.3 9.69998 3.20001 9.69998 3.10001C9.69998 3.00001 9.69998 2.99999 9.69998 2.89999C9.79998 2.99999 9.89998 3 9.99998 3Z" fill="#EEF5ED"/>
<path d="M11.6 3C11.7 3 11.8 3.00001 11.8 3.10001C11.8 3.20001 12 3.10001 12 3.10001C12.1 3.10001 12.1 3.1 12.1 3.2C12.1 3.3 12.1 3.39999 12 3.39999H11.8C11.8 3.39999 11.7 3.4 11.7 3.3C11.7 3.2 11.6 3.2 11.6 3.2C11.6 3.2 11.5 3.2 11.5 3.3C11.3 3 11.4 3 11.6 3Z" fill="#EEF5ED"/>
<path d="M13.1 3C13.2 3 13.3 3.00001 13.3 3.10001C13.3 3.20001 13.5 3.20001 13.5 3.10001C13.5 3.00001 13.5 3.10001 13.4 3.10001C13.4 3.10001 13.5 3.1 13.5 3.2C13.5 3.3 13.5 3.3 13.4 3.3H13.1C13.1 3.3 13.1 3.2 13 3.2C12.9 3.2 12.9 3.2 12.9 3.3C12.9 3.2 12.9 3.20001 12.9 3.10001H13L13.1 3Z" fill="#EEF5ED"/>
<path d="M14.7 3C14.8 3 14.9 3.00001 14.9 3.10001C14.9 3.20001 15.1 3.10001 15.1 3.10001H15M15 3.10001H15.2C15.2 3.20001 15.2 3.2 15.2 3.3H14.9C14.9 3.3 14.8 3.3 14.8 3.2C14.8 3.1 14.7 3.10001 14.7 3.10001C14.7 3.10001 14.6 3.1 14.6 3.2M14.6 3.3C14.5 3 14.5 3 14.7 3L14.6 3.3Z" fill="#EEF5ED"/>
<path d="M16.6 3.10001C16.5 3.10001 16.4 3.2 16.4 3C16.4 2.8 16.3 3 16.2 3C16.2 3 16.1 3.00001 16.1 3.10001C16.1 3.00001 16.1 2.89999 16.2 2.89999H16.4C16.4 2.89999 16.5 2.9 16.5 3C16.5 3.1 16.6 3.10001 16.6 3.10001C16.7 3.10001 16.7 3.1 16.8 3.2C16.8 3.2 16.8 3.2 16.8 3.3C16.9 3.4 16.9 3.10001 16.6 3.10001Z" fill="#EEF5ED"/>
<path d="M8.39998 3C8.49998 3 8.59998 3.00001 8.59998 3.10001C8.59998 3.20001 8.79998 3.10001 8.79998 3.10001C8.89998 3.10001 8.89998 3.10001 8.99998 3.10001C8.99998 3.20001 8.99998 3.3 8.89998 3.3C8.89998 3.3 8.89998 3.3 8.79998 3.3H8.59998C8.59998 3.3 8.49998 3.3 8.49998 3.2C8.49998 3.1 8.39998 3.1 8.39998 3C8.39998 3.1 8.29998 3.1 8.29998 3.2C8.29998 3.2 8.29998 3.2 8.19998 3.2C8.19998 3 8.19998 3 8.39998 3Z" fill="#EEF5ED"/>
<path d="M6.80001 3.00001C6.90001 3.00001 7.00001 3.00002 7.00001 3.10002C7.00001 3.20002 7.20001 3.10002 7.20001 3.10002C7.20001 3.10002 7.20001 3.10002 7.10001 3.10002C7.00001 3.10002 7.00001 3.10001 7.00001 3.00001C7.00001 2.90001 7.10001 3.00001 7.10001 3.00001C7.10001 3.00001 7.20001 3.00002 7.20001 3.10002C7.20001 3.20002 7.20001 3.20001 7.10001 3.20001H7.00001C7.00001 3.20001 6.90001 3.20002 6.90001 3.10002C6.90001 3.00002 6.80001 3.00001 6.80001 3.00001C6.80001 3.00001 6.70001 3.00002 6.70001 3.10002L6.80001 3.00001C6.70001 3.10001 6.60001 3.00001 6.80001 3.00001Z" fill="#EEF5ED"/>
<path d="M5.60001 3.10002C5.50001 3.10002 5.40001 3.10001 5.40001 3.00001C5.40001 2.90001 5.30001 3.00001 5.20001 3.00001C5.10001 3.00001 5.10001 3.00002 5.10001 3.10002C5.10001 3.00002 5.10001 2.90001 5.20001 3.00001H5.40001C5.40001 3.00001 5.50001 3.00002 5.60001 3.10002C5.50001 3.20002 5.50001 3.10002 5.60001 3.10002L5.70001 3.00001C5.70001 2.90001 5.70001 3.00001 5.80001 3.00001C5.90001 3.00001 6.00001 3.00001 6.00001 3.20001C6.00001 3.40001 5.60001 3.10002 5.60001 3.10002Z" fill="#EEF5ED"/>
<path d="M3.70001 3C3.80001 3 3.90001 3.00001 3.90001 3.10001C3.90001 3.20001 4.10001 3.10001 4.10001 3.10001C4.10001 3.10001 4.20001 3.1 4.20001 3.2C4.20001 3.3 4.20001 3.39999 4.10001 3.39999H3.90001C3.90001 3.39999 3.80001 3.4 3.80001 3.3C3.80001 3.2 3.70001 3.2 3.70001 3.2C3.60001 3.2 3.60001 3.2 3.60001 3.3C3.60001 3.4 3.60001 3.39999 3.60001 3.39999V3.3C3.60001 3.1 3.50001 3 3.70001 3Z" fill="#EEF5ED"/>
<path d="M2.10001 3C2.20001 3 2.30001 3.00001 2.30001 3.10001C2.30001 3.20001 2.50001 3.20001 2.50001 3.10001C2.50001 3.10001 2.60001 3.1 2.60001 3.2C2.60001 3.3 2.60001 3.3 2.50001 3.3H2.30001C2.30001 3.2 2.20001 3.2 2.20001 3.2C2.10001 3.2 2.10001 3.2 2.10001 3.3C2.00001 3.3 2.00001 3.2 2.00001 3.2C1.90001 3.2 1.90001 3.1 2.10001 3C2.00001 3 1.90001 3 2.10001 3Z" fill="#EEF5ED"/>
<path d="M0.499999 3.00001C0.599999 3.00001 0.699999 3.00002 0.699999 3.10002C0.699999 3.20002 0.899999 3.20002 0.899999 3.10002C0.899999 3.10002 0.999999 3.10001 0.999999 3.20001C0.999999 3.30001 0.999999 3.3 0.899999 3.4C0.899999 3.4 0.899999 3.4 0.799999 3.4H0.699999H0.599999C0.599999 3.4 0.599999 3.00001 0.499999 3.00001C0.399999 3.00001 0.399999 3.00001 0.399999 3.20001C0.399999 3.40001 0.399999 3.30001 0.299999 3.20001C0.199999 3.10001 0.299999 3.10001 0.299999 3.00001C0.299999 2.90001 0.399999 3.00001 0.499999 3.00001Z" fill="#EEF5ED"/>
</svg>
