<svg width="18" height="10" viewBox="0 0 18 10" fill="none" xmlns="http://www.w3.org/2000/svg">
<path d="M18 2.50003H0V7.50003H18V2.50003Z" fill="#F2F2F2"/>
<path d="M0 7.50003C6 7.50003 12 7.50003 17.9 7.50003C17.9 7.50003 17.9 7.50003 18 7.50003C18 8.30003 18 9.20003 18 10C12 10 6 10 0 10C0 9.20003 0 8.30003 0 7.50003Z" fill="#FF0000"/>
<path d="M18 2.50003C12 2.50003 6 2.50003 0.1 2.50003C0.1 2.50003 0.1 2.50003 0 2.50003C0 1.70003 0 0.800031 0 3.05176e-05C6 3.05176e-05 12 3.05176e-05 18 3.05176e-05C18 0.800031 18 1.70003 18 2.50003Z" fill="#009900"/>
<path d="M8.19999 3.30002C7.79999 3.90002 7.69999 4.60002 7.89999 5.30002C8.09999 5.80002 8.39999 6.20002 8.79999 6.50002C8.79999 6.20002 8.79999 5.80002 8.79999 5.50002C8.79999 5.10002 8.79999 4.70002 8.79999 4.30002C8.79999 4.00002 8.79999 3.80002 8.79999 3.50002C8.79999 3.50002 8.79999 3.50001 8.79999 3.40001C8.89999 3.30001 8.99999 3.30001 8.99999 3.20001C9.09999 3.30001 9.09999 3.30001 9.19999 3.40001C9.19999 3.90001 9.19999 4.30002 9.19999 4.80002C9.19999 5.10002 9.19999 5.30002 9.19999 5.60002C9.19999 5.80002 9.19999 6.00001 9.19999 6.20001C9.19999 6.30001 9.19999 6.50002 9.19999 6.60002C9.29999 6.60002 9.69999 6.20002 9.79999 6.00002C9.99999 5.70002 10.1 5.50001 10.1 5.20001C10.2 4.90001 10.2 4.60002 10.1 4.30002C9.99999 4.00002 9.89999 3.70002 9.69999 3.50002C9.79999 3.60002 10.1 3.90001 10.2 4.20001C10.3 4.50001 10.4 4.70002 10.4 5.00002C10.4 5.80002 9.99999 6.60002 9.19999 7.00002C9.49999 7.10002 9.79999 7.20002 10.1 7.10002C9.89999 7.20002 9.69999 7.20001 9.59999 7.20001C9.49999 7.20001 9.19999 7.20001 8.99999 7.20001C8.99999 7.30001 8.99999 7.30002 8.89999 7.30002C8.89999 7.40002 8.79999 7.40002 8.79999 7.50002L8.69999 7.40001C8.69999 7.40001 8.59999 7.30002 8.69999 7.30002C8.29999 7.40002 7.99999 7.40001 7.59999 7.20001C7.79999 7.20001 7.89999 7.20001 8.09999 7.20001C8.29999 7.20001 8.39999 7.10002 8.59999 7.10002C8.59999 7.10002 8.59999 7.10002 8.49999 7.10002C8.09999 6.90002 7.69999 6.50002 7.49999 6.00002C7.19999 5.30002 7.29999 4.40002 7.79999 3.80002C7.99999 3.40002 8.09999 3.40002 8.19999 3.30002Z" fill="#FF0000"/>
<path d="M7.50001 6.50002C7.30001 6.40002 7.10001 6.20002 7.00001 6.00002C6.80001 5.70002 6.70001 5.40002 6.60001 5.10002C6.50001 4.50002 6.70001 4.10001 7.10001 3.70001C7.30001 3.40001 7.60001 3.30001 8.00001 3.20001C7.50001 3.60001 7.20001 4.10001 7.10001 4.70001C6.90001 5.40001 7.10001 6.00002 7.50001 6.50002Z" fill="#FF0000"/>
<path d="M10.5 6.50002C10.6 6.30002 10.7 6.20002 10.8 6.00002C10.9 5.70002 11 5.30002 11 5.00002C11 4.30002 10.7 3.80002 10.2 3.30002L10.1 3.20001C10.2 3.20001 10.2 3.20002 10.3 3.30002C10.8 3.50002 11.2 3.90002 11.4 4.50002C11.6 5.10002 11.4 5.80002 10.9 6.30002C10.8 6.30002 10.7 6.40002 10.5 6.50002Z" fill="#FF0000"/>
<path d="M9.6 2.70001C9.6 2.80001 9.6 3.00002 9.5 3.10002C9.4 3.20002 9.3 3.20001 9.2 3.20001C9.1 3.20001 9 3.10002 9 3.10002C8.8 3.30002 8.6 3.30001 8.5 3.20001C8.4 3.10001 8.3 2.90002 8.4 2.80002C8.4 2.90002 8.5 3.00002 8.7 3.10002C8.8 3.10002 9 3.10002 9 3.00002C9.2 3.00002 9.5 3.00001 9.6 2.70001Z" fill="#FF0000"/>
</svg>
