<svg width="18" height="10" viewBox="0 0 18 10" fill="none" xmlns="http://www.w3.org/2000/svg">
<path d="M18 0H0V3.29999H18V0Z" fill="#FF9922"/>
<path d="M18 3.29999H0V6.79999H18V3.29999Z" fill="white"/>
<path d="M18 6.70001H0V10H18V6.70001Z" fill="#008800"/>
<path d="M8.99999 3.79999C8.29999 3.79999 7.79999 4.4 7.79999 5C7.79999 5.6 8.39999 6.20001 8.99999 6.20001C9.59999 6.20001 10.2 5.6 10.2 5C10.2 4.4 9.69999 3.79999 8.99999 3.79999ZM9.69999 5.79999C9.59999 5.79999 9.59999 5.79999 9.59999 5.79999C9.59999 5.89999 9.59999 5.89999 9.69999 5.79999C9.59999 5.89999 9.49999 5.9 9.49999 6C9.49999 6 9.49999 6 9.39999 6C9.39999 6 9.29999 6.00001 9.29999 6.10001C9.19999 6.10001 9.19999 6.10001 9.09999 6.10001C9.09999 6.10001 9.09999 6 8.99999 6C8.99999 6 8.89999 6.00001 8.89999 6.10001H8.79999H8.69999C8.69999 6.10001 8.69999 6 8.59999 6C8.59999 6 8.49999 6.00001 8.49999 6.10001C8.39999 6.10001 8.39999 6.10001 8.29999 6.10001C8.29999 6.10001 8.29999 6 8.19999 6C8.19999 6 8.09999 6.00001 8.09999 6.10001C7.99999 6.10001 7.99999 6 7.89999 6C7.89999 6 7.89999 5.99999 7.89999 5.89999C7.89999 5.89999 7.89999 5.79999 7.79999 5.79999C7.79999 5.79999 7.69999 5.79999 7.69999 5.89999C7.59999 5.89999 7.59999 5.79999 7.59999 5.79999C7.59999 5.79999 7.69999 5.80001 7.69999 5.70001C7.69999 5.70001 7.69999 5.60001 7.59999 5.60001C7.59999 5.60001 7.59999 5.60001 7.49999 5.60001C7.49999 5.50001 7.39999 5.49999 7.39999 5.39999C7.39999 5.39999 7.49999 5.39999 7.49999 5.29999C7.49999 5.19999 7.49999 5.20001 7.39999 5.20001C7.39999 5.10001 7.39999 5.1 7.29999 5C7.29999 5 7.39999 4.99999 7.39999 4.89999C7.39999 4.79999 7.39999 4.79999 7.29999 4.79999V4.70001V4.60001C7.29999 4.60001 7.39999 4.6 7.39999 4.5C7.39999 4.4 7.39999 4.39999 7.29999 4.39999C7.29999 4.29999 7.29999 4.30001 7.39999 4.20001C7.39999 4.20001 7.49999 4.20001 7.49999 4.10001C7.49999 4.00001 7.49999 4 7.39999 4C7.39999 3.9 7.49999 3.89999 7.49999 3.79999C7.49999 3.79999 7.49999 3.79999 7.59999 3.79999C7.59999 3.79999 7.69999 3.80001 7.69999 3.70001V3.60001L7.79999 3.5C7.79999 3.5 7.79999 3.5 7.89999 3.5C7.89999 3.5 7.99999 3.49999 7.99999 3.39999C8.09999 3.39999 8.09999 3.29999 8.19999 3.29999C8.19999 3.29999 8.19999 3.39999 8.29999 3.39999C8.29999 3.39999 8.39999 3.39999 8.39999 3.29999C8.49999 3.29999 8.49999 3.29999 8.59999 3.29999C8.59999 3.29999 8.59999 3.39999 8.69999 3.39999C8.69999 3.39999 8.79999 3.39999 8.79999 3.29999H8.89999H8.99999C8.99999 3.29999 8.99999 3.39999 9.09999 3.39999C9.09999 3.39999 9.19999 3.39999 9.19999 3.29999C9.29999 3.29999 9.29999 3.29999 9.39999 3.29999C9.39999 3.29999 9.39999 3.39999 9.49999 3.39999C9.49999 3.39999 9.59999 3.39999 9.59999 3.29999C9.69999 3.29999 9.69999 3.39999 9.79999 3.39999C9.79999 3.39999 9.79999 3.5 9.89999 3.5C9.89999 3.5 9.89999 3.5 9.99999 3.5L10.1 3.60001C10.1 3.60001 10.1 3.60001 10.1 3.70001C10.1 3.70001 10.1 3.79999 10.2 3.79999C10.2 3.79999 10.3 3.9 10.3 4C10.3 4 10.2 4.00001 10.2 4.10001C10.2 4.20001 10.2 4.20001 10.3 4.20001C10.3 4.30001 10.3 4.29999 10.3 4.39999C10.3 4.39999 10.2 4.4 10.2 4.5C10.2 4.6 10.2 4.60001 10.3 4.60001V4.70001V4.79999C10.3 4.79999 10.2 4.79999 10.2 4.89999C10.2 4.99999 10.2 5 10.3 5C10.3 5.1 10.3 5.10001 10.3 5.20001C10.3 5.20001 10.2 5.19999 10.2 5.29999C10.2 5.39999 10.2 5.39999 10.3 5.39999C10.3 5.49999 10.2 5.50001 10.2 5.60001C10.2 5.60001 10.1 5.60001 10.1 5.70001C10.1 5.70001 10.1 5.69999 10.1 5.79999C9.79999 5.79999 9.79999 5.79999 9.69999 5.79999Z" fill="#00008B"/>
<path d="M8.99999 4.79999C8.89999 4.79999 8.79999 4.9 8.79999 5C8.79999 5.1 8.89999 5.20001 8.99999 5.20001C9.09999 5.20001 9.19999 5.1 9.19999 5C9.19999 4.9 9.09999 4.79999 8.99999 4.79999Z" fill="#00008B"/>
<path d="M9.1 4.60001L9 3.89999V4.60001V4.79999L9.1 4.60001Z" fill="#00008B"/>
<path d="M8.59999 5H7.89999L8.59999 5.10001L8.79999 5H8.59999Z" fill="#00008B"/>
<path d="M8.69998 4.70001L8.19998 4.20001L8.69998 4.70001L8.79998 4.79999H8.89998H8.79998L8.69998 4.70001Z" fill="#00008B"/>
<path d="M8.69998 4.70001L8.09998 4.5L8.59998 4.79999L8.79998 4.89999L8.69998 4.70001Z" fill="#00008B"/>
<path d="M8.6 4.79999L8 4.70001L8.6 4.89999H8.8L8.6 4.79999Z" fill="#00008B"/>
<path d="M8.8 4.60001L8.5 4.10001L8.7 4.70001L8.9 4.79999L8.8 4.60001Z" fill="#00008B"/>
<path d="M8.89998 4.60001L8.69998 4L8.79998 4.60001L8.89998 4.79999V4.60001Z" fill="#00008B"/>
<path d="M9.39998 5H10.1L9.39998 5.10001L9.19998 5H9.39998Z" fill="#00008B"/>
<path d="M9.29998 4.70001L9.79998 4.20001L9.29998 4.70001L9.19998 4.79999L9.29998 4.70001Z" fill="#00008B"/>
<path d="M9.39998 4.70001L9.89998 4.5L9.39998 4.79999L9.19998 4.89999L9.39998 4.70001Z" fill="#00008B"/>
<path d="M9.39998 4.79999L9.99998 4.70001L9.39998 4.89999H9.19998L9.39998 4.79999Z" fill="#00008B"/>
<path d="M9.19998 4.60001L9.49998 4.10001L9.29998 4.70001L9.09998 4.79999L9.19998 4.60001Z" fill="#00008B"/>
<path d="M9.09998 4.60001L9.29998 4L9.19998 4.60001L9.09998 4.79999V4.60001Z" fill="#00008B"/>
<path d="M9.1 5.39999L9 6.10001V5.39999V5.20001L9.1 5.39999Z" fill="#00008B"/>
<path d="M8.69998 5.29999L8.19998 5.79999L8.69998 5.29999L8.79998 5.20001H8.89998H8.79998L8.69998 5.29999Z" fill="#00008B"/>
<path d="M8.69998 5.29999L8.09998 5.5L8.59998 5.20001L8.79998 5.10001L8.69998 5.29999Z" fill="#00008B"/>
<path d="M8.6 5.20001L8 5.29999L8.6 5.10001H8.8L8.6 5.20001Z" fill="#00008B"/>
<path d="M8.8 5.39999L8.5 5.89999L8.7 5.29999L8.9 5.20001L8.8 5.39999Z" fill="#00008B"/>
<path d="M8.89998 5.39999L8.69998 6L8.79998 5.39999L8.89998 5.20001V5.39999Z" fill="#00008B"/>
<path d="M9.29998 5.29999L9.79998 5.79999L9.29998 5.29999L9.19998 5.20001L9.29998 5.29999Z" fill="#00008B"/>
<path d="M9.39998 5.29999L9.89998 5.5L9.39998 5.20001L9.19998 5.10001L9.39998 5.29999Z" fill="#00008B"/>
<path d="M9.39998 5.20001L9.99998 5.29999L9.39998 5.10001H9.19998L9.39998 5.20001Z" fill="#00008B"/>
<path d="M9.19998 5.39999L9.49998 5.89999L9.29998 5.29999L9.09998 5.20001L9.19998 5.39999Z" fill="#00008B"/>
<path d="M9.09998 5.39999L9.29998 6L9.19998 5.39999L9.09998 5.20001V5.39999Z" fill="#00008B"/>
</svg>
