<svg width="18" height="10" viewBox="0 0 18 10" fill="none" xmlns="http://www.w3.org/2000/svg">
<path d="M0 6.80003V3.30003H17.7989C17.8994 3.30003 18 3.30004 18 3.10004V0.200027C18 0.100027 18 3.05176e-05 17.7989 3.05176e-05H0.201117C0.100559 3.05176e-05 0.100559 3.05176e-05 0 3.05176e-05H17.8994C18 3.05176e-05 18 3.66196e-05 18 0.100037V6.90002C18 6.70002 18 6.70003 17.7989 6.70003L0 6.80003Z" fill="#FEFEFE"/>
<path d="M0 6.80008H17.7989C18 6.80008 18 6.90008 18 7.00008V10.0001H0V6.80008Z" fill="#5A9A48"/>
<path d="M0 3.20003V3.05176e-05C0.100559 3.05176e-05 0.100559 3.05176e-05 0.201117 3.05176e-05H17.7989C17.8994 3.05176e-05 18 2.74628e-05 18 0.200027V3.10004C18 3.20004 18 3.30003 17.7989 3.30003H0.201117L0 3.20003Z" fill="#A3162C"/>
</svg>
