<svg width="18" height="10" viewBox="0 0 18 10" fill="none" xmlns="http://www.w3.org/2000/svg">
<path d="M18 6.10352e-05H0V10.0001H18V6.10352e-05Z" fill="white"/>
<path d="M8.99999 7.50006C10.4359 7.50006 11.6 6.38077 11.6 5.00006C11.6 3.61935 10.4359 2.50006 8.99999 2.50006C7.56405 2.50006 6.39999 3.61935 6.39999 5.00006C6.39999 6.38077 7.56405 7.50006 8.99999 7.50006Z" fill="#CE1126"/>
<path d="M6.9 3.60007C6.5 4.20007 6.7 5.00005 7.3 5.40005C7.9 5.80005 8.7 5.60006 9.1 5.00006C9.5 4.40006 10.3 4.20007 10.9 4.60007C11.5 5.00007 11.6 5.80005 11.3 6.40005C10.5 7.60005 9 7.90007 7.8 7.10007C6.6 6.30007 6.1 4.80007 6.9 3.60007Z" fill="#003F87"/>
<path d="M5.43264 1.09142L3.99042 3.25462L4.32321 3.4765L5.76543 1.3133L5.43264 1.09142Z" fill="black"/>
<path d="M6.10628 1.49439L4.66406 3.65785L4.9969 3.87973L6.43912 1.71627L6.10628 1.49439Z" fill="black"/>
<path d="M4.88262 0.728142L3.4404 2.89134L3.77319 3.11322L5.21541 0.950019L4.88262 0.728142Z" fill="black"/>
<path d="M14.0084 6.76452L13.3427 7.76292L13.6755 7.9848L14.3411 6.9864L14.0084 6.76452Z" fill="black"/>
<path d="M12.6527 7.61447L11.987 8.61287L12.3198 8.83475L12.9855 7.83635L12.6527 7.61447Z" fill="black"/>
<path d="M13.5828 6.44861L12.9171 7.44701L13.2499 7.66888L13.9156 6.67048L13.5828 6.44861Z" fill="black"/>
<path d="M12.1322 7.28827L11.4666 8.28667L11.7994 8.50854L12.465 7.51014L12.1322 7.28827Z" fill="black"/>
<path d="M13.4503 8.06912L12.7846 9.06764L13.1175 9.28952L13.7831 8.291L13.4503 8.06912Z" fill="black"/>
<path d="M13.115 6.18515L12.4494 7.18367L12.7822 7.40555L13.4478 6.40703L13.115 6.18515Z" fill="black"/>
<path d="M13.7183 1.86758L13.3855 2.08946L14.0512 3.08787L14.384 2.86599L13.7183 1.86758Z" fill="black"/>
<path d="M12.7229 2.71615L12.3901 2.93803L13.0557 3.93654L13.3885 3.71466L12.7229 2.71615Z" fill="black"/>
<path d="M11.8286 1.48572L11.4958 1.7076L12.1615 2.70601L12.4943 2.48413L11.8286 1.48572Z" fill="black"/>
<path d="M13.0294 0.818022L12.6966 1.0399L13.3622 2.03843L13.6951 1.81655L13.0294 0.818022Z" fill="black"/>
<path d="M12.5 1.10005L12.1 1.30003L13.6 3.50005L14 3.30003L12.5 1.10005Z" fill="black"/>
<path d="M6.10001 8.60007L6.40001 8.30005L5.00001 6.10007L4.60001 6.30005L6.10001 8.60007Z" fill="black"/>
<path d="M5.23116 7.70692L4.89832 7.9288L5.56395 8.92731L5.89679 8.70543L5.23116 7.70692Z" fill="black"/>
<path d="M3.9 6.80005L3.5 7.10007L5 9.30005L5.3 9.00006L3.9 6.80005Z" fill="black"/>
<path d="M4.33005 6.48466L3.99725 6.70654L4.6629 7.70495L4.9957 7.48307L4.33005 6.48466Z" fill="black"/>
</svg>
