<svg width="18" height="10" viewBox="0 0 18 10" fill="none" xmlns="http://www.w3.org/2000/svg">
<path d="M0.1 6.80005V3.30005H17.8C17.9 3.30005 18 3.30007 18 3.10007V0.200073C18 0.100073 18 6.10352e-05 17.8 6.10352e-05H0.2C0.1 6.10352e-05 0.1 6.10352e-05 0 6.10352e-05H17.8C17.9 6.10352e-05 17.9 6.71372e-05 17.9 0.100067V6.90005C17.9 6.70005 17.9 6.70007 17.7 6.70007L0.1 6.80005Z" fill="#34B133"/>
<path d="M0.100006 6.80005H17.8C18 6.80005 18 6.90006 18 7.00006V10.0001H0.100006V6.80005Z" fill="#E92839"/>
<path d="M0.100006 3.20007V6.10352e-05C0.200006 6.10352e-05 0.200006 6.10352e-05 0.300006 6.10352e-05H17.8C17.9 6.10352e-05 18 7.32392e-05 18 0.200073V3.10007C18 3.20007 18 3.30005 17.8 3.30005H0.200006L0.100006 3.20007Z" fill="#FDCA00"/>
<path d="M9.69999 3.00006C9.79999 3.20006 9.89999 3.50007 9.89999 3.70007C9.89999 3.80007 9.99999 3.90006 9.99999 4.00006C10.1 4.00006 10.2 4.00006 10.2 4.00006C11.2 4.00006 12.1 4.00006 13.1 4.00006C13.1 4.00006 13.1 4.00006 13.2 4.00006C12.4 4.60006 11.5 5.20005 10.7 5.80005C10.7 5.80005 10.7 5.80005 10.7 5.90005C10.8 6.20005 10.9 6.50005 11 6.90005C11.1 7.20005 11.2 7.50005 11.3 7.80005C11.4 8.20005 11.5 8.50005 11.7 8.90005C11.7 8.90005 11.7 8.90006 11.7 9.00006C11.3 8.70006 10.8 8.40007 10.4 8.10007C9.99999 7.80007 9.59999 7.50007 9.09999 7.20007C9.09999 7.20007 9.09999 7.20007 8.99999 7.20007C8.19999 7.80007 7.29999 8.40006 6.49999 9.00006C6.49999 9.00006 6.49999 9.00006 6.39999 9.00006C6.59999 8.40006 6.79999 7.70007 6.99999 7.10007C7.09999 6.90007 7.19999 6.60005 7.19999 6.40005C7.19999 6.30005 7.29999 6.20007 7.29999 6.10007V6.00006C6.49999 5.40006 5.59999 4.80007 4.79999 4.20007C4.79999 4.20007 4.79999 4.20007 4.89999 4.20007C5.89999 4.20007 6.99999 4.20007 7.99999 4.20007C7.99999 4.20007 8.09999 4.20007 8.09999 4.10007C8.19999 3.90007 8.19999 3.70006 8.29999 3.50006C8.29999 3.40006 8.39999 3.30007 8.39999 3.10007C8.49999 2.80007 8.59999 2.60005 8.69999 2.30005C8.79999 1.90005 8.89999 1.60007 9.09999 1.20007C9.09999 1.30007 9.09999 1.30005 9.19999 1.40005C9.29999 1.80005 9.49999 2.40006 9.69999 3.00006C9.59999 3.00006 9.59999 3.00006 9.69999 3.00006Z" fill="#FEFEFE"/>
</svg>
