<svg width="18" height="10" viewBox="0 0 18 10" fill="none" xmlns="http://www.w3.org/2000/svg">
<path d="M18 0H0V10H18V0Z" fill="#009B3A"/>
<path d="M2.81564 5L9.05028 9L15.2849 5L9.05028 1L2.81564 5Z" fill="#FEDF00"/>
<path d="M9.05029 7.60001C10.4942 7.60001 11.6648 6.43594 11.6648 5C11.6648 3.56406 10.4942 2.39999 9.05029 2.39999C7.60632 2.39999 6.43576 3.56406 6.43576 5C6.43576 6.43594 7.60632 7.60001 9.05029 7.60001Z" fill="#002776"/>
<path d="M7.0391 4.5H6.83798V4.60001" fill="white"/>
<path d="M6.73743 4.5L6.83743 4.60001Z" fill="white"/>
<path d="M6.93798 4.60001L6.83798 4.5Z" fill="white"/>
<path d="M6.83798 4.60001L6.93798 4.5Z" fill="white"/>
<path d="M6.83798 4.60001V4.5H6.93798" fill="white"/>
<path d="M7.13968 5.5V5.60001H7.23968" fill="white"/>
<path d="M7.13909 5.5V5.60001H7.03909" fill="white"/>
<path d="M7.23968 5.60001L7.13968 5.7Z" fill="white"/>
<path d="M7.03909 5.60001L7.13909 5.7Z" fill="white"/>
<path d="M8.94971 6.20001L9.04971 6.30002Z" fill="white"/>
<path d="M8.94971 6.20001H9.04971V6.30002" fill="white"/>
<path d="M9.15029 6.20001H9.05029V6.30002" fill="white"/>
<path d="M7.84357 6.39999H8.04468V6.5" fill="white"/>
<path d="M8.14524 6.39999H7.94412V6.5" fill="white"/>
<path d="M7.94412 6.5L8.04412 6.39999Z" fill="white"/>
<path d="M10.8598 5.79999V5.89998H10.7598" fill="white"/>
<path d="M10.7598 5.89999H10.8598V6" fill="white"/>
<path d="M11.0609 5.89999H10.9609V6" fill="white"/>
<path d="M10.9603 6V5.89999H10.8603" fill="white"/>
<path d="M10.8603 6L10.9603 5.89999Z" fill="white"/>
<path d="M9.95474 6.79999L9.85474 6.89998Z" fill="white"/>
<path d="M6.53632 4.2V4.3C6.83799 4.2 7.24023 4.2 7.5419 4.2C9.05028 4.2 10.5587 4.8 11.5642 5.8C11.5642 5.7 11.5642 5.70001 11.6648 5.60001C10.6592 4.70001 9.2514 4.20001 7.84358 4.10001C7.34079 4.10001 6.93855 4.1 6.53632 4.2Z" fill="white"/>
<path d="M6.83799 4.10001C6.83799 4.00001 6.83799 4 6.73743 4C6.63687 4 6.63687 4.10001 6.63687 4.10001C6.63687 4.20001 6.73743 4.2 6.73743 4.2C6.83799 4.2 6.83799 4.10001 6.83799 4.10001ZM6.73743 4V4.10001V4.2V4Z" fill="#009B3A"/>
<path d="M7.13965 4.10001C7.13965 4.00001 7.13965 4 7.13965 4H6.93854V4.3H7.0391L7.13965 4.10001Z" fill="#009B3A"/>
<path d="M7.54188 4H7.34076V4.3H7.44132H7.54188C7.54188 4.2 7.54188 4.1 7.54188 4ZM7.44132 4.2V4H7.54188C7.54188 4 7.64243 4.00001 7.64243 4.10001L7.44132 4.2Z" fill="#009B3A"/>
<path d="M7.64246 4.2H7.84357V4.10001L7.64246 4.2Z" fill="#009B3A"/>
<path d="M7.94412 4.2L8.14524 4V4.2V3.89999L7.94412 4.2L8.04468 4H7.94412V4.2Z" fill="#009B3A"/>
<path d="M10.6592 4.99998V4.79999L10.7592 4.89998L10.6592 4.99998Z" fill="#009B3A"/>
<path d="M10.7596 5C10.8596 5 10.6596 4.9 10.7596 4.8C10.8596 4.7 10.8596 4.8 10.8596 4.8H10.7596C10.6596 4.8 10.8596 4.9 10.8596 5C10.8596 5.1 10.8596 5.1 10.7596 5Z" fill="#009B3A"/>
<path d="M11.0614 5.2C11.0614 5.3 11.0614 5.3 11.0614 5.2C11.162 5.3 10.9609 5.10001 11.0614 5.10001C11.162 5.10001 11.162 5.10001 11.162 5.10001C11.162 5.10001 11.2626 5.2 11.162 5.2H11.0614C11.162 5.2 11.162 5.1 11.0614 5.2C11.0614 5.1 11.162 5.2 11.162 5.3C11.162 5.4 11.0614 5.3 11.0614 5.3C10.9609 5.3 10.9609 5.3 11.0614 5.2Z" fill="#009B3A"/>
<path d="M11.5642 5.49998C11.5642 5.39998 11.5642 5.39999 11.5642 5.29999C11.4637 5.29999 11.4637 5.29998 11.3631 5.39998C11.3631 5.49998 11.3631 5.49999 11.3631 5.59999C11.4637 5.59999 11.4637 5.49998 11.5642 5.49998ZM11.4637 5.39998C11.5642 5.49998 11.4637 5.59998 11.3631 5.49998C11.2626 5.39998 11.3631 5.29998 11.4637 5.39998Z" fill="#009B3A"/>
<path d="M9.85474 4.5C9.85474 4.4 9.85474 4.39999 9.75418 4.39999C9.65362 4.39999 9.65363 4.4 9.65363 4.5C9.65363 4.6 9.65362 4.60001 9.75418 4.60001C9.85474 4.60001 9.85474 4.5 9.85474 4.5ZM9.75418 4.39999C9.85474 4.39999 9.75418 4.6 9.75418 4.5C9.75418 4.4 9.65362 4.39999 9.75418 4.39999Z" fill="#009B3A"/>
<path d="M9.45249 4.40001C9.55305 4.30001 9.55305 4.30001 9.45249 4.40001L9.25137 4.60002V4.50002L9.45249 4.40001C9.35193 4.50001 9.35193 4.50002 9.35193 4.60002L9.45249 4.40001Z" fill="#009B3A"/>
<path d="M10.3576 4.7L10.257 4.60001L10.1564 4.8V4.7H10.3576C10.257 4.8 10.257 4.8 10.257 4.8L10.3576 4.7C10.3576 4.8 10.3576 4.8 10.3576 4.7Z" fill="#009B3A"/>
<path d="M9.15083 4.30002C9.25138 4.30002 9.25138 4.20002 9.15083 4.30002L9.05027 4.20001L8.94971 4.50002H9.05027V4.40001L9.15083 4.30002Z" fill="#009B3A"/>
<path d="M10.0559 4.60001H9.95529C9.85474 4.60001 9.95529 4.4 10.0559 4.5C10.0559 4.4 10.0559 4.39999 9.95529 4.39999C9.85474 4.39999 9.85474 4.4 9.85474 4.5V4.60001C9.95529 4.70001 9.95529 4.70001 10.0559 4.60001Z" fill="#009B3A"/>
</svg>
