<svg width="18" height="10" viewBox="0 0 18 10" fill="none" xmlns="http://www.w3.org/2000/svg">
<g clip-path="url(#clip0_2142_1601)">
<path d="M0 0H18V10H0V0Z" fill="#FFBE29"/>
<path d="M0.84 0.93335H5.52V9.06668H0.84V0.93335Z" fill="#EB7400"/>
<path d="M0.84 0.93335H3.18V9.06668H0.84V0.93335Z" fill="#00534E"/>
<path d="M6.36 0.93335H17.16V9.06668H6.36V0.93335Z" fill="#8D153A"/>
<path d="M7.53383 7.48695C7.53383 7.48695 7.43453 7.71724 7.32482 7.81105C7.16228 7.95007 6.82899 7.94002 6.68753 8.1022C6.51803 8.29345 6.70068 8.54612 6.69915 8.56805L6.68985 8.7015C6.68985 8.7015 6.80414 8.70307 6.85227 8.71162C6.92463 8.72447 6.95286 8.79154 7.08758 8.78157C7.42629 8.75652 7.41264 8.40894 7.4318 8.1119C7.44881 7.9988 7.48817 7.85132 7.51055 7.73825C7.52973 7.64129 7.53383 7.48695 7.53383 7.48695Z" fill="#FFBE29" stroke="black" stroke-width="0.03144"/>
<path d="M10.0653 8.04104L10.1336 7.99833L10.1628 8.04112C10.2016 8.09814 10.3093 8.0975 10.3807 8.03982L10.4353 7.99571L10.481 8.03982C10.5411 8.0978 10.6533 8.09787 10.725 8.04002C10.7752 7.9995 10.7822 7.99868 10.8154 8.02952C10.8352 8.04789 10.8932 8.06882 10.9443 8.07601C11.0364 8.08898 11.0378 8.08826 11.0917 8.00063C11.1368 7.92726 11.1439 7.89754 11.1331 7.82637C11.1251 7.77042 11.1194 7.71411 11.116 7.65761C11.1119 7.57498 11.1124 7.57446 11.2234 7.53254C11.2847 7.5094 11.3557 7.47836 11.3811 7.46356C11.4255 7.43777 11.5477 7.282 11.5477 7.25131C11.5477 7.24318 11.5 7.23071 11.4416 7.22361C11.2094 7.19537 11.1701 7.06021 11.321 6.80916C11.5672 6.39972 11.7157 6.00098 11.7167 5.74698C11.7172 5.63344 11.7231 5.59533 11.7366 5.62002C11.7916 5.72092 11.693 6.14399 11.5438 6.44779L11.4837 6.57013L11.541 6.55582C11.5726 6.54795 11.758 6.46314 11.9531 6.36734C12.4871 6.10514 12.6705 6.05376 13.0161 6.06954C13.3057 6.08276 13.429 6.14409 13.6334 6.37652C13.7417 6.49967 13.846 6.58778 14.0368 6.71727C14.4434 6.99318 14.4604 7.01707 14.4797 7.34155C14.4993 7.6703 14.4896 7.68814 14.2602 7.74307C14.0642 7.79002 13.9413 7.88909 13.9083 8.02675C13.8907 8.10026 13.9277 8.10238 14.0266 8.0335L14.099 7.98304L14.1312 8.0335C14.1736 8.09985 14.2636 8.10013 14.3383 8.03411L14.3948 7.98426L14.4525 8.03411C14.5422 8.11158 14.6614 8.0928 14.6951 7.9959C14.7015 7.97727 14.7188 7.98324 14.7538 8.01618C14.8193 8.0779 14.9872 8.10439 15.0053 8.05585C15.0123 8.03734 14.9991 7.99161 14.9761 7.95422C14.8784 7.79539 14.8479 7.71965 14.8466 7.63319C14.8448 7.51294 14.8779 7.45492 15.0041 7.35713C15.1573 7.23832 15.2047 7.08505 15.0881 7.08505C15.0162 7.08505 14.9436 7.01611 14.8974 6.90372C14.8033 6.67529 14.8218 6.4192 14.9629 5.99318C15.1063 5.56045 15.1222 5.48066 15.1227 5.19126C15.1232 4.95727 15.1178 4.9168 15.0687 4.78851C15.0386 4.71007 14.9777 4.59327 14.9333 4.52897L14.8525 4.41205L14.9562 4.31889C15.2729 4.03443 15.2082 3.56887 14.8269 3.38948C14.7102 3.3346 14.6811 3.32976 14.4767 3.33124C14.3541 3.33214 14.1671 3.34963 14.0612 3.37012C13.9532 3.39101 13.7704 3.40779 13.645 3.40835C13.4458 3.40922 13.412 3.4039 13.3353 3.3596C13.2552 3.3134 13.2415 3.29148 13.2258 3.18472C13.2226 3.16278 13.2085 3.14089 13.1944 3.13607C13.1672 3.12677 13.0414 3.24505 13.0229 3.29745C13.0137 3.32332 13.0062 3.32152 12.9793 3.28705C12.9615 3.26416 12.9366 3.21155 12.9239 3.17016C12.8922 3.06606 12.9312 2.988 13.0441 2.92952L13.1316 2.88414L13.08 2.8494C12.9734 2.77771 12.7922 2.82675 12.7267 2.94503C12.7081 2.97848 12.6879 3.00592 12.6817 3.00598C12.6756 3.00605 12.6403 2.97415 12.6034 2.93507C12.4658 2.78932 12.5132 2.57367 12.6972 2.50782C12.7953 2.47271 12.8822 2.49949 12.9003 2.57044C12.9278 2.67876 13.0136 2.53638 12.9982 2.4078C12.988 2.32233 12.9895 2.31936 13.0441 2.31936C13.12 2.31936 13.2815 2.42732 13.3314 2.51144C13.3894 2.60913 13.3852 2.76298 13.3214 2.87764L13.2712 2.96767L13.3368 2.95343C13.433 2.93256 13.5264 2.86782 13.5736 2.7893C13.6236 2.7063 13.629 2.54466 13.5847 2.45746C13.5417 2.37293 13.5467 2.35951 13.6102 2.38807C13.7181 2.43665 13.7758 2.49023 13.8191 2.58205C13.8581 2.66474 13.8603 2.68529 13.8392 2.77136C13.8261 2.82446 13.7972 2.89432 13.7748 2.92662C13.7399 2.9769 13.7387 2.98531 13.7665 2.98531C13.8182 2.98531 13.9262 2.93223 13.9646 2.88796C13.984 2.86559 14.0123 2.81051 14.0274 2.76556L14.055 2.68383L14.0867 2.74613C14.1314 2.83422 14.2185 2.9135 14.3247 2.96283C14.4388 3.01588 14.4863 3.01888 14.4266 2.96924C14.3864 2.93578 14.3122 2.6998 14.3347 2.67672C14.3479 2.66315 14.5029 2.79244 14.6799 2.96466C14.8473 3.12759 14.9525 3.18096 15.1062 3.18096C15.3027 3.18096 15.417 2.9956 15.3287 2.82034C15.2773 2.71814 15.1626 2.70396 15.0956 2.79147C15.0647 2.83171 15.0563 2.86373 15.0653 2.90593C15.0764 2.95764 15.0721 2.96453 15.0286 2.96453C14.9715 2.96453 14.859 2.88535 14.6591 2.70453C14.3543 2.42881 13.984 2.19511 13.7166 2.10975C13.545 2.05497 13.1784 2.03359 13.0039 2.06819C12.8151 2.10564 12.5918 2.22278 12.4701 2.34817C12.2545 2.57037 12.2511 2.86605 12.461 3.13531L12.5212 3.21244L12.4804 3.28098C12.4212 3.38069 12.4263 3.5149 12.493 3.61375C12.5224 3.65729 12.552 3.6929 12.5589 3.69286C12.5657 3.69283 12.5732 3.66485 12.5755 3.63067C12.5814 3.54417 12.6157 3.48624 12.6744 3.4633C12.7274 3.44263 12.7616 3.45239 13.004 3.55728C13.2589 3.66759 13.6782 3.67518 14.1241 3.57754C14.3427 3.52967 14.6004 3.53248 14.7138 3.58399C14.9217 3.67839 14.9699 3.92399 14.8171 4.11042C14.7509 4.19112 14.6871 4.22399 14.473 4.28772C14.31 4.33621 14.2714 4.33942 13.901 4.33542C13.5845 4.33199 13.4707 4.33857 13.3416 4.36783C13.2013 4.39958 13.115 4.40277 12.7031 4.39152L12.2267 4.3785L12.2796 4.42592C12.3086 4.452 12.3497 4.48409 12.3708 4.49722C12.4067 4.51957 12.4055 4.52257 12.3521 4.54404C12.3207 4.55665 12.2511 4.56698 12.1973 4.56698H12.0996L12.0864 4.65703C12.0792 4.70654 12.0798 4.76436 12.0877 4.7855C12.0993 4.81669 12.095 4.82117 12.0646 4.80923C12.0441 4.80113 11.9869 4.7852 11.9374 4.77383C11.888 4.76246 11.8215 4.73931 11.7897 4.72237C11.736 4.69392 11.7301 4.69468 11.7103 4.73256C11.6927 4.76638 11.5272 4.89995 11.5029 4.89995C11.499 4.89995 11.4939 4.87419 11.4916 4.84271C11.4894 4.81123 11.4655 4.72928 11.4386 4.66061C11.4116 4.59193 11.3835 4.51701 11.3761 4.49412C11.3649 4.45958 11.3598 4.45782 11.3463 4.48371C11.3373 4.50089 11.3242 4.54771 11.3172 4.58777C11.3101 4.62784 11.2852 4.69292 11.2617 4.73239L11.2191 4.80417L11.1919 4.74279C11.1627 4.6769 11.1142 4.60858 11.0967 4.60858C11.0908 4.60858 11.0807 4.62965 11.0743 4.6554C11.0609 4.70917 10.946 4.8583 10.9179 4.8583C10.9076 4.8583 10.8991 4.81617 10.8991 4.76465C10.8991 4.71313 10.89 4.67099 10.8788 4.67099C10.8677 4.67099 10.8586 4.68431 10.8586 4.7006C10.8586 4.74021 10.7604 4.85828 10.7275 4.85828C10.7131 4.85828 10.69 4.87234 10.6761 4.88949C10.64 4.93426 10.6104 4.92798 10.6256 4.87877C10.6327 4.85569 10.6281 4.80184 10.6153 4.7591L10.585 4.65801C10.5802 4.64182 10.545 4.64611 10.4706 4.67199C10.3503 4.71381 10.3099 4.70641 10.3718 4.65387C10.3944 4.63466 10.4288 4.56816 10.4482 4.50605C10.4677 4.44394 10.4963 4.38885 10.512 4.38361C10.5338 4.37626 10.5326 4.38534 10.5069 4.4231C10.4885 4.45006 10.4734 4.48643 10.4733 4.50391C10.4732 4.52139 10.4594 4.56284 10.4425 4.59602C10.4257 4.6292 10.4151 4.65962 10.419 4.66364C10.4229 4.66766 10.4687 4.64879 10.5207 4.62176L10.6153 4.57258L10.6157 4.61657C10.6159 4.64077 10.6273 4.70461 10.641 4.75842L10.666 4.85628L10.7304 4.82419C10.7962 4.79139 10.8585 4.67449 10.8585 4.58383C10.8585 4.53902 10.8822 4.54591 10.8919 4.59352C10.8948 4.60751 10.9096 4.65996 10.9249 4.71009L10.9528 4.80125L10.9969 4.74369C11.0211 4.71204 11.0515 4.64995 11.0644 4.60571C11.0869 4.52892 11.122 4.4959 11.122 4.55166C11.122 4.59184 11.2232 4.73597 11.2427 4.72358C11.2521 4.71759 11.2709 4.66351 11.2844 4.60338C11.3126 4.47834 11.3579 4.3933 11.3868 4.41159C11.3976 4.41847 11.4018 4.43182 11.3961 4.44126C11.3905 4.45069 11.4137 4.53199 11.4479 4.62192L11.5241 4.82311C11.5366 4.85642 11.5479 4.85158 11.6211 4.78148C11.6667 4.73785 11.708 4.68901 11.713 4.67296C11.7205 4.64868 11.7307 4.64956 11.7733 4.67824C11.8329 4.71832 12.0332 4.78291 12.0487 4.76702C12.0545 4.76107 12.0604 4.70403 12.0619 4.64028L12.0645 4.52434L12.1221 4.53729C12.1538 4.54441 12.2204 4.54397 12.2702 4.5363L12.3606 4.52237L12.28 4.46242C12.2357 4.42945 12.1909 4.38678 12.1804 4.36761C12.1693 4.34718 12.1298 4.32983 12.0851 4.32571C11.9644 4.31458 11.7503 4.18446 11.7503 4.12214C11.7503 4.11045 11.78 4.13034 11.8162 4.16633C11.8966 4.24621 12.0083 4.29634 12.1058 4.29634H12.1788L12.1336 4.23124C12.1077 4.19386 12.0844 4.12292 12.079 4.06456C12.0703 3.97155 12.0612 3.95677 11.9716 3.88925C11.9178 3.84869 11.8512 3.78791 11.8235 3.75417L11.7732 3.69283L11.7476 3.76566C11.7335 3.80573 11.7162 3.8385 11.7093 3.8385C11.7023 3.8385 11.6752 3.81508 11.649 3.78647C11.6228 3.75786 11.5961 3.73454 11.5897 3.73468C11.5833 3.73481 11.5601 3.77335 11.5382 3.82032L11.4983 3.90573L11.4675 3.8565C11.4505 3.82942 11.4105 3.78151 11.3785 3.75003C11.3466 3.71855 11.3297 3.69279 11.3412 3.69279C11.3526 3.69279 11.392 3.72558 11.4289 3.76566L11.4958 3.83853L11.523 3.78514C11.5392 3.75346 11.5453 3.70479 11.538 3.66546C11.5273 3.6081 11.5288 3.60477 11.5491 3.64077C11.562 3.66366 11.6011 3.70754 11.6361 3.73829L11.6997 3.7942L11.7436 3.70708C11.7872 3.62039 11.7875 3.62022 11.8074 3.67199C11.834 3.74124 12.0262 3.91209 12.1899 4.01193C12.2151 4.02732 12.2045 3.97441 12.1579 3.85273C12.1456 3.82051 12.1355 3.76242 12.1355 3.72365C12.1355 3.66612 12.1202 3.64051 12.0523 3.58453C11.9543 3.5037 11.9226 3.44623 11.9042 3.31581C11.8967 3.26299 11.8795 3.20424 11.8661 3.18527C11.8461 3.1571 11.8428 3.17286 11.8481 3.27091C11.8517 3.33699 11.8438 3.41916 11.8305 3.45349L11.8063 3.51592L11.7876 3.46389C11.7773 3.43528 11.7319 3.38551 11.6866 3.3533C11.6414 3.32109 11.6096 3.28934 11.616 3.28272C11.6224 3.27611 11.669 3.30546 11.7195 3.34795C11.7964 3.41268 11.8134 3.41969 11.824 3.39118C11.8366 3.35768 11.824 3.21194 11.7998 3.11011C11.7878 3.05925 11.7888 3.05952 11.8467 3.12226C11.8894 3.16852 11.913 3.2237 11.9313 3.31996C11.9545 3.44226 11.9662 3.46262 12.0705 3.56191C12.1331 3.62154 12.1876 3.66697 12.1916 3.66288C12.1956 3.65879 12.2035 3.50453 12.2092 3.32011C12.2201 2.96644 12.2078 2.88229 12.1292 2.77302L12.0888 2.71687L12.1523 2.64266C12.2351 2.54587 12.2731 2.46827 12.2896 2.36241L12.303 2.27629L12.2314 2.34982C12.1727 2.41003 12.1447 2.42335 12.0768 2.42335C12.0096 2.42335 11.9833 2.41113 11.938 2.35878C11.8836 2.29596 11.7872 2.23553 11.6946 2.2061C11.6604 2.19524 11.649 2.19998 11.649 2.22508C11.649 2.24347 11.6301 2.29657 11.607 2.34308L11.565 2.42764L11.4769 2.33331C11.4229 2.27544 11.3588 2.2304 11.3112 2.21683C11.1894 2.18211 11.1828 2.18555 11.1828 2.28393C11.1828 2.43314 11.124 2.46094 11.0183 2.36177C10.9376 2.28617 10.8708 2.26972 10.7179 2.28793L10.5998 2.302L10.621 2.35978C10.6388 2.40806 10.6348 2.42837 10.5967 2.4832C10.5351 2.57212 10.4549 2.61064 10.3315 2.61064C10.2746 2.61064 10.2035 2.6234 10.1734 2.63898C10.1433 2.65456 10.0685 2.67253 10.0071 2.67889C9.94583 2.68526 9.88048 2.69661 9.86191 2.70413C9.83288 2.71589 9.82968 2.7062 9.83905 2.63459C9.85337 2.525 9.78276 2.44415 9.6727 2.44415C9.52991 2.44415 9.46406 2.58261 9.51997 2.76525C9.5321 2.80578 9.54254 2.84689 9.55126 2.88843C9.55795 2.92226 9.62227 3.01201 9.70105 3.09747C9.77698 3.17984 9.84873 3.26553 9.86052 3.28792C9.87231 3.3103 9.91125 3.34622 9.94707 3.36774L10.0122 3.40687L10.0036 3.33132C9.99417 3.24829 10.0109 3.23528 10.0516 3.29386C10.0662 3.3148 10.1032 3.34865 10.1338 3.36908C10.1821 3.40127 10.1896 3.40192 10.1896 3.37397C10.1896 3.35624 10.1994 3.31536 10.2114 3.28313L10.2333 3.22455L10.2713 3.30426C10.2922 3.34809 10.3601 3.44774 10.4222 3.52568C10.5427 3.67691 10.6161 3.84591 10.5782 3.88481C10.5628 3.90059 10.5213 3.89937 10.4352 3.8806C10.3684 3.86605 10.2858 3.85837 10.2517 3.86351C10.1819 3.87403 10.1764 3.86426 10.2193 3.80602C10.2646 3.74453 10.2574 3.7344 10.1684 3.7344C10.0655 3.7344 9.80996 3.68092 9.71186 3.63883C9.61649 3.59792 9.59448 3.6081 9.5664 3.70618L9.515 3.88392L9.48655 3.9814L9.58975 3.97062C9.64651 3.9647 9.71952 3.95122 9.75198 3.94069C9.78445 3.93015 9.81395 3.92455 9.81755 3.92823C9.82115 3.93191 9.80667 3.97001 9.7854 4.01288L9.74671 4.0908L9.81104 4.07658C9.84643 4.06876 9.89967 4.04961 9.92935 4.03405C9.981 4.00697 9.98515 4.00894 10.0259 4.07982C10.076 4.16701 10.1161 4.16343 10.125 4.07096C10.1342 3.97539 10.1632 3.98953 10.2177 4.11619C10.2702 4.23798 10.3248 4.28098 10.3353 4.20879C10.3387 4.18481 10.367 4.1458 10.3981 4.12207C10.4609 4.07408 10.5082 4.08849 10.5354 4.16382C10.5635 4.2418 10.5008 4.32218 10.3185 4.44197C9.95339 4.68192 9.74115 5.01009 9.68056 5.42838C9.62591 5.80566 9.79659 6.19552 10.139 6.47554C10.3029 6.60955 10.5632 6.75097 10.5467 6.69701C10.4764 6.46784 10.4788 6.03055 10.5506 5.95678C10.5614 5.94571 10.5577 5.99133 10.5424 6.05817C10.4853 6.30715 10.5101 6.50554 10.6563 6.97051C10.7886 7.39105 10.7703 7.57078 10.5831 7.68958C10.523 7.72773 10.4842 7.73402 10.3226 7.7319C10.1472 7.72959 10.128 7.73341 10.0717 7.78206C10.0171 7.82924 9.94633 7.9841 9.94633 8.05638C9.94633 8.09553 9.98643 8.09035 10.0652 8.04102L10.0653 8.04104ZM12.9128 8.03255L12.9864 7.98129L13.0363 8.03255C13.1017 8.09972 13.1784 8.09823 13.2413 8.02853C13.2687 7.99812 13.2933 7.97705 13.296 7.98171C13.3052 7.99834 13.3143 8.01504 13.3232 8.03181C13.3388 8.06079 13.3708 8.07535 13.4285 8.07976C13.498 8.08507 13.5166 8.07779 13.5443 8.0345L13.5772 7.9829L13.6496 8.03337C13.848 8.17155 13.9536 8.02658 13.865 7.73791C13.8199 7.59114 13.8447 7.50862 13.99 7.3218C14.0512 7.24302 14.1014 7.15894 14.1014 7.13495C14.1014 7.0967 14.0901 7.09157 14.0086 7.09332C13.9306 7.095 13.9078 7.08592 13.8667 7.03693C13.7999 6.95722 13.8039 6.86596 13.8785 6.76467L13.9382 6.68376L13.8324 6.60592C13.7742 6.5631 13.6692 6.46181 13.5991 6.38082C13.4418 6.19892 13.287 6.11266 13.083 6.0931L12.9462 6.07998L12.9464 6.19225C12.9466 6.33678 13.0092 6.47581 13.18 6.71132C13.3742 6.97908 13.3877 7.02054 13.3956 7.37052L13.4022 7.6665L13.3461 7.7243C13.2953 7.77652 13.2724 7.78318 13.1085 7.79343C12.9526 7.80319 12.9198 7.81191 12.874 7.85587C12.8132 7.91424 12.7951 7.94601 12.7763 8.02663C12.7654 8.07362 12.7698 8.08387 12.8011 8.08387C12.822 8.08387 12.8723 8.06079 12.9127 8.0326L12.9128 8.03255ZM8.77075 7.17628C8.77075 7.13887 8.78617 7.12887 8.86203 7.11719L8.9533 7.10314L8.89243 7.05056C8.82011 6.98807 8.81341 6.93927 8.87716 6.93915C8.94065 6.93915 9.04817 6.86767 9.06452 6.8148C9.07211 6.79022 9.06733 6.75739 9.05372 6.74052C9.01812 6.69648 8.9512 6.70314 8.93877 6.75192C8.92542 6.80438 8.90305 6.80451 8.85234 6.75245C8.77606 6.67414 8.77434 6.51201 8.8488 6.41761C8.8839 6.37311 8.88358 6.37019 8.83885 6.32427C8.79073 6.27486 8.75635 6.17706 8.77896 6.15385C8.78616 6.14647 8.82418 6.15235 8.86345 6.16693C8.91927 6.18765 8.9413 6.18797 8.96429 6.16837C9.03395 6.10903 8.95848 6.03272 8.84678 6.04955C8.80183 6.05632 8.78326 6.04955 8.7768 6.02427C8.77191 6.00509 8.73259 5.98006 8.68829 5.96793C8.60914 5.94624 8.60857 5.9465 8.60857 6.00562C8.60857 6.07041 8.57447 6.08263 8.50963 6.04107C8.45696 6.0073 8.40587 6.03352 8.40587 6.09432C8.40587 6.15105 8.45849 6.17903 8.55282 6.17245C8.62517 6.16739 8.62786 6.22571 8.55914 6.30956L8.50972 6.36985L8.54887 6.43082C8.60685 6.52112 8.60197 6.67108 8.53864 6.74556L8.48898 6.80395L8.45641 6.75713C8.41114 6.69206 8.34922 6.69642 8.33225 6.76587C8.32114 6.81135 8.33032 6.83214 8.38286 6.88033C8.41815 6.91273 8.4697 6.93922 8.4974 6.93922C8.56593 6.93922 8.56326 6.99764 8.49202 7.05668L8.43628 7.10287L8.52242 7.11736C8.5698 7.12534 8.60856 7.14032 8.60856 7.15068C8.60856 7.19037 8.63088 7.31082 8.68745 7.31384C8.73796 7.31652 8.76953 7.23323 8.77071 7.17633L8.77075 7.17628ZM9.8609 6.74049C9.93916 6.70704 10.1085 6.55155 10.1085 6.51313C10.1085 6.50105 10.0618 6.4453 10.0047 6.38925C9.88441 6.27129 9.7536 6.07265 9.71971 5.95651C9.70203 5.89594 9.61665 5.79228 9.37611 5.53938L9.05603 5.20284L8.96379 5.22817C8.91306 5.2421 8.85115 5.25385 8.82623 5.25425C8.78328 5.25497 8.78406 5.25763 8.84116 5.30555L8.90141 5.35611L8.98587 5.30528C9.06774 5.25602 9.07067 5.25571 9.08076 5.29535C9.08668 5.31857 9.07392 5.35879 9.05129 5.38833C9.02934 5.41698 9.01685 5.44945 9.0235 5.46054C9.03016 5.47162 9.00909 5.49475 8.97665 5.51197C8.91655 5.54387 8.87483 5.64893 8.92226 5.64893C8.96493 5.64893 9.05902 5.52307 9.04819 5.48049C9.04263 5.45869 9.04532 5.43627 9.05415 5.43067C9.0908 5.40742 9.08851 5.50624 9.05127 5.55484C9.02933 5.58348 9.01684 5.61596 9.02349 5.62704C9.03014 5.63812 9.00907 5.66125 8.97664 5.67848C8.91692 5.71018 8.87479 5.81544 8.92181 5.81544C8.96789 5.81544 9.06045 5.69518 9.04897 5.65017C9.04298 5.62664 9.04529 5.60278 9.05414 5.59718C9.07882 5.58151 9.09214 5.65952 9.07129 5.69774C9.06013 5.71822 9.06023 5.74617 9.07156 5.76833C9.09206 5.80848 9.07128 5.88561 9.03349 5.90957C9.01731 5.91984 9.02826 5.94001 9.06754 5.97215C9.12437 6.01868 9.12547 6.02357 9.12547 6.2289C9.12547 6.4005 9.13186 6.44479 9.16094 6.47466C9.19358 6.50817 9.19641 6.50831 9.19641 6.47615C9.19641 6.44104 9.25326 6.39812 9.29977 6.39812C9.31348 6.39812 9.39919 6.47686 9.49022 6.57312C9.5818 6.66994 9.67763 6.75233 9.70477 6.75757L9.76967 6.7699C9.77839 6.77146 9.81943 6.75824 9.86088 6.74052L9.8609 6.74049ZM8.88227 5.91033C8.88227 5.85501 8.77702 5.79597 8.65112 5.78065C8.54948 5.7683 8.54781 5.76899 8.54781 5.82404C8.54781 5.86961 8.56379 5.88753 8.63395 5.92065C8.74668 5.97387 8.88225 5.96823 8.88225 5.91033H8.88227ZM8.99763 5.90524C9.04897 5.85474 9.0733 5.79467 9.04241 5.79467C9.0069 5.79467 8.9126 5.88639 8.9126 5.92096C8.9126 5.9749 8.93012 5.97166 8.99763 5.90524ZM8.88822 5.74165C8.89257 5.71045 8.87475 5.68961 8.82138 5.66348C8.70623 5.6071 8.56858 5.58099 8.53543 5.60924C8.47436 5.66127 8.51505 5.73113 8.61374 5.74369C8.65347 5.74875 8.70734 5.76188 8.73345 5.77288C8.80931 5.80482 8.88144 5.79026 8.88822 5.74164V5.74165ZM8.88822 5.5745C8.89441 5.52998 8.86815 5.51404 8.65376 5.43225C8.49371 5.37117 8.42285 5.39997 8.474 5.50532C8.49182 5.54201 8.52173 5.55877 8.5888 5.56967C8.63869 5.57776 8.70687 5.59359 8.74031 5.60486C8.82966 5.63493 8.88128 5.62434 8.88822 5.57452V5.5745ZM8.9956 5.41787C9.02795 5.38232 9.0544 5.34037 9.0544 5.32464C9.0544 5.27363 8.92666 5.36388 8.91036 5.42639C8.89083 5.50138 8.9225 5.49821 8.9956 5.41787ZM8.88822 5.40735C8.89528 5.35663 8.81746 5.31083 8.66447 5.27564C8.55222 5.24981 8.50271 5.26445 8.51112 5.32101C8.5157 5.35188 8.55308 5.37443 8.65915 5.41032C8.82887 5.46775 8.87992 5.46709 8.88822 5.40737V5.40735ZM9.03786 5.17131C9.23391 5.0767 9.25087 4.83811 9.066 4.77547C8.98924 4.74946 8.94025 4.76348 8.91087 4.81985C8.88837 4.863 8.90341 4.94149 8.93419 4.94149C8.94458 4.94149 8.9531 4.95601 8.9531 4.97376C8.9531 5.05661 8.65376 5.09415 8.53101 5.02669C8.48789 5.003 8.4691 4.94149 8.505 4.94149C8.53181 4.94149 8.55036 4.87882 8.53666 4.83448C8.51799 4.77408 8.46184 4.75316 8.3804 4.77624C8.19663 4.82833 8.2018 5.06243 8.3889 5.16177C8.54231 5.24322 8.87864 5.24818 9.03787 5.17132L9.03786 5.17131ZM8.91592 4.98786C8.92727 4.97621 8.92234 4.95829 8.90331 4.94208C8.86162 4.90656 8.86384 4.85374 8.90957 4.79327C8.94389 4.74786 8.94818 4.67992 8.96 3.99445C8.98037 2.81317 9.06139 1.92466 9.16819 1.71152C9.2107 1.62666 9.20474 1.62632 9.09487 1.70737C8.95333 1.81176 8.84558 1.94771 8.75009 2.14231C8.56983 2.50972 8.50719 3.00403 8.50719 4.0592C8.50719 4.65831 8.51096 4.7367 8.54242 4.79302C8.57232 4.84651 8.57392 4.86628 8.55291 4.9234C8.53929 4.96042 8.53313 4.99582 8.53918 5.00205C8.57943 5.04337 8.87262 5.03241 8.91591 4.98797L8.91592 4.98786ZM10.5631 3.86142C10.5692 3.85122 10.5557 3.79972 10.5329 3.74696C10.4975 3.66471 10.4832 3.65105 10.4328 3.65105C10.2746 3.65105 10.0204 3.57445 9.75839 3.44782C9.60705 3.3747 9.55479 3.3579 9.53664 3.37653C9.49034 3.42406 9.56729 3.53691 9.68647 3.59622C9.7922 3.64884 10.0877 3.7135 10.2226 3.7135C10.3008 3.7135 10.3026 3.71732 10.2581 3.78706L10.2254 3.83836L10.3138 3.84082C10.3625 3.84218 10.4297 3.85043 10.4631 3.85916C10.55 3.88185 10.5508 3.88187 10.5631 3.86142H10.5631Z" fill="#FFBE29" stroke="black" stroke-width="0.085967"/>
<path d="M11.4868 4.39385C11.4868 4.36333 11.4041 4.28058 11.3203 4.22726C11.2544 4.1854 11.2436 4.18413 11.2434 4.21827C11.2432 4.27011 11.2007 4.40037 11.184 4.40037C11.1745 4.40037 11.1606 4.37492 11.153 4.34381C11.1454 4.31271 11.1135 4.25139 11.0821 4.20756L11.0251 4.12787L10.9806 4.20171C10.9392 4.27054 10.8674 4.33794 10.8356 4.33794C10.828 4.33794 10.8265 4.30169 10.8323 4.25738C10.8386 4.20926 10.8337 4.17108 10.8202 4.16251C10.8078 4.15463 10.7976 4.15738 10.7976 4.16862C10.7976 4.19455 10.698 4.31712 10.6769 4.31712C10.6682 4.31712 10.656 4.28199 10.6498 4.23907L10.6265 4.0882C10.6199 4.04813 10.634 4.0753 10.658 4.14857L10.7017 4.28179L10.7496 4.2006C10.7759 4.15596 10.7975 4.10717 10.7975 4.09218C10.7976 4.0772 10.8065 4.07057 10.8173 4.07744C10.8281 4.08431 10.8432 4.13799 10.8508 4.1967L10.8646 4.30347L10.9172 4.24087C10.9462 4.20644 10.9802 4.16035 10.9927 4.13844C11.015 4.09935 11.0163 4.09938 11.0607 4.14024C11.0856 4.16313 11.1239 4.2179 11.1458 4.26192C11.1676 4.30593 11.1885 4.33872 11.1921 4.33475C11.1956 4.33078 11.2037 4.28538 11.2099 4.23388L11.2222 4.13598C11.2253 4.12322 11.3809 4.23283 11.4384 4.28834C11.4754 4.32401 11.5106 4.34821 11.5165 4.3421C11.5225 4.33599 11.5273 4.28336 11.5273 4.22514C11.5273 4.13491 11.5185 4.11073 11.4676 4.0614C11.4091 4.00469 11.4074 4.00437 11.3858 4.04586C11.3577 4.0997 11.3246 4.10048 11.3246 4.0473C11.3246 4.00849 11.214 3.85928 11.1853 3.85928C11.1778 3.85928 11.1545 3.89205 11.1335 3.93211C11.1125 3.97218 11.0899 4.00491 11.0833 4.00486C11.0549 4.00467 10.899 3.81621 10.8991 3.78218C10.8991 3.75512 10.9096 3.76204 10.9369 3.80723C10.9577 3.84158 10.9992 3.89283 11.0291 3.92115C11.0897 3.97849 11.1118 3.96454 11.1352 3.85405C11.1418 3.82257 11.1534 3.79681 11.1609 3.79681C11.1868 3.79681 11.3225 3.9531 11.3416 4.00493L11.3608 4.05696L11.3753 3.99972C11.3931 3.92973 11.4126 3.92714 11.441 3.991C11.4528 4.01767 11.5113 4.07313 11.5709 4.11425L11.6793 4.189L11.7011 4.11382C11.7131 4.07247 11.7289 4.04871 11.7363 4.06101C11.7474 4.07937 11.7192 4.20395 11.6979 4.23074C11.6947 4.23476 11.6596 4.21257 11.6199 4.18145L11.5476 4.12485L11.5473 4.22618C11.5471 4.28191 11.5416 4.34858 11.5348 4.37432C11.5217 4.42467 11.4868 4.43884 11.4868 4.39382V4.39385ZM10.9463 3.5861C10.8174 3.46947 10.7979 3.44279 10.8007 3.38752L10.8038 3.32869L10.8122 3.38552C10.8171 3.41869 10.8514 3.46842 10.8946 3.50502L10.9687 3.56771L11.0142 3.51064C11.0393 3.47924 11.0601 3.44186 11.0605 3.42755C11.0615 3.39025 11.0677 3.39338 11.1549 3.47544C11.2325 3.54834 11.2337 3.5487 11.2452 3.50146C11.2516 3.47512 11.2493 3.42553 11.2401 3.39127C11.2148 3.29709 11.2197 3.28289 11.2581 3.33968C11.2772 3.36799 11.308 3.40799 11.3264 3.42859C11.3586 3.46444 11.3605 3.464 11.3725 3.41819C11.3793 3.39187 11.3851 3.34369 11.3852 3.31112L11.3855 3.25193L11.4554 3.33782C11.5207 3.41803 11.5267 3.421 11.5466 3.38277C11.5583 3.36027 11.5681 3.30612 11.5682 3.26244C11.5685 3.20601 11.5739 3.19178 11.5872 3.21326C11.6093 3.24913 11.5939 3.34681 11.5531 3.43005L11.5238 3.48978L11.4854 3.42485C11.4362 3.34182 11.4198 3.34316 11.3883 3.43276C11.3584 3.51744 11.339 3.52389 11.31 3.45878C11.2912 3.41664 11.2876 3.4218 11.2743 3.51031L11.2594 3.60869L11.1705 3.5339L11.0816 3.45912L11.0417 3.50836C11.0197 3.53545 11.0014 3.56932 11.001 3.58362C11.0002 3.61463 10.9789 3.61559 10.9463 3.5861H10.9463ZM12.0924 3.15168C12.0455 3.10588 12.0132 3.06216 12.0206 3.05456C12.028 3.04696 12.0363 3.04477 12.0391 3.04972C12.0419 3.05468 12.0803 3.09838 12.1243 3.14684C12.2258 3.25845 12.2049 3.26161 12.0924 3.15168ZM10.5658 2.98062C10.5231 2.91809 10.526 2.87665 10.578 2.80887C10.6155 2.7599 10.6326 2.75325 10.6982 2.76228C10.7402 2.76806 10.8307 2.80833 10.8992 2.85176C10.9783 2.9019 11.0602 2.9355 11.1236 2.94385C11.1784 2.95108 11.2234 2.95381 11.2234 2.94991C11.2234 2.94601 11.2005 2.90574 11.1727 2.86041C11.1065 2.75277 11.1088 2.74122 11.1834 2.8057C11.26 2.8719 11.3517 2.89126 11.5565 2.88451L11.6566 2.88122L11.5985 2.81901C11.5174 2.732 11.5423 2.7242 11.632 2.80855C11.7161 2.88768 11.7108 2.89325 11.5338 2.91241C11.4586 2.92055 11.3778 2.91465 11.3105 2.89612C11.2099 2.86839 11.206 2.86881 11.2251 2.90536C11.2361 2.92642 11.2539 2.94366 11.2646 2.94366C11.2754 2.94366 11.2842 2.95434 11.2842 2.96739C11.2842 3.0075 11.0669 2.97222 10.9631 2.91524C10.726 2.78507 10.6961 2.7738 10.6397 2.79308C10.6083 2.8038 10.5768 2.83521 10.566 2.86669C10.5298 2.97168 10.6672 3.0533 10.7238 2.96048C10.7403 2.93358 10.7364 2.91517 10.7076 2.88244C10.668 2.8376 10.6718 2.83121 10.7251 2.85223C10.763 2.86715 10.7681 2.96574 10.7328 3.00192C10.6925 3.04331 10.6005 3.03158 10.5658 2.98062ZM11.4999 2.72133C11.4703 2.69089 11.4935 2.68342 11.6265 2.68074C11.791 2.67741 11.8909 2.6477 12.0087 2.56702C12.1032 2.50239 12.1288 2.51511 12.0391 2.58213C11.9574 2.64327 11.8298 2.69026 11.7067 2.70463C11.6471 2.71159 11.5791 2.72123 11.5557 2.72605C11.5322 2.73087 11.5072 2.72874 11.4999 2.72131V2.72133Z" fill="black" stroke="black" stroke-width="0.085967"/>
<path d="M10.0653 8.04104L10.1336 7.99833L10.1628 8.04112C10.2016 8.09814 10.3093 8.0975 10.3807 8.03982L10.4353 7.99571L10.481 8.03982C10.5411 8.0978 10.6533 8.09787 10.725 8.04002C10.7752 7.9995 10.7822 7.99868 10.8154 8.02952C10.8352 8.04789 10.8932 8.06882 10.9443 8.07601C11.0364 8.08898 11.0378 8.08826 11.0917 8.00063C11.1368 7.92726 11.1439 7.89754 11.1331 7.82637C11.1251 7.77042 11.1194 7.71411 11.116 7.65761C11.1119 7.57498 11.1124 7.57446 11.2234 7.53254C11.2847 7.5094 11.3557 7.47836 11.3811 7.46356C11.4255 7.43777 11.5477 7.282 11.5477 7.25131C11.5477 7.24318 11.5 7.23071 11.4416 7.22361C11.2094 7.19537 11.1701 7.06021 11.321 6.80916C11.5672 6.39972 11.7157 6.00098 11.7167 5.74698C11.7172 5.63344 11.7231 5.59533 11.7366 5.62002C11.7916 5.72092 11.693 6.14399 11.5438 6.44779L11.4837 6.57013L11.541 6.55582C11.5726 6.54795 11.758 6.46314 11.9531 6.36734C12.4871 6.10514 12.6705 6.05376 13.0161 6.06954C13.3057 6.08276 13.429 6.14409 13.6334 6.37652C13.7417 6.49967 13.846 6.58778 14.0368 6.71727C14.4434 6.99318 14.4604 7.01707 14.4797 7.34155C14.4993 7.6703 14.4896 7.68814 14.2602 7.74307C14.0642 7.79002 13.9413 7.88909 13.9083 8.02675C13.8907 8.10026 13.9277 8.10238 14.0266 8.0335L14.099 7.98304L14.1312 8.0335C14.1736 8.09985 14.2636 8.10013 14.3383 8.03411L14.3948 7.98426L14.4525 8.03411C14.5422 8.11158 14.6614 8.0928 14.6951 7.9959C14.7015 7.97727 14.7188 7.98324 14.7538 8.01618C14.8193 8.0779 14.9872 8.10439 15.0053 8.05585C15.0123 8.03734 14.9991 7.99161 14.9761 7.95422C14.8784 7.79539 14.8479 7.71965 14.8466 7.63319C14.8448 7.51294 14.8779 7.45492 15.0041 7.35713C15.1573 7.23832 15.2047 7.08505 15.0881 7.08505C15.0162 7.08505 14.9436 7.01611 14.8974 6.90372C14.8033 6.67529 14.8218 6.4192 14.9629 5.99318C15.1063 5.56045 15.1222 5.48066 15.1227 5.19126C15.1232 4.95727 15.1178 4.9168 15.0687 4.78851C15.0386 4.71007 14.9777 4.59327 14.9333 4.52897L14.8525 4.41205L14.9562 4.31889C15.2729 4.03443 15.2082 3.56887 14.8269 3.38948C14.7102 3.3346 14.6811 3.32976 14.4767 3.33124C14.3541 3.33214 14.1671 3.34963 14.0612 3.37012C13.9532 3.39101 13.7704 3.40779 13.645 3.40835C13.4458 3.40922 13.412 3.4039 13.3353 3.3596C13.2552 3.3134 13.2415 3.29148 13.2258 3.18472C13.2226 3.16278 13.2085 3.14089 13.1944 3.13607C13.1672 3.12677 13.0414 3.24505 13.0229 3.29745C13.0137 3.32332 13.0062 3.32152 12.9793 3.28705C12.9615 3.26416 12.9366 3.21155 12.9239 3.17016C12.8922 3.06606 12.9312 2.988 13.0441 2.92952L13.1316 2.88414L13.08 2.8494C12.9734 2.77771 12.7922 2.82675 12.7267 2.94503C12.7081 2.97848 12.6879 3.00592 12.6817 3.00598C12.6756 3.00605 12.6403 2.97415 12.6034 2.93507C12.4658 2.78932 12.5132 2.57367 12.6972 2.50782C12.7953 2.47271 12.8822 2.49949 12.9003 2.57044C12.9278 2.67876 13.0136 2.53638 12.9982 2.4078C12.988 2.32233 12.9895 2.31936 13.0441 2.31936C13.12 2.31936 13.2815 2.42732 13.3314 2.51144C13.3894 2.60913 13.3852 2.76298 13.3214 2.87764L13.2712 2.96767L13.3368 2.95343C13.433 2.93256 13.5264 2.86782 13.5736 2.7893C13.6236 2.7063 13.629 2.54466 13.5847 2.45746C13.5417 2.37293 13.5467 2.35951 13.6102 2.38807C13.7181 2.43665 13.7758 2.49023 13.8191 2.58205C13.8581 2.66474 13.8603 2.68529 13.8392 2.77136C13.8261 2.82446 13.7972 2.89432 13.7748 2.92662C13.7399 2.9769 13.7387 2.98531 13.7665 2.98531C13.8182 2.98531 13.9262 2.93223 13.9646 2.88796C13.984 2.86559 14.0123 2.81051 14.0274 2.76556L14.055 2.68383L14.0867 2.74613C14.1314 2.83422 14.2185 2.9135 14.3247 2.96283C14.4388 3.01588 14.4863 3.01888 14.4266 2.96924C14.3864 2.93578 14.3122 2.6998 14.3347 2.67672C14.3479 2.66315 14.5029 2.79244 14.6799 2.96466C14.8473 3.12759 14.9525 3.18096 15.1062 3.18096C15.3027 3.18096 15.417 2.9956 15.3287 2.82034C15.2773 2.71814 15.1626 2.70396 15.0956 2.79147C15.0647 2.83171 15.0563 2.86373 15.0653 2.90593C15.0764 2.95764 15.0721 2.96453 15.0286 2.96453C14.9715 2.96453 14.859 2.88535 14.6591 2.70453C14.3543 2.42881 13.984 2.19511 13.7166 2.10975C13.545 2.05497 13.1784 2.03359 13.0039 2.06819C12.8151 2.10564 12.5918 2.22278 12.4701 2.34817C12.2545 2.57037 12.2511 2.86605 12.461 3.13531L12.5212 3.21244L12.4804 3.28098C12.4212 3.38069 12.4263 3.5149 12.493 3.61375C12.5224 3.65729 12.552 3.6929 12.5589 3.69286C12.5657 3.69283 12.5732 3.66485 12.5755 3.63067C12.5814 3.54417 12.6157 3.48624 12.6744 3.4633C12.7274 3.44263 12.7616 3.45239 13.004 3.55728C13.2589 3.66759 13.6782 3.67518 14.1241 3.57754C14.3427 3.52967 14.6004 3.53248 14.7138 3.58399C14.9217 3.67839 14.9699 3.92399 14.8171 4.11042C14.7509 4.19112 14.6871 4.22399 14.473 4.28772C14.31 4.33621 14.2714 4.33942 13.901 4.33542C13.5845 4.33199 13.4707 4.33857 13.3416 4.36783C13.2013 4.39958 13.115 4.40277 12.7031 4.39152L12.2267 4.3785L12.2796 4.42592C12.3086 4.452 12.3497 4.48409 12.3708 4.49722C12.4067 4.51957 12.4055 4.52257 12.3521 4.54404C12.3207 4.55665 12.2511 4.56698 12.1973 4.56698H12.0996L12.0864 4.65703C12.0792 4.70654 12.0798 4.76436 12.0877 4.7855C12.0993 4.81669 12.095 4.82117 12.0646 4.80923C12.0441 4.80113 11.9869 4.7852 11.9374 4.77383C11.888 4.76246 11.8215 4.73931 11.7897 4.72237C11.736 4.69392 11.7301 4.69468 11.7103 4.73256C11.6927 4.76638 11.5272 4.89995 11.5029 4.89995C11.499 4.89995 11.4939 4.87419 11.4916 4.84271C11.4894 4.81123 11.4655 4.72928 11.4386 4.66061C11.4116 4.59193 11.3835 4.51701 11.3761 4.49412C11.3649 4.45958 11.3598 4.45782 11.3463 4.48371C11.3373 4.50089 11.3242 4.54771 11.3172 4.58777C11.3101 4.62784 11.2852 4.69292 11.2617 4.73239L11.2191 4.80417L11.1919 4.74279C11.1627 4.6769 11.1142 4.60858 11.0967 4.60858C11.0908 4.60858 11.0807 4.62965 11.0743 4.6554C11.0609 4.70917 10.946 4.8583 10.9179 4.8583C10.9076 4.8583 10.8991 4.81617 10.8991 4.76465C10.8991 4.71313 10.89 4.67099 10.8788 4.67099C10.8677 4.67099 10.8586 4.68431 10.8586 4.7006C10.8586 4.74021 10.7604 4.85828 10.7275 4.85828C10.7131 4.85828 10.69 4.87234 10.6761 4.88949C10.64 4.93426 10.6104 4.92798 10.6256 4.87877C10.6327 4.85569 10.6281 4.80184 10.6153 4.7591L10.585 4.65801C10.5802 4.64182 10.545 4.64611 10.4706 4.67199C10.3503 4.71381 10.3099 4.70641 10.3718 4.65387C10.3944 4.63466 10.4288 4.56816 10.4482 4.50605C10.4677 4.44394 10.4963 4.38885 10.512 4.38361C10.5338 4.37626 10.5326 4.38534 10.5069 4.4231C10.4885 4.45006 10.4734 4.48643 10.4733 4.50391C10.4732 4.52139 10.4594 4.56284 10.4425 4.59602C10.4257 4.6292 10.4151 4.65962 10.419 4.66364C10.4229 4.66766 10.4687 4.64879 10.5207 4.62176L10.6153 4.57258L10.6157 4.61657C10.6159 4.64077 10.6273 4.70461 10.641 4.75842L10.666 4.85628L10.7304 4.82419C10.7962 4.79139 10.8585 4.67449 10.8585 4.58383C10.8585 4.53902 10.8822 4.54591 10.8919 4.59352C10.8948 4.60751 10.9096 4.65996 10.9249 4.71009L10.9528 4.80125L10.9969 4.74369C11.0211 4.71204 11.0515 4.64995 11.0644 4.60571C11.0869 4.52892 11.122 4.4959 11.122 4.55166C11.122 4.59184 11.2232 4.73597 11.2427 4.72358C11.2521 4.71759 11.2709 4.66351 11.2844 4.60338C11.3126 4.47834 11.3579 4.3933 11.3868 4.41159C11.3976 4.41847 11.4018 4.43182 11.3961 4.44126C11.3905 4.45069 11.4137 4.53199 11.4479 4.62192L11.5241 4.82311C11.5366 4.85642 11.5479 4.85158 11.6211 4.78148C11.6667 4.73785 11.708 4.68901 11.713 4.67296C11.7205 4.64868 11.7307 4.64956 11.7733 4.67824C11.8329 4.71832 12.0332 4.78291 12.0487 4.76702C12.0545 4.76107 12.0604 4.70403 12.0619 4.64028L12.0645 4.52434L12.1221 4.53729C12.1538 4.54441 12.2204 4.54397 12.2702 4.5363L12.3606 4.52237L12.28 4.46242C12.2357 4.42945 12.1909 4.38678 12.1804 4.36761C12.1693 4.34718 12.1298 4.32983 12.0851 4.32571C11.9644 4.31458 11.7503 4.18446 11.7503 4.12214C11.7503 4.11045 11.78 4.13034 11.8162 4.16633C11.8966 4.24621 12.0083 4.29634 12.1058 4.29634H12.1788L12.1336 4.23124C12.1077 4.19386 12.0844 4.12292 12.079 4.06456C12.0703 3.97155 12.0612 3.95677 11.9716 3.88925C11.9178 3.84869 11.8512 3.78791 11.8235 3.75417L11.7732 3.69283L11.7476 3.76566C11.7335 3.80573 11.7162 3.8385 11.7093 3.8385C11.7023 3.8385 11.6752 3.81508 11.649 3.78647C11.6228 3.75786 11.5961 3.73454 11.5897 3.73468C11.5833 3.73481 11.5601 3.77335 11.5382 3.82032L11.4983 3.90573L11.4675 3.8565C11.4505 3.82942 11.4105 3.78151 11.3785 3.75003C11.3466 3.71855 11.3297 3.69279 11.3412 3.69279C11.3526 3.69279 11.392 3.72558 11.4289 3.76566L11.4958 3.83853L11.523 3.78514C11.5392 3.75346 11.5453 3.70479 11.538 3.66546C11.5273 3.6081 11.5288 3.60477 11.5491 3.64077C11.562 3.66366 11.6011 3.70754 11.6361 3.73829L11.6997 3.7942L11.7436 3.70708C11.7872 3.62039 11.7875 3.62022 11.8074 3.67199C11.834 3.74124 12.0262 3.91209 12.1899 4.01193C12.2151 4.02732 12.2045 3.97441 12.1579 3.85273C12.1456 3.82051 12.1355 3.76242 12.1355 3.72365C12.1355 3.66612 12.1202 3.64051 12.0523 3.58453C11.9543 3.5037 11.9226 3.44623 11.9042 3.31581C11.8967 3.26299 11.8795 3.20424 11.8661 3.18527C11.8461 3.1571 11.8428 3.17286 11.8481 3.27091C11.8517 3.33699 11.8438 3.41916 11.8305 3.45349L11.8063 3.51592L11.7876 3.46389C11.7773 3.43528 11.7319 3.38551 11.6866 3.3533C11.6414 3.32109 11.6096 3.28934 11.616 3.28272C11.6224 3.27611 11.669 3.30546 11.7195 3.34795C11.7964 3.41268 11.8134 3.41969 11.824 3.39118C11.8366 3.35768 11.824 3.21194 11.7998 3.11011C11.7878 3.05925 11.7888 3.05952 11.8467 3.12226C11.8894 3.16852 11.913 3.2237 11.9313 3.31996C11.9545 3.44226 11.9662 3.46262 12.0705 3.56191C12.1331 3.62154 12.1876 3.66697 12.1916 3.66288C12.1956 3.65879 12.2035 3.50453 12.2092 3.32011C12.2201 2.96644 12.2078 2.88229 12.1292 2.77302L12.0888 2.71687L12.1523 2.64266C12.2351 2.54587 12.2731 2.46827 12.2896 2.36241L12.303 2.27629L12.2314 2.34982C12.1727 2.41003 12.1447 2.42335 12.0768 2.42335C12.0096 2.42335 11.9833 2.41113 11.938 2.35878C11.8836 2.29596 11.7872 2.23553 11.6946 2.2061C11.6604 2.19524 11.649 2.19998 11.649 2.22508C11.649 2.24347 11.6301 2.29657 11.607 2.34308L11.565 2.42764L11.4769 2.33331C11.4229 2.27544 11.3588 2.2304 11.3112 2.21683C11.1894 2.18211 11.1828 2.18555 11.1828 2.28393C11.1828 2.43314 11.124 2.46094 11.0183 2.36177C10.9376 2.28617 10.8708 2.26972 10.7179 2.28793L10.5998 2.302L10.621 2.35978C10.6388 2.40806 10.6348 2.42837 10.5967 2.4832C10.5351 2.57212 10.4549 2.61064 10.3315 2.61064C10.2746 2.61064 10.2035 2.6234 10.1734 2.63898C10.1433 2.65456 10.0685 2.67253 10.0071 2.67889C9.94583 2.68526 9.88048 2.69661 9.86191 2.70413C9.83288 2.71589 9.82968 2.7062 9.83905 2.63459C9.85337 2.525 9.78276 2.44415 9.6727 2.44415C9.52991 2.44415 9.46406 2.58261 9.51997 2.76525C9.5321 2.80578 9.54254 2.84689 9.55126 2.88843C9.55795 2.92226 9.62227 3.01201 9.70105 3.09747C9.77698 3.17984 9.84873 3.26553 9.86052 3.28792C9.87231 3.3103 9.91125 3.34622 9.94707 3.36774L10.0122 3.40687L10.0036 3.33132C9.99417 3.24829 10.0109 3.23528 10.0516 3.29386C10.0662 3.3148 10.1032 3.34865 10.1338 3.36908C10.1821 3.40127 10.1896 3.40192 10.1896 3.37397C10.1896 3.35624 10.1994 3.31536 10.2114 3.28313L10.2333 3.22455L10.2713 3.30426C10.2922 3.34809 10.3601 3.44774 10.4222 3.52568C10.5427 3.67691 10.6161 3.84591 10.5782 3.88481C10.5628 3.90059 10.5213 3.89937 10.4352 3.8806C10.3684 3.86605 10.2858 3.85837 10.2517 3.86351C10.1819 3.87403 10.1764 3.86426 10.2193 3.80602C10.2646 3.74453 10.2574 3.7344 10.1684 3.7344C10.0655 3.7344 9.80996 3.68092 9.71186 3.63883C9.61649 3.59792 9.59448 3.6081 9.5664 3.70618L9.515 3.88392L9.48655 3.9814L9.58975 3.97062C9.64651 3.9647 9.71952 3.95122 9.75198 3.94069C9.78445 3.93015 9.81395 3.92455 9.81755 3.92823C9.82115 3.93191 9.80667 3.97001 9.7854 4.01288L9.74671 4.0908L9.81104 4.07658C9.84643 4.06876 9.89967 4.04961 9.92935 4.03405C9.981 4.00697 9.98515 4.00894 10.0259 4.07982C10.076 4.16701 10.1161 4.16343 10.125 4.07096C10.1342 3.97539 10.1632 3.98953 10.2177 4.11619C10.2702 4.23798 10.3248 4.28098 10.3353 4.20879C10.3387 4.18481 10.367 4.1458 10.3981 4.12207C10.4609 4.07408 10.5082 4.08849 10.5354 4.16382C10.5635 4.2418 10.5008 4.32218 10.3185 4.44197C9.95339 4.68192 9.74115 5.01009 9.68056 5.42838C9.62591 5.80566 9.79659 6.19552 10.139 6.47554C10.3029 6.60955 10.5632 6.75097 10.5467 6.69701C10.4764 6.46784 10.4788 6.03055 10.5506 5.95678C10.5614 5.94571 10.5577 5.99133 10.5424 6.05817C10.4853 6.30715 10.5101 6.50554 10.6563 6.97051C10.7886 7.39105 10.7703 7.57078 10.5831 7.68958C10.523 7.72773 10.4842 7.73402 10.3226 7.7319C10.1472 7.72959 10.128 7.73341 10.0717 7.78206C10.0171 7.82924 9.94633 7.9841 9.94633 8.05638C9.94633 8.09553 9.98643 8.09035 10.0652 8.04102L10.0653 8.04104ZM12.9128 8.03255L12.9864 7.98129L13.0363 8.03255C13.1017 8.09972 13.1784 8.09823 13.2413 8.02853C13.2687 7.99812 13.2933 7.97705 13.296 7.98171C13.3052 7.99834 13.3143 8.01504 13.3232 8.03181C13.3388 8.06079 13.3708 8.07535 13.4285 8.07976C13.498 8.08507 13.5166 8.07779 13.5443 8.0345L13.5772 7.9829L13.6496 8.03337C13.848 8.17155 13.9536 8.02658 13.865 7.73791C13.8199 7.59114 13.8447 7.50862 13.99 7.3218C14.0512 7.24302 14.1014 7.15894 14.1014 7.13495C14.1014 7.0967 14.0901 7.09157 14.0086 7.09332C13.9306 7.095 13.9078 7.08592 13.8667 7.03693C13.7999 6.95722 13.8039 6.86596 13.8785 6.76467L13.9382 6.68376L13.8324 6.60592C13.7742 6.5631 13.6692 6.46181 13.5991 6.38082C13.4418 6.19892 13.287 6.11266 13.083 6.0931L12.9462 6.07998L12.9464 6.19225C12.9466 6.33678 13.0092 6.47581 13.18 6.71132C13.3742 6.97908 13.3877 7.02054 13.3956 7.37052L13.4022 7.6665L13.3461 7.7243C13.2953 7.77652 13.2724 7.78318 13.1085 7.79343C12.9526 7.80319 12.9198 7.81191 12.874 7.85587C12.8132 7.91424 12.7951 7.94601 12.7763 8.02663C12.7654 8.07362 12.7698 8.08387 12.8011 8.08387C12.822 8.08387 12.8723 8.06079 12.9127 8.0326L12.9128 8.03255ZM8.77075 7.17628C8.77075 7.13887 8.78617 7.12887 8.86203 7.11719L8.9533 7.10314L8.89243 7.05056C8.82011 6.98807 8.81341 6.93927 8.87716 6.93915C8.94065 6.93915 9.04817 6.86767 9.06452 6.8148C9.07211 6.79022 9.06733 6.75739 9.05372 6.74052C9.01812 6.69648 8.9512 6.70314 8.93877 6.75192C8.92542 6.80438 8.90305 6.80451 8.85234 6.75245C8.77606 6.67414 8.77434 6.51201 8.8488 6.41761C8.8839 6.37311 8.88358 6.37019 8.83885 6.32427C8.79073 6.27486 8.75635 6.17706 8.77896 6.15385C8.78616 6.14647 8.82418 6.15235 8.86345 6.16693C8.91927 6.18765 8.9413 6.18797 8.96429 6.16837C9.03395 6.10903 8.95848 6.03272 8.84678 6.04955C8.80183 6.05632 8.78326 6.04955 8.7768 6.02427C8.77191 6.00509 8.73259 5.98006 8.68829 5.96793C8.60914 5.94624 8.60857 5.9465 8.60857 6.00562C8.60857 6.07041 8.57447 6.08263 8.50963 6.04107C8.45696 6.0073 8.40587 6.03352 8.40587 6.09432C8.40587 6.15105 8.45849 6.17903 8.55282 6.17245C8.62517 6.16739 8.62786 6.22571 8.55914 6.30956L8.50972 6.36985L8.54887 6.43082C8.60685 6.52112 8.60197 6.67108 8.53864 6.74556L8.48898 6.80395L8.45641 6.75713C8.41114 6.69206 8.34922 6.69642 8.33225 6.76587C8.32114 6.81135 8.33032 6.83214 8.38286 6.88033C8.41815 6.91273 8.4697 6.93922 8.4974 6.93922C8.56593 6.93922 8.56326 6.99764 8.49202 7.05668L8.43628 7.10287L8.52242 7.11736C8.5698 7.12534 8.60856 7.14032 8.60856 7.15068C8.60856 7.19037 8.63088 7.31082 8.68745 7.31384C8.73796 7.31652 8.76953 7.23323 8.77071 7.17633L8.77075 7.17628ZM9.8609 6.74049C9.93916 6.70704 10.1085 6.55155 10.1085 6.51313C10.1085 6.50105 10.0618 6.4453 10.0047 6.38925C9.88441 6.27129 9.7536 6.07265 9.71971 5.95651C9.70203 5.89594 9.61665 5.79228 9.37611 5.53938L9.05603 5.20284L8.96379 5.22817C8.91306 5.2421 8.85115 5.25385 8.82623 5.25425C8.78328 5.25497 8.78406 5.25763 8.84116 5.30555L8.90141 5.35611L8.98587 5.30528C9.06774 5.25602 9.07067 5.25571 9.08076 5.29535C9.08668 5.31857 9.07392 5.35879 9.05129 5.38833C9.02934 5.41698 9.01685 5.44945 9.0235 5.46054C9.03016 5.47162 9.00909 5.49475 8.97665 5.51197C8.91655 5.54387 8.87483 5.64893 8.92226 5.64893C8.96493 5.64893 9.05902 5.52307 9.04819 5.48049C9.04263 5.45869 9.04532 5.43627 9.05415 5.43067C9.0908 5.40742 9.08851 5.50624 9.05127 5.55484C9.02933 5.58348 9.01684 5.61596 9.02349 5.62704C9.03014 5.63812 9.00907 5.66125 8.97664 5.67848C8.91692 5.71018 8.87479 5.81544 8.92181 5.81544C8.96789 5.81544 9.06045 5.69518 9.04897 5.65017C9.04298 5.62664 9.04529 5.60278 9.05414 5.59718C9.07882 5.58151 9.09214 5.65952 9.07129 5.69774C9.06013 5.71822 9.06023 5.74617 9.07156 5.76833C9.09206 5.80848 9.07128 5.88561 9.03349 5.90957C9.01731 5.91984 9.02826 5.94001 9.06754 5.97215C9.12437 6.01868 9.12547 6.02357 9.12547 6.2289C9.12547 6.4005 9.13186 6.44479 9.16094 6.47466C9.19358 6.50817 9.19641 6.50831 9.19641 6.47615C9.19641 6.44104 9.25326 6.39812 9.29977 6.39812C9.31348 6.39812 9.39919 6.47686 9.49022 6.57312C9.5818 6.66994 9.67763 6.75233 9.70477 6.75757L9.76967 6.7699C9.77839 6.77146 9.81943 6.75824 9.86088 6.74052L9.8609 6.74049ZM8.88227 5.91033C8.88227 5.85501 8.77702 5.79597 8.65112 5.78065C8.54948 5.7683 8.54781 5.76899 8.54781 5.82404C8.54781 5.86961 8.56379 5.88753 8.63395 5.92065C8.74668 5.97387 8.88225 5.96823 8.88225 5.91033H8.88227ZM8.99763 5.90524C9.04897 5.85474 9.0733 5.79467 9.04241 5.79467C9.0069 5.79467 8.9126 5.88639 8.9126 5.92096C8.9126 5.9749 8.93012 5.97166 8.99763 5.90524ZM8.88822 5.74165C8.89257 5.71045 8.87475 5.68961 8.82138 5.66348C8.70623 5.6071 8.56858 5.58099 8.53543 5.60924C8.47436 5.66127 8.51505 5.73113 8.61374 5.74369C8.65347 5.74875 8.70734 5.76188 8.73345 5.77288C8.80931 5.80482 8.88144 5.79026 8.88822 5.74164V5.74165ZM8.88822 5.5745C8.89441 5.52998 8.86815 5.51404 8.65376 5.43225C8.49371 5.37117 8.42285 5.39997 8.474 5.50532C8.49182 5.54201 8.52173 5.55877 8.5888 5.56967C8.63869 5.57776 8.70687 5.59359 8.74031 5.60486C8.82966 5.63493 8.88128 5.62434 8.88822 5.57452V5.5745ZM8.9956 5.41787C9.02795 5.38232 9.0544 5.34037 9.0544 5.32464C9.0544 5.27363 8.92666 5.36388 8.91036 5.42639C8.89083 5.50138 8.9225 5.49821 8.9956 5.41787ZM8.88822 5.40735C8.89528 5.35663 8.81746 5.31083 8.66447 5.27564C8.55222 5.24981 8.50271 5.26445 8.51112 5.32101C8.5157 5.35188 8.55308 5.37443 8.65915 5.41032C8.82887 5.46775 8.87992 5.46709 8.88822 5.40737V5.40735ZM9.03786 5.17131C9.23391 5.0767 9.25087 4.83811 9.066 4.77547C8.98924 4.74946 8.94025 4.76348 8.91087 4.81985C8.88837 4.863 8.90341 4.94149 8.93419 4.94149C8.94458 4.94149 8.9531 4.95601 8.9531 4.97376C8.9531 5.05661 8.65376 5.09415 8.53101 5.02669C8.48789 5.003 8.4691 4.94149 8.505 4.94149C8.53181 4.94149 8.55036 4.87882 8.53666 4.83448C8.51799 4.77408 8.46184 4.75316 8.3804 4.77624C8.19663 4.82833 8.2018 5.06243 8.3889 5.16177C8.54231 5.24322 8.87864 5.24818 9.03787 5.17132L9.03786 5.17131ZM8.91592 4.98786C8.92727 4.97621 8.92234 4.95829 8.90331 4.94208C8.86162 4.90656 8.86384 4.85374 8.90957 4.79327C8.94389 4.74786 8.94818 4.67992 8.96 3.99445C8.98037 2.81317 9.06139 1.92466 9.16819 1.71152C9.2107 1.62666 9.20474 1.62632 9.09487 1.70737C8.95333 1.81176 8.84558 1.94771 8.75009 2.14231C8.56983 2.50972 8.50719 3.00403 8.50719 4.0592C8.50719 4.65831 8.51096 4.7367 8.54242 4.79302C8.57232 4.84651 8.57392 4.86628 8.55291 4.9234C8.53929 4.96042 8.53313 4.99582 8.53918 5.00205C8.57943 5.04337 8.87262 5.03241 8.91591 4.98797L8.91592 4.98786ZM10.5631 3.86142C10.5692 3.85122 10.5557 3.79972 10.5329 3.74696C10.4975 3.66471 10.4832 3.65105 10.4328 3.65105C10.2746 3.65105 10.0204 3.57445 9.75839 3.44782C9.60705 3.3747 9.55479 3.3579 9.53664 3.37653C9.49034 3.42406 9.56729 3.53691 9.68647 3.59622C9.7922 3.64884 10.0877 3.7135 10.2226 3.7135C10.3008 3.7135 10.3026 3.71732 10.2581 3.78706L10.2254 3.83836L10.3138 3.84082C10.3625 3.84218 10.4297 3.85043 10.4631 3.85916C10.55 3.88185 10.5508 3.88187 10.5631 3.86142H10.5631Z" fill="#FFBE29"/>
<path d="M11.4868 4.39385C11.4868 4.36333 11.4041 4.28058 11.3203 4.22726C11.2544 4.1854 11.2436 4.18413 11.2434 4.21827C11.2432 4.27011 11.2007 4.40037 11.184 4.40037C11.1745 4.40037 11.1606 4.37492 11.153 4.34381C11.1454 4.31271 11.1135 4.25139 11.0821 4.20756L11.0251 4.12787L10.9806 4.20171C10.9392 4.27054 10.8674 4.33794 10.8356 4.33794C10.828 4.33794 10.8265 4.30169 10.8323 4.25738C10.8386 4.20926 10.8337 4.17108 10.8202 4.16251C10.8078 4.15463 10.7976 4.15738 10.7976 4.16862C10.7976 4.19455 10.698 4.31712 10.6769 4.31712C10.6682 4.31712 10.656 4.28199 10.6498 4.23907L10.6265 4.0882C10.6199 4.04813 10.634 4.0753 10.658 4.14857L10.7017 4.28179L10.7496 4.2006C10.7759 4.15596 10.7975 4.10717 10.7975 4.09218C10.7976 4.0772 10.8065 4.07057 10.8173 4.07744C10.8281 4.08431 10.8432 4.13799 10.8508 4.1967L10.8646 4.30347L10.9172 4.24087C10.9462 4.20644 10.9802 4.16035 10.9927 4.13844C11.015 4.09935 11.0163 4.09938 11.0607 4.14024C11.0856 4.16313 11.1239 4.2179 11.1458 4.26192C11.1676 4.30593 11.1885 4.33872 11.1921 4.33475C11.1956 4.33078 11.2037 4.28538 11.2099 4.23388L11.2222 4.13598C11.2253 4.12322 11.3809 4.23283 11.4384 4.28834C11.4754 4.32401 11.5106 4.34821 11.5165 4.3421C11.5225 4.33599 11.5273 4.28336 11.5273 4.22514C11.5273 4.13491 11.5185 4.11073 11.4676 4.0614C11.4091 4.00469 11.4074 4.00437 11.3858 4.04586C11.3577 4.0997 11.3246 4.10048 11.3246 4.0473C11.3246 4.00849 11.214 3.85928 11.1853 3.85928C11.1778 3.85928 11.1545 3.89205 11.1335 3.93211C11.1125 3.97218 11.0899 4.00491 11.0833 4.00486C11.0549 4.00467 10.899 3.81621 10.8991 3.78218C10.8991 3.75512 10.9096 3.76204 10.9369 3.80723C10.9577 3.84158 10.9992 3.89283 11.0291 3.92115C11.0897 3.97849 11.1118 3.96454 11.1352 3.85405C11.1418 3.82257 11.1534 3.79681 11.1609 3.79681C11.1868 3.79681 11.3225 3.9531 11.3416 4.00493L11.3608 4.05696L11.3753 3.99972C11.3931 3.92973 11.4126 3.92714 11.441 3.991C11.4528 4.01767 11.5113 4.07313 11.5709 4.11425L11.6793 4.189L11.7011 4.11382C11.7131 4.07247 11.7289 4.04871 11.7363 4.06101C11.7474 4.07937 11.7192 4.20395 11.6979 4.23074C11.6947 4.23476 11.6596 4.21257 11.6199 4.18145L11.5476 4.12485L11.5473 4.22618C11.5471 4.28191 11.5416 4.34858 11.5348 4.37432C11.5217 4.42467 11.4868 4.43884 11.4868 4.39382V4.39385ZM10.9463 3.5861C10.8174 3.46947 10.7979 3.44279 10.8007 3.38752L10.8038 3.32869L10.8122 3.38552C10.8171 3.41869 10.8514 3.46842 10.8946 3.50502L10.9687 3.56771L11.0142 3.51064C11.0393 3.47924 11.0601 3.44186 11.0605 3.42755C11.0615 3.39025 11.0677 3.39338 11.1549 3.47544C11.2325 3.54834 11.2337 3.5487 11.2452 3.50146C11.2516 3.47512 11.2493 3.42553 11.2401 3.39127C11.2148 3.29709 11.2197 3.28289 11.2581 3.33968C11.2772 3.36799 11.308 3.40799 11.3264 3.42859C11.3586 3.46444 11.3605 3.464 11.3725 3.41819C11.3793 3.39187 11.3851 3.34369 11.3852 3.31112L11.3855 3.25193L11.4554 3.33782C11.5207 3.41803 11.5267 3.421 11.5466 3.38277C11.5583 3.36027 11.5681 3.30612 11.5682 3.26244C11.5685 3.20601 11.5739 3.19178 11.5872 3.21326C11.6093 3.24913 11.5939 3.34681 11.5531 3.43005L11.5238 3.48978L11.4854 3.42485C11.4362 3.34182 11.4198 3.34316 11.3883 3.43276C11.3584 3.51744 11.339 3.52389 11.31 3.45878C11.2912 3.41664 11.2876 3.4218 11.2743 3.51031L11.2594 3.60869L11.1705 3.5339L11.0816 3.45912L11.0417 3.50836C11.0197 3.53545 11.0014 3.56932 11.001 3.58362C11.0002 3.61463 10.9789 3.61559 10.9463 3.5861H10.9463ZM12.0924 3.15168C12.0455 3.10588 12.0132 3.06216 12.0206 3.05456C12.028 3.04696 12.0363 3.04477 12.0391 3.04972C12.0419 3.05468 12.0803 3.09838 12.1243 3.14684C12.2258 3.25845 12.2049 3.26161 12.0924 3.15168ZM10.5658 2.98062C10.5231 2.91809 10.526 2.87665 10.578 2.80887C10.6155 2.7599 10.6326 2.75325 10.6982 2.76228C10.7402 2.76806 10.8307 2.80833 10.8992 2.85176C10.9783 2.9019 11.0602 2.9355 11.1236 2.94385C11.1784 2.95108 11.2234 2.95381 11.2234 2.94991C11.2234 2.94601 11.2005 2.90574 11.1727 2.86041C11.1065 2.75277 11.1088 2.74122 11.1834 2.8057C11.26 2.8719 11.3517 2.89126 11.5565 2.88451L11.6566 2.88122L11.5985 2.81901C11.5174 2.732 11.5423 2.7242 11.632 2.80855C11.7161 2.88768 11.7108 2.89325 11.5338 2.91241C11.4586 2.92055 11.3778 2.91465 11.3105 2.89612C11.2099 2.86839 11.206 2.86881 11.2251 2.90536C11.2361 2.92642 11.2539 2.94366 11.2646 2.94366C11.2754 2.94366 11.2842 2.95434 11.2842 2.96739C11.2842 3.0075 11.0669 2.97222 10.9631 2.91524C10.726 2.78507 10.6961 2.7738 10.6397 2.79308C10.6083 2.8038 10.5768 2.83521 10.566 2.86669C10.5298 2.97168 10.6672 3.0533 10.7238 2.96048C10.7403 2.93358 10.7364 2.91517 10.7076 2.88244C10.668 2.8376 10.6718 2.83121 10.7251 2.85223C10.763 2.86715 10.7681 2.96574 10.7328 3.00192C10.6925 3.04331 10.6005 3.03158 10.5658 2.98062ZM11.4999 2.72133C11.4703 2.69089 11.4935 2.68342 11.6265 2.68074C11.791 2.67741 11.8909 2.6477 12.0087 2.56702C12.1032 2.50239 12.1288 2.51511 12.0391 2.58213C11.9574 2.64327 11.8298 2.69026 11.7067 2.70463C11.6471 2.71159 11.5791 2.72123 11.5557 2.72605C11.5322 2.73087 11.5072 2.72874 11.4999 2.72131V2.72133Z" fill="black"/>
<path d="M15.987 7.48877C15.987 7.48877 16.0862 7.71872 16.1958 7.8124C16.3582 7.95122 16.6912 7.94119 16.8325 8.10315C17.0019 8.29414 16.8194 8.54644 16.8209 8.56834L16.8302 8.70159C16.8302 8.70159 16.716 8.70315 16.6679 8.71169C16.5956 8.72452 16.5674 8.79149 16.4328 8.78154C16.0944 8.75654 16.1081 8.40944 16.0889 8.11284C16.0719 7.99989 16.0326 7.85264 16.0102 7.73972C15.9911 7.6429 15.987 7.48877 15.987 7.48877Z" fill="#FFBE29" stroke="black" stroke-width="0.03141"/>
<path d="M15.9863 2.51284C15.9863 2.51284 16.0855 2.28259 16.1953 2.18879C16.3578 2.04979 16.691 2.05984 16.8325 1.89768C17.002 1.70646 16.8193 1.45383 16.8209 1.43189L16.8302 1.29848C16.8302 1.29848 16.7159 1.29691 16.6678 1.28836C16.5954 1.27551 16.5672 1.20846 16.4325 1.21841C16.0938 1.24344 16.1074 1.59098 16.0883 1.88798C16.0713 2.00106 16.0319 2.14851 16.0096 2.26156C15.9904 2.35851 15.9863 2.51283 15.9863 2.51283L15.9863 2.51284ZM7.53383 2.51304C7.53383 2.51304 7.43453 2.28276 7.32482 2.18894C7.16228 2.04993 6.82899 2.05998 6.68753 1.89779C6.51803 1.70654 6.70068 1.45388 6.69915 1.43194L6.68985 1.29849C6.68985 1.29849 6.80415 1.29693 6.85227 1.28838C6.92463 1.27553 6.95286 1.20846 7.08758 1.21843C7.42629 1.24348 7.41264 1.59106 7.4318 1.88809C7.44881 2.00119 7.48817 2.14868 7.51055 2.26174C7.52973 2.35871 7.53383 2.51306 7.53383 2.51306V2.51304Z" fill="#FFBE29" stroke="black" stroke-width="0.03144"/>
</g>
<defs>
<clipPath id="clip0_2142_1601">
<rect width="18" height="10" fill="white"/>
</clipPath>
</defs>
</svg>
