<svg width="18" height="10" viewBox="0 0 18 10" fill="none" xmlns="http://www.w3.org/2000/svg">
<path d="M18 6.10352e-05H0V10.0001H18V6.10352e-05Z" fill="#F2F2F2"/>
<path d="M18 6.70006H0V10.0001H18V6.70006Z" fill="#EA0020"/>
<path d="M18 3.30005H0V6.70004H18V3.30005Z" fill="#3555E2"/>
<path d="M3.51955 2.10007L3.6201 4.50006C3.6201 5.10006 3.92178 5.70007 4.42457 6.10007C4.72625 6.40007 5.12848 6.60006 5.53072 6.70006C6.53631 6.40006 7.34078 5.60006 7.44133 4.50006L7.64245 2.20006C7.64245 2.20006 7.54189 2.20007 7.54189 2.10007L7.34078 4.40005C7.34078 5.00005 7.0391 5.60006 6.63686 6.00006C6.33519 6.30006 6.03351 6.50007 5.63128 6.60007C5.22904 6.50007 4.92737 6.30006 4.62569 6.00006C4.22346 5.60006 3.92178 5.00005 3.92178 4.40005L3.51955 2.10007Z" fill="#EA0020"/>
<path d="M7.54191 2.10008C6.838 1.80008 6.13409 1.70007 5.43018 1.70007C4.72627 1.70007 4.12291 1.80008 3.51956 2.10008L3.72068 4.40007C3.72068 5.00007 4.02236 5.60008 4.42459 6.00008C4.72627 6.30008 5.02794 6.50008 5.43018 6.60008C5.83241 6.50008 6.13409 6.30008 6.43576 6.00008C6.93856 5.60008 7.24023 5.00007 7.34079 4.40007" fill="#3555E2"/>
<path d="M5.53071 2.80006L5.63127 2.70006H5.53071L5.43015 2.60007L5.32959 2.70006H5.22903L5.32959 2.80006L5.22903 2.90005H5.32959L5.43015 3.00006L5.53071 2.90005H5.63127" fill="#F8E72A"/>
<path d="M5.02793 2.10007L5.12849 2.00006H4.92737V1.90005L4.82682 2.00006H4.72626V2.10007V2.20006H4.82682L4.92737 2.30006V2.20006H5.12849" fill="#F8E72A"/>
<path d="M6.13408 2.10007V2.00006H6.03352L5.93296 1.90005V2.00006H5.73184L5.8324 2.10007L5.73184 2.20006H5.93296V2.30006L6.03352 2.20006H6.13408" fill="#F8E72A"/>
<path d="M6.93855 4.80005L6.13408 3.80005L5.8324 4.20004L5.32961 3.30005L4.82682 4.20004L4.52514 3.80005L3.72067 4.80005C3.72067 4.90005 3.82123 5.10005 3.92179 5.10005C4.02235 5.10005 4.12291 5.20004 4.32402 5.20004C4.42458 5.20004 4.52514 5.20005 4.6257 5.10005H5.12849C5.22905 5.10005 5.32961 5.20004 5.43017 5.20004C5.53073 5.20004 5.63129 5.20005 5.73185 5.10005C5.8324 5.00005 6.03352 5.00005 6.13408 5.10005H6.23464C6.3352 5.10005 6.43576 5.20004 6.53632 5.20004C6.63687 5.20004 6.83799 5.10005 6.93855 5.10005V4.80005Z" fill="white"/>
<path d="M4.02234 5.30008C4.02234 5.40008 4.1229 5.40008 4.1229 5.50008C4.22346 5.50008 4.32401 5.60008 4.42457 5.50008H4.52513C4.62569 5.50008 4.72625 5.40007 4.82681 5.40007C4.92737 5.40007 5.02793 5.40008 5.12848 5.50008C5.22904 5.60008 5.43016 5.60008 5.53072 5.50008H5.63128C5.73184 5.50008 5.83239 5.40007 5.93295 5.40007C6.03351 5.40007 6.13407 5.40008 6.23463 5.50008C6.33519 5.60008 6.53631 5.60008 6.63686 5.50008H6.73742C6.73742 5.40008 6.83798 5.40008 6.83798 5.30008H6.23463C6.13407 5.30008 6.03351 5.20007 5.93295 5.20007C5.83239 5.20007 5.73184 5.20008 5.63128 5.30008H5.12848C5.02793 5.30008 4.92737 5.20007 4.82681 5.20007C4.72625 5.20007 4.62569 5.20008 4.52513 5.30008H4.42457C4.42457 5.40008 4.22346 5.40008 4.02234 5.30008Z" fill="white"/>
<path d="M6.53633 5.70006L6.33521 5.90005C6.03353 6.10005 5.73186 6.30005 5.43018 6.40005C5.1285 6.30005 4.82683 6.10005 4.52515 5.90005L4.32404 5.70006H4.62571C4.72627 5.70006 4.82683 5.60007 4.92739 5.60007C5.02795 5.60007 5.1285 5.60006 5.22906 5.70006C5.32962 5.80006 5.53074 5.80006 5.6313 5.70006H5.73186C5.83242 5.70006 5.93297 5.60007 6.03353 5.60007C6.13409 5.60007 6.23465 5.60006 6.33521 5.70006H6.53633Z" fill="white"/>
</svg>
