<svg width="18" height="10" viewBox="0 0 18 10" fill="none" xmlns="http://www.w3.org/2000/svg">
<path d="M18 6.10352e-05H0V10.0001H18V6.10352e-05Z" fill="#E30A17"/>
<path d="M5.93294 7.50006C7.32137 7.50006 8.44691 6.38077 8.44691 5.00006C8.44691 3.61935 7.32137 2.50006 5.93294 2.50006C4.54452 2.50006 3.41898 3.61935 3.41898 5.00006C3.41898 6.38077 4.54452 7.50006 5.93294 7.50006Z" fill="white"/>
<path d="M6.53632 7.00006C7.64706 7.00006 8.54749 6.10463 8.54749 5.00006C8.54749 3.89549 7.64706 3.00006 6.53632 3.00006C5.42558 3.00006 4.52515 3.89549 4.52515 5.00006C4.52515 6.10463 5.42558 7.00006 6.53632 7.00006Z" fill="#E30A17"/>
<path d="M7.94412 5.00006L10.1564 5.70006L8.74859 3.80006V6.20006L10.1564 4.30006L7.94412 5.00006Z" fill="white"/>
</svg>
