<svg width="18" height="10" viewBox="0 0 18 10" fill="none" xmlns="http://www.w3.org/2000/svg">
<path d="M18 3.05176e-05H0V10H18V3.05176e-05Z" fill="#CB1D23"/>
<path d="M2.11172 2.60004L1.2067 2.00003H2.31284L2.61452 1.00003L3.01675 2.00003H4.1229L3.21787 2.60004L3.51954 3.60004L2.61452 3.00003L1.70949 3.60004L2.11172 2.60004Z" fill="#F7DE29"/>
<path d="M5.22905 4.30003L5.43016 4.00003V4.40002L5.8324 4.50003L5.43016 4.60004V5.00003L5.12849 4.70003L4.82681 4.80003L5.02793 4.50003L4.82681 4.20003L5.22905 4.30003Z" fill="#F7DE29"/>
<path d="M6.43575 2.20003L6.23463 2.50003V2.10004H5.8324L6.13407 1.90002V1.50003L6.43575 1.80003L6.73743 1.60004L6.53631 2.00003L6.83798 2.20003H6.43575Z" fill="#F7DE29"/>
<path d="M6.13407 3.60004L5.8324 3.40002H6.23463L6.33519 3.00003L6.43575 3.40002H6.83798L6.53631 3.60004L6.63687 3.90002L6.33519 3.70003L6.03351 3.90002L6.13407 3.60004Z" fill="#F7DE29"/>
<path d="M5.22905 0.800034L5.53073 0.500031L5.43017 0.900024L5.8324 1.10004H5.43017L5.32961 1.50003L5.12849 1.20003H4.72626L5.02793 1.00003L4.82682 0.600037L5.22905 0.800034Z" fill="#F7DE29"/>
</svg>
