<svg width="18" height="10" viewBox="0 0 18 10" fill="none" xmlns="http://www.w3.org/2000/svg">
<path d="M18 6.10352e-05H0V10.0001H18V6.10352e-05Z" fill="#FF0000"/>
<path d="M8 6.10352e-05H0V5.00006H8V6.10352e-05Z" fill="#0007A0"/>
<path d="M3.80001 0.700073L4.10001 1.60007L4.70001 0.800049L4.60001 1.80005L5.40001 1.40005L4.80001 2.20007L5.80001 2.30005L4.90001 2.60007L5.70001 3.20007L4.70001 3.10007L5.10001 3.90005L4.30001 3.30005L4.20001 4.30005L3.90001 3.40005L3.30001 4.20007L3.40001 3.20007L2.60001 3.60007L3.20001 2.80005L2.20001 2.70007L3.10001 2.40005L2.30001 1.80005L3.30001 1.90005L2.90001 1.10007L3.70001 1.70007L3.80001 0.700073Z" fill="white"/>
<path d="M4.00001 3.40005C4.49706 3.40005 4.90001 2.99712 4.90001 2.50006C4.90001 2.003 4.49706 1.60007 4.00001 1.60007C3.50295 1.60007 3.10001 2.003 3.10001 2.50006C3.10001 2.99712 3.50295 3.40005 4.00001 3.40005Z" fill="#0007A0"/>
<path d="M4.84778 2.55485C4.85627 2.11311 4.50507 1.74812 4.06333 1.73964C3.62159 1.73115 3.25662 2.08236 3.24813 2.5241C3.23964 2.96584 3.59085 3.33083 4.03259 3.33932C4.47432 3.3478 4.8393 2.99659 4.84778 2.55485Z" fill="white"/>
</svg>
