<?xml version="1.0" encoding="utf-8"?>
<!-- Generator: Adobe Illustrator 24.1.1, SVG Export Plug-In . SVG Version: 6.00 Build 0)  -->
<svg version="1.1" id="Слой_1" xmlns="http://www.w3.org/2000/svg" xmlns:xlink="http://www.w3.org/1999/xlink" x="0px" y="0px"
	 width="17px" height="15px" viewBox="0 0 17 15" style="enable-background:new 0 0 17 15;" xml:space="preserve">
<style type="text/css">
	.st0{fill:#585759;}
</style>
<g>
	<path class="st0" d="M14.533,10.432c0-0.075,0-0.075,0.075-0.149c0.149-0.522,0.224-1.49,0.224-1.49
		c0.075-1.714-0.522-3.502-1.863-4.769C11.626,2.683,9.764,2.012,8.05,2.161l0,0C6.634,2.235,5.293,2.832,4.25,3.8l0,0l0,0
		C2.983,4.992,2.163,6.632,2.163,8.569c0,1.937,0.894,3.651,2.235,4.843l0,0c2.459,2.235,6.259,2.086,8.569-0.298
		c0.671-0.671,1.192-1.49,1.49-2.384C14.533,10.581,14.533,10.506,14.533,10.432z M3.653,8.495c0-2.235,1.565-4.098,3.428-4.694
		C7.23,3.726,7.379,3.726,7.603,3.651c0.075,0,0.224,0,0.298-0.075c1.416-0.149,2.832,0.298,3.949,1.341
		c1.49,1.49,1.863,3.8,0.969,5.663c-0.075,0.075-0.075,0.149-0.149,0.298l0,0c-0.82,1.416-2.384,2.384-4.098,2.384
		C5.889,13.338,3.653,11.177,3.653,8.495z"/>
	<polygon class="st0" points="12.148,9.314 7.975,9.314 7.975,4.769 9.093,4.769 9.093,8.197 12.148,8.197 	"/>
	<path class="st0" d="M8.05,1.341c0.671-0.075,1.416,0,2.086,0.224c0,0,0,0,0-0.075c0-0.82-0.671-1.49-1.49-1.49
		s-1.49,0.671-1.49,1.49C7.454,1.416,7.752,1.341,8.05,1.341z"/>
</g>
</svg>
