<svg xmlns="http://www.w3.org/2000/svg" viewBox="0 0 170 169.49"><title>Download_Pac_170_light</title><polygon points="101.59 50.55 170 50.55 130.33 0 94.72 0 101.59 50.55" style="fill:#00a4f8"/><polygon points="76 0 39.38 0 0 50.55 68.81 50.55 76 0" style="fill:#00a4f8"/><polygon points="94.06 50.55 87.71 1.99 82.98 1.99 76.34 50.55 94.06 50.55" style="fill:#00a4f8"/><polygon points="75.68 108.48 67.19 108.48 85.2 120.74 103.2 108.48 94.67 108.48 94.67 101.67 94.67 62.03 75.68 62.03 75.68 101.67 75.68 108.48" style="fill:#00a4f8"/><path d="M102.17,59.85v42.59h13l.13-.09,3.7,6.29-33.8,23h0l-33.79-23,3.68-6.23H68.16V59.85H0V169.49H170V59.85Zm-95,84.86h28.7V152H7.2ZM42.12,162.3H7.2V155H42.15Zm10.2-20.56H7.2v-7.31H52.35Z" style="fill:#00a4f8"/></svg>