<?xml version="1.0" encoding="utf-8"?>
<!-- Generator: Adobe Illustrator 24.1.1, SVG Export Plug-In . SVG Version: 6.00 Build 0)  -->
<svg version="1.1" id="Слой_1" xmlns="http://www.w3.org/2000/svg" xmlns:xlink="http://www.w3.org/1999/xlink" x="0px" y="0px"
	 width="19px" height="19px" viewBox="0 0 19 19" style="enable-background:new 0 0 19 19;" xml:space="preserve">
<style type="text/css">
	.st0{fill:#409DD8;}
</style>
<g>
	<polygon class="st0" points="11.6,6.05 19,6.05 14.7,0.05 10.9,0.05 	"/>
	<polygon class="st0" points="9.1,0.05 4.7,0.05 0.1,6.05 8.2,6.05 	"/>
	<polygon class="st0" points="9,13.05 8.1,13.05 10,14.65 11.9,13.05 11,13.05 11,12.15 11,7.05 9,7.05 9,12.15 	"/>
	<path class="st0" d="M12,7.05v5h1.6l0.4,0.7l-4,2.7l0,0l-4-2.7l0.4-0.8H8v-5H0v12h19v-12h-7V7.05z M5,18.05H1v-1h4V18.05z M6,16.05
		H1v-1h5V16.05z"/>
</g>
</svg>
