<?xml version="1.0" encoding="UTF-8"?>
<svg id="_Слой_1" data-name="Слой_1" xmlns="http://www.w3.org/2000/svg" version="1.1" viewBox="0 0 42 42">
  <!-- Generator: Adobe Illustrator 29.6.1, SVG Export Plug-In . SVG Version: 2.1.1 Build 9)  -->
  <defs>
    <style>
      .st0 {
        fill: #288c3f;
      }

      .st1 {
        fill: #e5e5e5;
      }

      .st2 {
        fill: #2d9f4c;
      }

      .st3 {
        fill: #fbbe0b;
      }

      .st4 {
        fill: #1a73e8;
      }

      .st5 {
        fill: #fff;
      }

      .st6 {
        fill: #de352a;
      }

      .st7 {
        fill: #e5a415;
      }

      .st8 {
        fill: #d52629;
      }
    </style>
  </defs>
  <circle class="st5" cx="21.1" cy="21.1" r="20.7"/>
  <path class="st1" d="M34.2,24.8c0-7.3-5.9-13.2-13.2-13.2s-13.2,5.9-13.2,13.2h3.8c0-5.2,4.2-9.4,9.4-9.4s9.4,4.2,9.4,9.4h3.8Z"/>
  <circle class="st1" cx="22" cy="23.7" r="7.1"/>
  <circle class="st4" cx="21.1" cy="21.1" r="7.7"/>
  <path class="st6" d="M39.8,11.7C34.7,1.3,22-3,11.6,2.2c-3.2,1.6-6,4-8.1,7l8.5,14.7c-1.6-5,1.2-10.2,6.1-11.8.9-.3,1.8-.4,2.7-.4"/>
  <path class="st2" d="M3.6,9.2c-6.5,9.7-3.9,22.8,5.7,29.2,3,2,6.4,3.2,10,3.5l8.8-15c-3.3,4-9.2,4.6-13.2,1.3-1.4-1.1-2.4-2.6-2.9-4.3"/>
  <path class="st3" d="M19.4,41.9c11.6.9,21.7-7.8,22.6-19.4.3-3.7-.4-7.5-2.1-10.9h-19c5.2,0,9.4,4.3,9.4,9.4,0,2.1-.7,4.1-2,5.8"/>
  <path class="st8" d="M3.5,9.2l8.4,14.5c-.6-2.1-.5-4.4.4-6.4L3.92,8.62l-.42.58Z"/>
  <path class="st0" d="M19.4,41.9l8.8-15c-1.4,1.7-3.3,2.8-5.5,3.2l-3.7,11.8h.4Z"/>
  <path class="st7" d="M39.86,11.6h-19c2.9,0,5.6,1.3,7.3,3.6l12-3-.3-.6Z"/>
</svg>