<?xml version="1.0" encoding="utf-8"?>
<!-- Generator: Adobe Illustrator 22.1.0, SVG Export Plug-In . SVG Version: 6.00 Build 0)  -->
<svg version="1.1" id="Слой_1" xmlns="http://www.w3.org/2000/svg" xmlns:xlink="http://www.w3.org/1999/xlink" x="0px" y="0px"
	 viewBox="0 0 42 42" style="enable-background:new 0 0 42 42;" xml:space="preserve">
<style type="text/css">
	.st0{fill:#FFFFFF;}
	.st1{fill-opacity:0.1;}
	.st2{fill:url(#SVGID_1_);}
	.st3{fill:url(#SVGID_2_);}
	.st4{fill:url(#SVGID_3_);}
	.st5{fill:url(#SVGID_4_);}
	.st6{fill:url(#SVGID_5_);}
	.st7{fill:url(#SVGID_6_);}
	.st8{fill:url(#SVGID_7_);}
</style>
<g>
	<circle class="st0" cx="21.1" cy="21.1" r="20.7"/>
	<path class="st1" d="M34.2,24.8c0-7.3-5.9-13.2-13.2-13.2c-7.3,0-13.2,5.9-13.2,13.2h3.8c0-5.2,4.2-9.4,9.4-9.4s9.4,4.2,9.4,9.4"/>
	<circle class="st1" cx="22" cy="23.7" r="7.1"/>
	
		<linearGradient id="SVGID_1_" gradientUnits="userSpaceOnUse" x1="-727.4663" y1="407.91" x2="-727.4663" y2="407.8617" gradientTransform="matrix(318.7238 0 0 -318.7238 231881.9219 130024.0312)">
		<stop  offset="0" style="stop-color:#81B4E0"/>
		<stop  offset="1" style="stop-color:#0C5A94"/>
	</linearGradient>
	<circle class="st2" cx="21.1" cy="21.1" r="7.7"/>
	
		<linearGradient id="SVGID_2_" gradientUnits="userSpaceOnUse" x1="-627.0922" y1="-330.9815" x2="-627.0922" y2="-335.3827" gradientTransform="matrix(3.8869 0 0 -3.8869 2459.1379 -1286.4587)">
		<stop  offset="0" style="stop-color:#F06B59"/>
		<stop  offset="1" style="stop-color:#DF2227"/>
	</linearGradient>
	<path class="st3" d="M39.8,11.7C34.7,1.3,22-3,11.6,2.2c-3.2,1.6-6,4-8.1,7L12,23.9c-1.6-5,1.2-10.2,6.1-11.8
		c0.9-0.3,1.8-0.4,2.7-0.4"/>
	
		<linearGradient id="SVGID_3_" gradientUnits="userSpaceOnUse" x1="-631.3593" y1="-340.2486" x2="-629.1346" y2="-336.573" gradientTransform="matrix(3.8869 0 0 -3.8869 2459.1379 -1286.4587)">
		<stop  offset="0" style="stop-color:#388B41"/>
		<stop  offset="1" style="stop-color:#4CB749"/>
	</linearGradient>
	<path class="st4" d="M3.6,9.2C-2.9,18.9-0.3,32,9.3,38.4c3,2,6.4,3.2,10,3.5l8.8-15c-3.3,4-9.2,4.6-13.2,1.3
		c-1.4-1.1-2.4-2.6-2.9-4.3"/>
	
		<linearGradient id="SVGID_4_" gradientUnits="userSpaceOnUse" x1="-623.9066" y1="-340.6395" x2="-626.2764" y2="-334.9326" gradientTransform="matrix(3.8869 0 0 -3.8869 2459.1379 -1286.4587)">
		<stop  offset="0" style="stop-color:#E4B022"/>
		<stop  offset="0.3" style="stop-color:#FCD209"/>
	</linearGradient>
	<path class="st5" d="M19.4,41.9c11.6,0.9,21.7-7.8,22.6-19.4c0.3-3.7-0.4-7.5-2.1-10.9h-19c5.2,0,9.4,4.3,9.4,9.4
		c0,2.1-0.7,4.1-2,5.8"/>
	
		<linearGradient id="SVGID_5_" gradientUnits="userSpaceOnUse" x1="-630.6227" y1="-336.9788" x2="-630.6227" y2="-333.1097" gradientTransform="matrix(3.8869 0 0 -3.8869 2459.1379 -1286.4587)">
		<stop  offset="0" style="stop-color:#000000;stop-opacity:0.15"/>
		<stop  offset="0.3" style="stop-color:#000000;stop-opacity:6.000000e-02"/>
		<stop  offset="1" style="stop-color:#000000;stop-opacity:3.000000e-02"/>
	</linearGradient>
	<path class="st6" d="M3.6,9.2L12,23.9c-0.6-2.1-0.5-4.4,0.4-6.4L3.9,8.7"/>
	
		<linearGradient id="SVGID_6_" gradientUnits="userSpaceOnUse" x1="-625.2823" y1="-338.2281" x2="-627.9422" y2="-340.9364" gradientTransform="matrix(3.8869 0 0 -3.8869 2459.1379 -1286.4587)">
		<stop  offset="0" style="stop-color:#000000;stop-opacity:0.15"/>
		<stop  offset="0.3" style="stop-color:#000000;stop-opacity:6.000000e-02"/>
		<stop  offset="1" style="stop-color:#000000;stop-opacity:3.000000e-02"/>
	</linearGradient>
	<path class="st7" d="M19.4,41.9l8.8-15c-1.4,1.7-3.3,2.8-5.5,3.2L19,41.9"/>
	
		<linearGradient id="SVGID_7_" gradientUnits="userSpaceOnUse" x1="-625.3209" y1="-339.0073" x2="-624.934" y2="-335.1868" gradientTransform="matrix(3.8869 0 0 -3.8869 2459.1379 -1286.4587)">
		<stop  offset="0" style="stop-color:#000000;stop-opacity:0.15"/>
		<stop  offset="0.3" style="stop-color:#000000;stop-opacity:6.000000e-02"/>
		<stop  offset="1" style="stop-color:#000000;stop-opacity:3.000000e-02"/>
	</linearGradient>
	<path class="st8" d="M39.8,11.7h-19c2.9,0,5.6,1.3,7.3,3.6l12-3"/>
</g>
</svg>
