<?xml version="1.0" encoding="UTF-8"?><svg xmlns="http://www.w3.org/2000/svg" xmlns:xlink="http://www.w3.org/1999/xlink" version="1.1" id="Layer_1" x="0px" y="0px" viewBox="0 0 16 16" xml:space="preserve"><path d="M0 7.115h.009c.095-.751.27-1.47.523-2.159s.596-1.335 1.028-1.94.931-1.129 1.497-1.573S4.289.649 5.055.393 6.645.009 7.526.009c1.377 0 2.61.314 3.701.943s1.966 1.533 2.628 2.713c.62 1.114.93 2.431.93 3.951v1.68H4.728c.006.661.165 1.235.478 1.721.313.486.72.851 1.22 1.095s1.065.414 1.694.509a7.053 7.053 0 0 0 1.904.027 9.386 9.386 0 0 0 1.859-.416 6.02 6.02 0 0 0 1.551-.755v3.37c-.548.328-1.232.602-2.051.822-.819.22-1.75.334-2.793.34-1.043.006-1.984-.152-2.825-.474-1.126-.435-2.054-1.177-2.784-2.225S1.88 11.152 1.868 9.984c-.018-1.442.313-2.669.992-3.682S4.508 4.49 5.765 3.906c-.286.358-.518.732-.697 1.122s-.316.866-.411 1.426h5.676a3.543 3.543 0 0 0-.072-1.251c-.095-.375-.235-.678-.42-.907s-.395-.428-.63-.594a2.58 2.58 0 0 0-.72-.366c-.244-.077-.468-.139-.67-.183s-.369-.07-.501-.076l-.196-.011c-.804.03-1.578.162-2.32.398s-1.407.547-1.997.934-1.115.806-1.573 1.256S.363 6.591 0 7.115z" fill="#2196F3"/><metadata><rdf:RDF xmlns:rdf="http://www.w3.org/1999/02/22-rdf-syntax-ns#" xmlns:rdfs="http://www.w3.org/2000/01/rdf-schema#" xmlns:dc="http://purl.org/dc/elements/1.1/"><rdf:Description about="https://iconscout.com/legal#licenses" dc:title="microsoft,edge,logo,color,e" dc:description="microsoft,edge,logo,color,e" dc:publisher="Iconscout" dc:date="2018-02-17" dc:format="image/svg+xml" dc:language="en"><dc:creator><rdf:Bag><rdf:li>Pixel Icons</rdf:li></rdf:Bag></dc:creator></rdf:Description></rdf:RDF></metadata></svg>