<svg width="24" height="24" viewBox="0 0 24 24" fill="none" xmlns="http://www.w3.org/2000/svg">
  <g clip-path="url(#clip0_2776_1152)">
    <path d="M21.6656 17.8594C21.3438 18.0266 21.0119 18.1738 20.6719 18.3C19.5952 18.7007 18.4551 18.904 17.3062 18.9C12.8719 18.9 9.00936 15.8531 9.00936 11.9344C9.01513 11.4096 9.16061 10.8959 9.43084 10.4461C9.70108 9.99623 10.0863 9.62652 10.5469 9.375C6.53436 9.54375 5.50311 13.725 5.50311 16.1719C5.50311 23.1094 11.8875 23.8031 13.2656 23.8031C14.0062 23.8031 15.1219 23.5875 15.7969 23.3719L15.9187 23.3344C18.5019 22.4417 20.7041 20.6958 22.1625 18.3844C22.2049 18.3141 22.2231 18.232 22.2143 18.1504C22.2055 18.0688 22.1702 17.9924 22.1138 17.9328C22.0574 17.8733 21.983 17.8338 21.9021 17.8205C21.8211 17.8073 21.7381 17.8209 21.6656 17.8594Z" fill="url(#paint0_linear_2776_1152)"/>
    <path opacity="0.35" d="M21.6656 17.8594C21.3438 18.0266 21.0119 18.1738 20.6719 18.3C19.5952 18.7007 18.4551 18.904 17.3062 18.9C12.8719 18.9 9.00936 15.8531 9.00936 11.9344C9.01513 11.4096 9.16061 10.8959 9.43084 10.4461C9.70108 9.99623 10.0863 9.62652 10.5469 9.375C6.53436 9.54375 5.50311 13.725 5.50311 16.1719C5.50311 23.1094 11.8875 23.8031 13.2656 23.8031C14.0062 23.8031 15.1219 23.5875 15.7969 23.3719L15.9187 23.3344C18.5019 22.4417 20.7041 20.6958 22.1625 18.3844C22.2049 18.3141 22.2231 18.232 22.2143 18.1504C22.2055 18.0688 22.1702 17.9924 22.1138 17.9328C22.0574 17.8733 21.983 17.8338 21.9021 17.8205C21.8211 17.8073 21.7381 17.8209 21.6656 17.8594Z" fill="url(#paint1_radial_2776_1152)"/>
    <path d="M9.90938 22.6223C9.07489 22.104 8.35155 21.4252 7.78125 20.6254C7.13001 19.734 6.68173 18.7109 6.46787 17.6279C6.254 16.5448 6.27975 15.4281 6.54329 14.3561C6.80683 13.2841 7.30178 12.2827 7.9934 11.4223C8.68503 10.5619 9.55658 9.86323 10.5469 9.37539C10.8469 9.23477 11.3438 8.99102 12.0094 9.00039C12.4778 9.00401 12.939 9.11591 13.3569 9.32734C13.7749 9.53876 14.1383 9.84398 14.4188 10.2191C14.796 10.7264 15.0027 11.3402 15.0094 11.9723C15.0094 11.9535 17.3063 4.50977 7.50938 4.50977C3.39375 4.50977 0.00937849 8.40977 0.00937849 11.841C-0.00699164 13.6535 0.380514 15.4469 1.14375 17.091C2.3937 19.7526 4.57738 21.8626 7.28028 23.0205C9.98319 24.1784 13.0172 24.3036 15.8063 23.3723C14.8291 23.6809 13.7966 23.7736 12.7801 23.6442C11.7636 23.5147 10.7873 23.166 9.91875 22.6223H9.90938Z" fill="url(#paint2_linear_2776_1152)"/>
    <path opacity="0.41" d="M9.90938 22.6223C9.07489 22.104 8.35155 21.4252 7.78125 20.6254C7.13001 19.734 6.68173 18.7109 6.46787 17.6279C6.254 16.5448 6.27975 15.4281 6.54329 14.3561C6.80683 13.2841 7.30178 12.2827 7.9934 11.4223C8.68503 10.5619 9.55658 9.86323 10.5469 9.37539C10.8469 9.23477 11.3438 8.99102 12.0094 9.00039C12.4778 9.00401 12.939 9.11591 13.3569 9.32734C13.7749 9.53876 14.1383 9.84398 14.4188 10.2191C14.796 10.7264 15.0027 11.3402 15.0094 11.9723C15.0094 11.9535 17.3063 4.50977 7.50938 4.50977C3.39375 4.50977 0.00937849 8.40977 0.00937849 11.841C-0.00699164 13.6535 0.380514 15.4469 1.14375 17.091C2.3937 19.7526 4.57738 21.8626 7.28028 23.0205C9.98319 24.1784 13.0172 24.3036 15.8063 23.3723C14.8291 23.6809 13.7966 23.7736 12.7801 23.6442C11.7636 23.5147 10.7873 23.166 9.91875 22.6223H9.90938Z" fill="url(#paint3_radial_2776_1152)"/>
    <path d="M14.2875 13.95C14.2031 14.0438 13.9688 14.1844 13.9688 14.475C13.9688 14.7187 14.1281 14.9625 14.4187 15.1594C15.7594 16.0969 18.3 15.9656 18.3094 15.9656C19.3088 15.965 20.2898 15.6963 21.15 15.1875C22.0161 14.6809 22.7347 13.9568 23.2346 13.0869C23.7345 12.2169 23.9984 11.2315 24 10.2281C24.0281 8.12813 23.25 6.73125 22.9406 6.1125C20.9438 2.23125 16.6594 5.87477e-08 12 5.87477e-08C8.84643 -0.000311772 5.81948 1.24078 3.57383 3.45485C1.32818 5.66892 0.0443471 8.67799 0 11.8312C0.046875 8.40937 3.45 5.64375 7.5 5.64375C7.82812 5.64375 9.70312 5.67187 11.4375 6.58125C12.656 7.18674 13.665 8.14353 14.3344 9.32812C14.9062 10.3219 15.0094 11.5875 15.0094 12.0938C15.0094 12.6 14.7562 13.3406 14.2781 13.9594L14.2875 13.95Z" fill="url(#paint4_radial_2776_1152)"/>
    <path d="M14.2875 13.95C14.2031 14.0438 13.9688 14.1844 13.9688 14.475C13.9688 14.7187 14.1281 14.9625 14.4187 15.1594C15.7594 16.0969 18.3 15.9656 18.3094 15.9656C19.3088 15.965 20.2898 15.6963 21.15 15.1875C22.0161 14.6809 22.7347 13.9568 23.2346 13.0869C23.7345 12.2169 23.9984 11.2315 24 10.2281C24.0281 8.12813 23.25 6.73125 22.9406 6.1125C20.9438 2.23125 16.6594 5.87477e-08 12 5.87477e-08C8.84643 -0.000311772 5.81948 1.24078 3.57383 3.45485C1.32818 5.66892 0.0443471 8.67799 0 11.8312C0.046875 8.40937 3.45 5.64375 7.5 5.64375C7.82812 5.64375 9.70312 5.67187 11.4375 6.58125C12.656 7.18674 13.665 8.14353 14.3344 9.32812C14.9062 10.3219 15.0094 11.5875 15.0094 12.0938C15.0094 12.6 14.7562 13.3406 14.2781 13.9594L14.2875 13.95Z" fill="url(#paint5_radial_2776_1152)"/>
  </g>
  <defs>
    <linearGradient id="paint0_linear_2776_1152" x1="5.50311" y1="16.5937" x2="22.2281" y2="16.5937" gradientUnits="userSpaceOnUse">
      <stop stop-color="#0C59A4"/>
      <stop offset="1" stop-color="#114A8B"/>
    </linearGradient>
    <radialGradient id="paint1_radial_2776_1152" cx="0" cy="0" r="1" gradientUnits="userSpaceOnUse" gradientTransform="translate(14.7375 16.7198) scale(8.94375 8.49656)">
      <stop offset="0.7" stop-opacity="0"/>
      <stop offset="0.9" stop-opacity="0.5"/>
      <stop offset="1"/>
    </radialGradient>
    <linearGradient id="paint2_linear_2776_1152" x1="14.3156" y1="9.33789" x2="3.88125" y2="20.7098" gradientUnits="userSpaceOnUse">
      <stop stop-color="#1B9DE2"/>
      <stop offset="0.2" stop-color="#1595DF"/>
      <stop offset="0.7" stop-color="#0680D7"/>
      <stop offset="1" stop-color="#0078D4"/>
    </linearGradient>
    <radialGradient id="paint3_radial_2776_1152" cx="0" cy="0" r="1" gradientUnits="userSpaceOnUse" gradientTransform="translate(6.61454 18.6507) rotate(-81.3844) scale(13.4424 10.8601)">
      <stop offset="0.8" stop-opacity="0"/>
      <stop offset="0.9" stop-opacity="0.5"/>
      <stop offset="1"/>
    </radialGradient>
    <radialGradient id="paint4_radial_2776_1152" cx="0" cy="0" r="1" gradientUnits="userSpaceOnUse" gradientTransform="translate(2.42719 4.43587) rotate(92.2906) scale(18.9902 40.4451)">
      <stop stop-color="#35C1F1"/>
      <stop offset="0.1" stop-color="#34C1ED"/>
      <stop offset="0.2" stop-color="#2FC2DF"/>
      <stop offset="0.3" stop-color="#2BC3D2"/>
      <stop offset="0.7" stop-color="#36C752"/>
    </radialGradient>
    <radialGradient id="paint5_radial_2776_1152" cx="0" cy="0" r="1" gradientUnits="userSpaceOnUse" gradientTransform="translate(22.5056 7.24687) rotate(73.7398) scale(9.12187 7.41791)">
      <stop stop-color="#66EB6E"/>
      <stop offset="1" stop-color="#66EB6E" stop-opacity="0"/>
    </radialGradient>
    <clipPath id="clip0_2776_1152">
      <rect width="24" height="24" fill="white"/>
    </clipPath>
  </defs>
</svg>