<?xml version="1.0" encoding="utf-8"?>
<!-- Generator: Adobe Illustrator 26.0.3, SVG Export Plug-In . SVG Version: 6.00 Build 0)  -->
<svg version="1.1" id="Слой_1" xmlns="http://www.w3.org/2000/svg" xmlns:xlink="http://www.w3.org/1999/xlink" x="0px" y="0px"
	 viewBox="0 0 16 16" style="enable-background:new 0 0 16 16;" xml:space="preserve">
<style type="text/css">
	.st0{fill:#424242;}
</style>
<g>
	<path class="st0" d="M9,1l3,2.9l0.1,2.3L13,5.3V3.5L9.4,0l0,0H0v16h13v-5.6l-1,1V15H1V1H9"/>
	<g>
		<polygon class="st0" points="12.1,3.9 8.1,3.9 8.1,0 9.1,0 9.1,2.9 11.6,2.9 		"/>
	</g>
	<g>
		<rect x="3.1" y="4.2" class="st0" width="6.9" height="1"/>
	</g>
	<g>
		<rect x="3.1" y="6.1" class="st0" width="6.9" height="1"/>
	</g>
	<g>
		<rect x="3.1" y="8.2" class="st0" width="5.8" height="1"/>
	</g>
	<g>
		<rect x="3.1" y="10.2" class="st0" width="3.9" height="1"/>
	</g>
	<g>
		<rect x="3.1" y="12.2" class="st0" width="3.9" height="1"/>
	</g>
	<path class="st0" d="M15.9,6.6L14.3,5c-0.2-0.2-0.5-0.2-0.7,0l-5.6,5.6c-0.1,0.1-0.1,0.2-0.1,0.3l0,1.6c0,0.1,0,0.3,0.1,0.3
		c0.1,0.1,0.2,0.1,0.3,0.1l1.6,0c0.1,0,0.2,0,0.3-0.1l5.5-5.5C16,7.1,16,6.8,15.9,6.6z M8.9,12l0-0.9l4-4L13.8,8l-4,4L8.9,12z
		 M14.9,6.9l-0.5,0.5l-0.9-0.9L13.9,6L14.9,6.9z"/>
	<path class="st0" d="M15.9,6.6L14.3,5c-0.2-0.2-0.5-0.2-0.7,0l-5.6,5.6c-0.1,0.1-0.1,0.2-0.1,0.3l0,1.6c0,0.1,0,0.3,0.1,0.3
		c0.1,0.1,0.2,0.1,0.3,0.1l1.6,0c0.1,0,0.2,0,0.3-0.1l5.5-5.5C16,7.1,16,6.8,15.9,6.6z M8.9,12l0-0.9l4-4L13.8,8l-4,4L8.9,12z
		 M14.9,6.9l-0.5,0.5l-0.9-0.9L13.9,6L14.9,6.9z"/>
</g>
</svg>
