<?xml version="1.0" encoding="UTF-8"?>
<svg id="Firefox_-_Large" xmlns="http://www.w3.org/2000/svg" xmlns:xlink="http://www.w3.org/1999/xlink" version="1.1" viewBox="0 0 41 42">
  <!-- Generator: Adobe Illustrator 29.6.1, SVG Export Plug-In . SVG Version: 2.1.1 Build 9)  -->
  <defs>
    <style>
      .st0 {
        fill: #fd710d;
      }

      .st1 {
        fill: #fee845;
      }

      .st2 {
        fill: url(#_Безымянный_градиент_5);
      }

      .st3 {
        fill: url(#_Безымянный_градиент_4);
      }

      .st4 {
        fill: url(#_Безымянный_градиент_6);
      }

      .st5 {
        fill: #fb9303;
      }

      .st6 {
        fill: #fe4321;
      }

      .st7 {
        fill: #ffba44;
      }

      .st8 {
        fill: #114ecd;
      }

      .st9 {
        fill: #dd1652;
      }

      .st10 {
        fill: #036be8;
      }

      .st11 {
        fill: #feb000;
      }

      .st12 {
        fill: #0183fc;
      }

      .st13 {
        fill: #2d319e;
      }
    </style>
    <radialGradient id="_Безымянный_градиент_4" data-name="Безымянный градиент 4" cx="-9329.85" cy="-6170.53" fx="-9329.85" fy="-6170.53" r="11.13" gradientTransform="translate(10656.39 8696.39) rotate(5.76) scale(1.23)" gradientUnits="userSpaceOnUse">
      <stop offset="0" stop-color="#ffea00"/>
      <stop offset=".5" stop-color="#ff272d"/>
      <stop offset="1" stop-color="#c42482"/>
    </radialGradient>
    <radialGradient id="_Безымянный_градиент_5" data-name="Безымянный градиент 5" cx="-9330.86" cy="-6181.2" fx="-9330.86" fy="-6181.2" r="18.58" gradientTransform="translate(10656.39 8696.39) rotate(5.76) scale(1.23)" gradientUnits="userSpaceOnUse">
      <stop offset="0" stop-color="#ffe900"/>
      <stop offset=".16" stop-color="#ffaf0e"/>
      <stop offset=".32" stop-color="#ff7a1b"/>
      <stop offset=".47" stop-color="#ff4e26"/>
      <stop offset=".62" stop-color="#ff2c2e"/>
      <stop offset=".76" stop-color="#ff1434"/>
      <stop offset=".89" stop-color="#ff0538"/>
      <stop offset="1" stop-color="#ff0039"/>
    </radialGradient>
    <radialGradient id="_Безымянный_градиент_6" data-name="Безымянный градиент 6" cx="-9328.23" cy="-6163.98" fx="-9328.23" fy="-6163.98" r="17.05" gradientTransform="translate(10656.39 8696.39) rotate(5.76) scale(1.23)" gradientUnits="userSpaceOnUse">
      <stop offset="0" stop-color="#ff272d"/>
      <stop offset=".5" stop-color="#c42482"/>
      <stop offset=".99" stop-color="#620700"/>
    </radialGradient>
  </defs>
  <path id="_Path_" class="st13" d="M20.86,41.08c10.19,0,18.53-8.33,18.53-18.62S31.06,3.83,20.86,3.83,2.34,12.16,2.34,22.46c0,10.29,8.23,18.62,18.53,18.62Z"/>
  <path id="_Path_1" data-name="_Path_" class="st8" d="M22.51,36.98c8.96,0,16.29-7.33,16.29-16.38S31.48,4.22,22.51,4.22,6.22,11.55,6.22,20.6c0,9.05,7.24,16.38,16.29,16.38Z"/>
  <path id="_Path_2" data-name="_Path_" class="st10" d="M23.12,30.85c7.03,0,12.77-5.74,12.77-12.84s-5.74-12.84-12.77-12.84-12.77,5.74-12.77,12.84c0,7.09,5.68,12.84,12.77,12.84Z"/>
  <path id="_Path_3" data-name="_Path_" class="st12" d="M24.76,26.72c5.7,0,10.36-4.66,10.36-10.42s-4.66-10.42-10.36-10.42-10.36,4.66-10.36,10.42c0,5.76,4.6,10.42,10.36,10.42Z"/>
  <path class="st11" d="M33.02,4.22c-.98,1.18-1.47,3.82-.49,6.47.98,2.65,2.55,2.06,3.53,4.8,1.27,3.53.69,8.33.69,8.33,0,0,1.57,4.41,2.65-.29,2.35-8.82-6.37-17.06-6.37-19.31Z"/>
  <path class="st8" d="M34.69,33.93c-.39.29-.78.49-1.27.78.59-.88,1.08-1.76,1.57-2.65.39-.39.78-.88,1.08-1.27.1-.2.29-.49.49-.78,1.08-1.86,2.16-4.9,2.25-8.04h0v-.2c0-.78-.1-1.57-.2-2.35v.2-.1.29c.2,1.76.1,3.53-.69,4.9v.1c.39-1.96.49-4.12.1-6.27,0,0-.2-1.08-1.47-4.31-.78-1.86-2.06-3.33-3.23-4.51-1.08-1.27-1.96-2.16-2.45-2.65-1.08-1.18-1.57-1.96-1.67-2.55-.2-.1-2.25-2.06-2.35-2.16-.88,1.37-3.72,5.78-2.35,9.8.59,1.86,2.16,3.72,3.72,4.8.1.1.98,1.08,1.37,3.23.39,2.25.2,4.02-.69,6.57-1.08,2.25-3.72,4.51-6.27,4.71-5.39.49-7.35-2.74-7.35-2.74,1.96.78,4.12.59,5.39-.2,1.27-.78,2.06-1.37,2.74-1.18.59.2,1.18-.49.69-1.18-.69-1.08-2.06-1.67-3.33-1.47s-2.55,1.27-4.21.29c-.1-.1-.2-.1-.29-.2s.39.1.29,0c-.29-.2-.88-.59-1.08-.69,0,0,.29.1.2.1-1.57-1.27-1.37-2.25-1.37-2.74s.29-.98.78-1.27l.39.2s-.1-.2-.2-.29h.1c.2.1.59.29.88.49.29.2.39.39.39.39,0,0,.1,0,0-.2,0-.1-.1-.29-.39-.59h0c.2.1.29.2.49.39.1-.29.2-.59.2-1.18,0-.39,0-.49-.1-.69-.1-.1,0-.2.1,0,0-.1-.1-.2-.1-.29h0c.1-.49,2.84-1.67,3.04-1.86.29-.2.59-.49.78-.88.2-.2.29-.59.29-1.08,0-.39-.2-.59-2.94-.88-.78-.1-1.18-.59-1.47-1.08,0-.1-.1-.2-.1-.29s-.1-.2-.1-.39c.49-1.27,1.18-2.35,2.35-3.23.1-.1-.2,0-.2,0,.1-.1.49-.29.59-.29.1-.1-.49-.29-.98-.2s-.59.1-.88.2c.1-.1.49-.29.39-.29-.59.1-1.18.39-1.76.78v-.2c-.29.1-.88.59-1.08.98v-.2l-.59.59h0c-1.57-.59-2.94-.69-4.12-.39-.29-.49-.49-.29-1.08-1.57,0-.1,0,.1,0,0-.1-.29.1.29,0,0-.98.78-2.25,1.67-2.84,2.25,0,0,.69-.2,0,0-.29.1-.2.2-.29,1.57v.29c-.49.59-.78,1.18-.98,1.47-.59,1.08-1.37,2.74-1.96,5.49.29-.69.69-1.47,1.08-2.06-.59,1.47-1.08,3.63-1.18,7.16.1-.69.29-1.37.49-2.16-.1,2.84.39,5.69,1.47,8.43.39.98,1.08,2.35,2.16,4.02,3.43,3.63,8.33,5.88,13.63,5.88,5.59-.2,10.68-2.65,14.12-6.57Z"/>
  <path class="st3" d="M30.57,36.57c6.76-.78,9.8-7.74,5.98-7.94-3.53-.1-9.21,8.33-5.98,7.94Z"/>
  <path class="st2" d="M36.94,27.26c4.71-2.74,3.43-8.63,3.43-8.63,0,0-1.76,2.06-3.04,5.39-1.18,3.33-3.14,4.8-.39,3.23Z"/>
  <path class="st4" d="M22.14,40.1c6.47,2.06,12.15-3.04,8.63-4.8-3.14-1.57-11.76,3.82-8.63,4.8Z"/>
  <path class="st6" d="M37.43,29.71c.2-.2.39-.98.59-1.27,1.18-1.86,1.18-3.33,1.18-3.33.69-3.43.59-4.9.2-7.55-.39-2.16-1.86-5.1-3.14-6.57-1.37-1.47-.39-.98-1.67-2.06-1.18-1.27-2.25-2.55-2.84-3.04-4.31-3.63-4.21-4.41-4.21-4.51l-.1.1c-.1-.2-.1-.39-.1-.39,0,0-2.35,2.35-2.84,6.37-.29,2.55.69,5.29,2.06,6.96.69.88,1.57,1.67,2.45,2.45h0c1.08,1.57,1.67,3.43,1.67,5.39,0,5.1-4.12,9.12-9.12,9.12-.69,0-1.37-.1-2.06-.2-2.35-.49-3.72-1.67-4.41-2.45-.39-.49-.59-.78-.59-.78,2.16.78,4.51.59,5.98-.2,1.47-.78,2.35-1.37,3.04-1.18.69.2,1.27-.49.78-1.18s-1.76-1.67-3.63-1.47c-1.47.2-2.74,1.27-4.71.2-.1-.1-.2-.1-.39-.2-.1-.1.39.1.29,0-.39-.2-.98-.59-1.18-.69l.29.1c-1.76-1.27-1.57-2.16-1.47-2.74,0-.49.39-.98.88-1.27.29.1.39.2.39.2,0,0-.1-.2-.2-.29h.1c.2.1.69.29.98.49s.39.39.39.39c0,0,.1,0,0-.2,0-.1-.1-.29-.49-.59h0c.2.1.39.2.59.29.1-.29.29-.59.2-1.18,0-.39,0-.49-.1-.69-.1-.1,0-.2.2,0,0-.1-.1-.2-.1-.29h0c.2-.49,3.14-1.67,3.33-1.86.39-.2.69-.49.88-.88.2-.2.29-.59.29-1.08,0-.2-.1-.39-.88-.59-.49-.1-1.18-.2-2.35-.29-.78-.1-1.27-.59-1.57-1.08-.1-.1-.1-.2-.2-.29,0-.1-.1-.2-.1-.39.49-1.27,1.37-2.45,2.55-3.14.1-.1-.29,0-.2,0,.1-.1.59-.29.69-.29.1-.1-.49-.29-1.08-.2-.59.1-.69.1-.98.2.1-.1.49-.29.39-.29-.59.1-1.37.39-1.96.78v-.2c-.29.1-.98.59-1.27.98v-.2l-.59.59h0c-1.76-.59-3.23-.69-4.51-.39-.2-.2-.69-.59-1.37-1.86,0-.1-.1.2-.1.1-.2-.59-.39-1.57-.29-2.16,0,0-.49.2-.98,1.18-.1.2-.1.29-.2.39,0,0,.1-.29,0-.29,0,.1-.2.29-.29.49s-.1.29-.2.49h0c0-.1,0-.29,0-.2-.2.39-.39.78-.49,1.27-.29.69-.49,1.76-.59,3.04v.29c-.59.59-.88,1.18-1.08,1.37-.69,1.08-1.47,2.74-2.25,5.39.29-.69.69-1.47,1.18-2.06-.59,1.37-1.18,3.63-1.37,7.06.2-.69.39-1.37.59-2.06,0,2.35.29,5.2,1.67,8.43.88,1.86,2.84,5.69,7.65,8.72h0s8.83,2.73,10.79,2.65c6.98-.3,9.3-2.45,9.3-2.45h0c.1-.1.2-.2.29-.29-1.18,1.08-3.82,1.18-4.8,1.08,1.67-.49,2.74-.88,4.9-1.76.29-.1.49-.2.78-.29h.1q.1,0,.2-.1c1.08-.49,2.06-1.08,2.94-1.86,2.16-1.76,2.65-3.43,2.84-4.51,0,.1-.1.39-.2.49-.59,1.18-1.76,1.96-3.14,2.55.59-.88,1.27-1.67,1.76-2.65.59-.39.69-1.08.98-1.57Z"/>
  <path class="st9" d="M7.53,6.97c0-.1-.1.2-.1.1-.29-.59-.49-1.57-.39-2.16,0,0-.49.2-.98,1.18-.1.2-.1.29-.2.39,0,0,.1-.29,0-.29,0,.1-.2.29-.29.49,0,.2-.1.29-.2.49,0,.1,0-.29,0-.2-.98,1.86-1.18,4.8-1.08,4.71,2.06-2.25,4.51-2.74,4.51-2.74-.2-.29-.78-.78-1.27-1.96h0Z"/>
  <path class="st5" d="M34.2,22.75c-1.47-3.14-3.43-4.51-5.2-5.98.2.29.29.39.39.59,1.57,1.67,3.92,5.78,2.25,10.88-3.14,9.7-15.88,5.1-17.25,3.82.59,5.59,9.9,8.33,16.08,4.61,3.43-3.14,6.18-8.72,3.72-13.92Z"/>
  <path class="st9" d="M38.19,15.37c-.83-1.99-2.51-4.14-3.82-4.82.94,1.82,1.59,3.76,1.93,5.78v.04c1.47,4.2,1.26,8.8-.59,12.85-2.18,4.68-7.46,9.48-15.73,9.25-8.93-.25-16.8-6.88-18.27-15.56-.27-1.37,0-2.06.13-3.18-.18.86-.29,1.74-.31,2.63v.1c0,10.51,8.55,18.5,19.06,19.02,9.61.47,17.17-6.68,18.75-15.8.03-.25.06-.49.09-.74.39-3.24-.03-6.53-1.23-9.56h0Z"/>
  <path class="st7" d="M34.78,33.83c.88-.98,1.67-2.06,2.25-3.33,1.57-3.23,3.92-8.63,2.06-14.21-1.47-4.41-3.53-6.86-6.08-9.21-4.21-3.82-5.39-5.59-5.39-6.57,0,0-4.8,5.39-2.74,10.98,2.06,5.59,6.37,5.39,9.21,11.27,3.33,6.96-2.74,14.41-7.74,16.57.29-.1,10.64-2.14,11.66-8.43.1.1-.1,1.57-3.23,2.94Z"/>
  <path class="st1" d="M34.78,33.83c4.31-4.31,6.57-9.41,5.59-15.29,0,0,.39,2.94-1.08,6.08.69-2.94.78-6.67-1.08-10.49-2.35-5.1-6.37-7.84-7.84-8.92-2.25-1.67-3.23-3.43-3.23-3.82-.69,1.37-2.74,6.18-.2,10.29,2.35,3.82,6.08,5,8.72,8.53,4.9,6.57-.88,13.63-.88,13.63Z"/>
  <path class="st0" d="M20.86,13.66c0-.39-.2-.59-3.23-.88-1.27-.1-1.76-1.27-1.86-1.76-.49,1.18-.59,2.35-.49,3.82.1.98.69,1.96.98,2.55l.1-.1c.59-.59,3.04-1.47,3.23-1.67.29-.1,1.27-.78,1.27-1.96Z"/>
</svg>