<?xml version="1.0" encoding="utf-8"?>
<!-- Generator: Adobe Illustrator 22.1.0, SVG Export Plug-In . SVG Version: 6.00 Build 0)  -->
<svg version="1.1" id="Firefox_-_Large" xmlns="http://www.w3.org/2000/svg" xmlns:xlink="http://www.w3.org/1999/xlink" x="0px"
	 y="0px" viewBox="0 0 41 42" style="enable-background:new 0 0 41 42;" xml:space="preserve">
<style type="text/css">
	.st0{fill:url(#SVGID_1_);}
	.st1{fill:url(#_Path__1_);}
	.st2{fill:url(#SVGID_2_);}
	.st3{fill:url(#SVGID_3_);}
	.st4{fill:url(#SVGID_4_);}
	.st5{fill:url(#SVGID_5_);}
	.st6{fill:url(#SVGID_6_);}
	.st7{fill:url(#SVGID_7_);}
	.st8{fill:url(#SVGID_8_);}
	.st9{fill:url(#SVGID_9_);}
	.st10{fill:url(#SVGID_10_);}
	.st11{fill:url(#SVGID_11_);}
	.st12{fill:url(#SVGID_12_);}
	.st13{fill:url(#SVGID_13_);}
</style>
<title>firefox-logo</title>
<g>
	
		<radialGradient id="SVGID_1_" cx="-15482.4756" cy="8601.8506" r="19.1795" fx="-15483.6992" fy="8601.8506" gradientTransform="matrix(0.762 3.400000e-02 5.000000e-02 -1.12 11406.4092 10171.0918)" gradientUnits="userSpaceOnUse">
		<stop  offset="4.500000e-02" style="stop-color:#FFEA00"/>
		<stop  offset="0.12" style="stop-color:#FFDE00"/>
		<stop  offset="0.254" style="stop-color:#FFBF00"/>
		<stop  offset="0.429" style="stop-color:#FF8E00"/>
		<stop  offset="0.769" style="stop-color:#FF272D"/>
		<stop  offset="0.872" style="stop-color:#E0255A"/>
		<stop  offset="0.953" style="stop-color:#CC2477"/>
		<stop  offset="1" style="stop-color:#C42482"/>
	</radialGradient>
	<path class="st0" d="M33,4c-1,1.2-1.5,3.9-0.5,6.6c1,2.7,2.6,2.1,3.6,4.9c1.3,3.6,0.7,8.5,0.7,8.5s1.6,4.5,2.7-0.3
		C41.9,14.7,33,6.3,33,4z"/>
	
		<radialGradient id="_Path__1_" cx="-8182.6079" cy="8170.0771" r="33.6575" gradientTransform="matrix(1.225 0 0 -1.225 10052.125 10016.7021)" gradientUnits="userSpaceOnUse">
		<stop  offset="0" style="stop-color:#00CCDA"/>
		<stop  offset="0.22" style="stop-color:#0083FF"/>
		<stop  offset="0.261" style="stop-color:#007AF9"/>
		<stop  offset="0.33" style="stop-color:#0060E8"/>
		<stop  offset="0.333" style="stop-color:#005FE7"/>
		<stop  offset="0.438" style="stop-color:#2639AD"/>
		<stop  offset="0.522" style="stop-color:#401E84"/>
		<stop  offset="0.566" style="stop-color:#4A1475"/>
	</radialGradient>
	<path id="_Path_" class="st1" d="M20.6,41.6c10.4,0,18.9-8.5,18.9-19s-8.5-19-18.9-19s-18.9,8.5-18.9,19
		C1.7,33.1,10.1,41.6,20.6,41.6z"/>
	
		<linearGradient id="SVGID_2_" gradientUnits="userSpaceOnUse" x1="23.221" y1="10.839" x2="15.0776" y2="37.4777" gradientTransform="matrix(1 0 0 -1 0 42)">
		<stop  offset="0" style="stop-color:#000F43;stop-opacity:0.4"/>
		<stop  offset="0.485" style="stop-color:#001962;stop-opacity:0.173"/>
		<stop  offset="1" style="stop-color:#002079;stop-opacity:0"/>
	</linearGradient>
	<path class="st2" d="M34.7,34.3c-0.4,0.3-0.8,0.5-1.3,0.8c0.6-0.9,1.1-1.8,1.6-2.7c0.4-0.4,0.8-0.9,1.1-1.3
		c0.1-0.2,0.3-0.5,0.5-0.8c1.1-1.9,2.2-5,2.3-8.2v0c0-0.1,0-0.2,0-0.2c0-0.8-0.1-1.6-0.2-2.4c0,0.1,0,0.1,0,0.2c0,0,0-0.1,0-0.1
		c0,0.1,0,0.2,0,0.3c0.2,1.8,0.1,3.6-0.7,5c0,0,0,0,0,0.1c0.4-2,0.5-4.2,0.1-6.4c0,0-0.2-1.1-1.5-4.4c-0.8-1.9-2.1-3.4-3.3-4.6
		c-1.1-1.3-2-2.2-2.5-2.7c-1.1-1.2-1.6-2-1.7-2.6c-0.2-0.1-2.3-2.1-2.4-2.2c-0.9,1.4-3.8,5.9-2.4,10c0.6,1.9,2.2,3.8,3.8,4.9
		c0.1,0.1,1,1.1,1.4,3.3c0.4,2.3,0.2,4.1-0.7,6.7c-1.1,2.3-3.8,4.6-6.4,4.8c-5.5,0.5-7.5-2.8-7.5-2.8c2,0.8,4.2,0.6,5.5-0.2
		c1.3-0.8,2.1-1.4,2.8-1.2c0.6,0.2,1.2-0.5,0.7-1.2c-0.7-1.1-2.1-1.7-3.4-1.5c-1.3,0.2-2.6,1.3-4.3,0.3c-0.1-0.1-0.2-0.1-0.3-0.2
		c-0.1-0.1,0.4,0.1,0.3,0c-0.3-0.2-0.9-0.6-1.1-0.7c0,0,0.3,0.1,0.2,0.1c-1.6-1.3-1.4-2.3-1.4-2.8c0-0.5,0.3-1,0.8-1.3
		c0.2,0.1,0.4,0.2,0.4,0.2s-0.1-0.2-0.2-0.3c0,0,0,0,0.1,0c0.2,0.1,0.6,0.3,0.9,0.5c0.3,0.2,0.4,0.4,0.4,0.4s0.1,0,0-0.2
		c0-0.1-0.1-0.3-0.4-0.6l0,0c0.2,0.1,0.3,0.2,0.5,0.4c0.1-0.3,0.2-0.6,0.2-1.2c0-0.4,0-0.5-0.1-0.7c-0.1-0.1,0-0.2,0.1,0
		c0-0.1-0.1-0.2-0.1-0.3l0,0c0.1-0.5,2.9-1.7,3.1-1.9c0.3-0.2,0.6-0.5,0.8-0.9c0.2-0.2,0.3-0.6,0.3-1.1c0-0.4-0.2-0.6-3-0.9
		c-0.8-0.1-1.2-0.6-1.5-1.1c0-0.1-0.1-0.2-0.1-0.3c0-0.1-0.1-0.2-0.1-0.4c0.5-1.3,1.2-2.4,2.4-3.3c0.1-0.1-0.2,0-0.2,0
		c0.1-0.1,0.5-0.3,0.6-0.3c0.1-0.1-0.5-0.3-1-0.2c-0.5,0.1-0.6,0.1-0.9,0.2c0.1-0.1,0.5-0.3,0.4-0.3c-0.6,0.1-1.2,0.4-1.8,0.8
		c0-0.1,0-0.1,0-0.2c-0.3,0.1-0.9,0.6-1.1,1c0-0.1,0-0.2,0-0.2c-0.2,0.2-0.4,0.4-0.6,0.6l0,0c-1.6-0.6-3-0.7-4.2-0.4
		C9.3,9.1,9.1,9.3,8.5,8c0-0.1,0,0.1,0,0c-0.1-0.3,0.1,0.3,0,0c-1,0.8-2.3,1.7-2.9,2.3c0,0,0.7-0.2,0,0c-0.3,0.1-0.2,0.2-0.3,1.6
		c0,0.1,0,0.2,0,0.3c-0.5,0.6-0.8,1.2-1,1.5c-0.6,1.1-1.4,2.8-2,5.6c0.3-0.7,0.7-1.5,1.1-2.1c-0.6,1.5-1.1,3.7-1.2,7.3
		c0.1-0.7,0.3-1.4,0.5-2.2c-0.1,2.9,0.4,5.8,1.5,8.6c0.4,1,1.1,2.4,2.2,4.1c3.5,3.7,8.5,6,13.9,6C26,40.8,31.2,38.3,34.7,34.3z"/>
	
		<radialGradient id="SVGID_3_" cx="-9195.6797" cy="7076.0688" r="11.3529" gradientTransform="matrix(1.219 0.123 0.123 -1.219 10381.6279 9783.9697)" gradientUnits="userSpaceOnUse">
		<stop  offset="3.000000e-03" style="stop-color:#FFEA00"/>
		<stop  offset="0.497" style="stop-color:#FF272D"/>
		<stop  offset="1" style="stop-color:#C42482"/>
	</radialGradient>
	<path class="st3" d="M30.5,37c6.9-0.8,10-7.9,6.1-8.1C33,28.8,27.2,37.4,30.5,37z"/>
	
		<radialGradient id="SVGID_4_" cx="-9196.707" cy="7086.9551" r="18.9584" gradientTransform="matrix(1.219 0.123 0.123 -1.219 10381.6279 9783.9697)" gradientUnits="userSpaceOnUse">
		<stop  offset="3.000000e-03" style="stop-color:#FFE900"/>
		<stop  offset="0.157" style="stop-color:#FFAF0E"/>
		<stop  offset="0.316" style="stop-color:#FF7A1B"/>
		<stop  offset="0.472" style="stop-color:#FF4E26"/>
		<stop  offset="0.621" style="stop-color:#FF2C2E"/>
		<stop  offset="0.762" style="stop-color:#FF1434"/>
		<stop  offset="0.892" style="stop-color:#FF0538"/>
		<stop  offset="1" style="stop-color:#FF0039"/>
	</radialGradient>
	<path class="st4" d="M37,27.5c4.8-2.8,3.5-8.8,3.5-8.8s-1.8,2.1-3.1,5.5C36.2,27.6,34.2,29.1,37,27.5z"/>
	
		<radialGradient id="SVGID_5_" cx="-9194.0254" cy="7069.3809" r="17.3964" gradientTransform="matrix(1.219 0.123 0.123 -1.219 10381.6279 9783.9697)" gradientUnits="userSpaceOnUse">
		<stop  offset="3.000000e-03" style="stop-color:#FF272D"/>
		<stop  offset="0.497" style="stop-color:#C42482"/>
		<stop  offset="0.986" style="stop-color:#620700"/>
	</radialGradient>
	<path class="st5" d="M21.9,40.6c6.6,2.1,12.4-3.1,8.8-4.9C27.5,34.1,18.7,39.6,21.9,40.6z"/>
	
		<radialGradient id="SVGID_6_" cx="30.6456" cy="25.0959" r="33.2726" fx="31.8358" fy="24.5076" gradientTransform="matrix(1 0 0 -1 0 42)" gradientUnits="userSpaceOnUse">
		<stop  offset="0.156" style="stop-color:#FFEA00"/>
		<stop  offset="0.231" style="stop-color:#FFDE00"/>
		<stop  offset="0.365" style="stop-color:#FFBF00"/>
		<stop  offset="0.541" style="stop-color:#FF8E00"/>
		<stop  offset="0.763" style="stop-color:#FF272D"/>
		<stop  offset="0.796" style="stop-color:#F92433"/>
		<stop  offset="0.841" style="stop-color:#E91C45"/>
		<stop  offset="0.893" style="stop-color:#CF0E62"/>
		<stop  offset="0.935" style="stop-color:#B5007F"/>
	</radialGradient>
	<path class="st6" d="M37.5,30c0.2-0.2,0.4-1,0.6-1.3c1.2-1.9,1.2-3.4,1.2-3.4c0.7-3.5,0.6-5,0.2-7.7c-0.4-2.2-1.9-5.2-3.2-6.7
		c-1.4-1.5-0.4-1-1.7-2.1c-1.2-1.3-2.3-2.6-2.9-3.1c-4.4-3.7-4.3-4.5-4.3-4.6c0,0,0,0-0.1,0.1c-0.1-0.2-0.1-0.4-0.1-0.4
		s-2.4,2.4-2.9,6.5c-0.3,2.6,0.7,5.4,2.1,7.1c0.7,0.9,1.6,1.7,2.5,2.5v0c1.1,1.6,1.7,3.5,1.7,5.5c0,5.2-4.2,9.3-9.3,9.3
		c-0.7,0-1.4-0.1-2.1-0.2c-2.4-0.5-3.8-1.7-4.5-2.5c-0.4-0.5-0.6-0.8-0.6-0.8c2.2,0.8,4.6,0.6,6.1-0.2c1.5-0.8,2.4-1.4,3.1-1.2
		c0.7,0.2,1.3-0.5,0.8-1.2c-0.5-0.7-1.8-1.7-3.7-1.5c-1.5,0.2-2.8,1.3-4.8,0.2c-0.1-0.1-0.2-0.1-0.4-0.2c-0.1-0.1,0.4,0.1,0.3,0
		c-0.4-0.2-1-0.6-1.2-0.7c0,0,0.3,0.1,0.3,0.1c-1.8-1.3-1.6-2.2-1.5-2.8c0-0.5,0.4-1,0.9-1.3c0.3,0.1,0.4,0.2,0.4,0.2
		s-0.1-0.2-0.2-0.3c0,0,0,0,0.1,0c0.2,0.1,0.7,0.3,1,0.5c0.3,0.2,0.4,0.4,0.4,0.4s0.1,0,0-0.2c0-0.1-0.1-0.3-0.5-0.6l0,0
		c0.2,0.1,0.4,0.2,0.6,0.3c0.1-0.3,0.3-0.6,0.2-1.2c0-0.4,0-0.5-0.1-0.7c-0.1-0.1,0-0.2,0.2,0c0-0.1-0.1-0.2-0.1-0.3l0,0
		c0.2-0.5,3.2-1.7,3.4-1.9c0.4-0.2,0.7-0.5,0.9-0.9c0.2-0.2,0.3-0.6,0.3-1.1c0-0.2-0.1-0.4-0.9-0.6c-0.5-0.1-1.2-0.2-2.4-0.3
		c-0.8-0.1-1.3-0.6-1.6-1.1c-0.1-0.1-0.1-0.2-0.2-0.3c0-0.1-0.1-0.2-0.1-0.4c0.5-1.3,1.4-2.5,2.6-3.2c0.1-0.1-0.3,0-0.2,0
		c0.1-0.1,0.6-0.3,0.7-0.3c0.1-0.1-0.5-0.3-1.1-0.2c-0.6,0.1-0.7,0.1-1,0.2c0.1-0.1,0.5-0.3,0.4-0.3c-0.6,0.1-1.4,0.4-2,0.8
		c0-0.1,0-0.1,0-0.2c-0.3,0.1-1,0.6-1.3,1c0-0.1,0-0.2,0-0.2c-0.2,0.2-0.4,0.4-0.6,0.6l0,0c-1.8-0.6-3.3-0.7-4.6-0.4
		C8.1,8.5,7.6,8.1,6.9,6.8c0-0.1-0.1,0.2-0.1,0.1C6.6,6.3,6.4,5.3,6.5,4.7c0,0-0.5,0.2-1,1.2C5.4,6.1,5.4,6.2,5.3,6.3
		c0,0,0.1-0.3,0-0.3C5.3,6.1,5.1,6.3,5,6.5C4.9,6.7,4.9,6.8,4.8,7l0,0c0-0.1,0-0.3,0-0.2C4.6,7.2,4.4,7.6,4.3,8.1
		C4,8.8,3.8,9.9,3.7,11.2c0,0.1,0,0.2,0,0.3c-0.6,0.6-0.9,1.2-1.1,1.4c-0.7,1.1-1.5,2.8-2.3,5.5c0.3-0.7,0.7-1.5,1.2-2.1
		c-0.6,1.4-1.2,3.7-1.4,7.2c0.2-0.7,0.4-1.4,0.6-2.1C0.7,23.8,1,26.7,2.4,30c0.9,1.9,2.9,5.8,7.8,8.9l0,0c0,0,1.7,1.2,4.6,2.2
		c0.2,0.1,0.4,0.2,0.6,0.2c-0.1,0-0.1-0.1-0.2-0.1c1.9,0.6,3.9,0.9,5.9,0.9c7.5,0,9.6-3,9.6-3s0,0,0,0c0.1-0.1,0.2-0.2,0.3-0.3
		c-1.2,1.1-3.9,1.2-4.9,1.1c1.7-0.5,2.8-0.9,5-1.8c0.3-0.1,0.5-0.2,0.8-0.3c0,0,0.1,0,0.1,0c0.1,0,0.1,0,0.2-0.1
		c1.1-0.5,2.1-1.1,3-1.9c2.2-1.8,2.7-3.5,2.9-4.6c0,0.1-0.1,0.4-0.2,0.5c-0.6,1.2-1.8,2-3.2,2.6c0.6-0.9,1.3-1.7,1.8-2.7
		C37.1,31.2,37.2,30.5,37.5,30z"/>
	
		<radialGradient id="SVGID_7_" cx="28.1423" cy="41.8029" r="39.289" gradientTransform="matrix(1 0 0 -1 0 42)" gradientUnits="userSpaceOnUse">
		<stop  offset="0.279" style="stop-color:#FFEA00"/>
		<stop  offset="0.402" style="stop-color:#FFDD00"/>
		<stop  offset="0.63" style="stop-color:#FFBA00"/>
		<stop  offset="0.856" style="stop-color:#FF9100"/>
		<stop  offset="0.933" style="stop-color:#FF6711"/>
		<stop  offset="0.994" style="stop-color:#FF4A1D"/>
	</radialGradient>
	<path class="st7" d="M34.8,34.2c0.9-1,1.7-2.1,2.3-3.4c1.6-3.3,4-8.8,2.1-14.5c-1.5-4.5-3.6-7-6.2-9.4c-4.3-3.9-5.5-5.7-5.5-6.7
		c0,0-4.9,5.5-2.8,11.2s6.5,5.5,9.4,11.5c3.4,7.1-2.8,14.7-7.9,16.9c0.3-0.1,11.4-2.6,11.9-8.9C38.2,31,38,32.8,34.8,34.2z"/>
	
		<linearGradient id="SVGID_8_" gradientUnits="userSpaceOnUse" x1="-9224.7188" y1="7082.7495" x2="-9212.623" y2="7085.833" gradientTransform="matrix(1.219 0.123 0.123 -1.219 10381.6279 9783.9697)">
		<stop  offset="0" style="stop-color:#C42482;stop-opacity:0.5"/>
		<stop  offset="0.474" style="stop-color:#FF272D;stop-opacity:0.5"/>
		<stop  offset="0.486" style="stop-color:#FF2C2C;stop-opacity:0.513"/>
		<stop  offset="0.675" style="stop-color:#FF7A1A;stop-opacity:0.72"/>
		<stop  offset="0.829" style="stop-color:#FFB20D;stop-opacity:0.871"/>
		<stop  offset="0.942" style="stop-color:#FFD605;stop-opacity:0.964"/>
		<stop  offset="1" style="stop-color:#FFE302"/>
	</linearGradient>
	<path class="st8" d="M20.5,13.7c0-0.4-0.2-0.6-3.3-0.9c-1.3-0.1-1.8-1.3-1.9-1.8c-0.5,1.2-0.6,2.4-0.5,3.9c0.1,1,0.7,2,1,2.6
		c0,0,0.1-0.1,0.1-0.1c0.6-0.6,3.1-1.5,3.3-1.7C19.5,15.6,20.5,14.9,20.5,13.7z"/>
	
		<linearGradient id="SVGID_9_" gradientUnits="userSpaceOnUse" x1="75.3484" y1="1415.5276" x2="73.027" y2="1421.4764" gradientTransform="matrix(0.995 0.1 0.1 -0.995 -210.1885 1412.1111)">
		<stop  offset="0" style="stop-color:#891551;stop-opacity:0.6"/>
		<stop  offset="1" style="stop-color:#C42482;stop-opacity:0"/>
	</linearGradient>
	<path class="st9" d="M7,6.8c0-0.1-0.1,0.2-0.1,0.1C6.6,6.3,6.4,5.3,6.5,4.7c0,0-0.5,0.2-1,1.2C5.4,6.1,5.4,6.2,5.3,6.3
		c0,0,0.1-0.3,0-0.3C5.3,6.1,5.1,6.3,5,6.5C5,6.7,4.9,6.8,4.8,7c0,0.1,0-0.3,0-0.2c-1,1.9-1.2,4.9-1.1,4.8c2.1-2.3,4.6-2.8,4.6-2.8
		C8.1,8.5,7.5,8,7,6.8L7,6.8z"/>
	
		<linearGradient id="SVGID_10_" gradientUnits="userSpaceOnUse" x1="-241.2045" y1="-193.4816" x2="-237.2013" y2="-198.0284" gradientTransform="matrix(0.995 0.1 0.1 -0.995 268.9465 -148.301)">
		<stop  offset="5.000000e-03" style="stop-color:#891551;stop-opacity:0.5"/>
		<stop  offset="0.484" style="stop-color:#FF272D;stop-opacity:0.5"/>
		<stop  offset="1" style="stop-color:#FF272D;stop-opacity:0"/>
	</linearGradient>
	<path class="st10" d="M15.1,30.8c-3-1.3-6.3-3.1-6.2-7.1c0.2-5.3,5-4.3,5-4.3c-0.2,0-0.7,0.4-0.8,0.8c-0.2,0.5-0.5,1.5,0.5,2.6
		c1.6,1.7-3.2,4.1,4.2,8.5C17.9,31.3,16,31.2,15.1,30.8L15.1,30.8z"/>
	
		<linearGradient id="SVGID_11_" gradientUnits="userSpaceOnUse" x1="-233.6317" y1="-201.3831" x2="-233.6289" y2="-198.2021" gradientTransform="matrix(0.995 0.1 0.1 -0.995 268.9465 -148.301)">
		<stop  offset="0" style="stop-color:#C42482"/>
		<stop  offset="8.299999e-02" style="stop-color:#C42482;stop-opacity:0.81"/>
		<stop  offset="0.206" style="stop-color:#C42482;stop-opacity:0.565"/>
		<stop  offset="0.328" style="stop-color:#C42482;stop-opacity:0.362"/>
		<stop  offset="0.447" style="stop-color:#C42482;stop-opacity:0.204"/>
		<stop  offset="0.562" style="stop-color:#C42482;stop-opacity:9.100000e-02"/>
		<stop  offset="0.673" style="stop-color:#C42482;stop-opacity:2.300000e-02"/>
		<stop  offset="0.773" style="stop-color:#C42482;stop-opacity:0"/>
	</linearGradient>
	<path class="st11" d="M14.1,28.1c2.1,0.7,4.6,0.6,6-0.2c1-0.5,2.2-1.4,3-1.2c-0.7-0.3-1.2-0.4-1.8-0.4c-0.1,0-0.2,0-0.3,0
		c-0.2,0-0.4,0-0.7,0c-0.4,0-0.8,0.3-1.2,0.2c0,0,0.4-0.2,0.3-0.2c-0.2,0-0.4,0.1-0.7,0.1c-0.1,0-0.3,0-0.4,0
		c-4.4,0.4-8.1-2.4-8.1-2.4C10,25.2,11.7,27.3,14.1,28.1L14.1,28.1z"/>
	
		<linearGradient id="SVGID_12_" gradientUnits="userSpaceOnUse" x1="26.619" y1="40.3212" x2="39.6211" y2="11.2465" gradientTransform="matrix(1 0 0 -1 0 42)">
		<stop  offset="0" style="stop-color:#FFF14F"/>
		<stop  offset="0.268" style="stop-color:#FFEE4C"/>
		<stop  offset="0.452" style="stop-color:#FFE643"/>
		<stop  offset="0.612" style="stop-color:#FFD834"/>
		<stop  offset="0.757" style="stop-color:#FFC41E"/>
		<stop  offset="0.892" style="stop-color:#FFAB02"/>
		<stop  offset="0.902" style="stop-color:#FFA900"/>
		<stop  offset="0.949" style="stop-color:#FFA000"/>
		<stop  offset="1" style="stop-color:#FF9100"/>
	</linearGradient>
	<path class="st12" d="M34.8,34.2c4.4-4.4,6.7-9.6,5.7-15.6c0,0,0.4,3-1.1,6.2c0.7-3,0.8-6.8-1.1-10.7c-2.4-5.2-6.5-8-8-9.1
		c-2.3-1.7-3.3-3.5-3.3-3.9c-0.7,1.4-2.8,6.3-0.2,10.5c2.4,3.9,6.2,5.1,8.9,8.7C40.7,27,34.8,34.2,34.8,34.2z"/>
	
		<linearGradient id="SVGID_13_" gradientUnits="userSpaceOnUse" x1="29.1864" y1="23.5998" x2="23.0274" y2="7.0631" gradientTransform="matrix(1 0 0 -1 0 42)">
		<stop  offset="0" style="stop-color:#FF8E00"/>
		<stop  offset="4.000000e-02" style="stop-color:#FF8E00;stop-opacity:0.858"/>
		<stop  offset="8.400000e-02" style="stop-color:#FF8E00;stop-opacity:0.729"/>
		<stop  offset="0.13" style="stop-color:#FF8E00;stop-opacity:0.628"/>
		<stop  offset="0.178" style="stop-color:#FF8E00;stop-opacity:0.557"/>
		<stop  offset="0.227" style="stop-color:#FF8E00;stop-opacity:0.514"/>
		<stop  offset="0.282" style="stop-color:#FF8E00;stop-opacity:0.5"/>
		<stop  offset="0.389" style="stop-color:#FF8E00;stop-opacity:0.478"/>
		<stop  offset="0.524" style="stop-color:#FF8E00;stop-opacity:0.416"/>
		<stop  offset="0.676" style="stop-color:#FF8E00;stop-opacity:0.314"/>
		<stop  offset="0.838" style="stop-color:#FF8E00;stop-opacity:0.172"/>
		<stop  offset="1" style="stop-color:#FF8E00;stop-opacity:0"/>
	</linearGradient>
	<path class="st13" d="M34.2,22.9c-1.5-3.2-3.5-4.6-5.3-6.1c0.2,0.3,0.3,0.4,0.4,0.6c1.6,1.7,4,5.9,2.3,11.1
		c-3.2,9.9-16.2,5.2-17.6,3.9c0.6,5.7,10.1,8.5,16.4,4.7C33.9,33.9,36.7,28.2,34.2,22.9z"/>
</g>
</svg>
