<?xml version="1.0" encoding="utf-8"?>
<!-- Generator: Adobe Illustrator 24.1.1, SVG Export Plug-In . SVG Version: 6.00 Build 0)  -->
<svg version="1.1"
	 id="svg2" xmlns:cc="http://creativecommons.org/ns#" xmlns:dc="http://purl.org/dc/elements/1.1/" xmlns:inkscape="http://www.inkscape.org/namespaces/inkscape" xmlns:rdf="http://www.w3.org/1999/02/22-rdf-syntax-ns#" xmlns:sodipodi="http://sodipodi.sourceforge.net/DTD/sodipodi-0.dtd" xmlns:svg="http://www.w3.org/2000/svg"
	 xmlns="http://www.w3.org/2000/svg" xmlns:xlink="http://www.w3.org/1999/xlink" x="0px" y="0px" width="17px" height="15px"
	 viewBox="0 0 17 15" style="enable-background:new 0 0 17 15;" xml:space="preserve">
<style type="text/css">
	.st0{fill:#61C454;}
</style>
<sodipodi:namedview  bordercolor="#666666" borderopacity="1" fit-margin-bottom="0" fit-margin-left="0" fit-margin-right="0" fit-margin-top="0" gridtolerance="10" guidetolerance="10" id="namedview24" inkscape:current-layer="svg2" inkscape:cx="-24.623114" inkscape:cy="51.645214" inkscape:pageopacity="0" inkscape:pageshadow="2" inkscape:window-height="987" inkscape:window-maximized="1" inkscape:window-width="1680" inkscape:window-x="-8" inkscape:window-y="-8" inkscape:zoom="6.8900085" objecttolerance="10" pagecolor="#ffffff" showgrid="false">
	</sodipodi:namedview>
<g id="g4155" transform="matrix(3.3018522,0,0,3.3018522,0.05282964,-157.87384)">
	<path id="path4144" inkscape:connector-curvature="0" class="st0" d="M0,49.4v2.4c0,0,0,0.2,0.1,0.3s0.3,0.1,0.3,0.1h4.4
		c0,0,0.2,0,0.3-0.1c0.1-0.1,0.1-0.3,0.1-0.3V49H3.1l-0.5,0.3L0,49.4L0,49.4z"/>
	<path id="path4146" inkscape:connector-curvature="0" class="st0" d="M2.6,49H0.2v-0.7c0,0,0-0.2,0.2-0.4s0.4-0.1,0.4-0.1h2.3v0.3
		h1.8v0.6H3.1L2.6,49z"/>
</g>
</svg>
