<?xml version="1.0" encoding="utf-8"?>
<!-- Generator: Adobe Illustrator 19.2.1, SVG Export Plug-In . SVG Version: 6.00 Build 0)  -->
<svg version="1.1" id="Слой_1" xmlns="http://www.w3.org/2000/svg" xmlns:xlink="http://www.w3.org/1999/xlink" x="0px" y="0px"
	 width="75.1px" height="559px" viewBox="0 0 75.1 559" style="enable-background:new 0 0 75.1 559;" xml:space="preserve">
<style type="text/css">
	.st0{fill:#E6EDF8;}
	.st1{fill:#9CABC4;}
	.st2{fill:#9BAAC4;}
	.st3{fill:#333C4E;}
	.st4{fill:#9BAAC3;}
	.st5{fill:#9CABC4;stroke:#010202;stroke-width:2.01;stroke-miterlimit:10;}
</style>
<title>header_button_win</title>
<path class="st0" d="M8.1,0h3v19h-3V0z"/>
<path class="st0" d="M0.1,8h19v3h-19V8z"/>
<path class="st1" d="M1.3,182.1v14.5c0,1.3,1,2.4,2.3,2.4c0,0,0,0,0,0h9c1.3,0,2.3-1.1,2.3-2.4c0,0,0,0,0,0v-14.5H1.3 M5.6,196.3
	H3.9v-11.5h1.7V196.3 M9,196.3H7.4v-11.5h1.7v11.5H9z M12.5,196.3h-1.7v-11.5h1.7V196.3"/>
<path class="st1" d="M0.1,181.9h16v2.7h-16V181.9z"/>
<path class="st1" d="M6.2,179l-1.7,1.5h7.4l-1.6-1.5H6.2z"/>
<path class="st1" d="M18.2,245.1H2.1c-1.1,0-2,0.9-2,2v9.9c0,1.1,0.9,2,2,2h16c1.1,0,2-0.9,2-2v-9.9c0.1-1-0.7-1.9-1.7-2
	C18.3,245.1,18.3,245.1,18.2,245.1 M10.5,256.3v-2.8H4.8v-2.7h5.8v-3.1l5,4.4L10.5,256.3"/>
<path class="st1" d="M2,244h10.5c-0.1-0.5-0.4-1-0.8-1.4c-0.4-0.3-0.9-0.5-1.4-0.6h-6c-0.6,0-1.1,0.2-1.5,0.6
	C2.3,242.9,2,243.4,2,244"/>
<path class="st2" d="M0.1,379h20v-3.2h-20V379 M0.1,371.1h20v-3.2h-20V371.1 M0.1,360v3.2h20V360H0.1"/>
<path class="st2" d="M12,313.5c-1.3,0.9-2.8,1.4-4.4,1.4c-4.1,0-7.5-3.4-7.5-7.5s3.4-7.5,7.5-7.5s7.5,3.4,7.5,7.5
	c0,1.6-0.5,3.1-1.4,4.4l5,5c0.5,0.5,0.5,1.3,0,1.8c-0.5,0.5-1.3,0.5-1.8,0L12,313.5 M7.6,313.1c3.2,0,5.8-2.6,5.8-5.8
	c0-3.2-2.6-5.8-5.8-5.8s-5.8,2.6-5.8,5.8c0,0,0,0,0,0C1.8,310.5,4.4,313.1,7.6,313.1"/>
<path class="st3" d="M9.5,434.8c-2.7,1.9-6.4,1.3-8.4-1.4s-1.3-6.4,1.4-8.4c2.7-1.9,6.4-1.3,8.4,1.4c0.7,1,1.1,2.2,1.1,3.5
	c0,1.3-0.4,2.5-1.1,3.5l3.9,3.9c0.4,0.3,0.5,1,0.2,1.4s-1,0.5-1.4,0.2c-0.1-0.1-0.1-0.1-0.2-0.2L9.5,434.8 M6.2,434.5
	c2.5,0,4.6-2,4.6-4.6c0,0,0,0,0,0c0-2.5-2-4.6-4.5-4.6c0,0-0.1,0-0.1,0c-2.5,0-4.6,2.1-4.6,4.6S3.7,434.5,6.2,434.5"/>
<path class="st4" d="M13.6,479.2l-4.5,4.2v-3.1c0,0-4.7,0.2-6.4,4.3c-0.6,1.8-0.5,3.8,0.4,5.5l-1.6,1.6c-1.5-2.3-1.8-5.2-0.9-7.8
	c1.3-3.6,4.7-6,8.5-6v-3L13.6,479.2"/>
<path class="st4" d="M4.6,494.8l4.5-4.1v3.1c0,0,4.7-0.2,6.4-4.3c0.6-1.8,0.5-3.8-0.4-5.5l1.5-1.7c1.5,2.3,1.8,5.2,0.9,7.7
	c-1.3,3.6-4.6,6-8.5,6.1v3L4.6,494.8"/>
<path class="st4" d="M0.1,549.5l10.2-9.5l1.8,2.1l-7.9,7.4l7.9,7.4l-1.8,2.1L0.1,549.5z"/>
<polygon class="st1" points="55.9,78.3 65.1,72.5 50.1,63 50.1,82 "/>
<path class="st1" d="M66.8,83l3.8-4l1,0.9L66.9,85l-2.3-2.4l1-0.9L66.8,83z"/>
<path class="st1" d="M72.3,77.9v8.3h-8.2v-8.3H72.3 M73.1,77h-10v10h10V77L73.1,77z"/>
<path class="st5" d="M66.3,132"/>
<path class="st5" d="M59.4,139.9"/>
<rect x="50.1" y="120" class="st1" width="4" height="19"/>
<path class="st1" d="M68.8,140l3.8-4l1,0.9l-4.7,5.1l-2.3-2.4l1-0.9L68.8,140z"/>
<path class="st1" d="M74.2,134.9v8.3H66v-8.3H74.2 M75.1,134h-10v10h10V134L75.1,134z"/>
<rect x="58.1" y="120" class="st1" width="4" height="19"/>
<polygon class="st1" points="0.1,62 0.1,81 15.1,71.5 "/>
<rect x="14.1" y="77" class="st1" width="2" height="2"/>
<rect x="17.1" y="77" class="st1" width="2" height="2"/>
<rect x="20.1" y="77" class="st1" width="2" height="2"/>
<rect x="14.1" y="80" class="st1" width="2" height="2"/>
<rect x="17.1" y="80" class="st1" width="2" height="2"/>
<rect x="20.1" y="80" class="st1" width="2" height="2"/>
<rect x="14.1" y="83" class="st1" width="2" height="2"/>
<rect x="17.1" y="83" class="st1" width="2" height="2"/>
<rect x="20.1" y="83" class="st1" width="2" height="2"/>
<rect x="0.1" y="120" class="st1" width="4" height="19"/>
<rect x="8.1" y="120" class="st1" width="4" height="19"/>
<rect x="16.1" y="135.9" class="st1" width="2" height="2"/>
<rect x="19.1" y="135.9" class="st1" width="2" height="2"/>
<rect x="22.1" y="135.9" class="st1" width="2" height="2"/>
<rect x="16.1" y="138.9" class="st1" width="2" height="2"/>
<rect x="19.1" y="138.9" class="st1" width="2" height="2"/>
<rect x="22.1" y="138.9" class="st1" width="2" height="2"/>
<rect x="16.1" y="141.9" class="st1" width="2" height="2"/>
<rect x="19.1" y="141.9" class="st1" width="2" height="2"/>
<rect x="22.1" y="141.9" class="st1" width="2" height="2"/>
<path class="st1" d="M48.5,182.1v14.5c0,1.3,1,2.4,2.3,2.4c0,0,0,0,0,0h9c1.3,0,2.3-1.1,2.3-2.4c0,0,0,0,0,0v-14.5H48.5 M52.8,196.3
	h-1.7v-11.5h1.7V196.3 M56.2,196.3h-1.6v-11.5h1.7L56.2,196.3L56.2,196.3z M59.7,196.3H58v-11.5h1.7V196.3"/>
<path class="st1" d="M47.3,181.9h16v2.7h-16V181.9z"/>
<path class="st1" d="M53.4,179l-1.7,1.5h7.4l-1.6-1.5H53.4z"/>
<path class="st1" d="M60.2,245.1H44.1c-1.1,0-2,0.9-2,2v9.9c0,1.1,0.9,2,2,2h16c1.1,0,2-0.9,2-2v-9.9c0.1-1-0.7-1.9-1.7-2
	C60.3,245.1,60.3,245.1,60.2,245.1 M52.5,256.3v-2.8h-5.7v-2.7h5.8v-3.1l5,4.4L52.5,256.3"/>
<path class="st1" d="M44,244h10.5c-0.1-0.5-0.4-1-0.8-1.4c-0.4-0.3-0.9-0.5-1.4-0.6h-6c-0.6,0-1.1,0.2-1.5,0.6
	C44.3,242.9,44,243.4,44,244"/>
<path class="st5" d="M66.3,192"/>
<path class="st1" d="M68.8,200l3.8-4l1,0.9l-4.7,5.1l-2.3-2.4l1-0.9L68.8,200z"/>
<path class="st1" d="M74.2,194.9v8.3H66v-8.3H74.2 M75.1,194h-10v10h10V194L75.1,194z"/>
<path class="st5" d="M66.3,253"/>
<path class="st1" d="M68.8,261l3.8-4l1,0.9l-4.7,5.1l-2.3-2.4l1-0.9L68.8,261z"/>
<path class="st1" d="M74.2,255.9v8.3H66v-8.3L74.2,255.9 M75.1,255h-10v10h10V255L75.1,255z"/>
</svg>
