<?xml version="1.0" encoding="utf-8"?>
<!-- Generator: Adobe Illustrator 23.0.4, SVG Export Plug-In . SVG Version: 6.00 Build 0)  -->
<svg version="1.1" id="Слой_1" xmlns="http://www.w3.org/2000/svg" xmlns:xlink="http://www.w3.org/1999/xlink" x="0px" y="0px"
	 viewBox="0 0 1297.8 575" style="enable-background:new 0 0 1297.8 575;" xml:space="preserve">
<style type="text/css">
	.st0{fill:#FABF00;}
</style>
<g>
	<path class="st0" d="M166.6,234.4l23.8,74.2l23.7-74.2H248v106.6h-25.8v-24.9l2.5-51l-25.8,75.9h-17l-25.9-76l2.5,51v24.9h-25.7
		V234.4H166.6z"/>
	<path class="st0" d="M330.5,295.8H290v25.5h47.8v19.8h-73.5V234.4h73.6v19.8H290v22.5h40.4V295.8z"/>
	<path class="st0" d="M348.3,341.1V234.4h34.4c9.4,0,17.9,2.1,25.4,6.4c7.5,4.3,13.4,10.3,17.6,18.1c4.2,7.8,6.4,16.5,6.4,26.2v4.9
		c0,9.8-2.1,18.5-6.2,26.3c-4.1,7.7-9.9,13.8-17.4,18.2c-7.5,4.4-15.9,6.6-25.1,6.6H348.3z M374,254.3v67h8.9c7.4,0,13-2.6,17-7.9
		c4-5.2,5.9-13,5.9-23.4v-4.6c0-10.3-2-18.1-5.9-23.3c-4-5.2-9.7-7.8-17.3-7.8H374z"/>
	<path class="st0" d="M472.6,341.1H447V234.4h25.6V341.1z"/>
	<path class="st0" d="M574.1,234.4v69.8c0,7.9-1.7,14.8-5.1,20.5s-8.2,10.2-14.5,13.2c-6.3,3-13.7,4.5-22.3,4.5
		c-13,0-23.2-3.4-30.7-10.1s-11.3-16-11.4-27.7v-70.3H516v70.8c0.3,11.7,5.7,17.5,16.3,17.5c5.3,0,9.3-1.5,12.1-4.4
		c2.7-2.9,4.1-7.7,4.1-14.3v-69.7H574.1z"/>
	<path class="st0" d="M623.9,234.4l23.8,74.2l23.7-74.2h33.8v106.6h-25.8v-24.9l2.5-51l-25.8,75.9h-17l-25.9-76l2.5,51v24.9h-25.7
		V234.4H623.9z"/>
	<path class="st0" d="M792.8,234.4l23.8,74.2l23.7-74.2h33.8v106.6h-25.8v-24.9l2.5-51l-25.8,75.9h-17l-25.9-76l2.5,51v24.9H759
		V234.4H792.8z"/>
	<path class="st0" d="M980.8,289.9c0,10.4-1.9,19.6-5.8,27.6c-3.9,8-9.3,14.2-16.4,18.5c-7.1,4.3-15.2,6.5-24.3,6.5
		s-17.1-2.1-24.2-6.3s-12.5-10.1-16.4-17.9s-6-16.7-6.2-26.7v-6c0-10.4,1.9-19.7,5.7-27.6c3.8-8,9.3-14.1,16.5-18.5
		c7.2-4.3,15.3-6.5,24.4-6.5c9,0,17.1,2.1,24.2,6.4c7.1,4.3,12.6,10.4,16.5,18.3c3.9,7.9,5.9,17,6,27.3V289.9z M954.6,285.5
		c0-10.6-1.8-18.6-5.3-24.1c-3.5-5.5-8.6-8.2-15.2-8.2c-12.9,0-19.7,9.7-20.4,29l-0.1,7.8c0,10.4,1.7,18.5,5.2,24.1
		c3.5,5.6,8.6,8.4,15.5,8.4c6.5,0,11.5-2.8,15-8.3c3.5-5.5,5.3-13.5,5.3-23.8V285.5z"/>
	<path class="st0" d="M994,341.1V234.4h34.4c9.4,0,17.9,2.1,25.4,6.4c7.5,4.3,13.4,10.3,17.6,18.1c4.2,7.8,6.4,16.5,6.4,26.2v4.9
		c0,9.8-2.1,18.5-6.2,26.3c-4.1,7.7-9.9,13.8-17.4,18.2c-7.5,4.4-15.9,6.6-25.1,6.6H994z M1019.7,254.3v67h8.9c7.4,0,13-2.6,17-7.9
		c4-5.2,5.9-13,5.9-23.4v-4.6c0-10.3-2-18.1-5.9-23.3c-4-5.2-9.7-7.8-17.3-7.8H1019.7z"/>
	<path class="st0" d="M1157.1,295.8h-40.4v25.5h47.8v19.8H1091V234.4h73.6v19.8h-47.9v22.5h40.4V295.8z"/>
</g>
</svg>
