<svg xmlns="http://www.w3.org/2000/svg" viewBox="0 0 512 514"><title>fdm_logo (2)4</title><rect y="1" width="512" height="512" style="fill:#4427d6;opacity:0"/><path d="M410.68,111.15l-.37.38C384.36,86.55,355,65.38,328,64.82H74.9v272c0,22.7,11.73,44.46,27.91,64.58-38.55-37.77-89.39-76.87-89.39-130.62V0h253A90.13,90.13,0,0,1,280,1C330.56,8.63,360.6,58.89,410.68,111.15Z" style="fill:#1c3949"/><path d="M498.58,253.86V514H256.18a106.84,106.84,0,0,1-14.65-1c-23.46-3.23-43.92-14.22-58.66-30.93-1.18-1.18-2.36-2.36-2.36-3.54-1.49-1.6-2.93-3.26-4.3-5-13.89-17.26-21.7-39.95-21.7-63.62V371.43l.8-.81V358.1H285.38v59.12L456.83,314.35,305.31,218.21l-19.93-12.65v63.86H155.31V150H372.44l.19-.19h25.45a100.79,100.79,0,0,1,22.12,2.47,106.07,106.07,0,0,1,45.49,22.83c2,1.69,3.92,3.46,5.77,5.3l0,0c1.59,1.56,3.12,3.18,4.6,4.84C489.12,205.38,498.58,229,498.58,253.86Z" style="fill:#00c9e4"/><path d="M181.31,478.68q-2.42-2.49-5.1-5.12c-13.89-17.26-21.7-39.95-21.7-63.62V371.43l.8-.81V410.1C155.31,436.1,164.77,460.94,181.31,478.68Z" style="fill:#fff"/><path d="M420.2,152.28A109.12,109.12,0,0,0,397.71,150H372.44l.19-.19h25.45A100.79,100.79,0,0,1,420.2,152.28Z" style="fill:#fff"/><path d="M474.61,184.14a97.53,97.53,0,0,0-8.92-9c2,1.69,3.92,3.46,5.77,5.3l0,0C472.59,181.76,473.63,183,474.61,184.14Z" style="fill:#fff"/><path d="M0,1V513H512V1ZM420.2,152.28a100.79,100.79,0,0,0-22.12-2.47H372.63l-.19.19H155.31V269.42H285.38V205.56l19.93,12.65,151.52,96.14L285.38,417.22V358.1H155.31v12.52l-.8.81v38.51c0,23.67,7.81,46.36,21.7,63.62-20.26-19.76-51.07-44.41-73.4-72.16C86.63,381.28,74.9,359.52,74.9,336.82v-272H328c27,.56,56.36,21.73,82.31,46.71,25.61,24.64,47.87,53,61.15,68.88-1.85-1.84-3.78-3.61-5.77-5.3A97.68,97.68,0,0,0,420.2,152.28Z" style="fill:none"/><path d="M155.31,150V269.42H285.38V205.56l19.93,12.65,151.52,96.14L285.38,417.22V358.1H155.31v12.52l-.8.81v38.51c0,23.67,7.81,46.36,21.7,63.62-20.26-19.76-51.07-44.41-73.4-72.16C86.63,381.28,74.9,359.52,74.9,336.82v-272H328c27,.56,56.36,21.73,82.31,46.71,25.61,24.64,47.87,53,61.15,68.88-1.85-1.84-3.78-3.61-5.77-5.3a97.68,97.68,0,0,0-45.49-22.83,100.79,100.79,0,0,0-22.12-2.47H372.63l-.19.19Z" style="fill:#fff"/></svg>