<?xml version="1.0" encoding="utf-8"?>
<!-- Generator: Adobe Illustrator 23.0.4, SVG Export Plug-In . SVG Version: 6.00 Build 0)  -->
<svg version="1.1" id="Слой_1" xmlns="http://www.w3.org/2000/svg" xmlns:xlink="http://www.w3.org/1999/xlink" x="0px" y="0px"
	 viewBox="0 0 498.5 497.7" style="enable-background:new 0 0 498.5 497.7;" xml:space="preserve">
<style type="text/css">
	.st0{fill:#F8DA3D;}
</style>
<g id="Cloajj.tif" transform="translate(1336.825 -1.239)">
	<g id="Group_173" transform="translate(-1336.825 1.239)">
		<path id="Path_997" class="st0" d="M463,406.1c18.2,17,29.7,37.1,32.9,61.6c0.5,3.6,0.8,7.3,1.3,10.9c1.9,12-4.2,19.1-16.5,19.1
			c-53.7,0-107.5,0-161.2,0c-51.8,0-103.7,0-155.5,0c-32.1,0-60.8-9.6-85.5-30c-22.4-18.5-37.6-41.8-44.2-70.1
			c-2.6-11-4-22.2-4.1-33.5c-0.4-46.7,0.1-93.3-0.3-140c-0.3-39.6,27.8-69.5,65-75.5c30.7-5,59.9,10.9,73.1,39
			c5.3,11.3,8,23.8,7.9,36.3c-0.1,36.9-0.1,73.7,0,110.6c0,18.7,8,33,25,41c5.9,2.8,13,4.1,19.6,4.4c11.1,0.6,22.3-0.3,33.4-0.3
			c1.4,0.2,2.7,0.9,3.5,2.1c8.2,11.9,18.4,22.3,30.1,30.7c19.1,14,40.5,22.8,64.1,25.1c39.7,3.8,75.6-6.5,108.2-29.3
			C460.8,407.5,461.7,406.9,463,406.1z M102.8,234.1c8,0.1,14.6-6.4,14.7-14.4c0-8-6.4-14.6-14.4-14.8c-8,0-14.5,6.4-14.7,14.4
			C88.4,227.4,94.8,234,102.8,234.1L102.8,234.1z"/>
		<path id="Path_998" class="st0" d="M241.5,350.7c-8.2,0-15.8,0.3-23.4-0.1c-7-0.3-12.1-5.8-13-13c-0.2-1.8-0.2-3.5-0.2-5.3
			c0-36.6-0.2-73.2,0.1-109.8c0.1-22.6-5.7-43.2-18.7-61.8c-1.3-1.9-1.3-3,0.2-4.9c17.8-22.6,39.5-40.3,65.6-52.5
			c24-11.2,49.3-15.9,75.7-14.9c20,0.6,39.8,4.7,58.4,11.9c24.4,9.6,45.9,23.6,63.8,42.8c22.7,24.3,37.8,52.8,44.1,85.5
			c5.4,28.2,6.9,56.7-1.3,84.5c-15.5,52.4-51.6,83-104.5,93.9c-24.1,5.2-49.2,1.5-70.7-10.5c-25.4-13.8-42.5-34.6-50.1-62.5
			c-2.4-9.5-3.7-19.2-3.8-29c-0.2-13.1-0.7-26.6,2-39.4c6-28.5,22.9-48.7,51.1-57.9c31.8-10.3,69.4,5.9,84.9,35.5
			c9,17.2,10.1,35.4,7.9,54c-1.7,14.5-15.7,25-30.3,24c-15.5-0.9-27.8-13.4-28.3-29c-0.2-5,0.1-10.1-0.1-15.1
			c-0.1-7.4-5.9-13.5-13.3-14c-7.7-0.6-14.8,4.3-15.4,12c-1.2,14.8-1.1,29.6,6.2,43.4c12.1,23.1,39.2,36.2,64.6,30.8
			c26.2-5.5,45.3-28.2,46.4-55c0.6-14.7,0.7-29.4-3.6-43.7c-10.2-34.3-31.9-58.1-65.9-69.6c-29.5-10-58.3-7.5-85,9.3
			c-24.9,15.8-41.5,38.3-47.3,67.2c-6.1,29.8-5.5,59.7,2.9,89.2C240.7,348.2,241.1,349.2,241.5,350.7z"/>
		<path id="Path_999" class="st0" d="M144.4,125.1l-28-7.8c0.4-1.3,0.8-2.9,1.5-4.5c4.4-11,8.8-22,13.3-32.9
			c1.1-2.6,0.9-4.3-1.1-6.5c-18.9-20.7-16.2-48.6,6-65.6c16.6-12.6,43.5-9.8,57.2,6c17.9,20.6,15,48.8-6.7,65.2
			c-6.9,5.2-15.3,8-24,8c-2.5,0.1-3.5,1-4.4,3.2C153.7,102,149,113.6,144.4,125.1z"/>
		<path id="Path_1000" class="st0" d="M88.5,116.6l-27.9,8.5c-2.6-6.5-5.4-13.2-8.1-20c-0.4-1-0.8-2-1.2-3
			c-1.7-4.3-2.8-8.9-5.3-12.8c-2.8-4.5-8.4-2.1-12.6-3.2C4,78.3-9,46,6.8,20.1c14.9-24.5,51.7-27,70-4.8
			C91.4,33.2,90.9,56,75.2,73.1c-2.3,2.5-2.5,4.4-1.2,7.5C79,92.5,83.8,104.7,88.5,116.6z"/>
	</g>
</g>
</svg>
