<?xml version="1.0" encoding="utf-8"?>
<!-- Generator: Adobe Illustrator 23.0.4, SVG Export Plug-In . SVG Version: 6.00 Build 0)  -->
<svg version="1.1" id="Слой_1" xmlns="http://www.w3.org/2000/svg" xmlns:xlink="http://www.w3.org/1999/xlink" x="0px" y="0px"
	 viewBox="0 0 1297.8 575" style="enable-background:new 0 0 1297.8 575;" xml:space="preserve">
<style type="text/css">
	.st0{fill:#FB6B6B;}
</style>
<g>
	<path class="st0" d="M300.6,311.8h44.8v19.8h-70.5V224.9h25.7V311.8z"/>
	<path class="st0" d="M441.8,280.5c0,10.4-1.9,19.6-5.8,27.6c-3.9,8-9.3,14.2-16.4,18.5s-15.2,6.5-24.3,6.5s-17.1-2.1-24.2-6.3
		s-12.5-10.1-16.4-17.9c-3.9-7.8-6-16.7-6.2-26.7v-6c0-10.4,1.9-19.7,5.8-27.6c3.8-8,9.3-14.1,16.5-18.5c7.2-4.3,15.3-6.5,24.4-6.5
		c9,0,17.1,2.1,24.2,6.4c7.1,4.3,12.6,10.4,16.5,18.3c3.9,7.9,5.9,17,6,27.3V280.5z M415.6,276c0-10.6-1.8-18.6-5.3-24.1
		c-3.5-5.5-8.6-8.2-15.2-8.2c-12.9,0-19.7,9.7-20.4,29l-0.1,7.8c0,10.4,1.7,18.5,5.2,24.1c3.5,5.6,8.6,8.4,15.5,8.4
		c6.5,0,11.5-2.8,15-8.3c3.5-5.5,5.3-13.5,5.3-23.8V276z"/>
	<path class="st0" d="M537.7,291.8l12.2-66.9h25.5l-22.6,106.6h-26.7l-14.3-60.8l-14,60.8h-26.6l-22.7-106.6h25.6l12.2,66.9
		l14.6-66.9h21.8L537.7,291.8z"/>
	<path class="st0" d="M656.5,224.9l23.8,74.2l23.7-74.2h33.8v106.6h-25.8v-24.9l2.5-51l-25.8,75.9h-17l-25.9-76l2.5,51v24.9h-25.7
		V224.9H656.5z"/>
	<path class="st0" d="M844.5,280.5c0,10.4-1.9,19.6-5.8,27.6c-3.9,8-9.3,14.2-16.4,18.5c-7.1,4.3-15.2,6.5-24.3,6.5
		s-17.1-2.1-24.2-6.3s-12.5-10.1-16.4-17.9s-6-16.7-6.2-26.7v-6c0-10.4,1.9-19.7,5.7-27.6s9.3-14.1,16.5-18.5
		c7.2-4.3,15.3-6.5,24.4-6.5c9,0,17.1,2.1,24.2,6.4c7.1,4.3,12.6,10.4,16.5,18.3c3.9,7.9,5.9,17,6,27.3V280.5z M818.4,276
		c0-10.6-1.8-18.6-5.3-24.1s-8.6-8.2-15.2-8.2c-12.9,0-19.7,9.7-20.4,29l-0.1,7.8c0,10.4,1.7,18.5,5.2,24.1
		c3.5,5.6,8.6,8.4,15.5,8.4c6.5,0,11.5-2.8,15-8.3c3.5-5.5,5.3-13.5,5.3-23.8V276z"/>
	<path class="st0" d="M857.8,331.6V224.9h34.4c9.4,0,17.9,2.1,25.4,6.4c7.5,4.3,13.4,10.3,17.6,18.1c4.2,7.8,6.4,16.5,6.4,26.2v4.9
		c0,9.8-2.1,18.5-6.2,26.3c-4.1,7.7-9.9,13.8-17.4,18.2c-7.5,4.4-15.9,6.6-25.1,6.6H857.8z M883.5,244.8v67h8.9c7.4,0,13-2.6,17-7.9
		c4-5.2,5.9-13,5.9-23.4v-4.6c0-10.3-2-18.1-5.9-23.3c-4-5.2-9.7-7.8-17.3-7.8H883.5z"/>
	<path class="st0" d="M1020.9,286.3h-40.4v25.5h47.8v19.8h-73.5V224.9h73.6v19.8h-47.9v22.5h40.4V286.3z"/>
</g>
</svg>
