<?xml version="1.0" encoding="utf-8"?>
<!-- Generator: Adobe Illustrator 27.0.0, SVG Export Plug-In . SVG Version: 6.00 Build 0)  -->
<svg version="1.1" id="Слой_1" xmlns="http://www.w3.org/2000/svg" xmlns:xlink="http://www.w3.org/1999/xlink" x="0px" y="0px"
	 width="1297.8px" height="110px" viewBox="0 0 1297.8 110" style="enable-background:new 0 0 1297.8 110;" xml:space="preserve">
<style type="text/css">
	.st0{fill:#FABF00;}
</style>
<g>
	<path class="st0" d="M164.6,1.4l23.9,74.5l23.8-74.5h34v107.1h-25.9v-25l2.5-51.2l-25.9,76.2H180l-26-76.3l2.5,51.2v25h-25.8V1.4
		H164.6z"/>
	<path class="st0" d="M329.2,63.1h-40.7v25.6h48v19.9h-73.8V1.4h73.9v19.9h-48.1v22.6h40.6v19.2H329.2z"/>
	<path class="st0" d="M347.1,108.6V1.4h34.5c9.4,0,18,2.1,25.5,6.4c7.5,4.3,13.5,10.3,17.7,18.2c4.2,7.8,6.4,16.6,6.4,26.3v4.9
		c0,9.8-2.1,18.6-6.2,26.4c-4.1,7.7-9.9,13.9-17.5,18.3c-7.5,4.4-16,6.6-25.2,6.6H347.1z M372.9,21.4v67.3h8.9
		c7.4,0,13.1-2.6,17.1-7.9c4-5.2,5.9-13.1,5.9-23.5v-4.6c0-10.3-2-18.2-5.9-23.4c-4-5.2-9.7-7.8-17.4-7.8H372.9z"/>
	<path class="st0" d="M471.9,108.6h-25.7V1.4h25.7V108.6z"/>
	<path class="st0" d="M573.8,1.4v70.1c0,7.9-1.7,14.9-5.1,20.6c-3.4,5.7-8.2,10.2-14.6,13.3c-6.3,3-13.8,4.5-22.4,4.5
		c-13.1,0-23.3-3.4-30.8-10.1c-7.5-6.7-11.3-16.1-11.4-27.8V1.3h26v71.1c0.3,11.8,5.7,17.6,16.4,17.6c5.3,0,9.3-1.5,12.1-4.4
		c2.7-2.9,4.1-7.7,4.1-14.4v-70h25.7V1.4z"/>
	<path class="st0" d="M623.8,1.4l23.9,74.5l23.8-74.5h33.9v107.1h-25.9v-25l2.5-51.2l-25.9,76.2h-17.1l-26-76.3l2.5,51.2v25h-25.8
		V1.4H623.8z"/>
	<path class="st0" d="M793.4,1.4l23.9,74.5l23.8-74.5H875v107.1h-25.9v-25l2.5-51.2l-25.9,76.2h-17.1l-26-76.3l2.5,51.2v25h-25.7
		V1.4H793.4z"/>
	<path class="st0" d="M982.2,57.2c0,10.4-1.9,19.7-5.8,27.7c-3.9,8-9.3,14.3-16.5,18.6c-7.1,4.3-15.3,6.5-24.4,6.5
		s-17.2-2.1-24.3-6.3c-7.1-4.2-12.6-10.1-16.5-18s-6-16.8-6.2-26.8v-6c0-10.4,1.9-19.8,5.7-27.7c3.8-8,9.3-14.2,16.6-18.6
		C918,2.2,926.1,0,935.3,0c9,0,17.2,2.1,24.3,6.4c7.1,4.3,12.7,10.4,16.6,18.4c3.9,7.9,5.9,17.1,6,27.4V57.2z M955.8,52.7
		c0-10.6-1.8-18.7-5.3-24.2c-3.5-5.5-8.6-8.2-15.3-8.2c-13,0-19.8,9.7-20.5,29.1l-0.1,7.8c0,10.4,1.7,18.6,5.2,24.2
		c3.5,5.6,8.6,8.4,15.6,8.4c6.5,0,11.5-2.8,15.1-8.3c3.5-5.5,5.3-13.6,5.3-23.9V52.7z"/>
	<path class="st0" d="M995.4,108.6V1.4h34.5c9.4,0,18,2.1,25.5,6.4c7.5,4.3,13.5,10.3,17.7,18.2c4.2,7.8,6.4,16.6,6.4,26.3v4.9
		c0,9.8-2.1,18.6-6.2,26.4c-4.1,7.7-9.9,13.9-17.5,18.3c-7.5,4.4-16,6.6-25.2,6.6H995.4z M1021.2,21.4v67.3h8.9
		c7.4,0,13.1-2.6,17.1-7.9c4-5.2,5.9-13.1,5.9-23.5v-4.6c0-10.3-2-18.2-5.9-23.4c-4-5.2-9.7-7.8-17.4-7.8H1021.2z"/>
	<path class="st0" d="M1159.2,63.1h-40.6v25.6h48v19.9h-73.8V1.4h73.9v19.9h-48.1v22.6h40.6V63.1z"/>
</g>
</svg>
