<?xml version="1.0" encoding="utf-8"?>
<!-- Generator: Adobe Illustrator 27.0.0, SVG Export Plug-In . SVG Version: 6.00 Build 0)  -->
<svg version="1.1" id="Слой_1" xmlns="http://www.w3.org/2000/svg" xmlns:xlink="http://www.w3.org/1999/xlink" x="0px" y="0px"
	 width="1297.8px" height="110px" viewBox="0 0 1297.8 110" style="enable-background:new 0 0 1297.8 110;" xml:space="preserve">
<style type="text/css">
	.st0{fill:#FB6B6B;}
</style>
<g>
	<path class="st0" d="M296.2,88.6h45v19.9h-70.8V1.3h25.8V88.6z"/>
	<path class="st0" d="M438.1,57.2c0,10.4-1.9,19.7-5.8,27.7c-3.9,8-9.3,14.3-16.5,18.6c-7.1,4.3-15.3,6.5-24.4,6.5
		s-17.2-2.1-24.3-6.3c-7.1-4.2-12.6-10.1-16.5-18c-3.9-7.8-6-16.8-6.2-26.8v-6c0-10.4,1.9-19.8,5.8-27.7c3.8-8,9.3-14.2,16.6-18.6
		C374,2.2,382.1,0,391.3,0c9,0,17.2,2.1,24.3,6.4c7.1,4.3,12.7,10.4,16.6,18.4c3.9,7.9,5.9,17.1,6,27.4v4.9H438.1z M411.8,52.6
		c0-10.6-1.8-18.7-5.3-24.2c-3.5-5.5-8.6-8.2-15.3-8.2c-13,0-19.8,9.7-20.5,29.1l-0.1,7.8c0,10.4,1.7,18.6,5.2,24.2
		c3.5,5.6,8.6,8.4,15.6,8.4c6.5,0,11.6-2.8,15.1-8.3c3.5-5.5,5.3-13.6,5.3-23.9V52.6z"/>
	<path class="st0" d="M534.4,68.5l12.3-67.2h25.6l-22.7,107.1h-26.8l-14.4-61.1l-14.1,61.1h-26.7L444.8,1.3h25.7l12.3,67.2
		l14.7-67.2h21.9L534.4,68.5z"/>
	<path class="st0" d="M653.8,1.3l23.9,74.5l23.8-74.5h34v107.1h-25.9v-25l2.5-51.2l-25.9,76.2H669L643,32l2.5,51.2v25h-25.8V1.3
		H653.8z"/>
	<path class="st0" d="M842.6,57.2c0,10.4-1.9,19.7-5.8,27.7c-3.9,8-9.3,14.3-16.5,18.6c-7.1,4.3-15.3,6.5-24.4,6.5
		s-17.2-2.1-24.3-6.3c-7.1-4.2-12.6-10.1-16.5-18c-3.9-7.8-6-16.8-6.2-26.8v-6c0-10.4,1.9-19.8,5.7-27.7c3.8-7.9,9.3-14.2,16.6-18.6
		c7.2-4.3,15.4-6.5,24.5-6.5c9,0,17.2,2.1,24.3,6.4c7.1,4.3,12.7,10.4,16.6,18.4s5.9,17.1,6,27.4V57.2z M816.4,52.6
		c0-10.6-1.8-18.7-5.3-24.2s-8.6-8.2-15.3-8.2c-13,0-19.8,9.7-20.5,29.1l-0.1,7.8c0,10.4,1.7,18.6,5.2,24.2
		c3.5,5.6,8.6,8.4,15.6,8.4c6.5,0,11.6-2.8,15.1-8.3c3.5-5.5,5.3-13.6,5.3-23.9V52.6z"/>
	<path class="st0" d="M856,108.5V1.3h34.6c9.4,0,18,2.1,25.5,6.4c7.5,4.3,13.5,10.3,17.7,18.2c4.2,7.8,6.4,16.6,6.4,26.3v4.9
		c0,9.8-2.1,18.6-6.2,26.4c-4.1,7.7-9.9,13.9-17.5,18.3c-7.5,4.4-16,6.6-25.2,6.6H856z M881.8,21.3v67.3h8.9
		c7.4,0,13.1-2.6,17.1-7.9c4-5.2,5.9-13.1,5.9-23.5v-4.6c0-10.3-2-18.2-5.9-23.4c-4-5.2-9.7-7.8-17.4-7.8L881.8,21.3L881.8,21.3z"/>
	<path class="st0" d="M1019.8,63h-40.6v25.6h48v19.9h-73.8V1.3h73.9v19.9h-48.1v22.6h40.6V63z"/>
</g>
</svg>
