<?xml version="1.0" encoding="UTF-8" standalone="no"?>
<!DOCTYPE svg PUBLIC "-//W3C//DTD SVG 20010904//EN" "http://www.w3.org/TR/2001/REC-SVG-20010904/DTD/svg10.dtd">
<svg viewBox="0 0 60 60" xmlns="http://www.w3.org/2000/svg">
<path d="m4.14546,56.06286c7.72877-1.8154 16.10175-12.69522 21.16119-19.07714" fill="none" stroke="#333" stroke-dasharray="3.9219476,3.9219476" stroke-linecap="round" stroke-linejoin="round" stroke-width="3.92195" transform="matrix(.796798,.000000,.000000,.796798,.462804,11.00819)"/>
<path d="m35.03648,17.09322-9.40307,11.1704m15.95201-5.39721-9.26273,11.00367" fill="none" stroke="#333" stroke-linecap="round" stroke-width="3.13756" transform="matrix(.796798,.000000,.000000,.796798,.462804,11.00819)"/>
<path d="m25.87834,24.52235c-1.41143-1.18296-3.11265-1.46162-3.82177-.61922l-6.37661,7.57511-.41362.49136c-.06524.0775-.00513.21812-.04913.308-2.79105,4.0658-2.20576,9.60426 1.65799,12.84257s9.47306,2.89169 13.00462-.55346c.08113-.05876.23032-.02396.29556-.10146l.41362-.49136 6.37661-7.57511c.70912-.8424.14031-2.46631-1.27113-3.64926l-9.81615-8.22716z" fill="#b3b3b3" fill-rule="evenodd" stroke="#333" stroke-linecap="round" stroke-linejoin="round" stroke-width="3.92195" transform="matrix(.796798,.000000,.000000,.796798,.462804,11.00819)"/>
<path d="m5.89113,17.35444c-7.72877,1.8154-16.10175,12.69522-21.16119,19.07714" fill="none" stroke="#333" stroke-dasharray="3.9219476,3.9219476" stroke-linecap="round" stroke-linejoin="round" stroke-width="3.92195" transform="matrix(.796798,.000000,.000000,.796798,52.16933,-8.660563)"/>
<path d="m-24.99989,56.32408 9.40307-11.1704m-15.95201,5.39721 9.26273-11.00367" fill="none" stroke="#333" stroke-linecap="round" stroke-width="3.13756" transform="matrix(.796798,.000000,.000000,.796798,52.16933,-8.660563)"/>
<path d="m-15.84175,48.89495c1.41143,1.18296 3.11265,1.46162 3.82177.61922l6.37661-7.57511 .41362-.49136c.06524-.0775.00513-.21812.04913-.308 2.79105-4.0658 2.20576-9.60426-1.65799-12.84257s-9.47306-2.89169-13.00462.55346c-.08113.05876-.23032.02396-.29556.10146l-.41362.49136-6.37661,7.57511c-.70912.8424-.14031,2.46631 1.27113,3.64926l9.81615,8.22716z" fill="#7f7f7f" fill-rule="evenodd" stroke="#333" stroke-linecap="round" stroke-linejoin="round" stroke-width="3.92195" transform="matrix(.796798,.000000,.000000,.796798,52.16933,-8.660563)"/>
</svg>
