<svg xmlns="http://www.w3.org/2000/svg" width="12" height="12" viewBox="0 0 12 12"><title>cancel</title><path d="M11.2,3A6.05,6.05,0,0,0,9,.8,5.92,5.92,0,0,0,6,0,5.92,5.92,0,0,0,3,.8,6.05,6.05,0,0,0,.8,3,5.92,5.92,0,0,0,0,6,5.92,5.92,0,0,0,.8,9,6.05,6.05,0,0,0,3,11.2,5.92,5.92,0,0,0,6,12a5.92,5.92,0,0,0,3-.8A6.05,6.05,0,0,0,11.2,9,5.92,5.92,0,0,0,12,6,5.92,5.92,0,0,0,11.2,3ZM8.83,7.41A.53.53,0,0,1,9,7.77a.47.47,0,0,1-.15.35l-.7.71A.55.55,0,0,1,7.77,9a.49.49,0,0,1-.35-.15L6,7.41,4.59,8.83A.51.51,0,0,1,4.23,9a.51.51,0,0,1-.35-.15l-.71-.71A.48.48,0,0,1,3,7.76a.51.51,0,0,1,.15-.35L4.59,6,3.17,4.58A.49.49,0,0,1,3,4.23a.51.51,0,0,1,.15-.36l.71-.7A.47.47,0,0,1,4.23,3a.49.49,0,0,1,.36.15L6,4.58,7.42,3.17A.49.49,0,0,1,7.77,3a.51.51,0,0,1,.36.15l.7.71A.47.47,0,0,1,9,4.23a.49.49,0,0,1-.15.36L7.42,6Z" style="fill:#999"/></svg>