<svg width="8" height="8" viewBox="0 0 8 8" fill="none" xmlns="http://www.w3.org/2000/svg">
<path d="M4 4.69201L1.57795 7.11407C1.48733 7.20469 1.37199 7.25 1.23194 7.25C1.09189 7.25 0.976553 7.20469 0.885932 7.11407C0.795311 7.02345 0.75 6.90811 0.75 6.76806C0.75 6.62801 0.795311 6.51267 0.885932 6.42205L3.30798 4L0.885932 1.57795C0.795311 1.48733 0.75 1.37199 0.75 1.23194C0.75 1.09189 0.795311 0.976553 0.885932 0.885932C0.976553 0.795311 1.09189 0.75 1.23194 0.75C1.37199 0.75 1.48733 0.795311 1.57795 0.885932L4 3.30798L6.42205 0.885932C6.51267 0.795311 6.62801 0.75 6.76806 0.75C6.90811 0.75 7.02345 0.795311 7.11407 0.885932C7.20469 0.976553 7.25 1.09189 7.25 1.23194C7.25 1.37199 7.20469 1.48733 7.11407 1.57795L4.69201 4L7.11407 6.42205C7.20469 6.51267 7.25 6.62801 7.25 6.76806C7.25 6.90811 7.20469 7.02345 7.11407 7.11407C7.02345 7.20469 6.90811 7.25 6.76806 7.25C6.62801 7.25 6.51267 7.20469 6.42205 7.11407L4 4.69201Z" fill="#EBEFF5"/>
</svg>
