<svg width="16" height="16" viewBox="0 0 16 16" fill="none" xmlns="http://www.w3.org/2000/svg">
  <g mask="url(#mask0_991_862)">
    <path d="M6.89628 11.2341C6.78228 11.2341 6.6794 11.1926 6.58762 11.1096C6.49584 11.0265 6.44995 10.9192 6.44995 10.7878V5.21245C6.44995 5.081 6.49584 4.97372 6.58762 4.89061C6.6794 4.80761 6.78228 4.76611 6.89628 4.76611C6.93106 4.76611 7.03395 4.812 7.20495 4.90378L9.83828 7.53711C9.90651 7.60522 9.95484 7.67806 9.98328 7.75561C10.0118 7.83306 10.0261 7.91456 10.0261 8.00011C10.0261 8.08567 10.0118 8.16717 9.98328 8.24461C9.95484 8.32217 9.90651 8.395 9.83828 8.46311L7.20495 11.0964C7.15906 11.1423 7.1104 11.1768 7.05895 11.1998C7.00751 11.2227 6.95328 11.2341 6.89628 11.2341Z" fill="#EBEFF5"/>
  </g>
</svg>