<svg width="16" height="16" viewBox="0 0 16 16" fill="none" xmlns="http://www.w3.org/2000/svg">
  <g mask="url(#mask0_331_11251)">
    <path d="M5.34884 10C5.24419 10 5.15988 9.96277 5.09593 9.8883C5.03198 9.81383 5 9.72695 5 9.62766C5 9.60284 5.03488 9.51596 5.10465 9.36702L7.63372 6.66755C7.69186 6.6055 7.75 6.56206 7.80814 6.53723C7.86628 6.51241 7.93023 6.5 8 6.5C8.06977 6.5 8.13372 6.51241 8.19186 6.53723C8.25 6.56206 8.30814 6.6055 8.36628 6.66755L10.8953 9.36702C10.9302 9.40426 10.9564 9.44459 10.9738 9.48803C10.9913 9.53147 11 9.57801 11 9.62766C11 9.72695 10.968 9.81383 10.9041 9.8883C10.8401 9.96277 10.7558 10 10.6512 10H5.34884Z" fill="#7A7E85"/>
  </g>
</svg>