<svg width="6" height="4" viewBox="0 0 6 4" fill="none" xmlns="http://www.w3.org/2000/svg">
  <path d="M5.65116 0C5.75581 0 5.84012 0.0372341 5.90407 0.111702C5.96802 0.18617 6 0.27305 6 0.37234C6 0.397163 5.96512 0.484042 5.89535 0.632978L3.36628 3.33245C3.30814 3.3945 3.25 3.43794 3.19186 3.46277C3.13372 3.48759 3.06977 3.5 3 3.5C2.93023 3.5 2.86628 3.48759 2.80814 3.46277C2.75 3.43794 2.69186 3.3945 2.63372 3.33245L0.104651 0.632978C0.069768 0.595745 0.0436049 0.555408 0.0261631 0.511968C0.00872135 0.468528 0 0.421986 0 0.37234C0 0.27305 0.0319767 0.18617 0.0959301 0.111702C0.159883 0.0372341 0.244186 0 0.348837 0L5.65116 0Z" fill="#FFFFFF"/>
</svg>