<svg width="16" height="16" viewBox="0 0 16 16" fill="none" xmlns="http://www.w3.org/2000/svg">
  <g mask="url(#mask0_1982_4300)">
    <path d="M2.83439 13C2.5105 13 2.23506 12.8866 2.00806 12.6597C1.78117 12.4327 1.66772 12.1572 1.66772 11.8333V4.20517C1.66772 3.88128 1.78761 3.59944 2.02739 3.35967C2.26717 3.11989 2.549 3 2.87289 3H6.03439C6.19506 3 6.34956 3.03122 6.49789 3.09367C6.64611 3.156 6.77495 3.24189 6.88439 3.35133L7.86639 4.33333H13.7767C13.9186 4.33333 14.0374 4.38122 14.1331 4.477C14.2288 4.57267 14.2767 4.69144 14.2767 4.83333C14.2767 4.97522 14.2288 5.094 14.1331 5.18967C14.0374 5.28544 13.9186 5.33333 13.7767 5.33333H7.45739L6.12406 4H2.87289C2.813 4 2.76384 4.01922 2.72539 4.05767C2.68695 4.09611 2.66772 4.14528 2.66772 4.20517V12C2.66772 11.9401 2.6795 11.9177 2.70306 11.9327C2.7265 11.9477 2.75745 11.9658 2.79589 11.9872L4.09339 7.65517C4.17372 7.39617 4.32156 7.18806 4.53689 7.03083C4.75234 6.8735 4.99167 6.79483 5.25489 6.79483H13.8292C14.2378 6.79483 14.5619 6.95722 14.8017 7.282C15.0414 7.60678 15.1044 7.96106 14.9907 8.34483L13.8421 12.1718C13.7659 12.4222 13.6234 12.6228 13.4146 12.7737C13.2056 12.9246 12.9737 13 12.7191 13H2.83439ZM3.84339 12H12.6934C12.7404 12 12.7821 11.9872 12.8184 11.9615C12.8547 11.9358 12.8793 11.8995 12.8921 11.8525L14.0281 8.05767C14.0494 7.98933 14.0387 7.92844 13.9959 7.875C13.9532 7.82156 13.8977 7.79483 13.8292 7.79483H5.25489C5.20789 7.79483 5.16623 7.80767 5.12989 7.83333C5.09356 7.859 5.069 7.89533 5.05622 7.94233L3.84339 12ZM3.84339 12L5.05622 7.94233C5.069 7.89533 5.07967 7.859 5.08823 7.83333L5.10106 7.79483L5.07856 7.875C5.06367 7.92844 5.0455 7.98933 5.02406 8.05767L3.88822 11.8525C3.87545 11.8995 3.86478 11.9358 3.85622 11.9615L3.84339 12Z" fill="#73CEFC"/>
  </g>
</svg>