<svg width="16" height="16" viewBox="0 0 16 16" fill="none" xmlns="http://www.w3.org/2000/svg">
<mask id="mask0_3042_326" style="mask-type:alpha" maskUnits="userSpaceOnUse" x="0" y="0" width="16" height="16">
<rect width="16" height="16" fill="#D9D9D9"/>
</mask>
<g mask="url(#mask0_3042_326)">
<path d="M2.77967 13.654C2.28745 13.654 1.86994 13.4826 1.52717 13.1398C1.18439 12.7971 1.013 12.3796 1.013 11.8873V4.11335C1.013 3.61479 1.18439 3.19573 1.52717 2.85618C1.86994 2.51651 2.28745 2.34668 2.77967 2.34668H5.79633C6.03067 2.34668 6.25506 2.39101 6.4695 2.47968C6.68406 2.56835 6.87439 2.69579 7.0405 2.86201L8 3.82135H14.1037C14.349 3.82135 14.5576 3.90723 14.7293 4.07901C14.9011 4.25068 14.987 4.45923 14.987 4.70468C14.987 4.95012 14.9011 5.15868 14.7293 5.33035C14.5576 5.50212 14.349 5.58801 14.1037 5.58801H5.67617C4.90561 5.58801 4.23022 5.82979 3.65 6.31335C3.06978 6.79701 2.77967 7.40985 2.77967 8.15185V11.9343L3.955 8.15401C4.07533 7.78346 4.2895 7.4854 4.5975 7.25985C4.9055 7.03418 5.25417 6.92135 5.6435 6.92135H13.5087C14.1087 6.92135 14.5848 7.16312 14.937 7.64668C15.2891 8.13035 15.3758 8.65551 15.1972 9.22218L14.2985 12.1293C14.1343 12.638 13.8778 13.0193 13.529 13.2732C13.1802 13.5271 12.7452 13.654 12.2238 13.654H2.77967Z" fill="#73CEFC"/>
</g>
</svg>
