<svg width="12" height="12" viewBox="0 0 12 12" fill="none" xmlns="http://www.w3.org/2000/svg">
<path d="M6 7.1711L1.90114 11.27C1.74778 11.4233 1.5526 11.5 1.31559 11.5C1.07858 11.5 0.883397 11.4233 0.730038 11.27C0.576679 11.1166 0.5 10.9214 0.5 10.6844C0.5 10.4474 0.576679 10.2522 0.730038 10.0989L4.8289 6L0.730038 1.90114C0.576679 1.74778 0.5 1.5526 0.5 1.31559C0.5 1.07858 0.576679 0.883397 0.730038 0.730038C0.883397 0.576679 1.07858 0.5 1.31559 0.5C1.5526 0.5 1.74778 0.576679 1.90114 0.730038L6 4.8289L10.0989 0.730038C10.2522 0.576679 10.4474 0.5 10.6844 0.5C10.9214 0.5 11.1166 0.576679 11.27 0.730038C11.4233 0.883397 11.5 1.07858 11.5 1.31559C11.5 1.5526 11.4233 1.74778 11.27 1.90114L7.1711 6L11.27 10.0989C11.4233 10.2522 11.5 10.4474 11.5 10.6844C11.5 10.9214 11.4233 11.1166 11.27 11.27C11.1166 11.4233 10.9214 11.5 10.6844 11.5C10.4474 11.5 10.2522 11.4233 10.0989 11.27L6 7.1711Z" fill="#000000"/>
</svg>
