<svg width="16" height="16" viewBox="0 0 16 16" fill="none" xmlns="http://www.w3.org/2000/svg">
  <g mask="url(#mask0_266_93)">
    <path d="M4.50002 14.4C4.11502 14.4 3.78544 14.2607 3.51127 13.9822C3.23711 13.7037 3.10002 13.3689 3.10002 12.9778V3.73333C2.90169 3.73333 2.73544 3.66518 2.60127 3.52889C2.46711 3.39259 2.40002 3.2237 2.40002 3.02222C2.40002 2.82074 2.46711 2.65185 2.60127 2.51555C2.73544 2.37926 2.90169 2.31111 3.10002 2.31111H5.90002C5.90002 2.10963 5.96711 1.94074 6.10127 1.80444C6.23544 1.66815 6.40169 1.6 6.60002 1.6H9.40002C9.59836 1.6 9.76461 1.66815 9.89877 1.80444C10.0329 1.94074 10.1 2.10963 10.1 2.31111H12.9C13.0984 2.31111 13.2646 2.37926 13.3988 2.51555C13.5329 2.65185 13.6 2.82074 13.6 3.02222C13.6 3.2237 13.5329 3.39259 13.3988 3.52889C13.2646 3.66518 13.0984 3.73333 12.9 3.73333V12.9778C12.9 13.3689 12.7629 13.7037 12.4888 13.9822C12.2146 14.2607 11.885 14.4 11.5 14.4H4.50002ZM11.5 3.73333H4.50002V12.9778H11.5V3.73333ZM6.60002 11.5556C6.79836 11.5556 6.96461 11.4874 7.09877 11.3511C7.23294 11.2148 7.30002 11.0459 7.30002 10.8444V5.86667C7.30002 5.66518 7.23294 5.49629 7.09877 5.36C6.96461 5.2237 6.79836 5.15555 6.60002 5.15555C6.40169 5.15555 6.23544 5.2237 6.10127 5.36C5.96711 5.49629 5.90002 5.66518 5.90002 5.86667V10.8444C5.90002 11.0459 5.96711 11.2148 6.10127 11.3511C6.23544 11.4874 6.40169 11.5556 6.60002 11.5556ZM9.40002 11.5556C9.59836 11.5556 9.76461 11.4874 9.89877 11.3511C10.0329 11.2148 10.1 11.0459 10.1 10.8444V5.86667C10.1 5.66518 10.0329 5.49629 9.89877 5.36C9.76461 5.2237 9.59836 5.15555 9.40002 5.15555C9.20169 5.15555 9.03544 5.2237 8.90127 5.36C8.76711 5.49629 8.70002 5.66518 8.70002 5.86667V10.8444C8.70002 11.0459 8.76711 11.2148 8.90127 11.3511C9.03544 11.4874 9.20169 11.5556 9.40002 11.5556Z" fill="#FFFFFF"/>
  </g>
</svg>