<svg width="16" height="16" viewBox="0 0 16 16" fill="none" xmlns="http://www.w3.org/2000/svg">
  <g mask="url(#mask0_991_821)">
    <path d="M2.77961 13.6538C2.28738 13.6538 1.86988 13.4824 1.52711 13.1396C1.18433 12.7968 1.01294 12.3793 1.01294 11.8871V4.1131C1.01294 3.62088 1.18433 3.20338 1.52711 2.8606C1.86988 2.51782 2.28738 2.34644 2.77961 2.34644H5.79627C6.03061 2.34644 6.255 2.39077 6.46944 2.47944C6.684 2.5681 6.87433 2.69555 7.04044 2.86177L7.99994 3.8211H13.2203C13.7125 3.8211 14.13 3.99249 14.4728 4.33527C14.8155 4.67805 14.9869 5.09555 14.9869 5.58777V11.8871C14.9869 12.3793 14.8155 12.7968 14.4728 13.1396C14.13 13.4824 13.7125 13.6538 13.2203 13.6538H2.77961Z" fill="#FFFFFF"/>
  </g>
</svg>