<svg width="16" height="16" viewBox="0 0 16 16" fill="none" xmlns="http://www.w3.org/2000/svg">
  <g mask="url(#mask0_991_848)">
    <path d="M2.77961 13.6538C2.28738 13.6538 1.86988 13.4824 1.52711 13.1396C1.18433 12.7968 1.01294 12.3793 1.01294 11.8871V4.1131C1.01294 3.61455 1.18433 3.19549 1.52711 2.85593C1.86988 2.51627 2.28738 2.34644 2.77961 2.34644H5.79627C6.03061 2.34644 6.255 2.39077 6.46944 2.47944C6.684 2.5681 6.87433 2.69555 7.04044 2.86177L7.99994 3.8211H14.1036C14.3489 3.8211 14.5575 3.90699 14.7293 4.07877C14.9011 4.25043 14.9869 4.45899 14.9869 4.70444C14.9869 4.94988 14.9011 5.15843 14.7293 5.3301C14.5575 5.50188 14.3489 5.58777 14.1036 5.58777H5.67611C4.90555 5.58777 4.23016 5.82955 3.64994 6.3131C3.06972 6.79677 2.77961 7.4096 2.77961 8.1516V11.9341L3.95494 8.15377C4.07527 7.78321 4.28944 7.48516 4.59744 7.2596C4.90544 7.03394 5.25411 6.9211 5.64344 6.9211H13.5086C14.1086 6.9211 14.5847 7.16288 14.9369 7.64643C15.2891 8.1301 15.3758 8.65527 15.1971 9.22193L14.2984 12.1291C14.1342 12.6378 13.8777 13.019 13.5289 13.2729C13.1802 13.5268 12.7451 13.6538 12.2238 13.6538H2.77961Z" fill="#FFFFFF"/>
  </g>
</svg>