<svg width="4" height="12" viewBox="0 0 4 12" fill="none" xmlns="http://www.w3.org/2000/svg">
<path d="M1.99998 6.66602C2.36817 6.66602 2.66665 6.36754 2.66665 5.99935C2.66665 5.63116 2.36817 5.33268 1.99998 5.33268C1.63179 5.33268 1.33331 5.63116 1.33331 5.99935C1.33331 6.36754 1.63179 6.66602 1.99998 6.66602Z" stroke="#FFFFFF" stroke-width="1.33333" stroke-linecap="round" stroke-linejoin="round"/>
<path d="M1.99998 1.99935C2.36817 1.99935 2.66665 1.70087 2.66665 1.33268C2.66665 0.964492 2.36817 0.666016 1.99998 0.666016C1.63179 0.666016 1.33331 0.964492 1.33331 1.33268C1.33331 1.70087 1.63179 1.99935 1.99998 1.99935Z" stroke="#FFFFFF" stroke-width="1.33333" stroke-linecap="round" stroke-linejoin="round"/>
<path d="M1.99998 11.3327C2.36817 11.3327 2.66665 11.0342 2.66665 10.666C2.66665 10.2978 2.36817 9.99935 1.99998 9.99935C1.63179 9.99935 1.33331 10.2978 1.33331 10.666C1.33331 11.0342 1.63179 11.3327 1.99998 11.3327Z" stroke="#FFFFFF" stroke-width="1.33333" stroke-linecap="round" stroke-linejoin="round"/>
</svg>
