<svg width="33" height="32" viewBox="0 0 33 32" fill="none" xmlns="http://www.w3.org/2000/svg">
<g mask="url(#mask0_266_310)">
<path d="M27.4129 23.6897C27.8043 24.0805 28 24.5345 28 25.0517C28 25.569 27.8043 26.023 27.4129 26.4138C27.0215 26.8046 26.5725 27 26.0659 27C25.5594 27 25.1104 26.8046 24.719 26.4138L20.1601 21.8621L19.124 25C19.0089 25.3218 18.7902 25.477 18.4678 25.4655C18.1455 25.454 17.9267 25.2874 17.8116 24.9655L14.6688 14.5172C14.5767 14.2644 14.6342 14.0345 14.8414 13.8276C15.0487 13.6207 15.2789 13.5632 15.5322 13.6552L25.9969 16.7931C26.3192 16.908 26.4861 17.1264 26.4976 17.4483C26.5092 17.7701 26.3537 17.9885 26.0314 18.1034L22.8885 19.1379L27.4129 23.6897ZM14.2889 5C16.0157 5 17.5871 5.48276 19.0031 6.44827C20.4192 7.41379 21.4265 8.68966 22.0251 10.2759C22.1633 10.6437 22.1633 11 22.0251 11.3448C21.887 11.6897 21.6337 11.931 21.2653 12.069C20.8969 12.2069 20.54 12.2011 20.1947 12.0517C19.8493 11.9023 19.6075 11.6437 19.4694 11.2759C19.078 10.2414 18.4103 9.39655 17.4662 8.74138C16.5222 8.08621 15.4631 7.75862 14.2889 7.75862C12.7692 7.75862 11.4683 8.29885 10.3862 9.37931C9.30403 10.4598 8.76295 11.7586 8.76295 13.2759C8.76295 14.4483 9.09105 15.5057 9.74725 16.4483C10.4035 17.3908 11.2496 18.0575 12.2857 18.4483C12.6541 18.5862 12.9131 18.8218 13.0628 19.1552C13.2125 19.4885 13.2182 19.8391 13.0801 20.2069C12.9419 20.5747 12.7002 20.8333 12.3548 20.9828C12.0094 21.1322 11.6525 21.1379 11.2841 21C9.71847 20.4023 8.44636 19.408 7.46782 18.0172C6.48927 16.6264 6 15.046 6 13.2759C6 10.977 6.80586 9.02299 8.41758 7.41379C10.0293 5.8046 11.9864 5 14.2889 5Z" fill="#FFFFFF"/>
</g>
</svg>
