<svg width="24" height="24" viewBox="0 0 24 24" fill="none" xmlns="http://www.w3.org/2000/svg">
  <g mask="url(#mask0_625_162)">
    <path d="M10.1543 15.75C10.3668 15.75 10.5448 15.6781 10.6885 15.5343C10.832 15.3906 10.9038 15.2125 10.9038 15V9C10.9038 8.7875 10.8318 8.60942 10.688 8.46575C10.5443 8.32192 10.3662 8.25 10.1535 8.25C9.941 8.25 9.76292 8.32192 9.61925 8.46575C9.47575 8.60942 9.404 8.7875 9.404 9V15C9.404 15.2125 9.47583 15.3906 9.6195 15.5343C9.76333 15.6781 9.94158 15.75 10.1543 15.75ZM13.8465 15.75C14.059 15.75 14.2371 15.6781 14.3807 15.5343C14.5243 15.3906 14.596 15.2125 14.596 15V9C14.596 8.7875 14.5242 8.60942 14.3805 8.46575C14.2367 8.32192 14.0584 8.25 13.8458 8.25C13.6333 8.25 13.4552 8.32192 13.3115 8.46575C13.168 8.60942 13.0962 8.7875 13.0962 9V15C13.0962 15.2125 13.1682 15.3906 13.312 15.5343C13.4557 15.6781 13.6338 15.75 13.8465 15.75ZM12.0017 21.5C10.6877 21.5 9.45267 21.2507 8.2965 20.752C7.14033 20.2533 6.13467 19.5766 5.2795 18.7218C4.42433 17.8669 3.74725 16.8617 3.24825 15.706C2.74942 14.5503 2.5 13.3156 2.5 12.0017C2.5 10.6877 2.74933 9.45267 3.248 8.2965C3.74667 7.14033 4.42342 6.13467 5.27825 5.2795C6.13308 4.42433 7.13833 3.74725 8.294 3.24825C9.44967 2.74942 10.6844 2.5 11.9983 2.5C13.3123 2.5 14.5473 2.74933 15.7035 3.248C16.8597 3.74667 17.8653 4.42342 18.7205 5.27825C19.5757 6.13308 20.2528 7.13833 20.7518 8.294C21.2506 9.44967 21.5 10.6844 21.5 11.9983C21.5 13.3123 21.2507 14.5473 20.752 15.7035C20.2533 16.8597 19.5766 17.8653 18.7218 18.7205C17.8669 19.5757 16.8617 20.2528 15.706 20.7518C14.5503 21.2506 13.3156 21.5 12.0017 21.5ZM12 20C14.2333 20 16.125 19.225 17.675 17.675C19.225 16.125 20 14.2333 20 12C20 9.76667 19.225 7.875 17.675 6.325C16.125 4.775 14.2333 4 12 4C9.76667 4 7.875 4.775 6.325 6.325C4.775 7.875 4 9.76667 4 12C4 14.2333 4.775 16.125 6.325 17.675C7.875 19.225 9.76667 20 12 20Z" fill="#FFFFFF"/>
  </g>
</svg>