<svg width="16" height="16" viewBox="0 0 16 16" fill="none" xmlns="http://www.w3.org/2000/svg">
  <g mask="url(#mask0_266_8044)">
    <path d="M7.28571 8.71429H3.71429C3.5119 8.71429 3.34226 8.64583 3.20536 8.50893C3.06845 8.37202 3 8.20238 3 8C3 7.79762 3.06845 7.62798 3.20536 7.49107C3.34226 7.35417 3.5119 7.28571 3.71429 7.28571H7.28571V3.71429C7.28571 3.5119 7.35417 3.34226 7.49107 3.20536C7.62798 3.06845 7.79762 3 8 3C8.20238 3 8.37202 3.06845 8.50893 3.20536C8.64583 3.34226 8.71429 3.5119 8.71429 3.71429V7.28571H12.2857C12.4881 7.28571 12.6577 7.35417 12.7946 7.49107C12.9315 7.62798 13 7.79762 13 8C13 8.20238 12.9315 8.37202 12.7946 8.50893C12.6577 8.64583 12.4881 8.71429 12.2857 8.71429H8.71429V12.2857C8.71429 12.4881 8.64583 12.6577 8.50893 12.7946C8.37202 12.9315 8.20238 13 8 13C7.79762 13 7.62798 12.9315 7.49107 12.7946C7.35417 12.6577 7.28571 12.4881 7.28571 12.2857V8.71429Z" fill="#FFFFFF"/>
  </g>
</svg>