<svg width="16" height="16" viewBox="0 0 16 16" fill="none" xmlns="http://www.w3.org/2000/svg">
  <rect x="0.5" y="0.5" width="15" height="15" rx="3.5" stroke="#FFFFFF"/>
  <g mask="url(#mask0_1749_16066)">
    <path d="M7.99989 10.0005C8.08877 10.0005 8.17211 9.98657 8.24989 9.95879C8.32766 9.93101 8.39989 9.88379 8.46655 9.81712L11.5332 6.75046C11.6554 6.62823 11.7166 6.47268 11.7166 6.28379C11.7166 6.0949 11.6554 5.93934 11.5332 5.81712C11.411 5.6949 11.2554 5.63379 11.0666 5.63379C10.8777 5.63379 10.7221 5.6949 10.5999 5.81712L7.99989 8.41712L5.39989 5.81712C5.27766 5.6949 5.12211 5.63379 4.93322 5.63379C4.74433 5.63379 4.58877 5.6949 4.46655 5.81712C4.34433 5.93934 4.28322 6.0949 4.28322 6.28379C4.28322 6.47268 4.34433 6.62823 4.46655 6.75046L7.53322 9.81712C7.59989 9.88379 7.67211 9.93101 7.74989 9.95879C7.82766 9.98657 7.911 10.0005 7.99989 10.0005Z" fill="#FFFFFF"/>
  </g>
</svg>