<svg width="16" height="16" viewBox="0 0 16 16" fill="none" xmlns="http://www.w3.org/2000/svg">
  <rect x="0.5" y="-0.5" width="15" height="15" rx="3.5" transform="matrix(1 0 0 -1 0 15)" stroke="#000000"/>
  <g mask="url(#mask0_1749_16062)">
    <path d="M7.99989 5.99954C8.08877 5.99954 8.17211 6.01343 8.24989 6.04121C8.32766 6.06899 8.39989 6.11621 8.46655 6.18288L11.5332 9.24954C11.6554 9.37177 11.7166 9.52732 11.7166 9.71621C11.7166 9.9051 11.6554 10.0607 11.5332 10.1829C11.411 10.3051 11.2554 10.3662 11.0666 10.3662C10.8777 10.3662 10.7221 10.3051 10.5999 10.1829L7.99989 7.58288L5.39989 10.1829C5.27766 10.3051 5.12211 10.3662 4.93322 10.3662C4.74433 10.3662 4.58877 10.3051 4.46655 10.1829C4.34433 10.0607 4.28322 9.9051 4.28322 9.71621C4.28322 9.52732 4.34433 9.37177 4.46655 9.24954L7.53322 6.18288C7.59989 6.11621 7.67211 6.06899 7.74989 6.04121C7.82766 6.01343 7.911 5.99954 7.99989 5.99954Z" fill="#000000"/>
  </g>
</svg>