<svg width="16" height="16" viewBox="0 0 16 16" fill="none" xmlns="http://www.w3.org/2000/svg">
  <g mask="url(#mask0_266_5101)">
    <path d="M8 14.5C7.1684 14.5 6.38832 14.3495 5.65976 14.0485C4.9312 13.7474 4.29663 13.3387 3.75605 12.8222C3.21546 12.3057 2.78764 11.6994 2.47258 11.0032C2.15753 10.3071 2 9.56463 2 8.77576C2 8.55349 2.0814 8.36459 2.2442 8.20905C2.40699 8.0535 2.60471 7.97573 2.83733 7.97573C3.06996 7.97573 3.26767 8.0535 3.43047 8.20905C3.59327 8.36459 3.67467 8.55349 3.67467 8.77576C3.67467 9.92472 4.09493 10.8993 4.93545 11.6996C5.77597 12.4998 6.79749 12.8999 8 12.8999C9.20252 12.8999 10.224 12.4984 11.0646 11.6953C11.9051 10.8922 12.3253 9.91619 12.3253 8.76723C12.3253 7.61827 11.9036 6.64367 11.0601 5.84344C10.2166 5.04319 9.19359 4.64307 7.99107 4.64307H7.88736L8.3084 5.04537C8.4467 5.1775 8.5147 5.33403 8.51241 5.51496C8.51012 5.69588 8.44212 5.8524 8.3084 5.98454C8.17011 6.11667 8.00217 6.18384 7.80457 6.18603C7.60698 6.18821 7.43903 6.12324 7.30073 5.9911L5.64671 4.41074C5.47865 4.25016 5.39461 4.06093 5.39461 3.84304C5.39461 3.62514 5.47865 3.4359 5.64671 3.27533L7.30073 1.69497C7.43903 1.56283 7.60698 1.49786 7.80457 1.50005C8.00217 1.50224 8.17011 1.57224 8.3084 1.71007C8.44212 1.8422 8.50864 2.00015 8.50795 2.18391C8.50727 2.36767 8.43778 2.52563 8.29948 2.65777L7.89628 3.043H7.99107C8.82266 3.043 9.60274 3.19351 10.3313 3.49453C11.0599 3.79555 11.6959 4.20432 12.2395 4.72082C12.7831 5.23733 13.2124 5.84223 13.5274 6.53549C13.8425 7.22877 14 7.97268 14 8.76723C14 9.56179 13.8425 10.3071 13.5274 11.0032C13.2124 11.6994 12.7845 12.3057 12.244 12.8222C11.7034 13.3387 11.0688 13.7474 10.3402 14.0485C9.61168 14.3495 8.8316 14.5 8 14.5Z" fill="#EBEFF5"/>
  </g>
</svg>