<svg width="19" height="20" viewBox="0 0 19 20" fill="none" xmlns="http://www.w3.org/2000/svg">
  <g clip-path="url(#clip0_2469_68593)">
    <path d="M9.5 19.5C6.85 19.49 4.34 18.47 2.43 16.63L1.64 15.84V18.69C1.64 19.14 1.27 19.51 0.82 19.51C0.37 19.51 0 19.14 0 18.69V13.87L0 13.85C0 13.74 0.02 13.64 0.06 13.55C0.1 13.46 0.16 13.37 0.23 13.29H0.24C0.31 13.22 0.4 13.16 0.49 13.12C0.59 13.08 0.7 13.06 0.81 13.06H5.64C6.09 13.06 6.46 13.43 6.46 13.88C6.46 14.33 6.09 14.7 5.64 14.7H2.79L3.57 15.49C5.16 17.03 7.27 17.89 9.5 17.89C11.6 17.89 13.57 17.07 15.06 15.59C16.55 14.1 17.36 12.13 17.36 10.03C17.36 9.58 17.73 9.21 18.18 9.21C18.63 9.21 19 9.58 19 10.03C19 12.57 18.01 14.95 16.22 16.75C14.43 18.54 12.04 19.53 9.5 19.53V19.5ZM0.82 10.82C0.37 10.82 0 10.45 0 10C0 7.46 0.99 5.08 2.78 3.28C4.58 1.49 6.96 0.5 9.5 0.5C12.15 0.51 14.66 1.53 16.57 3.37L17.36 4.16V1.32C17.36 0.87 17.73 0.5 18.18 0.5C18.63 0.5 19 0.87 19 1.32V6.14C19 6.26 18.98 6.36 18.94 6.45C18.9 6.54 18.84 6.63 18.77 6.71C18.7 6.78 18.61 6.84 18.52 6.88C18.42 6.92 18.31 6.95 18.2 6.95H13.38C12.93 6.95 12.56 6.58 12.56 6.13C12.56 5.68 12.93 5.31 13.38 5.31H16.23L15.44 4.52C13.85 2.98 11.74 2.12 9.51 2.12C7.41 2.12 5.44 2.94 3.95 4.42C2.46 5.91 1.65 7.88 1.65 9.98C1.65 10.43 1.28 10.8 0.83 10.8L0.82 10.82Z" fill="#FFFFFF"/>
  </g>
  <defs>
    <clipPath id="clip0_2469_68593">
      <rect width="19" height="19" fill="white" transform="translate(0 0.5)"/>
    </clipPath>
  </defs>
</svg>