<svg width="24" height="24" viewBox="0 0 24 24" fill="none" xmlns="http://www.w3.org/2000/svg">
<g mask="url(#mask0_266_37)">
<path d="M11.5 18C9.68333 18 8.14583 17.3708 6.8875 16.1125C5.62917 14.8542 5 13.3167 5 11.5C5 9.68333 5.62917 8.14583 6.8875 6.8875C8.14583 5.62917 9.68333 5 11.5 5C13.3167 5 14.8542 5.62917 16.1125 6.8875C17.3708 8.14583 18 9.68333 18 11.5C18 12.2333 17.8833 12.925 17.65 13.575C17.4167 14.225 17.1 14.8 16.7 15.3L19.4 18C19.5833 18.1833 19.675 18.4167 19.675 18.7C19.675 18.9833 19.5833 19.2167 19.4 19.4C19.2167 19.5833 18.9833 19.675 18.7 19.675C18.4167 19.675 18.1833 19.5833 18 19.4L15.3 16.7C14.8 17.1 14.225 17.4167 13.575 17.65C12.925 17.8833 12.2333 18 11.5 18ZM11.5 16C12.75 16 13.8125 15.5625 14.6875 14.6875C15.5625 13.8125 16 12.75 16 11.5C16 10.25 15.5625 9.1875 14.6875 8.3125C13.8125 7.4375 12.75 7 11.5 7C10.25 7 9.1875 7.4375 8.3125 8.3125C7.4375 9.1875 7 10.25 7 11.5C7 12.75 7.4375 13.8125 8.3125 14.6875C9.1875 15.5625 10.25 16 11.5 16Z" fill="#B6BBC2"/>
</g>
</svg>