<svg width="16" height="16" viewBox="0 0 16 16" fill="none" xmlns="http://www.w3.org/2000/svg">
<g mask="url(#mask0_743_145)">
<path d="M7.99992 7.06668V4.66668C7.99992 4.47779 7.93603 4.31945 7.80825 4.19168C7.68047 4.0639 7.52214 4.00001 7.33325 4.00001C7.14436 4.00001 6.98603 4.0639 6.85825 4.19168C6.73047 4.31945 6.66659 4.47779 6.66659 4.66668V7.33334C6.66659 7.42223 6.68325 7.50557 6.71659 7.58334C6.74992 7.66112 6.79992 7.73334 6.86659 7.80001L8.19992 9.13334C8.33325 9.26668 8.48881 9.33334 8.66659 9.33334C8.84436 9.33334 8.99992 9.26668 9.13325 9.13334C9.26659 9.00001 9.33325 8.84445 9.33325 8.66668C9.33325 8.4889 9.26659 8.33334 9.13325 8.20001L7.99992 7.06668ZM6.13325 11.85C6.31103 11.3167 6.62492 10.875 7.07492 10.525C7.52492 10.175 8.04436 10 8.63325 10H11.1666C11.4333 9.62223 11.6388 9.20834 11.7833 8.75834C11.9277 8.30834 11.9999 7.83334 11.9999 7.33334C11.9999 6.03334 11.5471 4.93057 10.6416 4.02501C9.73603 3.11945 8.63325 2.66668 7.33325 2.66668C6.03325 2.66668 4.93047 3.11945 4.02492 4.02501C3.11936 4.93057 2.66659 6.03334 2.66659 7.33334C2.66659 8.42223 2.99159 9.38057 3.64159 10.2083C4.29159 11.0361 5.12214 11.5833 6.13325 11.85ZM8.66659 15.3333C8.02214 15.3333 7.45547 15.1306 6.96659 14.725C6.4777 14.3195 6.17214 13.8111 6.04992 13.2C4.69436 12.9111 3.56936 12.2222 2.67492 11.1333C1.78047 10.0445 1.33325 8.77779 1.33325 7.33334C1.33325 5.66668 1.91659 4.25001 3.08325 3.08334C4.24992 1.91668 5.66659 1.33334 7.33325 1.33334C8.99992 1.33334 10.4166 1.91668 11.5833 3.08334C12.7499 4.25001 13.3333 5.66668 13.3333 7.33334C13.3333 7.81112 13.2805 8.27501 13.1749 8.72501C13.0694 9.17501 12.9166 9.60001 12.7166 10C13.4499 10 14.0694 10.2611 14.5749 10.7833C15.0805 11.3056 15.3333 11.9333 15.3333 12.6667C15.3333 13.4 15.0721 14.0278 14.5499 14.55C14.0277 15.0722 13.3999 15.3333 12.6666 15.3333H8.66659ZM8.66659 14H12.6666C13.0333 14 13.3471 13.8695 13.6083 13.6083C13.8694 13.3472 13.9999 13.0333 13.9999 12.6667C13.9999 12.3 13.8694 11.9861 13.6083 11.725C13.3471 11.4639 13.0333 11.3333 12.6666 11.3333H8.66659C8.29992 11.3333 7.98603 11.4639 7.72492 11.725C7.46381 11.9861 7.33325 12.3 7.33325 12.6667C7.33325 13.0333 7.46381 13.3472 7.72492 13.6083C7.98603 13.8695 8.29992 14 8.66659 14ZM8.66659 13.3333C8.4777 13.3333 8.31936 13.2695 8.19159 13.1417C8.06381 13.0139 7.99992 12.8556 7.99992 12.6667C7.99992 12.4778 8.06381 12.3195 8.19159 12.1917C8.31936 12.0639 8.4777 12 8.66659 12C8.85547 12 9.01381 12.0639 9.14159 12.1917C9.26936 12.3195 9.33325 12.4778 9.33325 12.6667C9.33325 12.8556 9.26936 13.0139 9.14159 13.1417C9.01381 13.2695 8.85547 13.3333 8.66659 13.3333ZM10.6666 13.3333C10.4777 13.3333 10.3194 13.2695 10.1916 13.1417C10.0638 13.0139 9.99992 12.8556 9.99992 12.6667C9.99992 12.4778 10.0638 12.3195 10.1916 12.1917C10.3194 12.0639 10.4777 12 10.6666 12C10.8555 12 11.0138 12.0639 11.1416 12.1917C11.2694 12.3195 11.3333 12.4778 11.3333 12.6667C11.3333 12.8556 11.2694 13.0139 11.1416 13.1417C11.0138 13.2695 10.8555 13.3333 10.6666 13.3333ZM12.6666 13.3333C12.4777 13.3333 12.3194 13.2695 12.1916 13.1417C12.0638 13.0139 11.9999 12.8556 11.9999 12.6667C11.9999 12.4778 12.0638 12.3195 12.1916 12.1917C12.3194 12.0639 12.4777 12 12.6666 12C12.8555 12 13.0138 12.0639 13.1416 12.1917C13.2694 12.3195 13.3333 12.4778 13.3333 12.6667C13.3333 12.8556 13.2694 13.0139 13.1416 13.1417C13.0138 13.2695 12.8555 13.3333 12.6666 13.3333Z" fill="#FFFFFF"/>
</g>
</svg>
