<svg width="16" height="16" viewBox="0 0 16 16" fill="none" xmlns="http://www.w3.org/2000/svg">
<path d="M14.11 3.02086H7.26C6.96 3.00086 6.6 2.93086 6.26 2.68086C5.83 2.36086 6.2 2.63086 5.74 2.29086C5.28 1.95086 5.05 1.88086 4.65 1.88086H2.35C1.7 1.88086 1.38 1.88086 1.13 2.00086C0.91 2.11086 0.74 2.28086 0.63 2.49086C0.5 2.73086 0.5 3.04086 0.5 3.67086V12.7309C0.5 13.5009 1.12 14.1209 1.89 14.1209H14.11C14.88 14.1209 15.5 13.5009 15.5 12.7309V4.41086C15.5 3.64086 14.88 3.02086 14.11 3.02086Z" fill="#FFFFFF"/>
</svg>
