<svg width="16" height="16" viewBox="0 0 16 16" fill="none" xmlns="http://www.w3.org/2000/svg">
  <g mask="url(#mask0_329_4119)">
    <path d="M11.3333 14C10.875 14 10.4826 13.8321 10.1562 13.4964C9.82984 13.1607 9.66664 12.7571 9.66664 12.2857V3.71429C9.66664 3.24286 9.82984 2.83929 10.1562 2.50357C10.4826 2.16786 10.875 2 11.3333 2C11.7916 2 12.184 2.16786 12.5104 2.50357C12.8368 2.83929 13 3.24286 13 3.71429V12.2857C13 12.7571 12.8368 13.1607 12.5104 13.4964C12.184 13.8321 11.7916 14 11.3333 14ZM4.66664 14C4.20831 14 3.81595 13.8321 3.48956 13.4964C3.16317 13.1607 2.99998 12.7571 2.99998 12.2857V3.71429C2.99998 3.24286 3.16317 2.83929 3.48956 2.50357C3.81595 2.16786 4.20831 2 4.66664 2C5.12498 2 5.51734 2.16786 5.84373 2.50357C6.17012 2.83929 6.33331 3.24286 6.33331 3.71429V12.2857C6.33331 12.7571 6.17012 13.1607 5.84373 13.4964C5.51734 13.8321 5.12498 14 4.66664 14Z" fill="#FFFFFF"/>
  </g>
</svg>