<svg width="16" height="16" viewBox="0 0 16 16" fill="none" xmlns="http://www.w3.org/2000/svg">
  <g mask="url(#mask0_329_4136)">
    <path d="M4.00008 12.1903V3.80978C4.00008 3.58036 4.08105 3.38805 4.243 3.23285C4.40494 3.07766 4.59387 3.00006 4.8098 3.00006C4.87727 3.00006 4.94812 3.01018 5.02235 3.03043C5.09657 3.05067 5.16742 3.08103 5.2349 3.12152L11.8341 7.3118C11.9555 7.39277 12.0466 7.49399 12.1074 7.61545C12.1681 7.7369 12.1985 7.86511 12.1985 8.00006C12.1985 8.13501 12.1681 8.26322 12.1074 8.38468C12.0466 8.50613 11.9555 8.60735 11.8341 8.68832L5.2349 12.8786C5.16742 12.9191 5.09657 12.9495 5.02235 12.9697C4.94812 12.9899 4.87727 13.0001 4.8098 13.0001C4.59387 13.0001 4.40494 12.9225 4.243 12.7673C4.08105 12.6121 4.00008 12.4198 4.00008 12.1903Z" fill="#FFFFFF"/>
  </g>
</svg>