<svg width="16" height="16" viewBox="0 0 16 16" fill="none" xmlns="http://www.w3.org/2000/svg">
  <g mask="url(#mask0_329_4128)">
    <path d="M2 14C1.63333 14 1.31945 13.8694 1.05833 13.6083C0.797224 13.3472 0.666668 13.0333 0.666668 12.6666V4.66665C0.666668 4.47776 0.730557 4.31942 0.858335 4.19165C0.986112 4.06387 1.14445 3.99998 1.33333 3.99998C1.52222 3.99998 1.68056 4.06387 1.80833 4.19165C1.93611 4.31942 2 4.47776 2 4.66665V12.6666H12.6667C12.8556 12.6666 13.0139 12.7305 13.1417 12.8583C13.2694 12.9861 13.3333 13.1444 13.3333 13.3333C13.3333 13.5222 13.2694 13.6805 13.1417 13.8083C13.0139 13.9361 12.8556 14 12.6667 14H2ZM4.66667 11.3333C4.3 11.3333 3.98611 11.2028 3.725 10.9416C3.46389 10.6805 3.33333 10.3666 3.33333 9.99998V2.66665C3.33333 2.29998 3.46389 1.98609 3.725 1.72498C3.98611 1.46387 4.3 1.33331 4.66667 1.33331H7.45C7.62778 1.33331 7.79722 1.36665 7.95833 1.43331C8.11945 1.49998 8.26111 1.59442 8.38333 1.71665L9.33333 2.66665H14C14.3667 2.66665 14.6806 2.7972 14.9417 3.05831C15.2028 3.31942 15.3333 3.63331 15.3333 3.99998V9.99998C15.3333 10.3666 15.2028 10.6805 14.9417 10.9416C14.6806 11.2028 14.3667 11.3333 14 11.3333H4.66667Z" fill="#FFFFFF"/>
  </g>
</svg>