<svg width="17" height="17" viewBox="0 0 17 17" fill="none" xmlns="http://www.w3.org/2000/svg">
<g mask="url(#mask0_4698_1444)">
<path d="M8.04655 12.2525C8.23544 12.2525 8.39377 12.1886 8.52155 12.0608C8.64933 11.9331 8.71322 11.7747 8.71322 11.5858C8.71322 11.3969 8.64933 11.2386 8.52155 11.1108C8.39377 10.9831 8.23544 10.9192 8.04655 10.9192C7.85766 10.9192 7.69933 10.9831 7.57155 11.1108C7.44377 11.2386 7.37988 11.3969 7.37988 11.5858C7.37988 11.7747 7.44377 11.9331 7.57155 12.0608C7.69933 12.1886 7.85766 12.2525 8.04655 12.2525ZM8.04655 9.58584C8.23544 9.58584 8.39377 9.52195 8.52155 9.39417C8.64933 9.26639 8.71322 9.10806 8.71322 8.91917V6.2525C8.71322 6.06361 8.64933 5.90528 8.52155 5.7775C8.39377 5.64972 8.23544 5.58584 8.04655 5.58584C7.85766 5.58584 7.69933 5.64972 7.57155 5.7775C7.44377 5.90528 7.37988 6.06361 7.37988 6.2525V8.91917C7.37988 9.10806 7.44377 9.26639 7.57155 9.39417C7.69933 9.52195 7.85766 9.58584 8.04655 9.58584ZM8.04655 15.5858C7.12433 15.5858 6.25766 15.4108 5.44655 15.0608C4.63544 14.7108 3.92988 14.2358 3.32988 13.6358C2.72988 13.0358 2.25488 12.3303 1.90488 11.5192C1.55488 10.7081 1.37988 9.84139 1.37988 8.91917C1.37988 7.99695 1.55488 7.13028 1.90488 6.31917C2.25488 5.50806 2.72988 4.8025 3.32988 4.2025C3.92988 3.6025 4.63544 3.1275 5.44655 2.7775C6.25766 2.4275 7.12433 2.2525 8.04655 2.2525C8.96877 2.2525 9.83544 2.4275 10.6465 2.7775C11.4577 3.1275 12.1632 3.6025 12.7632 4.2025C13.3632 4.8025 13.8382 5.50806 14.1882 6.31917C14.5382 7.13028 14.7132 7.99695 14.7132 8.91917C14.7132 9.84139 14.5382 10.7081 14.1882 11.5192C13.8382 12.3303 13.3632 13.0358 12.7632 13.6358C12.1632 14.2358 11.4577 14.7108 10.6465 15.0608C9.83544 15.4108 8.96877 15.5858 8.04655 15.5858ZM8.04655 14.2525C9.53544 14.2525 10.7965 13.7358 11.8299 12.7025C12.8632 11.6692 13.3799 10.4081 13.3799 8.91917C13.3799 7.43028 12.8632 6.16917 11.8299 5.13584C10.7965 4.1025 9.53544 3.58584 8.04655 3.58584C6.55766 3.58584 5.29655 4.1025 4.26322 5.13584C3.22988 6.16917 2.71322 7.43028 2.71322 8.91917C2.71322 10.4081 3.22988 11.6692 4.26322 12.7025C5.29655 13.7358 6.55766 14.2525 8.04655 14.2525Z" fill="#FFFFFF"/>
</g>
</svg>
