<svg width="50" height="26" viewBox="0 0 50 26" fill="none" xmlns="http://www.w3.org/2000/svg">
<rect x="0.5" y="0.5" width="49" height="25" rx="4.5" fill="#FFEBC4"/>
<rect x="0.5" y="0.5" width="49" height="25" rx="4.5" stroke="#8F6D28"/>
<path d="M9.5825 16.62C9.1225 16.62 8.7025 16.5433 8.3225 16.39C7.9425 16.2367 7.61917 16.01 7.3525 15.71C7.08583 15.4033 6.87917 15.0267 6.7325 14.58C6.58583 14.1267 6.5125 13.6033 6.5125 13.01C6.5125 12.4167 6.58583 11.8967 6.7325 11.45C6.87917 10.9967 7.08583 10.62 7.3525 10.32C7.61917 10.0133 7.9425 9.78333 8.3225 9.63C8.7025 9.47667 9.1225 9.4 9.5825 9.4C10.0425 9.4 10.4625 9.47667 10.8425 9.63C11.2225 9.78333 11.5458 10.0133 11.8125 10.32C12.0792 10.62 12.2858 10.9967 12.4325 11.45C12.5792 11.8967 12.6525 12.4167 12.6525 13.01C12.6525 13.6033 12.5792 14.1267 12.4325 14.58C12.2858 15.0267 12.0792 15.4033 11.8125 15.71C11.5458 16.01 11.2225 16.2367 10.8425 16.39C10.4625 16.5433 10.0425 16.62 9.5825 16.62ZM9.5825 15.27C10.0425 15.27 10.3992 15.12 10.6525 14.82C10.9125 14.52 11.0425 14.09 11.0425 13.53V12.49C11.0425 11.93 10.9125 11.5 10.6525 11.2C10.3992 10.9 10.0425 10.75 9.5825 10.75C9.1225 10.75 8.7625 10.9 8.5025 11.2C8.24917 11.5 8.1225 11.93 8.1225 12.49V13.53C8.1225 14.09 8.24917 14.52 8.5025 14.82C8.7625 15.12 9.1225 15.27 9.5825 15.27ZM15.6512 13.2L14.9812 11.8H14.9512V16.5H13.5212V9.52H15.1812L17.0912 12.82L17.7612 14.22H17.7912V9.52H19.2212V16.5H17.5612L15.6512 13.2Z" fill="#8F6D28"/>
<rect x="26" y="2.5" width="21" height="21" rx="2.22222" fill="#8F6D28"/>
<path d="M29.0713 13.7209C29.0713 14.29 29.1866 14.8535 29.4106 15.3792C29.6346 15.905 29.9629 16.3827 30.3768 16.785C30.7906 17.1874 31.282 17.5066 31.8228 17.7244C32.3635 17.9422 32.9431 18.0543 33.5284 18.0543C34.1138 18.0543 34.6933 17.9422 35.2341 17.7244C35.7749 17.5066 36.2662 17.1874 36.6801 16.785C37.094 16.3827 37.4223 15.905 37.6463 15.3792C37.8703 14.8535 37.9856 14.29 37.9856 13.7209C37.9856 12.9547 37.6725 12.2199 37.1153 11.6782C36.558 11.1364 35.8022 10.832 35.0142 10.832C34.2261 10.832 33.4703 11.1364 32.913 11.6782C32.3558 12.2199 32.0427 12.9547 32.0427 13.7209C32.0427 14.104 32.1993 14.4714 32.4779 14.7423C32.7565 15.0132 33.1344 15.1654 33.5284 15.1654C33.9225 15.1654 34.3004 15.0132 34.579 14.7423C34.8576 14.4714 35.0142 14.104 35.0142 13.7209" stroke="#FFEBC4" stroke-width="1.27347" stroke-linecap="round" stroke-linejoin="round"/>
<path d="M35.0142 19.5009C38.2963 19.5009 40.957 16.9141 40.957 13.7231C40.957 10.5321 38.2963 7.94531 35.0142 7.94531C31.732 7.94531 29.0713 10.5321 29.0713 13.7231C29.0713 16.9141 31.732 19.5009 35.0142 19.5009Z" stroke="#FFEBC4" stroke-width="1.27347" stroke-linecap="round" stroke-linejoin="round"/>
<path d="M29.0713 19.5H37.9856C41.2542 19.5 43.9284 16.9 43.9284 13.7222V9.38889C43.9284 9.0058 43.7719 8.6384 43.4933 8.36751C43.2147 8.09663 42.8368 7.94444 42.4427 7.94444C42.0487 7.94444 41.6708 8.09663 41.3922 8.36751C41.1135 8.6384 40.957 9.0058 40.957 9.38889V13.7222M40.957 6.5L41.7742 8.08889M43.9284 6.5L43.1113 8.08889" stroke="#FFEBC4" stroke-width="1.27347" stroke-linecap="round" stroke-linejoin="round"/>
</svg>
