<svg width="20" height="20" viewBox="0 0 20 20" fill="none" xmlns="http://www.w3.org/2000/svg">
  <path d="M2 10.7779C2 11.3907 2.12416 11.9975 2.36538 12.5637C2.6066 13.1299 2.96017 13.6443 3.40589 14.0777C3.85161 14.511 4.38076 14.8548 4.96312 15.0893C5.54548 15.3238 6.16966 15.4445 6.8 15.4445C7.43035 15.4445 8.05452 15.3238 8.63688 15.0893C9.21924 14.8548 9.74839 14.511 10.1941 14.0777C10.6398 13.6443 10.9934 13.1299 11.2346 12.5637C11.4758 11.9975 11.6 11.3907 11.6 10.7779C11.6 9.95274 11.2629 9.16142 10.6627 8.57797C10.0626 7.99452 9.24869 7.66675 8.4 7.66675C7.55131 7.66675 6.73737 7.99452 6.13726 8.57797C5.53714 9.16142 5.2 9.95274 5.2 10.7779C5.2 11.1904 5.36857 11.5861 5.66863 11.8778C5.96869 12.1695 6.37565 12.3334 6.8 12.3334C7.22435 12.3334 7.63131 12.1695 7.93137 11.8778C8.23143 11.5861 8.4 11.1904 8.4 10.7779" stroke="#969BA3" stroke-width="1.6" stroke-linecap="round" stroke-linejoin="round"/>
  <path d="M8.4 17.0001C11.9346 17.0001 14.8 14.2143 14.8 10.7779C14.8 7.34145 11.9346 4.55566 8.4 4.55566C4.86538 4.55566 2 7.34145 2 10.7779C2 14.2143 4.86538 17.0001 8.4 17.0001Z" stroke="#969BA3" stroke-width="1.6" stroke-linecap="round" stroke-linejoin="round"/>
  <path d="M2 17H11.6C15.12 17 18 14.2 18 10.7778V6.11111C18 5.69855 17.8314 5.30289 17.5314 5.01117C17.2313 4.71944 16.8243 4.55555 16.4 4.55555C15.9757 4.55555 15.5687 4.71944 15.2686 5.01117C14.9686 5.30289 14.8 5.69855 14.8 6.11111V10.7778M14.8 3L15.68 4.71111M18 3L17.12 4.71111" stroke="#969BA3" stroke-width="1.6" stroke-linecap="round" stroke-linejoin="round"/>
</svg>