<svg width="50" height="26" viewBox="0 0 50 26" fill="none" xmlns="http://www.w3.org/2000/svg">
<rect x="0.5" y="0.5" width="49" height="25" rx="4.5" fill="#FDFDFD"/>
<rect x="0.5" y="0.5" width="49" height="25" rx="4.5" stroke="#929DAD"/>
<rect x="3" y="2.5" width="21" height="21" rx="2.22222" fill="#ACB5C3"/>
<path d="M8.12894 16.8192C7.66894 16.8192 7.25228 16.7426 6.87894 16.5892C6.50561 16.4359 6.18561 16.2059 5.91894 15.8992C5.65894 15.5926 5.45561 15.2159 5.30894 14.7692C5.16228 14.3226 5.08894 13.8026 5.08894 13.2092C5.08894 12.6226 5.16228 12.1059 5.30894 11.6592C5.45561 11.2059 5.65894 10.8259 5.91894 10.5192C6.18561 10.2126 6.50561 9.98255 6.87894 9.82922C7.25228 9.67589 7.66894 9.59922 8.12894 9.59922C8.58895 9.59922 9.00561 9.67589 9.37895 9.82922C9.75228 9.98255 10.0723 10.2126 10.3389 10.5192C10.6056 10.8259 10.8089 11.2059 10.9489 11.6592C11.0956 12.1059 11.1689 12.6226 11.1689 13.2092C11.1689 13.8026 11.0956 14.3226 10.9489 14.7692C10.8089 15.2159 10.6056 15.5926 10.3389 15.8992C10.0723 16.2059 9.75228 16.4359 9.37895 16.5892C9.00561 16.7426 8.58895 16.8192 8.12894 16.8192ZM8.12894 15.6492C8.62895 15.6492 9.02561 15.4826 9.31895 15.1492C9.61895 14.8159 9.76895 14.3492 9.76895 13.7492V12.6692C9.76895 12.0692 9.61895 11.6026 9.31895 11.2692C9.02561 10.9359 8.62895 10.7692 8.12894 10.7692C7.62895 10.7692 7.22895 10.9359 6.92895 11.2692C6.63561 11.6026 6.48894 12.0692 6.48894 12.6692V13.7492C6.48894 14.3492 6.63561 14.8159 6.92895 15.1492C7.22895 15.4826 7.62895 15.6492 8.12894 15.6492ZM12.1081 16.6992V9.71922H16.5981V10.8892H13.4281V12.5792H16.1881V13.7492H13.4281V16.6992H12.1081ZM17.4796 16.6992V9.71922H21.9696V10.8892H18.7996V12.5792H21.5596V13.7492H18.7996V16.6992H17.4796Z" fill="#F7FAFD"/>
<path d="M29.5713 13.7209C29.5713 14.29 29.6866 14.8535 29.9106 15.3792C30.1346 15.905 30.4629 16.3827 30.8768 16.785C31.2906 17.1874 31.782 17.5066 32.3228 17.7244C32.8635 17.9422 33.4431 18.0542 34.0284 18.0542C34.6138 18.0542 35.1933 17.9422 35.7341 17.7244C36.2749 17.5066 36.7662 17.1874 37.1801 16.785C37.594 16.3827 37.9223 15.905 38.1463 15.3792C38.3703 14.8535 38.4856 14.29 38.4856 13.7209C38.4856 12.9547 38.1725 12.2199 37.6153 11.6782C37.058 11.1364 36.3022 10.832 35.5141 10.832C34.7261 10.832 33.9703 11.1364 33.413 11.6782C32.8558 12.2199 32.5427 12.9547 32.5427 13.7209C32.5427 14.104 32.6992 14.4714 32.9779 14.7423C33.2565 15.0132 33.6344 15.1654 34.0284 15.1654C34.4225 15.1654 34.8004 15.0132 35.079 14.7423C35.3576 14.4714 35.5141 14.104 35.5141 13.7209" stroke="#ACB5C3" stroke-width="1.48571" stroke-linecap="round" stroke-linejoin="round"/>
<path d="M35.5141 19.5009C38.7963 19.5009 41.457 16.9141 41.457 13.7231C41.457 10.5321 38.7963 7.94531 35.5141 7.94531C32.232 7.94531 29.5713 10.5321 29.5713 13.7231C29.5713 16.9141 32.232 19.5009 35.5141 19.5009Z" stroke="#ACB5C3" stroke-width="1.48571" stroke-linecap="round" stroke-linejoin="round"/>
<path d="M29.5714 19.5H38.4857C41.7542 19.5 44.4285 16.9 44.4285 13.7222V9.38889C44.4285 9.0058 44.272 8.6384 43.9934 8.36751C43.7147 8.09663 43.3368 7.94444 42.9428 7.94444C42.5488 7.94444 42.1709 8.09663 41.8923 8.36751C41.6136 8.6384 41.4571 9.0058 41.4571 9.38889V13.7222M41.4571 6.5L42.2742 8.08889M44.4285 6.5L43.6114 8.08889" stroke="#ACB5C3" stroke-width="1.48571" stroke-linecap="round" stroke-linejoin="round"/>
</svg>
