<svg width="16" height="16" viewBox="0 0 16 16" fill="none" xmlns="http://www.w3.org/2000/svg">
<g mask="url(#mask0_266_8028)">
<path d="M1.9679 13C1.69366 13 1.46378 12.9074 1.27827 12.7222C1.09276 12.5369 1 12.3111 1 12.0448C1 11.7784 1.09276 11.5552 1.27827 11.375C1.46378 11.1948 1.69366 11.1047 1.9679 11.1047H4.99439C5.26863 11.1047 5.4985 11.1973 5.68402 11.3826C5.86953 11.5678 5.96229 11.7936 5.96229 12.0599C5.96229 12.3263 5.86953 12.5495 5.68402 12.7297C5.4985 12.9099 5.26863 13 4.99439 13H1.9679ZM1.9679 8.94765C1.69366 8.94765 1.46378 8.85503 1.27827 8.6698C1.09276 8.48457 1 8.25877 1 7.99242C1 7.72607 1.09276 7.50281 1.27827 7.32263C1.46378 7.14246 1.69366 7.05237 1.9679 7.05237H9.50803C9.78227 7.05237 10.0121 7.14498 10.1977 7.3302C10.3832 7.51543 10.4759 7.74123 10.4759 8.00758C10.4759 8.27393 10.3832 8.49719 10.1977 8.67737C10.0121 8.85755 9.78227 8.94765 9.50803 8.94765H1.9679ZM1.9679 4.8953C1.69366 4.8953 1.46378 4.80268 1.27827 4.61745C1.09276 4.43221 1 4.20642 1 3.94007C1 3.67372 1.0951 3.45046 1.2853 3.27028C1.47552 3.09009 1.70653 3 1.97833 3H14.0321C14.3063 3 14.5362 3.09262 14.7217 3.27785C14.9072 3.46308 15 3.68887 15 3.95522C15 4.22158 14.9049 4.44484 14.7147 4.62501C14.5245 4.8052 14.2935 4.8953 14.0217 4.8953H1.9679Z" fill="#FFFFFF"/>
</g>
</svg>