<svg width="16" height="16" viewBox="0 0 16 16" fill="none" xmlns="http://www.w3.org/2000/svg">
  <g mask="url(#mask0_331_8863)">
    <path d="M1.80003 11.7499C1.6667 11.6166 1.60281 11.4582 1.60837 11.2749C1.61392 11.0916 1.67781 10.9388 1.80003 10.8166L5.3167 7.24989C5.57225 6.99433 5.88892 6.86655 6.2667 6.86655C6.64448 6.86655 6.96114 6.99433 7.2167 7.24989L8.93336 8.98322L12.4 5.54989H11.3334C11.1445 5.54989 10.9861 5.486 10.8584 5.35822C10.7306 5.23044 10.6667 5.07211 10.6667 4.88322C10.6667 4.69433 10.7306 4.536 10.8584 4.40822C10.9861 4.28044 11.1445 4.21655 11.3334 4.21655H14C14.1889 4.21655 14.3473 4.28044 14.475 4.40822C14.6028 4.536 14.6667 4.69433 14.6667 4.88322V7.54989C14.6667 7.73878 14.6028 7.89711 14.475 8.02489C14.3473 8.15266 14.1889 8.21655 14 8.21655C13.8111 8.21655 13.6528 8.15266 13.525 8.02489C13.3973 7.89711 13.3334 7.73878 13.3334 7.54989V6.48322L9.88336 9.93322C9.62781 10.1888 9.31114 10.3166 8.93336 10.3166C8.55559 10.3166 8.23892 10.1888 7.98337 9.93322L6.2667 8.21655L2.73337 11.7499C2.61114 11.8721 2.45559 11.9332 2.2667 11.9332C2.07781 11.9332 1.92225 11.8721 1.80003 11.7499Z" fill="#000000"/>
  </g>
</svg>