<?xml version="1.0" encoding="utf-8"?>
<!-- Generator: Adobe Illustrator 24.1.1, SVG Export Plug-In . SVG Version: 6.00 Build 0)  -->
<svg version="1.1" id="Слой_1" xmlns="http://www.w3.org/2000/svg" xmlns:xlink="http://www.w3.org/1999/xlink" x="0px" y="0px"
	 width="16px" height="14px" viewBox="0 0 16 14" style="enable-background:new 0 0 16 14;" xml:space="preserve">
<style type="text/css">
	.st0{opacity:0.7;fill:#CE4141;enable-background:new    ;}
	.st1{fill:#FFFFFF;}
</style>
<path class="st0" d="M0.039,13.3c-0.1-0.4,0-0.9,0.2-1.3L6.748,1.1c0,0,0.601-1.1,1.101-1.1c0.701,0,1.302,1.1,1.302,1.1l6.609,11.1
	c0.2,0.4,0.3,0.8,0.2,1.2c-0.1,0.4-0.401,0.6-0.801,0.6H0.84C0.84,13.9,0.24,14.1,0.039,13.3L0.039,13.3z"/>
<circle class="st1" cx="8" cy="11.5" r="0.801"/>
<path class="st1" d="M8,9.2L8,9.2c-0.501,0-0.801-0.3-0.801-0.9V4c0-0.5,0.3-0.9,0.801-0.9l0,0c0.501,0,0.801,0.4,0.801,0.8l0,0v4.4
	C8.701,8.8,8.401,9.2,8,9.2z"/>
</svg>
