<?xml version="1.0" encoding="utf-8"?>
<!-- Generator: Adobe Illustrator 24.1.1, SVG Export Plug-In . SVG Version: 6.00 Build 0)  -->
<svg version="1.1" id="Слой_1" xmlns="http://www.w3.org/2000/svg" xmlns:xlink="http://www.w3.org/1999/xlink" x="0px" y="0px"
	 width="40px" height="40px" viewBox="0 0 40 40" style="enable-background:new 0 0 40 40;" xml:space="preserve">
<style type="text/css">
	.st0{fill:#9CABC2;}
</style>
<path class="st0" d="M23.869,21.939L22,23.815c-0.121,0.121-0.28,0.182-0.439,0.182c-0.158,0-0.317-0.06-0.439-0.182
	c-0.242-0.243-0.242-0.635,0-0.878l0.81-0.817H16.57c-0.343,0-0.62-0.277-0.62-0.62c0-0.343,0.277-0.62,0.62-0.62h5.363
	l-0.821-0.843c-0.243-0.243-0.243-0.635,0-0.878c0.243-0.243,0.635-0.243,0.878,0l1.88,1.902
	C24.112,21.304,24.112,21.697,23.869,21.939z M27.691,16.667c0-0.368-0.293-0.667-0.654-0.667h-7.475
	c-0.192-0.002-0.375-0.09-0.497-0.24l-1.99-2.427h-4.11c-0.362,0-0.654,0.299-0.654,0.667v12.001c0,0.368,0.293,0.667,0.654,0.667
	h14.073c0.362,0,0.654-0.299,0.654-0.667V16.667z M27.036,28H12.964C11.879,28,11,27.105,11,26.001V14c0-1.105,0.879-2,1.964-2
	h4.418c0.195,0,0.379,0.088,0.504,0.24l1.983,2.427h7.167c1.085,0,1.964,0.895,1.964,2v9.334C29,27.105,28.121,28,27.036,28z"/>
</svg>
