<?xml version="1.0" encoding="utf-8"?>
<!-- Generator: Adobe Illustrator 24.1.1, SVG Export Plug-In . SVG Version: 6.00 Build 0)  -->
<svg version="1.1" id="Слой_1" xmlns="http://www.w3.org/2000/svg" xmlns:xlink="http://www.w3.org/1999/xlink" x="0px" y="0px"
	 width="40px" height="40px" viewBox="0 0 40 40" style="enable-background:new 0 0 40 40;" xml:space="preserve">
<style type="text/css">
	.st0{fill:#FFFFFF;fill-opacity:0;}
	.st1{fill:#9BAAC3;}
</style>
<rect class="st0" width="40" height="40"/>
<rect class="st0" width="40" height="40"/>
<path class="st1" d="M12.5,24h15c0.276,0,0.5,0.224,0.5,0.5v1c0,0.276-0.224,0.5-0.5,0.5h-15c-0.276,0-0.5-0.224-0.5-0.5v-1
	C12,24.224,12.224,24,12.5,24z"/>
<path class="st1" d="M12.5,19h15c0.276,0,0.5,0.224,0.5,0.5v1c0,0.276-0.224,0.5-0.5,0.5h-15c-0.276,0-0.5-0.224-0.5-0.5v-1
	C12,19.224,12.224,19,12.5,19z"/>
<path class="st1" d="M12.5,14h15c0.276,0,0.5,0.224,0.5,0.5v1c0,0.276-0.224,0.5-0.5,0.5h-15c-0.276,0-0.5-0.224-0.5-0.5v-1
	C12,14.224,12.224,14,12.5,14z"/>
</svg>
