<?xml version="1.0" encoding="utf-8"?>
<!-- Generator: Adobe Illustrator 24.1.1, SVG Export Plug-In . SVG Version: 6.00 Build 0)  -->
<svg version="1.1" id="Слой_1" xmlns="http://www.w3.org/2000/svg" xmlns:xlink="http://www.w3.org/1999/xlink" x="0px" y="0px"
	 width="40px" height="40px" viewBox="0 0 40 40" style="enable-background:new 0 0 40 40;" xml:space="preserve">
<style type="text/css">
	.st0{fill:#FFFFFF;fill-opacity:0;}
	.st1{fill:#F2F2F2;}
</style>
<rect class="st0" width="40" height="40"/>
<path class="st1" d="M21.9,23.1c-2.7,1.9-6.4,1.3-8.4-1.4s-1.3-6.4,1.4-8.4c2.7-1.9,6.4-1.3,8.4,1.4c0.7,1,1.1,2.2,1.1,3.5
	s-0.4,2.5-1.1,3.5l3.9,3.9c0.4,0.3,0.5,1,0.2,1.4s-1,0.5-1.4,0.2c-0.1-0.1-0.1-0.1-0.2-0.2L21.9,23.1 M18.6,22.9
	c2.5,0,4.6-2,4.6-4.6l0,0c0-2.5-2-4.6-4.5-4.6h-0.1c-2.5,0-4.6,2.1-4.6,4.6S16.1,22.9,18.6,22.9"/>
</svg>
