<?xml version="1.0" encoding="utf-8"?>
<!-- Generator: Adobe Illustrator 24.1.1, SVG Export Plug-In . SVG Version: 6.00 Build 0)  -->
<svg version="1.1" id="Слой_1" xmlns="http://www.w3.org/2000/svg" xmlns:xlink="http://www.w3.org/1999/xlink" x="0px" y="0px"
	 width="40px" height="40px" viewBox="0 0 40 40" style="enable-background:new 0 0 40 40;" xml:space="preserve">
<style type="text/css">
	.st0{fill:#9BAAC2;}
</style>
<g>
	<path class="st0" d="M33.6,25.9L30,30l0,0l0,0l-2-1.8c-0.3-0.2-0.3-0.6-0.1-0.9l0,0c0.2-0.3,0.6-0.3,0.9-0.1l1.1,1l2.8-3.1
		c0.2-0.3,0.6-0.3,0.9,0C33.8,25.2,33.8,25.6,33.6,25.9z"/>
	<path class="st0" d="M33,28.1v2.8c0,0,0,0.1-0.1,0.1L27,30.9l0.1-5.9h4.3l0.9-1h-5.2c-0.6,0-1.1,0.5-1.1,1.1V31
		c0,0.6,0.5,1.1,1.1,1.1H33c0.6,0,1.1-0.5,1.1-1.1v-4L33,28.1z"/>
</g>
<g>
	<path class="st0" d="M20,29L20,29c-0.6,0-1-0.4-1-1V12c0-0.6,0.4-1,1-1l0,0c0.6,0,1,0.4,1,1v16C21,28.6,20.6,29,20,29z"/>
	<g>
		<path class="st0" d="M25.8,17.9L25.8,17.9c-0.4,0.4-1,0.4-1.4,0l-5.1-5.2c-0.4-0.4-0.4-1,0-1.4l0,0c0.4-0.4,1-0.4,1.4,0l5.1,5.2
			C26.2,16.9,26.2,17.5,25.8,17.9z"/>
		<path class="st0" d="M14.2,17.9L14.2,17.9c0.4,0.4,1,0.4,1.4,0l5.1-5.2c0.4-0.4,0.4-1,0-1.4l0,0c-0.4-0.4-1-0.4-1.4,0l-5.1,5.2
			C13.8,16.9,13.8,17.5,14.2,17.9z"/>
	</g>
</g>
</svg>
