<svg width="16" height="16" viewBox="0 0 16 16" fill="none" xmlns="http://www.w3.org/2000/svg">
<g clip-path="url(#clip0_3977_4867)">
<path d="M6.05967 5.9987C6.21641 5.55314 6.52578 5.17744 6.93298 4.93812C7.34018 4.6988 7.81894 4.61132 8.28446 4.69117C8.74998 4.77102 9.17222 5.01305 9.47639 5.37438C9.78057 5.73572 9.94704 6.19305 9.94634 6.66536C9.94634 7.9987 7.94634 8.66536 7.94634 8.66536M7.99967 11.332H8.00634M14.6663 7.9987C14.6663 11.6806 11.6816 14.6654 7.99967 14.6654C4.31778 14.6654 1.33301 11.6806 1.33301 7.9987C1.33301 4.3168 4.31778 1.33203 7.99967 1.33203C11.6816 1.33203 14.6663 4.3168 14.6663 7.9987Z" stroke="white" stroke-width="1.2" stroke-linecap="round" stroke-linejoin="round"/>
</g>
<defs>
<clipPath id="clip0_3977_4867">
<rect width="16" height="16" fill="white"/>
</clipPath>
</defs>
</svg>
