<?xml version="1.0" encoding="utf-8"?>
<!-- Generator: Adobe Illustrator 24.1.1, SVG Export Plug-In . SVG Version: 6.00 Build 0)  -->
<svg version="1.1" id="Слой_1" xmlns="http://www.w3.org/2000/svg" xmlns:xlink="http://www.w3.org/1999/xlink" x="0px" y="0px"
	 width="24px" height="24px" viewBox="0 0 24 24" style="enable-background:new 0 0 24 24;" xml:space="preserve">
<style type="text/css">
	.st0{fill:none;}
	.st1{fill:#525863;}
</style>
<path class="st0" d="M0,0h24v24H0V0z"/>
<g>
	<g>
		<path class="st1" d="M12,4.25c4.273,0,7.75,3.477,7.75,7.75s-3.477,7.75-7.75,7.75S4.25,16.273,4.25,12S7.727,4.25,12,4.25
			 M12,2.5c-5.247,0-9.5,4.253-9.5,9.5s4.253,9.5,9.5,9.5s9.5-4.253,9.5-9.5S17.247,2.5,12,2.5L12,2.5z"/>
	</g>
	<g>
		<g>
			<path class="st1" d="M14.792,8.208c-0.256,0-0.512,0.098-0.707,0.293L8.5,14.085c-0.391,0.391-0.391,1.024,0,1.414
				c0.195,0.195,0.451,0.293,0.707,0.293s0.512-0.098,0.707-0.293L15.5,9.915c0.391-0.391,0.391-1.024,0-1.414
				C15.304,8.305,15.048,8.208,14.792,8.208L14.792,8.208z"/>
		</g>
		<g>
			<path class="st1" d="M9.208,8.208C8.952,8.208,8.696,8.305,8.5,8.5C8.11,8.891,8.11,9.524,8.5,9.915l5.585,5.585
				c0.195,0.195,0.451,0.293,0.707,0.293s0.512-0.098,0.707-0.293c0.391-0.391,0.391-1.024,0-1.414L9.915,8.5
				C9.719,8.305,9.463,8.208,9.208,8.208L9.208,8.208z"/>
		</g>
	</g>
</g>
</svg>
