<?xml version="1.0" encoding="utf-8"?>
<!-- Generator: Adobe Illustrator 22.1.0, SVG Export Plug-In . SVG Version: 6.00 Build 0)  -->
<svg version="1.1" id="Слой_1" xmlns="http://www.w3.org/2000/svg" xmlns:xlink="http://www.w3.org/1999/xlink" x="0px" y="0px"
	 viewBox="0 0 64 56" style="enable-background:new 0 0 64 56;" xml:space="preserve">
<style type="text/css">
	.st0{fill:#E0E0E0;}
	.st1{fill:none;stroke:#B7B7B7;stroke-width:4;stroke-linecap:round;stroke-miterlimit:10;}
	.st2{fill:#585759;}
	.st3{fill:none;stroke:#585759;stroke-width:3;stroke-linecap:round;stroke-linejoin:round;stroke-miterlimit:10;}
	.st4{fill:none;stroke:#585759;stroke-width:4;stroke-linecap:round;stroke-linejoin:round;stroke-miterlimit:10;}
</style>
<g>
	<path class="st0" d="M11.1,53.3c-5.4-5.4-8.7-12.8-8.7-20.9c0-8,3.2-15.2,8.3-20.5c6.5,6.2,14,12.9,21.8,19.8
		C27.6,37.1,22.4,42.5,11.1,53.3z"/>
	<path class="st1" d="M52.9,53.2c5.3-5.3,8.6-12.7,8.6-20.9C61.6,16,48.4,2.7,32.1,2.7S2.5,16,2.5,32.3c0,8.2,3.3,15.5,8.6,20.9"/>
	<circle class="st2" cx="32.9" cy="32" r="3.5"/>
	<line class="st3" x1="15.5" y1="16.5" x2="32.9" y2="32"/>
	<path class="st4" d="M10.7,11.8c-5.1,5.3-8.2,12.5-8.2,20.4c0,8.2,3.3,15.5,8.6,20.9"/>
</g>
</svg>
