<?xml version="1.0" encoding="utf-8"?>
<!-- Generator: Adobe Illustrator 22.1.0, SVG Export Plug-In . SVG Version: 6.00 Build 0)  -->
<svg version="1.1" id="Слой_1" xmlns="http://www.w3.org/2000/svg" xmlns:xlink="http://www.w3.org/1999/xlink" x="0px" y="0px"
	 viewBox="0 0 64 56" style="enable-background:new 0 0 64 56;" xml:space="preserve">
<style type="text/css">
	.st0{fill:#E0E0E0;}
	.st1{fill:none;stroke:#B7B7B7;stroke-width:4;stroke-linecap:round;stroke-miterlimit:10;}
	.st2{fill:#585759;}
	.st3{fill:none;stroke:#585759;stroke-width:3;stroke-linecap:round;stroke-linejoin:round;stroke-miterlimit:10;}
	.st4{fill:none;stroke:#585759;stroke-width:4;stroke-linecap:round;stroke-linejoin:round;stroke-miterlimit:10;}
</style>
<g>
	<path class="st0" d="M12.1,53.8c-5.4-5.4-9.6-13.9-9.6-22c0-16.3,13.2-29.6,29.6-29.6c7.1,0,15.2,3.1,20.4,7.3
		C47.8,15,21.8,43.1,12.1,53.8z"/>
	<path class="st1" d="M52.1,53.3c5.5-5.2,9.1-12.4,9.4-20.6C62.1,16.5,49.3,2.8,33,2.2S3.1,14.4,2.5,30.7
		c-0.3,8.1,2.8,15.6,7.9,21.2"/>
	<circle class="st2" cx="33" cy="31.4" r="3.5"/>
	<line class="st3" x1="46.8" y1="15.9" x2="33" y2="31.4"/>
	<path class="st4" d="M50.3,8.6c-4.6-4-11.7-6.4-18.2-6.4C15.8,2.2,2.6,15.4,2.6,31.7c0,8.2,3.3,15.5,8.6,20.9"/>
</g>
</svg>
