<?xml version="1.0" encoding="utf-8"?>
<!-- Generator: Adobe Illustrator 22.1.0, SVG Export Plug-In . SVG Version: 6.00 Build 0)  -->
<svg version="1.1" id="Слой_1" xmlns="http://www.w3.org/2000/svg" xmlns:xlink="http://www.w3.org/1999/xlink" x="0px" y="0px"
	 viewBox="0 0 50 50" style="enable-background:new 0 0 50 50;" xml:space="preserve">
<style type="text/css">
	.st0{fill:none;}
	.st1{fill:#616161;}
</style>
<path class="st0" d="M0,0h50v50H0V0z"/>
<g>
	<path id="path30" inkscape:connector-curvature="0" class="st1" d="M39.9,15.2H10.3c-2,0-3.7,1.7-3.7,3.7V37c0,2,1.7,3.7,3.7,3.7
		h29.4c2,0,3.7-1.7,3.7-3.7V18.8C43.6,16.6,41.9,15.2,39.9,15.2 M25.7,35.4v-5.3H15.1v-5.1h10.5V19l9,8.1L25.7,35.4"/>
	<path id="path32" inkscape:connector-curvature="0" class="st1" d="M10.1,13h19.3c0,0-0.4-1.7-1.5-2.6c-1.1-0.9-2.6-1.1-2.6-1.1
		h-11c0,0-1.5,0-2.8,1.1C10.1,11.5,10.1,13,10.1,13"/>
</g>
</svg>
