<svg width="12" height="12" viewBox="0 0 12 12" fill="none" xmlns="http://www.w3.org/2000/svg">
<path d="M5.99998 1C8.79998 1 11 3.2 11 6C11 8.8 8.79998 11 5.99998 11C3.19998 11 0.999985 8.8 0.999985 6C0.999985 3.2 3.19998 1 5.99998 1ZM5.99998 0C2.69998 0 -1.52588e-05 2.7 -1.52588e-05 6C-1.52588e-05 9.3 2.69998 12 5.99998 12C9.29998 12 12 9.3 12 6C12 2.7 9.29998 0 5.99998 0Z" fill="#00A4F8"/>
<path d="M6 9C7.65685 9 9 7.65685 9 6C9 4.34315 7.65685 3 6 3C4.34315 3 3 4.34315 3 6C3 7.65685 4.34315 9 6 9Z" fill="#00A4F8"/>
</svg>
