<svg width="10" height="3" viewBox="0 0 10 3" fill="none" xmlns="http://www.w3.org/2000/svg">
<path opacity="0.7" d="M1.2 2.4C1.86274 2.4 2.4 1.86274 2.4 1.2C2.4 0.537258 1.86274 0 1.2 0C0.537259 0 0 0.537258 0 1.2C0 1.86274 0.537259 2.4 1.2 2.4Z" fill="#8F9295"/>
<path opacity="0.7" d="M5 2.4C5.66274 2.4 6.2 1.86274 6.2 1.2C6.2 0.537258 5.66274 0 5 0C4.33726 0 3.8 0.537258 3.8 1.2C3.8 1.86274 4.33726 2.4 5 2.4Z" fill="#8F9295"/>
<path opacity="0.7" d="M8.80001 2.4C9.46275 2.4 10 1.86274 10 1.2C10 0.537258 9.46275 0 8.80001 0C8.13727 0 7.60001 0.537258 7.60001 1.2C7.60001 1.86274 8.13727 2.4 8.80001 2.4Z" fill="#8F9295"/>
</svg>
