<svg width="24" height="24" viewBox="0 0 24 24" fill="none" xmlns="http://www.w3.org/2000/svg">
  <g mask="url(#mask0_1454_656)">
    <path d="M12 13.1711L7.90114 17.27C7.74778 17.4233 7.5526 17.5 7.31559 17.5C7.07858 17.5 6.8834 17.4233 6.73004 17.27C6.57668 17.1166 6.5 16.9214 6.5 16.6844C6.5 16.4474 6.57668 16.2522 6.73004 16.0989L10.8289 12L6.73004 7.90114C6.57668 7.74778 6.5 7.5526 6.5 7.31559C6.5 7.07858 6.57668 6.8834 6.73004 6.73004C6.8834 6.57668 7.07858 6.5 7.31559 6.5C7.5526 6.5 7.74778 6.57668 7.90114 6.73004L12 10.8289L16.0989 6.73004C16.2522 6.57668 16.4474 6.5 16.6844 6.5C16.9214 6.5 17.1166 6.57668 17.27 6.73004C17.4233 6.8834 17.5 7.07858 17.5 7.31559C17.5 7.5526 17.4233 7.74778 17.27 7.90114L13.1711 12L17.27 16.0989C17.4233 16.2522 17.5 16.4474 17.5 16.6844C17.5 16.9214 17.4233 17.1166 17.27 17.27C17.1166 17.4233 16.9214 17.5 16.6844 17.5C16.4474 17.5 16.2522 17.4233 16.0989 17.27L12 13.1711Z" fill="#FFFFFF"/>
  </g>
</svg>