<?xml version="1.0" encoding="utf-8"?>
<!-- Generator: Adobe Illustrator 24.1.1, SVG Export Plug-In . SVG Version: 6.00 Build 0)  -->
<svg version="1.1" id="Слой_1" xmlns="http://www.w3.org/2000/svg" xmlns:xlink="http://www.w3.org/1999/xlink" x="0px" y="0px"
	 width="16px" height="16px" viewBox="0 0 16 16" style="enable-background:new 0 0 16 16;" xml:space="preserve">
<style type="text/css">
	.st0{fill:#8F9295;}
</style>
<g>
	<g>
		<path class="st0" d="M12.664,14H2.889C2.398,14,2,13.602,2,13.111V2.889C2,2.398,2.398,2,2.889,2h3.394
			c0.491,0,0.889,0.398,0.889,0.889S6.774,3.778,6.283,3.778H3.778v8.445h7.998v-1.794c0-0.491,0.398-0.889,0.889-0.889
			c0.491,0,0.889,0.398,0.889,0.889v2.683C13.553,13.602,13.155,14,12.664,14z"/>
	</g>
	<g>
		<path class="st0" d="M8.031,9.753c-0.224,0-0.447-0.084-0.62-0.252L5.383,7.528C5.031,7.186,5.024,6.623,5.366,6.271
			c0.342-0.352,0.905-0.36,1.257-0.017l1.4,1.362l4.461-4.466c0.347-0.347,0.909-0.348,1.257,0c0.347,0.347,0.347,0.909,0,1.257
			l-5.08,5.085C8.486,9.666,8.258,9.753,8.031,9.753z"/>
	</g>
</g>
</svg>
