<?xml version="1.0" encoding="utf-8"?>
<!-- Generator: Adobe Illustrator 24.0.0, SVG Export Plug-In . SVG Version: 6.00 Build 0)  -->
<svg version="1.1" xmlns="http://www.w3.org/2000/svg" xmlns:xlink="http://www.w3.org/1999/xlink" x="0px" y="0px"
	 viewBox="0 0 212 76" style="enable-background:new 0 0 212 76;" xml:space="preserve">
<style type="text/css">
	.st0{fill:#007DC2;}
	.st1{fill:#8F9295;}
	.st2{fill:#DB5155;}
	.st3{fill:#D7E8ED;}
	.st4{fill:#B6B7B7;}
	.st5{opacity:0.3;fill:#DEDEDE;enable-background:new    ;}
</style>
<g id="Слой_2">
</g>
<g id="svg2" xmlns:cc="http://creativecommons.org/ns#" xmlns:dc="http://purl.org/dc/elements/1.1/" xmlns:inkscape="http://www.inkscape.org/namespaces/inkscape" xmlns:rdf="http://www.w3.org/1999/02/22-rdf-syntax-ns#" xmlns:sodipodi="http://sodipodi.sourceforge.net/DTD/sodipodi-0.dtd" xmlns:svg="http://www.w3.org/2000/svg">
	
		<sodipodi:namedview  bordercolor="#666666" borderopacity="1" fit-margin-bottom="0" fit-margin-left="0" fit-margin-right="0" fit-margin-top="0" gridtolerance="10" guidetolerance="10" id="namedview34" inkscape:current-layer="svg2" inkscape:cx="183.60447" inkscape:cy="18.407129" inkscape:pageopacity="0" inkscape:pageshadow="2" inkscape:window-height="987" inkscape:window-maximized="1" inkscape:window-width="1680" inkscape:window-x="-8" inkscape:window-y="-8" inkscape:zoom="20" objecttolerance="10" pagecolor="#ffffff" showgrid="false">
		</sodipodi:namedview>
	<path id="path8" inkscape:connector-curvature="0" class="st0" d="M6.3,9.5l6-6l1.5,1.4l-7.5,7.6L2.8,8.9l1.6-1.4L6.3,9.5z"/>
	<path id="path10" inkscape:connector-curvature="0" class="st0" d="M15,1v14H1V1H15 M16,0H0v16h16V0z"/>
	<path id="path12" inkscape:connector-curvature="0" d="M26.3,9.5l6-6l1.5,1.4l-7.5,7.6l-3.5-3.6l1.6-1.4L26.3,9.5z"/>
	<path id="path14" inkscape:connector-curvature="0" d="M35,1v14H21V1H35 M36,0H20v16h16V0z"/>
	<path id="path16" inkscape:connector-curvature="0" d="M35,21v14H21V21H35 M36,20H20v16h16V20z"/>
	<path id="path20" inkscape:connector-curvature="0" class="st1" d="M46.3,9.5l6-6l1.5,1.4l-7.5,7.6l-3.5-3.6l1.6-1.4L46.3,9.5z"/>
	<path id="path22" inkscape:connector-curvature="0" class="st1" d="M55,1v14H41V1H55 M56,0H40v16h16V0z"/>
	<path id="path24" inkscape:connector-curvature="0" class="st1" d="M55,21v14H41V21H55 M56,20H40v16h16V20z"/>
	<path id="path26" inkscape:connector-curvature="0" class="st2" d="M75,21v14H61V21H75 M76,20H60v16h16V20z"/>
	<path id="path28" inkscape:connector-curvature="0" class="st2" d="M66.3,9.5l6-6l1.5,1.4l-7.5,7.6l-3.5-3.6l1.6-1.4L66.3,9.5z"/>
	<path id="path30" inkscape:connector-curvature="0" class="st2" d="M75,1v14H61V1H75 M76,0H60v16h16V0z"/>
	<path id="path32" inkscape:connector-curvature="0" class="st3" d="M15,21v14H1V21H15 M16,20H0v16h16V20z"/>
	<path id="path3356" inkscape:connector-curvature="0" class="st0" d="M31,45v10H21V45H31 M32,44H20v12h12V44L32,44z"/>
	<rect id="rect3358" x="23" y="47" class="st0" width="6" height="6"/>
	<path id="path32-5" inkscape:connector-curvature="0" class="st3" d="M11.2,44.8v10.5H0.8V44.8H11.2 M12,44H0v12h12V44z"/>
	<path id="path8-6" inkscape:connector-curvature="0" class="st0" d="M44.7,51.1l4.5-4.5l1.1,1l-5.6,5.7l-2.6-2.7l1.2-1L44.7,51.1z"
		/>
	<path id="path10-2" inkscape:connector-curvature="0" class="st0" d="M51.3,44.8v10.5H40.8V44.8H51.3 M52,44H40v12h12V44z"/>
	<path id="path10-6" inkscape:connector-curvature="0" class="st0" d="M15,21v14H1V21H15 M16,20H0v16h16V20z"/>
	<path id="path10-6-8" inkscape:connector-curvature="0" class="st0" d="M11.2,44.7v10.5H0.8V44.7H11.2 M12,44H0v12h12V44z"/>
	<g id="g4169" transform="translate(-259.00001,453.89999)">
		<path id="path4171" inkscape:connector-curvature="0" class="st0" d="M265-388.9c2.8,0,5,2.2,5,5s-2.2,5-5,5s-5-2.2-5-5
			S262.2-388.9,265-388.9 M265-389.9c-3.3,0-6,2.7-6,6s2.7,6,6,6s6-2.7,6-6S268.3-389.9,265-389.9L265-389.9z"/>
	</g>
	<g id="g4173" transform="translate(-239.00001,440.79999)">
		<path id="path4175" inkscape:connector-curvature="0" class="st0" d="M265-375.8c2.8,0,5,2.2,5,5s-2.2,5-5,5s-5-2.2-5-5
			C260-373.6,262.2-375.8,265-375.8 M265-376.8c-3.3,0-6,2.7-6,6s2.7,6,6,6s6-2.7,6-6C271-374.1,268.3-376.8,265-376.8L265-376.8z"
			/>
	</g>
	<circle id="circle4177" class="st0" cx="26" cy="70" r="3"/>
	<path id="path16-4" inkscape:connector-curvature="0" class="st1" d="M111.2,44.8v10.5h-10.5V44.8H111.2 M112,44h-12v12h12V44z"/>
	<path id="path12-2" inkscape:connector-curvature="0" class="st1" d="M124.7,51.1l4.5-4.5l1.1,1l-5.6,5.7l-2.6-2.7l1.2-1
		L124.7,51.1z"/>
	<path id="path14-2" inkscape:connector-curvature="0" class="st1" d="M131.3,44.8v10.5h-10.5V44.8H131.3 M132,44h-12v12h12V44z"/>
	<path id="path3356-5" inkscape:connector-curvature="0" class="st1" d="M151,45v10h-10V45H151 M152,44h-12v12h12V44L152,44z"/>
	<rect id="rect3358-5" x="143" y="47" class="st1" width="6" height="6"/>
	<path id="path22-3" inkscape:connector-curvature="0" class="st4" d="M171.3,44.8v10.5h-10.5V44.8H171.3 M172,44h-12v12h12V44z"/>
	<path id="path20-7-9" inkscape:connector-curvature="0" class="st4" d="M184.7,51.1l4.5-4.5l1.1,1l-5.6,5.7l-2.6-2.7l1.2-1
		L184.7,51.1z"/>
	<path id="path22-3-6" inkscape:connector-curvature="0" class="st4" d="M191.2,44.8v10.5h-10.5V44.8H191.2 M192,44h-12v12h12V44z"
		/>
	<path id="path3356-5-7" inkscape:connector-curvature="0" class="st4" d="M211,45v10h-10V45H211 M212,44h-12v12h12V44L212,44z"/>
	<rect id="rect3358-5-6" x="203" y="47" class="st4" width="6" height="6"/>
	<path id="path10-5" inkscape:connector-curvature="0" class="st5" d="M71.3,44.8v10.5H60.8V44.8H71.3 M72,44H60v12h12V44z"/>
	<path id="path8-9-8" inkscape:connector-curvature="0" class="st5" d="M84.7,51.1l4.5-4.5l1.1,1l-5.6,5.7l-2.6-2.7l1.2-1L84.7,51.1
		z"/>
	<path id="path10-5-1" inkscape:connector-curvature="0" class="st5" d="M91.3,44.8v10.5H80.8V44.8H91.3 M92,44H80v12h12V44z"/>
</g>
</svg>
