<?xml version="1.0" encoding="utf-8"?>
<!-- Generator: Adobe Illustrator 24.1.1, SVG Export Plug-In . SVG Version: 6.00 Build 0)  -->
<svg version="1.1" id="Слой_1" xmlns="http://www.w3.org/2000/svg" xmlns:xlink="http://www.w3.org/1999/xlink" x="0px" y="0px"
	 width="93px" height="456px" viewBox="0 0 93 456" style="enable-background:new 0 0 93 456;" xml:space="preserve">
<style type="text/css">
	.st0{fill:#8F9295;}
	.st1{fill:#007EC2;}
	.st2{fill:#6E7C76;}
	.st3{fill:#FFFFFF;}
	.st4{fill:#606468;}
	.st5{fill:#FDE3E3;}
	.st6{fill:#CFA6A9;}
	.st7{fill:#585759;}
	.st8{fill:#FFEBEB;}
	.st9{opacity:0.7;fill:#FDE3E3;enable-background:new    ;}
	.st10{fill:#9C9C9D;}
	.st11{fill:#F5FBFF;}
	.st12{fill:#D0EDFE;}
	.st13{fill:#9D9D9D;}
	.st14{opacity:0.7;fill:#8F9295;enable-background:new    ;}
	.st15{opacity:0.7;fill:#CE4141;enable-background:new    ;}
	.st16{fill:#7B848F;fill-opacity:0.9412;}
	.st17{fill:#A3A3A3;}
	.st18{fill:#999999;}
	.st19{fill:#FF7800;}
	.st20{fill:#868486;}
	.st21{fill:none;}
</style>
<path class="st0" d="M5.2,1h1.7v10H5.2V1z"/>
<path class="st0" d="M1,5.2h10v1.7H1V5.2z"/>
<path class="st1" d="M10.3,26l1.7,1.5L6.4,33L1,27.5L2.7,26l3.8,3.8L10.3,26z"/>
<path class="st1" d="M12,51.4l-1.7,1.5l-3.8-3.8L2.7,53L1,51.5L6.5,46L12,51.4z"/>
<path class="st2" d="M4.2,70v-6.1L1,63.8L5,60l4,3.8H5.9V70H4.2z"/>
<path class="st2" d="M5.8,80v6.1H9l-4,3.8l-4-3.8h3.1v-6.2L5.8,80z"/>
<polygon class="st3" points="1,110.6 2,109.7 3.3,111 7.3,107 8.3,107.9 3.3,113 "/>
<polygon class="st4" points="27.3,109.9 24.1,113 21,109.9 22,109 24.2,111.2 26.3,109 "/>
<polygon class="st4" points="41,112.1 44.2,109 47.3,112.1 46.3,113 44.1,110.8 42,113 "/>
<path class="st3" d="M70.3,106l1.7,1.5l-5.6,5.5l-5.4-5.5l1.7-1.5l3.8,3.8L70.3,106z"/>
<path class="st3" d="M92,111.4l-1.7,1.5l-3.8-3.8l-3.8,3.9l-1.7-1.5l5.5-5.5L92,111.4z"/>
<polygon class="st1" points="2.8,127.8 4.5,129.5 10.3,124 11.6,125.4 4.6,132 1.5,129.2 "/>
<polygon class="st5" points="1,156.6 8,163 8,150 "/>
<polygon class="st6" points="2.5,156.6 7,160.7 7,162.1 1,156.6 7.1,150.9 7.1,152.2 "/>
<polygon class="st5" points="11,163 11,150 18,156.6 "/>
<polygon class="st6" points="11.9,150.9 11.9,152.2 16.5,156.6 12,160.7 12,162.1 18,156.6 "/>
<path class="st4" d="M29,195h-8l4,6L29,195z"/>
<path class="st4" d="M1,195v8l6-4L1,195z"/>
<polygon class="st4" points="1,223 6.5,217 12,223 "/>
<polygon class="st7" points="9,236.1 1.9,243.2 1,242.3 8,235.2 "/>
<polygon class="st7" points="1.9,235.2 9,242.2 8.1,243.2 1,236.1 "/>
<polygon class="st8" points="26.5,217 32,223 21,223 "/>
<polygon class="st9" points="21,223 26.6,217 32,223 "/>
<polygon class="st6" points="31.2,222.1 26.6,217 21.8,222.2 22.9,222.2 26.6,218.3 30,222.1 "/>
<path class="st4" d="M71,194H61l5,6L71,194z"/>
<path class="st4" d="M41,193v10l6-5L41,193z"/>
<path class="st10" d="M7.9,274.6c0,0,0.1-0.1,0.3,0c0.1,0.1,0.1,0.2,0.1,0.3l-0.8,4.6c0,0.4,0.3,0.7,0.6,0.8c0.6,0.1,1.1,0,1.6-0.3
	l1.1-0.8c0,0,0.1-0.1,0-0.3s-0.3,0-0.3,0l-0.6,0.4c0,0-0.2,0.1-0.3,0s-0.1-0.2-0.1-0.3l0.8-4.6c0-0.3-0.1-0.6-0.4-0.7
	c-0.4-0.2-0.8-0.2-1.2,0c-0.6,0.3-1.2,0.7-1.7,1.1c0,0-0.3-0.1-0.1,0.1c0,0.1,0.2,0.2,0.3,0.1l0,0l0,0L7.9,274.6z"/>
<circle class="st10" cx="9.8" cy="271.5" r="1.1"/>
<path class="st10" d="M9,268.6c3.8,0,6.8,3,6.8,6.8s-3,6.8-6.8,6.8s-6.8-3-6.8-6.8l0,0C2.2,271.6,5.2,268.6,9,268.6L9,268.6
	 M9,267.4c-4.4,0-8,3.6-8,8s3.6,8,8,8s8-3.6,8-8S13.4,267.4,9,267.4z"/>
<polygon class="st11" points="48,223 48,210 41,216.6 "/>
<polygon class="st12" points="47,220.7 47,222.1 41,216.6 47.1,210.9 47.1,212.2 42.5,216.6 "/>
<polygon class="st5" points="21,156 34,156 27.4,163 "/>
<polygon class="st6" points="23.3,157 21.9,157 27.4,163 33.1,156.9 31.8,156.9 27.4,161.5 "/>
<path class="st1" d="M52,31.4l-1.7,1.5l-3.8-3.8L42.7,33L41,31.5l5.5-5.5L52,31.4z"/>
<path class="st13" d="M75,70.4L73.6,69L68,74.6L62.4,69L61,70.4l5.6,5.6L61,81.6l1.4,1.4l5.6-5.6l5.6,5.6l1.4-1.4L69.4,76L75,70.4z"
	/>
<path class="st1" d="M4.2,300.3l5.5-5.5l1.4,1.3L4.2,303L1,299.7l1.5-1.3L4.2,300.3z"/>
<polygon class="st3" points="31.8,235 39,242.2 38.1,243 31,235.8 "/>
<polygon class="st3" points="38.2,235 39,235.8 31.8,243 31,242.2 "/>
<circle class="st14" cx="62.2" cy="2.2" r="1.2"/>
<circle class="st14" cx="66" cy="2.2" r="1.2"/>
<circle class="st14" cx="69.8" cy="2.2" r="1.2"/>
<path class="st15" d="M41.1,282.3c-0.1-0.4,0-0.9,0.2-1.3l6.5-10.9c0,0,0.6-1.1,1.1-1.1c0.7,0,1.3,1.1,1.3,1.1l6.6,11.1
	c0.2,0.4,0.3,0.8,0.2,1.2c-0.1,0.4-0.4,0.6-0.8,0.6H41.9C41.9,282.9,41.3,283.1,41.1,282.3L41.1,282.3z"/>
<circle class="st3" cx="49" cy="280.5" r="0.8"/>
<path class="st3" d="M49,278.2L49,278.2c-0.5,0-0.8-0.3-0.8-0.9V273c0-0.5,0.3-0.9,0.8-0.9l0,0c0.5,0,0.8,0.4,0.8,0.8l0,0v4.4
	C49.7,277.8,49.4,278.2,49,278.2z"/>
<path class="st3" d="M2.6,321.7l2.7-2.7l0.7,0.6L2.6,323L1,321.4l0.7-0.6L2.6,321.7L2.6,321.7z"/>
<path class="st1" d="M1,336v6c0,0.3,0.1,0.6,0.3,0.8c0.3,0.1,0.6,0.2,0.9,0.2h11.6c0.3,0,0.6-0.1,0.8-0.3c0.2-0.2,0.3-0.5,0.4-0.8
	V335H9.3l-1.2,1H1z"/>
<path class="st1" d="M2,333.1c0-0.6,0.5-1.1,1.1-1.1l0,0H9v1h5v1H9.4L8,335H2V333.1z"/>
<path class="st1" d="M7,351H2.7c-0.9,0-1.7,0.8-1.7,1.7v8.6c0,0.9,0.8,1.7,1.7,1.7h9.6c0.9,0,1.7-0.8,1.7-1.7V358h-2v3H3v-8h4V351z"
	/>
<path class="st1" d="M9,351c-0.6,0-1,0.4-1,1c0,0.6,0.4,1,1,1h1.7l-4.8,4.8c-0.4,0.4-0.4,1,0,1.4c0.2,0.2,0.4,0.3,0.7,0.3
	c0.3,0,0.5-0.1,0.7-0.3l4.7-4.7v1.6c0,0.5,0.5,0.9,1,0.9c0.6,0,1-0.4,1-1v-5H9z"/>
<polygon class="st16" points="68.8,235.9 62,243 61.1,242.1 67.9,235 "/>
<polygon class="st16" points="61.9,235.3 69,242.1 68.1,243 61,236.2 "/>
<polygon class="st17" points="10.8,383 1,373.1 2.1,372 12,381.9 "/>
<polygon class="st17" points="2.1,383 1,381.9 10.9,372 12,373.1 "/>
<path class="st18" d="M13.7,408.9c-0.7,1.7-2.1,3-3.9,3.4c-4.5,1.1-6.6-0.5-6.6-0.5c-0.3,0-0.5,0.2-0.5,0.5l0,0v0.1l0,0
	c0,0.5,0.3,0.9,0.7,0.9h0.2c2.9,0.2,5.8,0.2,8.7,0c1.4,0,2.7-0.3,3.9-1c0.8-0.5,1.5-1.2,2-2c1.3-2.2,2.4-2.2,2.3-2.6
	s-0.2-2.9-3.6-2.7C15.3,405.2,14.1,407.6,13.7,408.9L13.7,408.9z"/>
<path class="st18" d="M11.8,409.3C9.7,412.8,0,412,1.1,404.4c1.2-8.8,13.5-6.7,14.9-1c0.1,0.2-0.8,0-1.4,1.4
	c-0.3,0.7-0.7-1.4-2.2-2.7c-2.3-2-8.7-2.6-9.2,2.7c-0.5,4.9,5.7,5.8,7.1,3.6c2.8-4.2-2.6-5.7-3.7-4c-1,1.4,0.3,2.8,1.1,2.4
	c0.4-0.2-0.6-1.6,0.8-1.8c0.9-0.2,1.3,1.4,1,1.9c-1.5,3-5.9,0.4-4.7-2.8C6.4,400.1,16.2,402.1,11.8,409.3L11.8,409.3z"/>
<polygon class="st18" points="18.1,401.4 18.9,401.6 17.8,405.5 17,405.3 "/>
<polygon class="st18" points="21.8,403.2 22.4,403.7 19.7,406.7 19.1,406.2 "/>
<circle class="st18" cx="18.6" cy="401.3" r="0.8"/>
<ellipse transform="matrix(0.2028 -0.9792 0.9792 0.2028 -377.3206 343.0635)" class="st18" cx="22.037" cy="403.269" rx="0.8" ry="0.8"/>
<path class="st19" d="M13.7,433.9c-0.7,1.7-2.1,3-3.9,3.4c-4.5,1.1-6.6-0.5-6.6-0.5c-0.3,0-0.5,0.2-0.5,0.5l0,0v0.1l0,0
	c0,0.5,0.3,0.9,0.7,0.9h0.2c2.9,0.2,5.8,0.2,8.7,0c1.4,0,2.7-0.3,3.9-1c0.8-0.5,1.5-1.2,2-2c1.2-2.2,2.4-2.2,2.3-2.6
	s-0.2-2.9-3.6-2.7C15.3,430.2,14.1,432.6,13.7,433.9L13.7,433.9z"/>
<path class="st19" d="M11.8,434.3C9.7,437.8,0,437,1.1,429.4c1.2-8.8,13.5-6.7,14.9-1c0.1,0.2-0.8,0-1.4,1.4
	c-0.3,0.7-0.7-1.4-2.2-2.7c-2.3-2-8.7-2.6-9.2,2.7c-0.5,4.9,5.6,5.8,7.1,3.6c2.8-4.2-2.6-5.7-3.7-4c-1,1.4,0.3,2.8,1.1,2.4
	c0.4-0.2-0.6-1.6,0.8-1.8c0.9-0.2,1.3,1.4,1,1.9c-1.5,3-5.9,0.4-4.6-2.8C6.4,425.1,16.2,427.1,11.8,434.3L11.8,434.3z"/>
<polygon class="st19" points="18.1,426.4 18.9,426.6 17.8,430.5 17,430.3 "/>
<polygon class="st19" points="21.8,428.2 22.3,428.7 19.7,431.7 19.1,431.2 "/>
<circle class="st19" cx="18.6" cy="426.3" r="0.8"/>
<ellipse transform="matrix(0.2028 -0.9792 0.9792 0.2028 -401.9229 362.9743)" class="st19" cx="21.965" cy="428.334" rx="0.8" ry="0.8"/>
<polygon class="st20" points="1,450.4 4.5,454.4 8,450.4 "/>
<rect class="st21" width="93" height="456"/>
<polygon class="st1" points="50.6,330 58,330 53.7,324 49.9,324 "/>
<polygon class="st1" points="48.1,324 43.7,324 39.1,330 47.2,330 "/>
<polygon class="st1" points="50.1,330 49.3,324 48.7,324 47.9,330 "/>
<polygon class="st1" points="48,337 47.1,337 49,338.6 50.9,337 50,337 50,336.1 50,331 48,331 48,336.1 "/>
<path class="st1" d="M51,331v5h1.6l0.4,0.7l-4,2.7l0,0l-4-2.7l0.4-0.8H47v-5h-8v12h19v-12L51,331L51,331z M44,342h-4v-1h4V342z
	 M45,340h-5v-1h5V340z"/>
<circle class="st1" cx="64" cy="124" r="4"/>
</svg>
