<?xml version="1.0" encoding="utf-8"?>
<!-- Generator: Adobe Illustrator 24.1.1, SVG Export Plug-In . SVG Version: 6.00 Build 0)  -->
<svg version="1.1" id="Слой_1" xmlns="http://www.w3.org/2000/svg" xmlns:xlink="http://www.w3.org/1999/xlink" x="0px" y="0px"
	 width="17px" height="15px" viewBox="0 0 17 15" style="enable-background:new 0 0 17 15;" xml:space="preserve">
<style type="text/css">
	.st0{fill:#047FC3;}
</style>
<g id="g4155" transform="matrix(3.3018522,0,0,3.3018522,0.05282964,-157.87384)">
	<path id="path4144" class="st0" d="M-0.016,49.482v2.464c0,0,0,0.205,0.099,0.308c0.099,0.103,0.297,0.103,0.297,0.103h4.357
		c0,0,0.198,0,0.297-0.103c0.099-0.103,0.099-0.308,0.099-0.308v-2.875H3.053l-0.495,0.308L-0.016,49.482L-0.016,49.482z"/>
	<path id="path4146" class="st0" d="M2.558,49.071H0.182v-0.719c0,0,0-0.205,0.198-0.411s0.396-0.103,0.396-0.103h2.277v0.308h1.782
		v0.616H3.053L2.558,49.071z"/>
</g>
</svg>
