<svg xmlns="http://www.w3.org/2000/svg" viewBox="0 0 280 80"><title>header_button</title><rect width="40" height="40" style="fill:#fff;opacity:0"/><rect x="40" width="40" height="40" style="fill:#fff;opacity:0"/><rect x="80" width="40" height="40" style="fill:#fff;opacity:0"/><rect x="120" width="40" height="40" style="fill:#fff;opacity:0"/><rect x="160" width="40" height="40" style="fill:#fff;opacity:0"/><rect x="200" width="40" height="40" style="fill:#fff;opacity:0"/><rect x="240" width="40" height="40" style="fill:#fff;opacity:0"/><rect y="40" width="40" height="40" style="fill:#fff;opacity:0"/><rect x="40" y="40" width="40" height="40" style="fill:#fff;opacity:0"/><rect x="80" y="40" width="40" height="40" style="fill:#fff;opacity:0"/><rect x="120" y="40" width="40" height="40" style="fill:#fff;opacity:0"/><rect x="159.95" y="40" width="40" height="40" style="fill:#fff;opacity:0"/><rect x="200" y="40" width="40" height="40" style="fill:#fff;opacity:0"/><rect x="240" y="40" width="40" height="40" style="fill:#fff;opacity:0"/><polygon points="51.91 10 51.91 30 67.91 20 51.91 10" style="fill:#eaeaea"/><polygon points="51.91 50 51.91 70 67.91 60 51.91 50" style="fill:#eaeaea"/><path d="M73.51,73l4.35-4,1.14.9L73.63,75,71,72.57l1.14-.9Z" transform="translate(0)" style="fill:#eaeaea"/><path d="M79,68v8H71V68h8m1-1H70V77H80V67Z" transform="translate(0)" style="fill:#eaeaea"/><path d="M113.51,73l4.34-4,1.15.9L113.63,75,111,72.57l1.14-.9Z" transform="translate(0)" style="fill:#eaeaea"/><path d="M119,68v8h-8V68h8m1-1H110V77h10V67Z" transform="translate(0)" style="fill:#eaeaea"/><path d="M153.53,73l4.34-4,1.14.9L153.64,75,151,72.57l1.14-.9Z" transform="translate(0)" style="fill:#eaeaea"/><path d="M159,68v8h-8V68h8m1-1H150V77h10V67Z" transform="translate(0)" style="fill:#eaeaea"/><path d="M193.51,73l4.35-4,1.14.9L193.63,75,191,72.57l1.14-.9Z" transform="translate(0)" style="fill:#eaeaea"/><path d="M199,68v8h-8V68h8m1-1H190V77h10V67Z" transform="translate(0)" style="fill:#eaeaea"/><rect x="71" y="28" width="2" height="2" style="fill:#eaeaea"/><rect x="74" y="28" width="2" height="2" style="fill:#eaeaea"/><rect x="77" y="28" width="2" height="2" style="fill:#eaeaea"/><rect x="71" y="31" width="2" height="2" style="fill:#eaeaea"/><rect x="74" y="31" width="2" height="2" style="fill:#eaeaea"/><rect x="77" y="31" width="2" height="2" style="fill:#eaeaea"/><rect x="71" y="34" width="2" height="2" style="fill:#eaeaea"/><rect x="74" y="34" width="2" height="2" style="fill:#eaeaea"/><rect x="77" y="34" width="2" height="2" style="fill:#eaeaea"/><rect x="111" y="28" width="2" height="2" style="fill:#eaeaea"/><rect x="114" y="28" width="2" height="2" style="fill:#eaeaea"/><rect x="117" y="28" width="2" height="2" style="fill:#eaeaea"/><rect x="111" y="31" width="2" height="2" style="fill:#eaeaea"/><rect x="114" y="31" width="2" height="2" style="fill:#eaeaea"/><rect x="117" y="31" width="2" height="2" style="fill:#eaeaea"/><rect x="111" y="34" width="2" height="2" style="fill:#eaeaea"/><rect x="114" y="34" width="2" height="2" style="fill:#eaeaea"/><rect x="117" y="34" width="2" height="2" style="fill:#eaeaea"/><rect x="92" y="50" width="6" height="20" style="fill:#eaeaea"/><rect x="102" y="50" width="6" height="20" style="fill:#eaeaea"/><rect x="92" y="10" width="6" height="20" style="fill:#eaeaea"/><rect x="102" y="10" width="6" height="20" style="fill:#eaeaea"/><path d="M132.94,15V28A2.16,2.16,0,0,0,135.22,30h9.44A2.17,2.17,0,0,0,146.94,28h0V15h-14m8.15,12H139.2V17h2l-.11,10Zm4,0h-1.89V17h2l-.11,10Zm-8,0h-1.89V17h2L137,27Z" transform="translate(0)" style="fill:#eaeaea"/><path d="M132,13h16v2H132Z" transform="translate(0)" style="fill:#eaeaea"/><path d="M137.81,10,136,12h8l-1.75-2Z" transform="translate(0)" style="fill:#eaeaea"/><path d="M132.94,55V68a2.16,2.16,0,0,0,2.28,2h9.44a2.17,2.17,0,0,0,2.28-2h0V55h-14m8.15,12H139.2V57h2l-.11,10Zm4,0h-1.89V57h2l-.11,10Zm-8,0h-1.89V57h2L137,67Z" transform="translate(0)" style="fill:#eaeaea"/><path d="M132,53h16v2H132Z" transform="translate(0)" style="fill:#eaeaea"/><path d="M137.81,50,136,52h8l-1.75-2Z" transform="translate(0)" style="fill:#eaeaea"/><path d="M187,15H171a2,2,0,0,0-2,2V27a2,2,0,0,0,2,2h16a2,2,0,0,0,2-2V17a1.81,1.81,0,0,0-1.6-2H187m-7,12V24h-8V21h8V17.1L186.47,22l-6.34,5.06" transform="translate(0)" style="fill:#eaeaea"/><path d="M171,13h10.13a2.85,2.85,0,0,0-.76-1.4A3.28,3.28,0,0,0,179,11h-5.71a1.89,1.89,0,0,0-1.43.6,1.6,1.6,0,0,0-.76,1.4" transform="translate(0)" style="fill:#eaeaea"/><path d="M187,55H171a2,2,0,0,0-2,2V67a2,2,0,0,0,2,2h16a2,2,0,0,0,2-2V57a1.81,1.81,0,0,0-1.6-2H187m-7,12V64h-8V61h8V57.1L186.47,62l-6.34,5.06" transform="translate(0)" style="fill:#eaeaea"/><path d="M171,53h10.12a2.85,2.85,0,0,0-.76-1.4A3.28,3.28,0,0,0,179,51h-5.72a1.87,1.87,0,0,0-1.42.6,1.6,1.6,0,0,0-.76,1.4" transform="translate(0)" style="fill:#eaeaea"/><path d="M221.83,23a5.54,5.54,0,1,1-3.29-10,5.54,5.54,0,0,1,4.51,8.77l3.67,3.64a.91.91,0,0,1,0,1.31.92.92,0,0,1-1.32,0L221.83,23m-3.19-.28a4.3,4.3,0,1,0-4.32-4.3,4.3,4.3,0,0,0,4.32,4.3" transform="translate(0)" style="fill:#eaeaea"/><path d="M212,64h16v2H212Z" transform="translate(0)" style="fill:#eaeaea"/><path d="M212,59h16v2H212Z" transform="translate(0)" style="fill:#eaeaea"/><path d="M212,54h16v2H212Z" transform="translate(0)" style="fill:#eaeaea"/><path d="M263.45,14.1,260,17.3V15s-3.65.2-4.93,3.3a4.94,4.94,0,0,0,.29,4.1l-1.28,1.2a6.24,6.24,0,0,1-.69-5.7A7.06,7.06,0,0,1,260,13.3V11l3.45,3.1Z" transform="translate(0)" style="fill:#eaeaea"/><path d="M256.55,25.9,260,22.7V25s3.65-.2,4.93-3.3a5.22,5.22,0,0,0-.29-4l1.18-1.3a6.24,6.24,0,0,1,.69,5.7A6.89,6.89,0,0,1,260,26.7V29l-3.45-3.1Z" transform="translate(0)" style="fill:#eaeaea"/><polygon points="256.5 60 262.4 54.5 263.5 55.7 258.9 60 263.5 64.3 262.4 65.5 256.5 60" style="fill:#eaeaea"/><polygon points="28 17 20 17 20 9 17 9 17 17 9 17 9 20 17 20 17 28 20 28 20 20 28 20 28 17" style="fill:#fff"/></svg>