<?xml version="1.0" encoding="utf-8"?>
<!-- Generator: Adobe Illustrator 24.1.1, SVG Export Plug-In . SVG Version: 6.00 Build 0)  -->
<svg version="1.1" id="Слой_1" xmlns="http://www.w3.org/2000/svg" xmlns:xlink="http://www.w3.org/1999/xlink" x="0px" y="0px"
	 width="13px" height="12px" viewBox="0 0 13 12" style="enable-background:new 0 0 13 12;" xml:space="preserve">
<style type="text/css">
	.st0{fill:#007EC2;}
</style>
<g>
	<path class="st0" d="M5,0H1.7C0.8,0,0,0.8,0,1.7v8.6C0,11.2,0.8,12,1.7,12h9.6c0.9,0,1.7-0.8,1.7-1.7V8c0-0.6-0.4-1-1-1l0,0
		c-0.6,0-1,0.4-1,1v2H2V2h3c0.6,0,1-0.4,1-1l0,0C6,0.4,5.6,0,5,0z"/>
	<path class="st0" d="M8,0C7.4,0,7,0.4,7,1s0.4,1,1,1h1.7L4.9,6.8c-0.4,0.4-0.4,1,0,1.4c0.2,0.2,0.4,0.3,0.7,0.3
		c0.3,0,0.5-0.1,0.7-0.3L11,3.5v1.6C11,5.6,11.5,6,12,6c0.6,0,1-0.4,1-1V0H8z"/>
</g>
</svg>
