<?xml version="1.0" encoding="utf-8"?>
<!-- Generator: Adobe Illustrator 24.1.1, SVG Export Plug-In . SVG Version: 6.00 Build 0)  -->
<svg version="1.1" id="Слой_1" xmlns="http://www.w3.org/2000/svg" xmlns:xlink="http://www.w3.org/1999/xlink" x="0px" y="0px"
	 width="13px" height="12px" viewBox="0 0 13 12" style="enable-background:new 0 0 13 12;" xml:space="preserve">
<style type="text/css">
	.st0{fill:#007EC2;}
</style>
<g>
	<path class="st0" d="M4.745,8.135l0.078,0.078c0.271,0.271,0.711,0.271,0.982,0l6.782-6.782c0.271-0.271,0.271-0.711,0-0.982
		L12.509,0.37c-0.271-0.271-0.711-0.271-0.982,0L4.745,7.153C4.474,7.424,4.474,7.864,4.745,8.135z"/>
	<g>
		<path class="st0" d="M10.639,12H2.334C1.047,12,0,10.953,0,9.666l0-7.305c0-1.286,1.047-2.333,2.333-2.333h1.861
			c0.414,0,0.75,0.336,0.75,0.75s-0.336,0.75-0.75,0.75H2.333C1.874,1.528,1.5,1.902,1.5,2.361l0,7.305
			c0,0.46,0.374,0.834,0.833,0.834h8.305c0.459,0,0.833-0.263,0.833-0.723V8.722c0-0.414,0.336-0.75,0.75-0.75s0.75,0.336,0.75,0.75
			v1.055C12.972,11.064,11.925,12,10.639,12z"/>
	</g>
	<path class="st0" d="M12.303,0h-0.105h-0.808h-3C8.004,0,7.692,0.312,7.692,0.697v0.105c0,0.385,0.312,0.697,0.697,0.697H11.5
		v2.853c0,0.385,0.312,0.697,0.697,0.697h0.105C12.688,5.05,13,4.738,13,4.353V0.917V0.803V0.697V0H12.303z"/>
</g>
</svg>
