<?xml version="1.0" encoding="utf-8"?>
<!-- Generator: Adobe Illustrator 24.1.1, SVG Export Plug-In . SVG Version: 6.00 Build 0)  -->
<svg version="1.1" id="Слой_1" xmlns="http://www.w3.org/2000/svg" xmlns:xlink="http://www.w3.org/1999/xlink" x="0px" y="0px"
	 width="12px" height="12px" viewBox="0 0 12 12" style="enable-background:new 0 0 12 12;" xml:space="preserve">
<style type="text/css">
	.st0{fill:#8E9194;}
</style>
<g>
	<path class="st0" d="M6,0C4.3,0,2.8,1.4,2.8,3.2S4.3,6.3,6,6.3s3.2-1.4,3.2-3.2S7.7,0,6,0z M6,5.1c-1,0-1.9-0.9-1.9-1.9
		c0-1,0.9-1.9,1.9-1.9c1,0,1.9,0.9,1.9,1.9C7.9,4.2,7,5.1,6,5.1z"/>
	<path class="st0" d="M11.7,12v-0.6c0-2.2-2-3.9-4.4-3.9H4.7c-2.4,0-4.4,1.8-4.4,3.9V12h1.3v-0.6c0-1.5,1.4-2.8,3.2-2.8h2.5
		c1.7,0,3.2,1.3,3.2,2.8V12H11.7z"/>
</g>
</svg>
