<?xml version="1.0" encoding="utf-8"?>
<!-- Generator: Adobe Illustrator 24.1.1, SVG Export Plug-In . SVG Version: 6.00 Build 0)  -->
<svg version="1.1" id="Слой_1" xmlns="http://www.w3.org/2000/svg" xmlns:xlink="http://www.w3.org/1999/xlink" x="0px" y="0px"
	 width="13px" height="11px" viewBox="0 0 13 11" style="enable-background:new 0 0 13 11;" xml:space="preserve">
<style type="text/css">
	.st0{fill:#007EC2;}
	.st1{fill:#FFFFFF;}
</style>
<path class="st0" d="M12.716,1.723c-0.152-0.678-0.59-1.207-1.152-1.39C10.555,0,6.492,0,6.492,0S2.428,0.01,1.419,0.342
	c-0.561,0.184-1,0.713-1.152,1.39C0,2.951,0,5.5,0,5.5s0,2.549,0.275,3.777c0.153,0.678,0.591,1.206,1.152,1.39
	C2.436,11,6.5,11,6.5,11s4.064,0,5.073-0.332c0.561-0.184,0.999-0.713,1.152-1.39C13,8.059,13,5.5,13,5.5S12.992,2.951,12.716,1.723
	z"/>
<path class="st1" d="M5.2,7.3c1.1-0.6,2.3-1.1,3.5-1.8C7.5,4.9,6.3,4.4,5.2,3.7C5.2,5,5.2,6.1,5.2,7.3z"/>
</svg>
